<svg width="600" height="200" viewBox="0 0 600 200" fill="none" xmlns="http://www.w3.org/2000/svg">
<rect width="600" height="200" fill="#0F1C2E"/>
<path d="M22.0189 82.3178C28.9924 70.2974 39.6918 63.5178 53.1814 61.0884C72.3431 57.6374 89.4421 62.4755 104.511 74.4311C107.121 76.5017 109.497 78.8112 111.751 81.2448C112.138 81.6629 112.546 82 112.684 82.8805C108.881 83.0893 105.156 83.4191 101.633 81.6816C100.727 81.0909 100.117 80.2046 99.4306 79.4037C92.4944 71.3131 83.9815 65.6142 73.3712 63.2329C65.8324 61.541 58.2547 61.5678 50.861 63.9104C39.5355 67.4988 32.7593 75.335 29.8059 86.4322C24.232 107.376 36.8099 128.986 57.838 134.105C69.501 136.944 80.2667 134.318 89.8796 127.294C96.1352 122.724 101.095 116.955 105.599 110.779C111.122 103.205 116.134 95.262 122.586 88.3606C134.154 75.9887 147.741 66.7222 164.597 62.6964C178.032 59.4875 190.727 61.0909 203.216 67.4182C205.35 68.5457 205.472 68.5665 204.364 70.7273C203.595 72.2267 202.909 73.8182 202.015 75.1985C201.273 75.1985 200.906 74.7145 200.546 74.3636C192.992 67.0079 183.881 63.8625 173.323 63.9301C161.746 64.0043 152.333 68.8328 144.036 76.2684C136.689 82.8539 131.081 90.8218 125.464 98.7684C119.491 107.218 113.26 115.438 105.09 122.033C93.2755 131.57 79.9354 137.556 64.3973 137.29C49.5462 137.035 36.4676 132.173 26.5176 120.885C21.6201 115.329 18.9567 108.781 18.1761 101.451C17.4575 94.7042 18.9775 88.4447 22.0189 82.3178Z" fill="#EDEAE2"/>
<path d="M147.701 126.268C156.833 134.597 167.727 138.017 179.841 137.922C187.608 137.862 194.922 136.175 200.928 130.832C202.345 129.571 203.455 128.182 204.762 126.702C207.67 129.192 207.675 132.163 204.841 134.404C201.617 136.952 197.76 138.107 193.794 138.771C175.879 141.771 158.834 139.426 143.132 130.114C136.127 125.96 130.586 120.35 127.525 112.678C126.363 109.767 126.115 106.763 126.145 103.684C126.157 102.412 126.941 102.456 127.807 102.427C131.455 102.305 135.11 102.269 138.75 102.033C155.638 100.938 172.5 99.5917 189.142 96.3828C190.94 96.0362 192.711 95.5586 194.654 95.1044C194.843 97.3407 194.29 99.3325 194.01 101.343C193.557 104.597 193.05 107.845 192.586 111.098C192.491 111.768 192.455 112.446 191.508 112.38C190.555 112.313 190.628 111.582 190.605 110.941C190.584 110.353 190.606 109.765 190.586 109.177C190.49 106.42 189.41 105.011 186.736 104.087C184.271 103.235 181.668 103.083 179.125 103.001C170.627 102.726 162.118 103.149 153.64 103.482C148.797 103.656 143.954 103.848 139.109 103.933C137.654 103.959 137.074 104.386 137.175 105.874C137.568 111.705 139.977 116.748 143.341 121.429C144.586 123.162 146.02 124.742 147.701 126.268Z" fill="#EDEAE2"/>
<line x1="220.75" y1="132" x2="220.75" y2="72" stroke="#EDEAE2" stroke-width="0.5"/>
<path d="M250.327 92.236C250.935 92.236 251.495 92.268 252.007 92.332C252.535 92.38 253.023 92.468 253.471 92.596C253.935 92.724 254.375 92.892 254.791 93.1C254.919 93.148 254.991 93.204 255.007 93.268C255.039 93.316 255.063 93.436 255.079 93.628L255.391 96.652C255.391 96.684 255.343 96.716 255.247 96.748C255.167 96.764 255.119 96.74 255.103 96.676C254.703 95.348 254.095 94.348 253.279 93.676C252.463 92.988 251.423 92.644 250.159 92.644C248.879 92.644 247.759 92.94 246.799 93.532C245.839 94.124 245.087 94.964 244.543 96.052C243.999 97.124 243.727 98.396 243.727 99.868C243.727 100.956 243.895 101.956 244.231 102.868C244.567 103.78 245.031 104.58 245.623 105.268C246.231 105.94 246.927 106.46 247.711 106.828C248.511 107.196 249.367 107.38 250.279 107.38C251.559 107.38 252.591 107.06 253.375 106.42C254.175 105.78 254.815 104.804 255.295 103.492C255.327 103.444 255.383 103.428 255.463 103.444C255.543 103.46 255.583 103.492 255.583 103.54L255.319 106.276C255.303 106.468 255.271 106.588 255.223 106.636C255.191 106.684 255.119 106.74 255.007 106.804C254.191 107.172 253.407 107.428 252.655 107.572C251.919 107.732 251.127 107.812 250.279 107.812C248.583 107.812 247.071 107.484 245.743 106.828C244.431 106.156 243.399 105.236 242.647 104.068C241.895 102.884 241.519 101.516 241.519 99.964C241.519 98.812 241.735 97.764 242.167 96.82C242.615 95.876 243.239 95.06 244.039 94.372C244.839 93.684 245.767 93.156 246.823 92.788C247.895 92.42 249.063 92.236 250.327 92.236ZM274.392 95.515C274.392 94.7317 274.212 94.1363 273.851 93.729C273.507 93.306 272.99 93.0945 272.3 93.0945C272.253 93.0945 272.23 93.0475 272.23 92.9535C272.23 92.8595 272.253 92.8125 272.3 92.8125C272.661 92.8125 273.037 92.8282 273.428 92.8595C273.82 92.8752 274.243 92.883 274.697 92.883C275.089 92.883 275.473 92.8752 275.849 92.8595C276.24 92.8282 276.601 92.8125 276.93 92.8125C276.961 92.8125 276.977 92.8595 276.977 92.9535C276.977 93.0475 276.961 93.0945 276.93 93.0945C276.303 93.0945 275.825 93.306 275.496 93.729C275.183 94.1363 275.026 94.7317 275.026 95.515V102.165C275.026 103.34 274.791 104.351 274.321 105.197C273.851 106.043 273.193 106.693 272.347 107.147C271.501 107.586 270.514 107.806 269.386 107.806C268.227 107.806 267.209 107.586 266.331 107.147C265.454 106.693 264.772 106.051 264.287 105.22C263.801 104.39 263.558 103.403 263.558 102.259V94.716C263.558 94.2617 263.511 93.9248 263.417 93.7055C263.323 93.4705 263.135 93.3138 262.853 93.2355C262.587 93.1415 262.187 93.0945 261.655 93.0945C261.608 93.0945 261.584 93.0475 261.584 92.9535C261.584 92.8595 261.608 92.8125 261.655 92.8125C262.046 92.8125 262.477 92.8282 262.947 92.8595C263.417 92.8752 263.926 92.883 264.475 92.883C265.039 92.883 265.556 92.8752 266.026 92.8595C266.511 92.8282 266.934 92.8125 267.295 92.8125C267.342 92.8125 267.365 92.8595 267.365 92.9535C267.365 93.0475 267.342 93.0945 267.295 93.0945C266.762 93.0945 266.355 93.1415 266.073 93.2355C265.806 93.3295 265.626 93.494 265.532 93.729C265.454 93.964 265.415 94.3087 265.415 94.763V101.437C265.415 103.317 265.822 104.727 266.637 105.667C267.451 106.591 268.579 107.053 270.021 107.053C271.399 107.053 272.473 106.63 273.24 105.784C274.008 104.923 274.392 103.724 274.392 102.189V95.515ZM294.348 107.5C294.097 107.5 293.682 107.202 293.102 106.607C292.538 105.996 291.857 105.134 291.058 104.022C290.259 102.894 289.358 101.554 288.355 100.003L289.93 99.51C291.246 101.406 292.358 102.917 293.267 104.046C294.191 105.173 295.006 105.988 295.711 106.489C296.416 106.975 297.089 107.218 297.732 107.218C297.779 107.218 297.802 107.265 297.802 107.359C297.802 107.453 297.779 107.5 297.732 107.5C296.854 107.5 296.134 107.5 295.57 107.5C295.021 107.5 294.614 107.5 294.348 107.5ZM288.708 92.742C290.024 92.742 291.026 93.024 291.716 93.588C292.421 94.1363 292.773 94.8727 292.773 95.797C292.773 96.6743 292.523 97.4577 292.021 98.147C291.52 98.8363 290.862 99.3768 290.047 99.7685C289.248 100.16 288.387 100.356 287.462 100.356C287.274 100.356 287.078 100.356 286.875 100.356C286.671 100.34 286.483 100.325 286.311 100.309V105.596C286.311 106.051 286.35 106.395 286.428 106.63C286.522 106.865 286.702 107.022 286.969 107.1C287.251 107.179 287.666 107.218 288.214 107.218C288.261 107.218 288.285 107.265 288.285 107.359C288.285 107.453 288.261 107.5 288.214 107.5C287.823 107.5 287.392 107.492 286.922 107.476C286.452 107.461 285.935 107.453 285.371 107.453C284.838 107.453 284.329 107.461 283.843 107.476C283.358 107.492 282.919 107.5 282.527 107.5C282.48 107.5 282.457 107.453 282.457 107.359C282.457 107.265 282.48 107.218 282.527 107.218C283.06 107.218 283.459 107.179 283.726 107.1C284.008 107.022 284.196 106.865 284.29 106.63C284.399 106.395 284.454 106.051 284.454 105.596V94.716C284.454 94.2617 284.407 93.9248 284.313 93.7055C284.219 93.4705 284.039 93.3138 283.773 93.2355C283.506 93.1415 283.099 93.0945 282.551 93.0945C282.519 93.0945 282.504 93.0475 282.504 92.9535C282.504 92.8595 282.519 92.8125 282.551 92.8125C282.942 92.8125 283.373 92.8282 283.843 92.8595C284.329 92.8752 284.838 92.883 285.371 92.883C285.872 92.883 286.436 92.8595 287.063 92.8125C287.689 92.7655 288.238 92.742 288.708 92.742ZM290.846 96.549C290.846 95.6717 290.729 94.9902 290.494 94.5045C290.259 94.0032 289.922 93.6507 289.483 93.447C289.06 93.2433 288.559 93.1415 287.979 93.1415C287.384 93.1415 286.953 93.2512 286.687 93.4705C286.436 93.6742 286.311 94.105 286.311 94.763V99.7215C286.53 99.7372 286.765 99.7528 287.016 99.7685C287.282 99.7842 287.509 99.792 287.697 99.792C288.857 99.792 289.671 99.5257 290.141 98.993C290.611 98.4603 290.846 97.6457 290.846 96.549ZM306.019 101.366L306.301 100.849H312.693L312.858 101.366H306.019ZM318.169 107.218C318.247 107.218 318.286 107.265 318.286 107.359C318.286 107.453 318.247 107.5 318.169 107.5C317.715 107.5 317.245 107.484 316.759 107.453C316.289 107.422 315.827 107.406 315.372 107.406C314.871 107.406 314.432 107.422 314.056 107.453C313.696 107.484 313.289 107.5 312.834 107.5C312.772 107.5 312.74 107.453 312.74 107.359C312.74 107.265 312.772 107.218 312.834 107.218C313.602 107.218 314.072 107.1 314.244 106.865C314.417 106.615 314.331 106.129 313.986 105.408L308.933 94.904L309.685 93.776L305.103 104.398C304.696 105.354 304.672 106.066 305.032 106.536C305.393 106.991 306.066 107.218 307.053 107.218C307.132 107.218 307.171 107.265 307.171 107.359C307.171 107.453 307.132 107.5 307.053 107.5C306.583 107.5 306.153 107.484 305.761 107.453C305.369 107.422 304.876 107.406 304.28 107.406C303.701 107.406 303.231 107.422 302.87 107.453C302.526 107.484 302.103 107.5 301.601 107.5C301.539 107.5 301.507 107.453 301.507 107.359C301.507 107.265 301.539 107.218 301.601 107.218C302.024 107.218 302.393 107.14 302.706 106.983C303.019 106.811 303.317 106.505 303.599 106.066C303.897 105.628 304.218 105.001 304.562 104.186L309.568 92.648C309.584 92.601 309.638 92.5775 309.732 92.5775C309.826 92.5618 309.881 92.5853 309.897 92.648L315.537 104.28C315.913 105.048 316.234 105.651 316.5 106.09C316.782 106.513 317.057 106.811 317.323 106.983C317.589 107.14 317.871 107.218 318.169 107.218ZM325.354 93.2825C324.383 93.2825 323.623 93.5567 323.074 94.105C322.526 94.6377 322.119 95.4993 321.852 96.69C321.837 96.7213 321.782 96.737 321.688 96.737C321.61 96.737 321.57 96.7135 321.57 96.6665C321.602 96.4628 321.633 96.173 321.664 95.797C321.711 95.421 321.751 95.0137 321.782 94.575C321.813 94.1363 321.837 93.7133 321.852 93.306C321.884 92.8987 321.899 92.5618 321.899 92.2955C321.899 92.2172 321.946 92.178 322.04 92.178C322.134 92.178 322.181 92.2172 322.181 92.2955C322.181 92.4522 322.26 92.5697 322.416 92.648C322.573 92.7107 322.753 92.7577 322.957 92.789C323.161 92.8047 323.333 92.8125 323.474 92.8125C324.821 92.8595 326.396 92.883 328.197 92.883C329.294 92.883 330.171 92.8752 330.829 92.8595C331.487 92.8282 332.122 92.8125 332.733 92.8125C333.266 92.8125 333.673 92.7812 333.955 92.7185C334.253 92.6402 334.441 92.4757 334.519 92.225C334.535 92.1623 334.582 92.131 334.66 92.131C334.754 92.131 334.801 92.1623 334.801 92.225C334.77 92.46 334.738 92.789 334.707 93.212C334.691 93.635 334.668 94.0737 334.636 94.528C334.621 94.9823 334.605 95.4053 334.589 95.797C334.574 96.1887 334.566 96.4785 334.566 96.6665C334.566 96.7135 334.519 96.737 334.425 96.737C334.347 96.737 334.307 96.7135 334.307 96.6665C334.198 95.4445 333.884 94.575 333.367 94.058C332.85 93.541 332.083 93.2825 331.064 93.2825C330.516 93.2825 330.101 93.3217 329.819 93.4C329.553 93.4627 329.372 93.5958 329.278 93.7995C329.2 94.0032 329.161 94.3243 329.161 94.763V105.596C329.161 106.051 329.208 106.395 329.302 106.63C329.412 106.865 329.615 107.022 329.913 107.1C330.226 107.179 330.704 107.218 331.346 107.218C331.378 107.218 331.393 107.265 331.393 107.359C331.393 107.453 331.378 107.5 331.346 107.5C330.923 107.5 330.446 107.492 329.913 107.476C329.396 107.461 328.824 107.453 328.197 107.453C327.602 107.453 327.038 107.461 326.505 107.476C325.988 107.492 325.511 107.5 325.072 107.5C325.025 107.5 325.001 107.453 325.001 107.359C325.001 107.265 325.025 107.218 325.072 107.218C325.683 107.218 326.145 107.179 326.458 107.1C326.787 107.022 327.007 106.865 327.116 106.63C327.226 106.395 327.281 106.051 327.281 105.596V94.716C327.281 94.293 327.234 93.9797 327.14 93.776C327.046 93.5567 326.858 93.4235 326.576 93.3765C326.294 93.3138 325.887 93.2825 325.354 93.2825ZM350.774 107.5H340.763C340.716 107.5 340.693 107.453 340.693 107.359C340.693 107.265 340.716 107.218 340.763 107.218C341.296 107.218 341.695 107.179 341.962 107.1C342.244 107.022 342.432 106.865 342.526 106.63C342.62 106.395 342.667 106.051 342.667 105.596V94.716C342.667 94.2617 342.62 93.9248 342.526 93.7055C342.432 93.4705 342.244 93.3138 341.962 93.2355C341.695 93.1415 341.296 93.0945 340.763 93.0945C340.716 93.0945 340.693 93.0475 340.693 92.9535C340.693 92.8595 340.716 92.8125 340.763 92.8125H350.351C350.508 92.8125 350.586 92.883 350.586 93.024L350.633 95.985C350.633 96.032 350.586 96.0633 350.492 96.079C350.414 96.079 350.367 96.0555 350.351 96.0085C350.242 95.1468 349.936 94.4967 349.435 94.058C348.933 93.6037 348.275 93.3765 347.461 93.3765H346.262C345.792 93.3765 345.432 93.4157 345.181 93.494C344.931 93.5723 344.758 93.7212 344.664 93.9405C344.57 94.1442 344.523 94.434 344.523 94.81V105.502C344.523 105.878 344.562 106.176 344.641 106.395C344.735 106.599 344.899 106.748 345.134 106.842C345.369 106.92 345.698 106.959 346.121 106.959H347.672C348.565 106.959 349.302 106.701 349.881 106.184C350.461 105.651 350.86 104.899 351.08 103.928C351.08 103.881 351.127 103.865 351.221 103.881C351.315 103.897 351.362 103.928 351.362 103.975C351.299 104.398 351.244 104.907 351.197 105.502C351.15 106.098 351.127 106.646 351.127 107.147C351.127 107.382 351.009 107.5 350.774 107.5ZM349.458 102.095C349.458 101.421 349.262 100.928 348.871 100.614C348.495 100.285 347.884 100.121 347.038 100.121H343.63V99.5805H347.108C347.907 99.5805 348.495 99.4473 348.871 99.181C349.247 98.899 349.435 98.4682 349.435 97.8885C349.435 97.8572 349.474 97.8415 349.552 97.8415C349.646 97.8415 349.693 97.8572 349.693 97.8885C349.693 98.3742 349.685 98.7502 349.67 99.0165C349.67 99.2828 349.67 99.5648 349.67 99.8625C349.67 100.223 349.678 100.583 349.693 100.943C349.725 101.304 349.74 101.688 349.74 102.095C349.74 102.126 349.693 102.142 349.599 102.142C349.505 102.142 349.458 102.126 349.458 102.095ZM363.887 107.594C363.417 107.594 362.837 107.571 362.148 107.524C361.459 107.476 360.824 107.453 360.245 107.453C359.712 107.453 359.195 107.461 358.694 107.476C358.208 107.492 357.769 107.5 357.378 107.5C357.346 107.5 357.331 107.453 357.331 107.359C357.331 107.265 357.346 107.218 357.378 107.218C357.926 107.218 358.341 107.179 358.623 107.1C358.905 107.022 359.093 106.865 359.187 106.63C359.281 106.395 359.328 106.051 359.328 105.596V94.716C359.328 94.2617 359.281 93.9248 359.187 93.7055C359.093 93.4705 358.905 93.3138 358.623 93.2355C358.357 93.1415 357.957 93.0945 357.425 93.0945C357.378 93.0945 357.354 93.0475 357.354 92.9535C357.354 92.8595 357.378 92.8125 357.425 92.8125C357.816 92.8125 358.247 92.8282 358.717 92.8595C359.203 92.8752 359.712 92.883 360.245 92.883C360.777 92.883 361.349 92.8673 361.96 92.836C362.587 92.789 363.119 92.7655 363.558 92.7655C365.219 92.7655 366.66 93.0788 367.882 93.7055C369.12 94.3322 370.083 95.186 370.773 96.267C371.462 97.348 371.807 98.5622 371.807 99.9095C371.807 101.084 371.595 102.15 371.172 103.105C370.765 104.045 370.193 104.852 369.457 105.526C368.72 106.184 367.874 106.693 366.919 107.053C365.963 107.414 364.952 107.594 363.887 107.594ZM363.652 107.171C364.827 107.171 365.861 106.912 366.754 106.395C367.663 105.878 368.376 105.119 368.893 104.116C369.41 103.098 369.668 101.868 369.668 100.426C369.668 99.0635 369.425 97.8415 368.94 96.7605C368.454 95.6638 367.772 94.7943 366.895 94.152C366.033 93.494 364.999 93.165 363.793 93.165C362.853 93.165 362.179 93.259 361.772 93.447C361.38 93.635 361.185 94.0737 361.185 94.763V105.338C361.185 105.965 361.341 106.427 361.655 106.725C361.968 107.022 362.634 107.171 363.652 107.171ZM397.544 107.5H387.32C387.272 107.5 387.248 107.452 387.248 107.356C387.248 107.26 387.272 107.212 387.32 107.212C387.864 107.212 388.272 107.172 388.544 107.092C388.832 107.012 389.024 106.852 389.12 106.612C389.216 106.372 389.264 106.02 389.264 105.556V94.444C389.264 93.98 389.216 93.636 389.12 93.412C389.024 93.172 388.832 93.012 388.544 92.932C388.272 92.836 387.864 92.788 387.32 92.788C387.272 92.788 387.248 92.74 387.248 92.644C387.248 92.548 387.272 92.5 387.32 92.5H397.112C397.272 92.5 397.352 92.572 397.352 92.716L397.4 95.74C397.4 95.788 397.352 95.82 397.256 95.836C397.176 95.836 397.128 95.812 397.112 95.764C397 94.884 396.688 94.22 396.176 93.772C395.664 93.308 394.992 93.076 394.16 93.076H392.936C392.456 93.076 392.088 93.116 391.832 93.196C391.576 93.276 391.4 93.428 391.304 93.652C391.208 93.86 391.16 94.156 391.16 94.54V105.46C391.16 105.844 391.2 106.148 391.28 106.372C391.376 106.58 391.544 106.732 391.784 106.828C392.024 106.908 392.36 106.948 392.792 106.948H394.376C395.288 106.948 396.04 106.684 396.632 106.156C397.224 105.612 397.632 104.844 397.856 103.852C397.856 103.804 397.904 103.788 398 103.804C398.096 103.82 398.144 103.852 398.144 103.9C398.08 104.332 398.024 104.852 397.976 105.46C397.928 106.068 397.904 106.628 397.904 107.14C397.904 107.38 397.784 107.5 397.544 107.5ZM396.2 101.98C396.2 101.292 396 100.788 395.6 100.468C395.216 100.132 394.592 99.964 393.728 99.964H390.248V99.412H393.8C394.616 99.412 395.216 99.276 395.6 99.004C395.984 98.716 396.176 98.276 396.176 97.684C396.176 97.652 396.216 97.636 396.296 97.636C396.392 97.636 396.44 97.652 396.44 97.684C396.44 98.18 396.432 98.564 396.416 98.836C396.416 99.108 396.416 99.396 396.416 99.7C396.416 100.068 396.424 100.436 396.44 100.804C396.472 101.172 396.488 101.564 396.488 101.98C396.488 102.012 396.44 102.028 396.344 102.028C396.248 102.028 396.2 102.012 396.2 101.98ZM413.131 107.5C413.1 107.5 413.084 107.453 413.084 107.359C413.084 107.265 413.1 107.218 413.131 107.218C413.617 107.218 413.938 107.155 414.095 107.03C414.267 106.905 414.236 106.662 414.001 106.301L406.504 94.857C406.081 94.2147 405.666 93.7603 405.259 93.494C404.867 93.2277 404.42 93.0945 403.919 93.0945C403.888 93.0945 403.872 93.0475 403.872 92.9535C403.872 92.8595 403.888 92.8125 403.919 92.8125C404.217 92.8125 404.53 92.8282 404.859 92.8595C405.188 92.8752 405.494 92.883 405.776 92.883C406.418 92.883 407.013 92.8752 407.562 92.8595C408.11 92.8282 408.588 92.8125 408.995 92.8125C409.042 92.8125 409.066 92.8595 409.066 92.9535C409.066 93.0475 409.042 93.0945 408.995 93.0945C408.509 93.0945 408.18 93.1572 408.008 93.2825C407.851 93.4078 407.891 93.6585 408.126 94.0345L415.693 105.549C416.1 106.16 416.515 106.591 416.938 106.842C417.361 107.093 417.878 107.218 418.489 107.218C418.52 107.218 418.536 107.265 418.536 107.359C418.536 107.453 418.52 107.5 418.489 107.5C418.16 107.5 417.8 107.492 417.408 107.476C417.016 107.461 416.601 107.453 416.163 107.453C415.52 107.453 414.956 107.461 414.471 107.476C414.001 107.492 413.554 107.5 413.131 107.5ZM403.802 107.5C403.755 107.5 403.731 107.453 403.731 107.359C403.731 107.265 403.755 107.218 403.802 107.218C404.303 107.218 404.851 107.022 405.447 106.63C406.042 106.239 406.645 105.62 407.256 104.774L410.593 100.215L410.922 100.473L407.844 104.821C407.295 105.573 407.076 106.16 407.186 106.583C407.311 107.006 407.75 107.218 408.502 107.218C408.549 107.218 408.572 107.265 408.572 107.359C408.572 107.453 408.549 107.5 408.502 107.5C408.079 107.5 407.671 107.492 407.28 107.476C406.888 107.461 406.379 107.453 405.752 107.453C405.329 107.453 404.992 107.461 404.742 107.476C404.491 107.492 404.178 107.5 403.802 107.5ZM411.322 100.121L410.993 99.8625L413.977 95.609C414.541 94.81 414.768 94.1912 414.659 93.7525C414.565 93.3138 414.149 93.0945 413.413 93.0945C413.366 93.0945 413.343 93.0475 413.343 92.9535C413.343 92.8595 413.366 92.8125 413.413 92.8125C413.836 92.8125 414.243 92.8282 414.635 92.8595C415.027 92.8752 415.536 92.883 416.163 92.883C416.586 92.883 416.922 92.8752 417.173 92.8595C417.424 92.8282 417.729 92.8125 418.09 92.8125C418.137 92.8125 418.16 92.8595 418.16 92.9535C418.16 93.0475 418.137 93.0945 418.09 93.0945C417.604 93.0945 417.056 93.306 416.445 93.729C415.834 94.152 415.207 94.8022 414.565 95.6795L411.322 100.121ZM427.593 105.502C427.593 105.972 427.648 106.333 427.757 106.583C427.883 106.818 428.133 106.983 428.509 107.077C428.885 107.171 429.449 107.218 430.201 107.218C430.248 107.218 430.272 107.265 430.272 107.359C430.272 107.453 430.248 107.5 430.201 107.5C429.7 107.5 429.152 107.492 428.556 107.476C427.977 107.461 427.342 107.453 426.653 107.453C426.136 107.453 425.627 107.461 425.125 107.476C424.64 107.492 424.201 107.5 423.809 107.5C423.778 107.5 423.762 107.453 423.762 107.359C423.762 107.265 423.778 107.218 423.809 107.218C424.358 107.218 424.765 107.179 425.031 107.1C425.313 107.022 425.493 106.865 425.572 106.63C425.666 106.395 425.713 106.051 425.713 105.596V94.716C425.713 94.2617 425.666 93.9248 425.572 93.7055C425.493 93.4705 425.313 93.3138 425.031 93.2355C424.765 93.1415 424.358 93.0945 423.809 93.0945C423.778 93.0945 423.762 93.0475 423.762 92.9535C423.762 92.8595 423.778 92.8125 423.809 92.8125C424.201 92.8125 424.64 92.8282 425.125 92.8595C425.611 92.8752 426.112 92.883 426.629 92.883C427.037 92.883 427.53 92.8595 428.11 92.8125C428.705 92.7655 429.3 92.742 429.896 92.742C430.804 92.742 431.619 92.8752 432.34 93.1415C433.076 93.4078 433.664 93.823 434.102 94.387C434.541 94.951 434.768 95.6873 434.784 96.596C434.784 97.4107 434.635 98.1157 434.337 98.711C434.04 99.3063 433.632 99.7998 433.115 100.191C432.614 100.583 432.05 100.873 431.423 101.061C430.812 101.249 430.209 101.343 429.614 101.343C429.426 101.343 429.23 101.335 429.026 101.319C428.838 101.304 428.658 101.272 428.486 101.225C428.423 101.21 428.4 101.155 428.415 101.061C428.447 100.951 428.486 100.904 428.533 100.92C428.674 100.951 428.815 100.975 428.956 100.99C429.112 101.006 429.246 101.014 429.355 101.014C429.951 101.014 430.499 100.873 431 100.591C431.502 100.309 431.909 99.8782 432.222 99.2985C432.536 98.7032 432.692 97.9668 432.692 97.0895C432.692 96.2435 432.543 95.5307 432.246 94.951C431.964 94.3713 431.564 93.9248 431.047 93.6115C430.53 93.2982 429.935 93.1415 429.261 93.1415C428.823 93.1415 428.478 93.1728 428.227 93.2355C427.992 93.2982 427.828 93.447 427.734 93.682C427.64 93.917 427.593 94.2773 427.593 94.763V105.502ZM450.855 107.5H440.844C440.797 107.5 440.774 107.453 440.774 107.359C440.774 107.265 440.797 107.218 440.844 107.218C441.377 107.218 441.777 107.179 442.043 107.1C442.325 107.022 442.513 106.865 442.607 106.63C442.701 106.395 442.748 106.051 442.748 105.596V94.716C442.748 94.2617 442.701 93.9248 442.607 93.7055C442.513 93.4705 442.325 93.3138 442.043 93.2355C441.777 93.1415 441.377 93.0945 440.844 93.0945C440.797 93.0945 440.774 93.0475 440.774 92.9535C440.774 92.8595 440.797 92.8125 440.844 92.8125H450.432C450.589 92.8125 450.667 92.883 450.667 93.024L450.714 95.985C450.714 96.032 450.667 96.0633 450.573 96.079C450.495 96.079 450.448 96.0555 450.432 96.0085C450.323 95.1468 450.017 94.4967 449.516 94.058C449.015 93.6037 448.357 93.3765 447.542 93.3765H446.343C445.873 93.3765 445.513 93.4157 445.262 93.494C445.012 93.5723 444.839 93.7212 444.745 93.9405C444.651 94.1442 444.604 94.434 444.604 94.81V105.502C444.604 105.878 444.644 106.176 444.722 106.395C444.816 106.599 444.98 106.748 445.215 106.842C445.45 106.92 445.779 106.959 446.202 106.959H447.753C448.646 106.959 449.383 106.701 449.962 106.184C450.542 105.651 450.942 104.899 451.161 103.928C451.161 103.881 451.208 103.865 451.302 103.881C451.396 103.897 451.443 103.928 451.443 103.975C451.38 104.398 451.325 104.907 451.278 105.502C451.231 106.098 451.208 106.646 451.208 107.147C451.208 107.382 451.09 107.5 450.855 107.5ZM449.539 102.095C449.539 101.421 449.344 100.928 448.952 100.614C448.576 100.285 447.965 100.121 447.119 100.121H443.711V99.5805H447.189C447.988 99.5805 448.576 99.4473 448.952 99.181C449.328 98.899 449.516 98.4682 449.516 97.8885C449.516 97.8572 449.555 97.8415 449.633 97.8415C449.727 97.8415 449.774 97.8572 449.774 97.8885C449.774 98.3742 449.767 98.7502 449.751 99.0165C449.751 99.2828 449.751 99.5648 449.751 99.8625C449.751 100.223 449.759 100.583 449.774 100.943C449.806 101.304 449.821 101.688 449.821 102.095C449.821 102.126 449.774 102.142 449.68 102.142C449.586 102.142 449.539 102.126 449.539 102.095ZM469.514 107.5C469.264 107.5 468.848 107.202 468.269 106.607C467.705 105.996 467.023 105.134 466.224 104.022C465.425 102.894 464.524 101.554 463.522 100.003L465.096 99.51C466.412 101.406 467.525 102.917 468.433 104.046C469.358 105.173 470.172 105.988 470.877 106.489C471.582 106.975 472.256 107.218 472.898 107.218C472.945 107.218 472.969 107.265 472.969 107.359C472.969 107.453 472.945 107.5 472.898 107.5C472.021 107.5 471.3 107.5 470.736 107.5C470.188 107.5 469.781 107.5 469.514 107.5ZM463.874 92.742C465.19 92.742 466.193 93.024 466.882 93.588C467.587 94.1363 467.94 94.8727 467.94 95.797C467.94 96.6743 467.689 97.4577 467.188 98.147C466.686 98.8363 466.028 99.3768 465.214 99.7685C464.415 100.16 463.553 100.356 462.629 100.356C462.441 100.356 462.245 100.356 462.041 100.356C461.838 100.34 461.65 100.325 461.477 100.309V105.596C461.477 106.051 461.516 106.395 461.595 106.63C461.689 106.865 461.869 107.022 462.135 107.1C462.417 107.179 462.832 107.218 463.381 107.218C463.428 107.218 463.451 107.265 463.451 107.359C463.451 107.453 463.428 107.5 463.381 107.5C462.989 107.5 462.558 107.492 462.088 107.476C461.618 107.461 461.101 107.453 460.537 107.453C460.005 107.453 459.495 107.461 459.01 107.476C458.524 107.492 458.085 107.5 457.694 107.5C457.647 107.5 457.623 107.453 457.623 107.359C457.623 107.265 457.647 107.218 457.694 107.218C458.226 107.218 458.626 107.179 458.892 107.1C459.174 107.022 459.362 106.865 459.456 106.63C459.566 106.395 459.621 106.051 459.621 105.596V94.716C459.621 94.2617 459.574 93.9248 459.48 93.7055C459.386 93.4705 459.206 93.3138 458.939 93.2355C458.673 93.1415 458.266 93.0945 457.717 93.0945C457.686 93.0945 457.67 93.0475 457.67 92.9535C457.67 92.8595 457.686 92.8125 457.717 92.8125C458.109 92.8125 458.54 92.8282 459.01 92.8595C459.495 92.8752 460.005 92.883 460.537 92.883C461.039 92.883 461.603 92.8595 462.229 92.8125C462.856 92.7655 463.404 92.742 463.874 92.742ZM466.013 96.549C466.013 95.6717 465.895 94.9902 465.66 94.5045C465.425 94.0032 465.088 93.6507 464.65 93.447C464.227 93.2433 463.725 93.1415 463.146 93.1415C462.55 93.1415 462.12 93.2512 461.853 93.4705C461.603 93.6742 461.477 94.105 461.477 94.763V99.7215C461.697 99.7372 461.932 99.7528 462.182 99.7685C462.449 99.7842 462.676 99.792 462.864 99.792C464.023 99.792 464.838 99.5257 465.308 98.993C465.778 98.4603 466.013 97.6457 466.013 96.549ZM481.679 105.596C481.679 106.051 481.718 106.395 481.797 106.63C481.891 106.865 482.071 107.022 482.337 107.1C482.619 107.179 483.034 107.218 483.583 107.218C483.614 107.218 483.63 107.265 483.63 107.359C483.63 107.453 483.614 107.5 483.583 107.5C483.191 107.5 482.752 107.492 482.267 107.476C481.797 107.461 481.28 107.453 480.716 107.453C480.167 107.453 479.65 107.461 479.165 107.476C478.679 107.492 478.24 107.5 477.849 107.5C477.817 107.5 477.802 107.453 477.802 107.359C477.802 107.265 477.817 107.218 477.849 107.218C478.397 107.218 478.812 107.179 479.094 107.1C479.376 107.022 479.564 106.865 479.658 106.63C479.752 106.395 479.799 106.051 479.799 105.596V94.716C479.799 94.2617 479.752 93.9248 479.658 93.7055C479.564 93.4705 479.376 93.3138 479.094 93.2355C478.812 93.1415 478.397 93.0945 477.849 93.0945C477.817 93.0945 477.802 93.0475 477.802 92.9535C477.802 92.8595 477.817 92.8125 477.849 92.8125C478.24 92.8125 478.679 92.8282 479.165 92.8595C479.65 92.8752 480.167 92.883 480.716 92.883C481.28 92.883 481.805 92.8752 482.29 92.8595C482.776 92.8282 483.207 92.8125 483.583 92.8125C483.614 92.8125 483.63 92.8595 483.63 92.9535C483.63 93.0475 483.614 93.0945 483.583 93.0945C483.034 93.0945 482.627 93.1415 482.361 93.2355C482.094 93.3295 481.914 93.494 481.82 93.729C481.726 93.964 481.679 94.3087 481.679 94.763V105.596ZM499.797 107.5H489.786C489.739 107.5 489.715 107.453 489.715 107.359C489.715 107.265 489.739 107.218 489.786 107.218C490.319 107.218 490.718 107.179 490.984 107.1C491.266 107.022 491.454 106.865 491.548 106.63C491.642 106.395 491.689 106.051 491.689 105.596V94.716C491.689 94.2617 491.642 93.9248 491.548 93.7055C491.454 93.4705 491.266 93.3138 490.984 93.2355C490.718 93.1415 490.319 93.0945 489.786 93.0945C489.739 93.0945 489.715 93.0475 489.715 92.9535C489.715 92.8595 489.739 92.8125 489.786 92.8125H499.374C499.531 92.8125 499.609 92.883 499.609 93.024L499.656 95.985C499.656 96.032 499.609 96.0633 499.515 96.079C499.437 96.079 499.39 96.0555 499.374 96.0085C499.264 95.1468 498.959 94.4967 498.457 94.058C497.956 93.6037 497.298 93.3765 496.483 93.3765H495.285C494.815 93.3765 494.455 93.4157 494.204 93.494C493.953 93.5723 493.781 93.7212 493.687 93.9405C493.593 94.1442 493.546 94.434 493.546 94.81V105.502C493.546 105.878 493.585 106.176 493.663 106.395C493.757 106.599 493.922 106.748 494.157 106.842C494.392 106.92 494.721 106.959 495.144 106.959H496.695C497.588 106.959 498.324 106.701 498.904 106.184C499.484 105.651 499.883 104.899 500.102 103.928C500.102 103.881 500.149 103.865 500.243 103.881C500.337 103.897 500.384 103.928 500.384 103.975C500.322 104.398 500.267 104.907 500.22 105.502C500.173 106.098 500.149 106.646 500.149 107.147C500.149 107.382 500.032 107.5 499.797 107.5ZM498.481 102.095C498.481 101.421 498.285 100.928 497.893 100.614C497.517 100.285 496.906 100.121 496.06 100.121H492.653V99.5805H496.131C496.93 99.5805 497.517 99.4473 497.893 99.181C498.269 98.899 498.457 98.4682 498.457 97.8885C498.457 97.8572 498.497 97.8415 498.575 97.8415C498.669 97.8415 498.716 97.8572 498.716 97.8885C498.716 98.3742 498.708 98.7502 498.692 99.0165C498.692 99.2828 498.692 99.5648 498.692 99.8625C498.692 100.223 498.7 100.583 498.716 100.943C498.747 101.304 498.763 101.688 498.763 102.095C498.763 102.126 498.716 102.142 498.622 102.142C498.528 102.142 498.481 102.126 498.481 102.095ZM508.492 104.821V93.353L509.103 93.4V104.821C509.103 105.636 509.252 106.239 509.549 106.63C509.847 107.022 510.317 107.218 510.959 107.218C510.991 107.218 511.006 107.265 511.006 107.359C511.006 107.453 510.991 107.5 510.959 107.5C510.63 107.5 510.293 107.492 509.949 107.476C509.62 107.461 509.244 107.453 508.821 107.453C508.413 107.453 508.014 107.461 507.622 107.476C507.231 107.492 506.862 107.5 506.518 107.5C506.486 107.5 506.471 107.453 506.471 107.359C506.471 107.265 506.486 107.218 506.518 107.218C507.207 107.218 507.708 107.022 508.022 106.63C508.335 106.239 508.492 105.636 508.492 104.821ZM520.383 107.806C520.383 107.837 520.344 107.853 520.265 107.853C520.203 107.868 520.156 107.868 520.124 107.853L509.056 94.7395C508.507 94.0972 508.03 93.6663 507.622 93.447C507.231 93.212 506.839 93.0945 506.447 93.0945C506.416 93.0945 506.4 93.0475 506.4 92.9535C506.4 92.8595 506.416 92.8125 506.447 92.8125C506.745 92.8125 507.043 92.8203 507.34 92.836C507.638 92.8517 507.912 92.8595 508.163 92.8595C508.539 92.8595 508.883 92.8517 509.197 92.836C509.51 92.8203 509.745 92.8125 509.902 92.8125C510.105 92.8125 510.254 92.9065 510.348 93.0945C510.442 93.2668 510.669 93.5802 511.03 94.0345L520.195 105.079L520.383 107.806ZM520.383 95.515V107.806L519.795 107.077V95.515C519.795 94.7003 519.646 94.0972 519.349 93.7055C519.067 93.2982 518.605 93.0945 517.962 93.0945C517.931 93.0945 517.915 93.0475 517.915 92.9535C517.915 92.8595 517.931 92.8125 517.962 92.8125C518.291 92.8125 518.628 92.8282 518.973 92.8595C519.317 92.8752 519.693 92.883 520.101 92.883C520.492 92.883 520.876 92.8752 521.252 92.8595C521.628 92.8282 521.981 92.8125 522.31 92.8125C522.341 92.8125 522.357 92.8595 522.357 92.9535C522.357 93.0475 522.341 93.0945 522.31 93.0945C521.652 93.0945 521.166 93.2982 520.853 93.7055C520.539 94.0972 520.383 94.7003 520.383 95.515ZM536.679 92.554C537.275 92.554 537.823 92.5853 538.324 92.648C538.841 92.695 539.319 92.7812 539.758 92.9065C540.212 93.0318 540.643 93.1963 541.05 93.4C541.176 93.447 541.246 93.5018 541.262 93.5645C541.293 93.6115 541.317 93.729 541.332 93.917L541.638 96.878C541.638 96.9093 541.591 96.9407 541.497 96.972C541.418 96.9877 541.371 96.9642 541.356 96.9015C540.964 95.6012 540.369 94.622 539.57 93.964C538.771 93.2903 537.752 92.9535 536.515 92.9535C535.261 92.9535 534.165 93.2433 533.225 93.823C532.285 94.4027 531.548 95.2252 531.016 96.2905C530.483 97.3402 530.217 98.5857 530.217 100.027C530.217 101.092 530.381 102.071 530.71 102.964C531.039 103.857 531.494 104.641 532.073 105.314C532.669 105.972 533.35 106.482 534.118 106.842C534.901 107.202 535.739 107.382 536.632 107.382C537.886 107.382 538.896 107.069 539.664 106.442C540.447 105.816 541.074 104.86 541.544 103.575C541.575 103.528 541.63 103.513 541.708 103.528C541.787 103.544 541.826 103.575 541.826 103.622L541.567 106.301C541.552 106.489 541.52 106.607 541.473 106.654C541.442 106.701 541.371 106.756 541.262 106.818C540.463 107.179 539.695 107.429 538.959 107.571C538.238 107.727 537.463 107.806 536.632 107.806C534.972 107.806 533.491 107.484 532.191 106.842C530.906 106.184 529.896 105.283 529.159 104.139C528.423 102.98 528.055 101.641 528.055 100.121C528.055 98.993 528.266 97.9668 528.689 97.0425C529.128 96.1182 529.739 95.3192 530.522 94.6455C531.306 93.9718 532.214 93.4548 533.248 93.0945C534.298 92.7342 535.442 92.554 536.679 92.554ZM558.102 107.5H548.091C548.044 107.5 548.02 107.453 548.02 107.359C548.02 107.265 548.044 107.218 548.091 107.218C548.623 107.218 549.023 107.179 549.289 107.1C549.571 107.022 549.759 106.865 549.853 106.63C549.947 106.395 549.994 106.051 549.994 105.596V94.716C549.994 94.2617 549.947 93.9248 549.853 93.7055C549.759 93.4705 549.571 93.3138 549.289 93.2355C549.023 93.1415 548.623 93.0945 548.091 93.0945C548.044 93.0945 548.02 93.0475 548.02 92.9535C548.02 92.8595 548.044 92.8125 548.091 92.8125H557.679C557.835 92.8125 557.914 92.883 557.914 93.024L557.961 95.985C557.961 96.032 557.914 96.0633 557.82 96.079C557.741 96.079 557.694 96.0555 557.679 96.0085C557.569 95.1468 557.264 94.4967 556.762 94.058C556.261 93.6037 555.603 93.3765 554.788 93.3765H553.59C553.12 93.3765 552.759 93.4157 552.509 93.494C552.258 93.5723 552.086 93.7212 551.992 93.9405C551.898 94.1442 551.851 94.434 551.851 94.81V105.502C551.851 105.878 551.89 106.176 551.968 106.395C552.062 106.599 552.227 106.748 552.462 106.842C552.697 106.92 553.026 106.959 553.449 106.959H555C555.893 106.959 556.629 106.701 557.209 106.184C557.788 105.651 558.188 104.899 558.407 103.928C558.407 103.881 558.454 103.865 558.548 103.881C558.642 103.897 558.689 103.928 558.689 103.975C558.627 104.398 558.572 104.907 558.525 105.502C558.478 106.098 558.454 106.646 558.454 107.147C558.454 107.382 558.337 107.5 558.102 107.5ZM556.786 102.095C556.786 101.421 556.59 100.928 556.198 100.614C555.822 100.285 555.211 100.121 554.365 100.121H550.958V99.5805H554.436C555.235 99.5805 555.822 99.4473 556.198 99.181C556.574 98.899 556.762 98.4682 556.762 97.8885C556.762 97.8572 556.801 97.8415 556.88 97.8415C556.974 97.8415 557.021 97.8572 557.021 97.8885C557.021 98.3742 557.013 98.7502 556.997 99.0165C556.997 99.2828 556.997 99.5648 556.997 99.8625C556.997 100.223 557.005 100.583 557.021 100.943C557.052 101.304 557.068 101.688 557.068 102.095C557.068 102.126 557.021 102.142 556.927 102.142C556.833 102.142 556.786 102.126 556.786 102.095ZM567.549 95.4445C567.549 96.0712 567.705 96.6117 568.019 97.066C568.332 97.5203 568.739 97.9277 569.241 98.288C569.742 98.6327 570.275 98.9773 570.839 99.322C571.418 99.6667 571.974 100.035 572.507 100.426C573.055 100.818 573.502 101.28 573.847 101.813C574.207 102.33 574.387 102.964 574.387 103.716C574.387 104.484 574.183 105.173 573.776 105.784C573.384 106.395 572.82 106.881 572.084 107.241C571.363 107.602 570.494 107.782 569.476 107.782C569.068 107.782 568.653 107.743 568.23 107.665C567.823 107.602 567.431 107.508 567.055 107.382C566.679 107.257 566.334 107.1 566.021 106.912C565.958 106.865 565.904 106.811 565.857 106.748C565.825 106.685 565.81 106.591 565.81 106.466L565.575 103.105C565.559 103.027 565.59 102.988 565.669 102.988C565.763 102.972 565.817 102.996 565.833 103.058C565.974 103.544 566.162 104.038 566.397 104.539C566.632 105.04 566.914 105.502 567.243 105.925C567.572 106.333 567.964 106.67 568.418 106.936C568.888 107.202 569.429 107.335 570.04 107.335C570.463 107.335 570.87 107.257 571.262 107.1C571.669 106.944 571.998 106.685 572.249 106.325C572.499 105.949 572.625 105.432 572.625 104.774C572.625 104.022 572.46 103.387 572.131 102.87C571.802 102.353 571.379 101.907 570.862 101.531C570.345 101.155 569.797 100.795 569.217 100.45C568.669 100.105 568.136 99.745 567.619 99.369C567.118 98.993 566.71 98.5622 566.397 98.0765C566.084 97.5752 565.927 96.972 565.927 96.267C565.927 95.421 566.146 94.7238 566.585 94.1755C567.039 93.6272 567.611 93.2198 568.301 92.9535C569.006 92.6872 569.726 92.554 570.463 92.554C570.948 92.554 571.442 92.601 571.943 92.695C572.444 92.789 572.899 92.9222 573.306 93.0945C573.447 93.1572 573.541 93.2277 573.588 93.306C573.635 93.3687 573.659 93.4392 573.659 93.5175L573.776 96.455C573.776 96.502 573.737 96.5333 573.659 96.549C573.58 96.5647 573.525 96.5412 573.494 96.4785C573.447 96.2122 573.345 95.8832 573.189 95.4915C573.032 95.0842 572.82 94.6925 572.554 94.3165C572.288 93.9248 571.943 93.6037 571.52 93.353C571.113 93.0867 570.611 92.9535 570.016 92.9535C569.468 92.9535 569.013 93.071 568.653 93.306C568.293 93.5253 568.019 93.823 567.831 94.199C567.643 94.5593 567.549 94.9745 567.549 95.4445Z" fill="#EDEAE2"/>
</svg>
