<svg width="590" height="80" viewBox="0 0 590 80" fill="none" xmlns="http://www.w3.org/2000/svg">
<path d="M4.01892 22.3178C10.9924 10.2974 21.6918 3.51783 35.1814 1.08836C54.3431 -2.36261 71.4421 2.47547 86.511 14.4311C89.1209 16.5017 91.4973 18.8112 93.7506 21.2448C94.1377 21.6629 94.5456 22 94.6835 22.8805C90.8811 23.0893 87.1556 23.4191 83.6327 21.6816C82.7274 21.0909 82.1172 20.2046 81.4306 19.4037C74.4944 11.3131 65.9815 5.61419 55.3712 3.23292C47.8324 1.54097 40.2547 1.56778 32.861 3.91041C21.5355 7.49875 14.7593 15.335 11.8059 26.4322C6.23204 47.3759 18.8099 68.9864 39.838 74.1052C51.501 76.9443 62.2667 74.3176 71.8796 67.2941C78.1352 62.7235 83.0952 56.955 87.599 50.7787C93.1219 43.2051 98.1335 35.262 104.586 28.3606C116.154 15.9887 129.741 6.72224 146.597 2.69644C160.032 -0.512478 172.727 1.09091 185.216 7.41823C187.35 8.54566 187.472 8.56652 186.364 10.7273C185.595 12.2267 184.909 13.8182 184.015 15.1985C183.273 15.1985 182.906 14.7145 182.546 14.3636C174.992 7.00786 165.881 3.8625 155.323 3.93014C143.746 4.00431 134.333 8.8328 126.036 16.2684C118.689 22.8539 113.081 30.8218 107.464 38.7684C101.491 47.2175 95.2596 55.4384 87.0897 62.0333C75.2755 71.57 61.9354 77.5561 46.3973 77.2899C31.5462 77.0355 18.4676 72.1733 8.51759 60.8854C3.62006 55.3294 0.956727 48.7806 0.176074 41.4509C-0.542488 34.7042 0.977528 28.4447 4.01892 22.3178Z" fill="#EDEAE2"/>
<path d="M129.701 66.2683C138.833 74.5969 149.727 78.017 161.841 77.9222C169.608 77.8616 176.922 76.1749 182.928 70.8323C184.345 69.5714 185.455 68.1819 186.762 66.7024C189.67 69.1917 189.675 72.1633 186.841 74.4043C183.617 76.9524 179.76 78.1069 175.794 78.771C157.879 81.7709 140.834 79.4255 125.132 70.114C118.127 65.9602 112.586 60.3498 109.525 52.6776C108.363 49.7669 108.115 46.7628 108.145 43.6837C108.157 42.4122 108.941 42.4557 109.807 42.4268C113.455 42.3049 117.11 42.2693 120.75 42.0333C137.638 40.9385 154.5 39.5917 171.142 36.3828C172.94 36.0362 174.711 35.5586 176.654 35.1044C176.843 37.3407 176.29 39.3325 176.01 41.3425C175.557 44.5971 175.05 47.8445 174.586 51.0977C174.491 51.7684 174.455 52.4461 173.508 52.3797C172.555 52.3129 172.628 51.582 172.605 50.9406C172.584 50.3533 172.606 49.7645 172.586 49.1772C172.49 46.4198 171.41 45.0108 168.736 44.0872C166.271 43.2354 163.668 43.0832 161.125 43.0009C152.627 42.7261 144.118 43.1494 135.64 43.482C130.797 43.6562 125.954 43.8484 121.109 43.9335C119.654 43.959 119.074 44.3858 119.175 45.8736C119.568 51.7047 121.977 56.7481 125.341 61.429C126.586 63.162 128.02 64.7418 129.701 66.2683Z" fill="#EDEAE2"/>
<line x1="202.75" y1="72" x2="202.75" y2="12" stroke="#EDEAE2" stroke-width="0.5"/>
<path d="M232.327 32.236C232.935 32.236 233.495 32.268 234.007 32.332C234.535 32.38 235.023 32.468 235.471 32.596C235.935 32.724 236.375 32.892 236.791 33.1C236.919 33.148 236.991 33.204 237.007 33.268C237.039 33.316 237.063 33.436 237.079 33.628L237.391 36.652C237.391 36.684 237.343 36.716 237.247 36.748C237.167 36.764 237.119 36.74 237.103 36.676C236.703 35.348 236.095 34.348 235.279 33.676C234.463 32.988 233.423 32.644 232.159 32.644C230.879 32.644 229.759 32.94 228.799 33.532C227.839 34.124 227.087 34.964 226.543 36.052C225.999 37.124 225.727 38.396 225.727 39.868C225.727 40.956 225.895 41.956 226.231 42.868C226.567 43.78 227.031 44.58 227.623 45.268C228.231 45.94 228.927 46.46 229.711 46.828C230.511 47.196 231.367 47.38 232.279 47.38C233.559 47.38 234.591 47.06 235.375 46.42C236.175 45.78 236.815 44.804 237.295 43.492C237.327 43.444 237.383 43.428 237.463 43.444C237.543 43.46 237.583 43.492 237.583 43.54L237.319 46.276C237.303 46.468 237.271 46.588 237.223 46.636C237.191 46.684 237.119 46.74 237.007 46.804C236.191 47.172 235.407 47.428 234.655 47.572C233.919 47.732 233.127 47.812 232.279 47.812C230.583 47.812 229.071 47.484 227.743 46.828C226.431 46.156 225.399 45.236 224.647 44.068C223.895 42.884 223.519 41.516 223.519 39.964C223.519 38.812 223.735 37.764 224.167 36.82C224.615 35.876 225.239 35.06 226.039 34.372C226.839 33.684 227.767 33.156 228.823 32.788C229.895 32.42 231.063 32.236 232.327 32.236ZM256.392 35.515C256.392 34.7317 256.212 34.1363 255.851 33.729C255.507 33.306 254.99 33.0945 254.3 33.0945C254.253 33.0945 254.23 33.0475 254.23 32.9535C254.23 32.8595 254.253 32.8125 254.3 32.8125C254.661 32.8125 255.037 32.8282 255.428 32.8595C255.82 32.8752 256.243 32.883 256.697 32.883C257.089 32.883 257.473 32.8752 257.849 32.8595C258.24 32.8282 258.601 32.8125 258.93 32.8125C258.961 32.8125 258.977 32.8595 258.977 32.9535C258.977 33.0475 258.961 33.0945 258.93 33.0945C258.303 33.0945 257.825 33.306 257.496 33.729C257.183 34.1363 257.026 34.7317 257.026 35.515V42.1655C257.026 43.3405 256.791 44.351 256.321 45.197C255.851 46.043 255.193 46.6932 254.347 47.1475C253.501 47.5862 252.514 47.8055 251.386 47.8055C250.227 47.8055 249.209 47.5862 248.331 47.1475C247.454 46.6932 246.772 46.0508 246.287 45.2205C245.801 44.3902 245.558 43.4032 245.558 42.2595V34.716C245.558 34.2617 245.511 33.9248 245.417 33.7055C245.323 33.4705 245.135 33.3138 244.853 33.2355C244.587 33.1415 244.187 33.0945 243.655 33.0945C243.608 33.0945 243.584 33.0475 243.584 32.9535C243.584 32.8595 243.608 32.8125 243.655 32.8125C244.046 32.8125 244.477 32.8282 244.947 32.8595C245.417 32.8752 245.926 32.883 246.475 32.883C247.039 32.883 247.556 32.8752 248.026 32.8595C248.511 32.8282 248.934 32.8125 249.295 32.8125C249.342 32.8125 249.365 32.8595 249.365 32.9535C249.365 33.0475 249.342 33.0945 249.295 33.0945C248.762 33.0945 248.355 33.1415 248.073 33.2355C247.806 33.3295 247.626 33.494 247.532 33.729C247.454 33.964 247.415 34.3087 247.415 34.763V41.437C247.415 43.317 247.822 44.727 248.637 45.667C249.451 46.5913 250.579 47.0535 252.021 47.0535C253.399 47.0535 254.473 46.6305 255.24 45.7845C256.008 44.9228 256.392 43.7243 256.392 42.189V35.515ZM276.348 47.5C276.097 47.5 275.682 47.2023 275.102 46.607C274.538 45.996 273.857 45.1343 273.058 44.022C272.259 42.894 271.358 41.5545 270.355 40.0035L271.93 39.51C273.246 41.4057 274.358 42.9175 275.267 44.0455C276.191 45.1735 277.006 45.9882 277.711 46.4895C278.416 46.9752 279.089 47.218 279.732 47.218C279.779 47.218 279.802 47.265 279.802 47.359C279.802 47.453 279.779 47.5 279.732 47.5C278.854 47.5 278.134 47.5 277.57 47.5C277.021 47.5 276.614 47.5 276.348 47.5ZM270.708 32.742C272.024 32.742 273.026 33.024 273.716 33.588C274.421 34.1363 274.773 34.8727 274.773 35.797C274.773 36.6743 274.523 37.4577 274.021 38.147C273.52 38.8363 272.862 39.3768 272.047 39.7685C271.248 40.1602 270.387 40.356 269.462 40.356C269.274 40.356 269.078 40.356 268.875 40.356C268.671 40.3403 268.483 40.3247 268.311 40.309V45.5965C268.311 46.0508 268.35 46.3955 268.428 46.6305C268.522 46.8655 268.702 47.0222 268.969 47.1005C269.251 47.1788 269.666 47.218 270.214 47.218C270.261 47.218 270.285 47.265 270.285 47.359C270.285 47.453 270.261 47.5 270.214 47.5C269.823 47.5 269.392 47.4922 268.922 47.4765C268.452 47.4608 267.935 47.453 267.371 47.453C266.838 47.453 266.329 47.4608 265.843 47.4765C265.358 47.4922 264.919 47.5 264.527 47.5C264.48 47.5 264.457 47.453 264.457 47.359C264.457 47.265 264.48 47.218 264.527 47.218C265.06 47.218 265.459 47.1788 265.726 47.1005C266.008 47.0222 266.196 46.8655 266.29 46.6305C266.399 46.3955 266.454 46.0508 266.454 45.5965V34.716C266.454 34.2617 266.407 33.9248 266.313 33.7055C266.219 33.4705 266.039 33.3138 265.773 33.2355C265.506 33.1415 265.099 33.0945 264.551 33.0945C264.519 33.0945 264.504 33.0475 264.504 32.9535C264.504 32.8595 264.519 32.8125 264.551 32.8125C264.942 32.8125 265.373 32.8282 265.843 32.8595C266.329 32.8752 266.838 32.883 267.371 32.883C267.872 32.883 268.436 32.8595 269.063 32.8125C269.689 32.7655 270.238 32.742 270.708 32.742ZM272.846 36.549C272.846 35.6717 272.729 34.9902 272.494 34.5045C272.259 34.0032 271.922 33.6507 271.483 33.447C271.06 33.2433 270.559 33.1415 269.979 33.1415C269.384 33.1415 268.953 33.2512 268.687 33.4705C268.436 33.6742 268.311 34.105 268.311 34.763V39.7215C268.53 39.7372 268.765 39.7528 269.016 39.7685C269.282 39.7842 269.509 39.792 269.697 39.792C270.857 39.792 271.671 39.5257 272.141 38.993C272.611 38.4603 272.846 37.6457 272.846 36.549ZM288.019 41.3665L288.301 40.8495H294.693L294.858 41.3665H288.019ZM300.169 47.218C300.247 47.218 300.286 47.265 300.286 47.359C300.286 47.453 300.247 47.5 300.169 47.5C299.715 47.5 299.245 47.4843 298.759 47.453C298.289 47.4217 297.827 47.406 297.372 47.406C296.871 47.406 296.432 47.4217 296.056 47.453C295.696 47.4843 295.289 47.5 294.834 47.5C294.772 47.5 294.74 47.453 294.74 47.359C294.74 47.265 294.772 47.218 294.834 47.218C295.602 47.218 296.072 47.1005 296.244 46.8655C296.417 46.6148 296.331 46.1292 295.986 45.4085L290.933 34.904L291.685 33.776L287.103 44.398C286.696 45.3537 286.672 46.0665 287.032 46.5365C287.393 46.9908 288.066 47.218 289.053 47.218C289.132 47.218 289.171 47.265 289.171 47.359C289.171 47.453 289.132 47.5 289.053 47.5C288.583 47.5 288.153 47.4843 287.761 47.453C287.369 47.4217 286.876 47.406 286.28 47.406C285.701 47.406 285.231 47.4217 284.87 47.453C284.526 47.4843 284.103 47.5 283.601 47.5C283.539 47.5 283.507 47.453 283.507 47.359C283.507 47.265 283.539 47.218 283.601 47.218C284.024 47.218 284.393 47.1397 284.706 46.983C285.019 46.8107 285.317 46.5052 285.599 46.0665C285.897 45.6278 286.218 45.0012 286.562 44.1865L291.568 32.648C291.584 32.601 291.638 32.5775 291.732 32.5775C291.826 32.5618 291.881 32.5853 291.897 32.648L297.537 44.2805C297.913 45.0482 298.234 45.6513 298.5 46.09C298.782 46.513 299.057 46.8107 299.323 46.983C299.589 47.1397 299.871 47.218 300.169 47.218ZM307.354 33.2825C306.383 33.2825 305.623 33.5567 305.074 34.105C304.526 34.6377 304.119 35.4993 303.852 36.69C303.837 36.7213 303.782 36.737 303.688 36.737C303.61 36.737 303.57 36.7135 303.57 36.6665C303.602 36.4628 303.633 36.173 303.664 35.797C303.711 35.421 303.751 35.0137 303.782 34.575C303.813 34.1363 303.837 33.7133 303.852 33.306C303.884 32.8987 303.899 32.5618 303.899 32.2955C303.899 32.2172 303.946 32.178 304.04 32.178C304.134 32.178 304.181 32.2172 304.181 32.2955C304.181 32.4522 304.26 32.5697 304.416 32.648C304.573 32.7107 304.753 32.7577 304.957 32.789C305.161 32.8047 305.333 32.8125 305.474 32.8125C306.821 32.8595 308.396 32.883 310.197 32.883C311.294 32.883 312.171 32.8752 312.829 32.8595C313.487 32.8282 314.122 32.8125 314.733 32.8125C315.266 32.8125 315.673 32.7812 315.955 32.7185C316.253 32.6402 316.441 32.4757 316.519 32.225C316.535 32.1623 316.582 32.131 316.66 32.131C316.754 32.131 316.801 32.1623 316.801 32.225C316.77 32.46 316.738 32.789 316.707 33.212C316.691 33.635 316.668 34.0737 316.636 34.528C316.621 34.9823 316.605 35.4053 316.589 35.797C316.574 36.1887 316.566 36.4785 316.566 36.6665C316.566 36.7135 316.519 36.737 316.425 36.737C316.347 36.737 316.307 36.7135 316.307 36.6665C316.198 35.4445 315.884 34.575 315.367 34.058C314.85 33.541 314.083 33.2825 313.064 33.2825C312.516 33.2825 312.101 33.3217 311.819 33.4C311.553 33.4627 311.372 33.5958 311.278 33.7995C311.2 34.0032 311.161 34.3243 311.161 34.763V45.5965C311.161 46.0508 311.208 46.3955 311.302 46.6305C311.412 46.8655 311.615 47.0222 311.913 47.1005C312.226 47.1788 312.704 47.218 313.346 47.218C313.378 47.218 313.393 47.265 313.393 47.359C313.393 47.453 313.378 47.5 313.346 47.5C312.923 47.5 312.446 47.4922 311.913 47.4765C311.396 47.4608 310.824 47.453 310.197 47.453C309.602 47.453 309.038 47.4608 308.505 47.4765C307.988 47.4922 307.511 47.5 307.072 47.5C307.025 47.5 307.001 47.453 307.001 47.359C307.001 47.265 307.025 47.218 307.072 47.218C307.683 47.218 308.145 47.1788 308.458 47.1005C308.787 47.0222 309.007 46.8655 309.116 46.6305C309.226 46.3955 309.281 46.0508 309.281 45.5965V34.716C309.281 34.293 309.234 33.9797 309.14 33.776C309.046 33.5567 308.858 33.4235 308.576 33.3765C308.294 33.3138 307.887 33.2825 307.354 33.2825ZM332.774 47.5H322.763C322.716 47.5 322.693 47.453 322.693 47.359C322.693 47.265 322.716 47.218 322.763 47.218C323.296 47.218 323.695 47.1788 323.962 47.1005C324.244 47.0222 324.432 46.8655 324.526 46.6305C324.62 46.3955 324.667 46.0508 324.667 45.5965V34.716C324.667 34.2617 324.62 33.9248 324.526 33.7055C324.432 33.4705 324.244 33.3138 323.962 33.2355C323.695 33.1415 323.296 33.0945 322.763 33.0945C322.716 33.0945 322.693 33.0475 322.693 32.9535C322.693 32.8595 322.716 32.8125 322.763 32.8125H332.351C332.508 32.8125 332.586 32.883 332.586 33.024L332.633 35.985C332.633 36.032 332.586 36.0633 332.492 36.079C332.414 36.079 332.367 36.0555 332.351 36.0085C332.242 35.1468 331.936 34.4967 331.435 34.058C330.933 33.6037 330.275 33.3765 329.461 33.3765H328.262C327.792 33.3765 327.432 33.4157 327.181 33.494C326.931 33.5723 326.758 33.7212 326.664 33.9405C326.57 34.1442 326.523 34.434 326.523 34.81V45.5025C326.523 45.8785 326.562 46.1762 326.641 46.3955C326.735 46.5992 326.899 46.748 327.134 46.842C327.369 46.9203 327.698 46.9595 328.121 46.9595H329.672C330.565 46.9595 331.302 46.701 331.881 46.184C332.461 45.6513 332.86 44.8993 333.08 43.928C333.08 43.881 333.127 43.8653 333.221 43.881C333.315 43.8967 333.362 43.928 333.362 43.975C333.299 44.398 333.244 44.9072 333.197 45.5025C333.15 46.0978 333.127 46.6462 333.127 47.1475C333.127 47.3825 333.009 47.5 332.774 47.5ZM331.458 42.095C331.458 41.4213 331.262 40.9278 330.871 40.6145C330.495 40.2855 329.884 40.121 329.038 40.121H325.63V39.5805H329.108C329.907 39.5805 330.495 39.4473 330.871 39.181C331.247 38.899 331.435 38.4682 331.435 37.8885C331.435 37.8572 331.474 37.8415 331.552 37.8415C331.646 37.8415 331.693 37.8572 331.693 37.8885C331.693 38.3742 331.685 38.7502 331.67 39.0165C331.67 39.2828 331.67 39.5648 331.67 39.8625C331.67 40.2228 331.678 40.5832 331.693 40.9435C331.725 41.3038 331.74 41.6877 331.74 42.095C331.74 42.1263 331.693 42.142 331.599 42.142C331.505 42.142 331.458 42.1263 331.458 42.095ZM345.887 47.594C345.417 47.594 344.837 47.5705 344.148 47.5235C343.459 47.4765 342.824 47.453 342.245 47.453C341.712 47.453 341.195 47.4608 340.694 47.4765C340.208 47.4922 339.769 47.5 339.378 47.5C339.346 47.5 339.331 47.453 339.331 47.359C339.331 47.265 339.346 47.218 339.378 47.218C339.926 47.218 340.341 47.1788 340.623 47.1005C340.905 47.0222 341.093 46.8655 341.187 46.6305C341.281 46.3955 341.328 46.0508 341.328 45.5965V34.716C341.328 34.2617 341.281 33.9248 341.187 33.7055C341.093 33.4705 340.905 33.3138 340.623 33.2355C340.357 33.1415 339.957 33.0945 339.425 33.0945C339.378 33.0945 339.354 33.0475 339.354 32.9535C339.354 32.8595 339.378 32.8125 339.425 32.8125C339.816 32.8125 340.247 32.8282 340.717 32.8595C341.203 32.8752 341.712 32.883 342.245 32.883C342.777 32.883 343.349 32.8673 343.96 32.836C344.587 32.789 345.119 32.7655 345.558 32.7655C347.219 32.7655 348.66 33.0788 349.882 33.7055C351.12 34.3322 352.083 35.186 352.773 36.267C353.462 37.348 353.807 38.5622 353.807 39.9095C353.807 41.0845 353.595 42.1498 353.172 43.1055C352.765 44.0455 352.193 44.8523 351.457 45.526C350.72 46.184 349.874 46.6932 348.919 47.0535C347.963 47.4138 346.952 47.594 345.887 47.594ZM345.652 47.171C346.827 47.171 347.861 46.9125 348.754 46.3955C349.663 45.8785 350.376 45.1187 350.893 44.116C351.41 43.0977 351.668 41.8678 351.668 40.4265C351.668 39.0635 351.425 37.8415 350.94 36.7605C350.454 35.6638 349.772 34.7943 348.895 34.152C348.033 33.494 346.999 33.165 345.793 33.165C344.853 33.165 344.179 33.259 343.772 33.447C343.38 33.635 343.185 34.0737 343.185 34.763V45.338C343.185 45.9647 343.341 46.4268 343.655 46.7245C343.968 47.0222 344.634 47.171 345.652 47.171ZM379.544 47.5H369.32C369.272 47.5 369.248 47.452 369.248 47.356C369.248 47.26 369.272 47.212 369.32 47.212C369.864 47.212 370.272 47.172 370.544 47.092C370.832 47.012 371.024 46.852 371.12 46.612C371.216 46.372 371.264 46.02 371.264 45.556V34.444C371.264 33.98 371.216 33.636 371.12 33.412C371.024 33.172 370.832 33.012 370.544 32.932C370.272 32.836 369.864 32.788 369.32 32.788C369.272 32.788 369.248 32.74 369.248 32.644C369.248 32.548 369.272 32.5 369.32 32.5H379.112C379.272 32.5 379.352 32.572 379.352 32.716L379.4 35.74C379.4 35.788 379.352 35.82 379.256 35.836C379.176 35.836 379.128 35.812 379.112 35.764C379 34.884 378.688 34.22 378.176 33.772C377.664 33.308 376.992 33.076 376.16 33.076H374.936C374.456 33.076 374.088 33.116 373.832 33.196C373.576 33.276 373.4 33.428 373.304 33.652C373.208 33.86 373.16 34.156 373.16 34.54V45.46C373.16 45.844 373.2 46.148 373.28 46.372C373.376 46.58 373.544 46.732 373.784 46.828C374.024 46.908 374.36 46.948 374.792 46.948H376.376C377.288 46.948 378.04 46.684 378.632 46.156C379.224 45.612 379.632 44.844 379.856 43.852C379.856 43.804 379.904 43.788 380 43.804C380.096 43.82 380.144 43.852 380.144 43.9C380.08 44.332 380.024 44.852 379.976 45.46C379.928 46.068 379.904 46.628 379.904 47.14C379.904 47.38 379.784 47.5 379.544 47.5ZM378.2 41.98C378.2 41.292 378 40.788 377.6 40.468C377.216 40.132 376.592 39.964 375.728 39.964H372.248V39.412H375.8C376.616 39.412 377.216 39.276 377.6 39.004C377.984 38.716 378.176 38.276 378.176 37.684C378.176 37.652 378.216 37.636 378.296 37.636C378.392 37.636 378.44 37.652 378.44 37.684C378.44 38.18 378.432 38.564 378.416 38.836C378.416 39.108 378.416 39.396 378.416 39.7C378.416 40.068 378.424 40.436 378.44 40.804C378.472 41.172 378.488 41.564 378.488 41.98C378.488 42.012 378.44 42.028 378.344 42.028C378.248 42.028 378.2 42.012 378.2 41.98ZM395.131 47.5C395.1 47.5 395.084 47.453 395.084 47.359C395.084 47.265 395.1 47.218 395.131 47.218C395.617 47.218 395.938 47.1553 396.095 47.03C396.267 46.9047 396.236 46.6618 396.001 46.3015L388.504 34.857C388.081 34.2147 387.666 33.7603 387.259 33.494C386.867 33.2277 386.42 33.0945 385.919 33.0945C385.888 33.0945 385.872 33.0475 385.872 32.9535C385.872 32.8595 385.888 32.8125 385.919 32.8125C386.217 32.8125 386.53 32.8282 386.859 32.8595C387.188 32.8752 387.494 32.883 387.776 32.883C388.418 32.883 389.013 32.8752 389.562 32.8595C390.11 32.8282 390.588 32.8125 390.995 32.8125C391.042 32.8125 391.066 32.8595 391.066 32.9535C391.066 33.0475 391.042 33.0945 390.995 33.0945C390.509 33.0945 390.18 33.1572 390.008 33.2825C389.851 33.4078 389.891 33.6585 390.126 34.0345L397.693 45.5495C398.1 46.1605 398.515 46.5913 398.938 46.842C399.361 47.0927 399.878 47.218 400.489 47.218C400.52 47.218 400.536 47.265 400.536 47.359C400.536 47.453 400.52 47.5 400.489 47.5C400.16 47.5 399.8 47.4922 399.408 47.4765C399.016 47.4608 398.601 47.453 398.163 47.453C397.52 47.453 396.956 47.4608 396.471 47.4765C396.001 47.4922 395.554 47.5 395.131 47.5ZM385.802 47.5C385.755 47.5 385.731 47.453 385.731 47.359C385.731 47.265 385.755 47.218 385.802 47.218C386.303 47.218 386.851 47.0222 387.447 46.6305C388.042 46.2388 388.645 45.62 389.256 44.774L392.593 40.215L392.922 40.4735L389.844 44.821C389.295 45.573 389.076 46.1605 389.186 46.5835C389.311 47.0065 389.75 47.218 390.502 47.218C390.549 47.218 390.572 47.265 390.572 47.359C390.572 47.453 390.549 47.5 390.502 47.5C390.079 47.5 389.671 47.4922 389.28 47.4765C388.888 47.4608 388.379 47.453 387.752 47.453C387.329 47.453 386.992 47.4608 386.742 47.4765C386.491 47.4922 386.178 47.5 385.802 47.5ZM393.322 40.121L392.993 39.8625L395.977 35.609C396.541 34.81 396.768 34.1912 396.659 33.7525C396.565 33.3138 396.149 33.0945 395.413 33.0945C395.366 33.0945 395.343 33.0475 395.343 32.9535C395.343 32.8595 395.366 32.8125 395.413 32.8125C395.836 32.8125 396.243 32.8282 396.635 32.8595C397.027 32.8752 397.536 32.883 398.163 32.883C398.586 32.883 398.922 32.8752 399.173 32.8595C399.424 32.8282 399.729 32.8125 400.09 32.8125C400.137 32.8125 400.16 32.8595 400.16 32.9535C400.16 33.0475 400.137 33.0945 400.09 33.0945C399.604 33.0945 399.056 33.306 398.445 33.729C397.834 34.152 397.207 34.8022 396.565 35.6795L393.322 40.121ZM409.593 45.5025C409.593 45.9725 409.648 46.3328 409.757 46.5835C409.883 46.8185 410.133 46.983 410.509 47.077C410.885 47.171 411.449 47.218 412.201 47.218C412.248 47.218 412.272 47.265 412.272 47.359C412.272 47.453 412.248 47.5 412.201 47.5C411.7 47.5 411.152 47.4922 410.556 47.4765C409.977 47.4608 409.342 47.453 408.653 47.453C408.136 47.453 407.627 47.4608 407.125 47.4765C406.64 47.4922 406.201 47.5 405.809 47.5C405.778 47.5 405.762 47.453 405.762 47.359C405.762 47.265 405.778 47.218 405.809 47.218C406.358 47.218 406.765 47.1788 407.031 47.1005C407.313 47.0222 407.493 46.8655 407.572 46.6305C407.666 46.3955 407.713 46.0508 407.713 45.5965V34.716C407.713 34.2617 407.666 33.9248 407.572 33.7055C407.493 33.4705 407.313 33.3138 407.031 33.2355C406.765 33.1415 406.358 33.0945 405.809 33.0945C405.778 33.0945 405.762 33.0475 405.762 32.9535C405.762 32.8595 405.778 32.8125 405.809 32.8125C406.201 32.8125 406.64 32.8282 407.125 32.8595C407.611 32.8752 408.112 32.883 408.629 32.883C409.037 32.883 409.53 32.8595 410.11 32.8125C410.705 32.7655 411.3 32.742 411.896 32.742C412.804 32.742 413.619 32.8752 414.34 33.1415C415.076 33.4078 415.664 33.823 416.102 34.387C416.541 34.951 416.768 35.6873 416.784 36.596C416.784 37.4107 416.635 38.1157 416.337 38.711C416.04 39.3063 415.632 39.7998 415.115 40.1915C414.614 40.5832 414.05 40.873 413.423 41.061C412.812 41.249 412.209 41.343 411.614 41.343C411.426 41.343 411.23 41.3352 411.026 41.3195C410.838 41.3038 410.658 41.2725 410.486 41.2255C410.423 41.2098 410.4 41.155 410.415 41.061C410.447 40.9513 410.486 40.9043 410.533 40.92C410.674 40.9513 410.815 40.9748 410.956 40.9905C411.112 41.0062 411.246 41.014 411.355 41.014C411.951 41.014 412.499 40.873 413 40.591C413.502 40.309 413.909 39.8782 414.222 39.2985C414.536 38.7032 414.692 37.9668 414.692 37.0895C414.692 36.2435 414.543 35.5307 414.246 34.951C413.964 34.3713 413.564 33.9248 413.047 33.6115C412.53 33.2982 411.935 33.1415 411.261 33.1415C410.823 33.1415 410.478 33.1728 410.227 33.2355C409.992 33.2982 409.828 33.447 409.734 33.682C409.64 33.917 409.593 34.2773 409.593 34.763V45.5025ZM432.855 47.5H422.844C422.797 47.5 422.774 47.453 422.774 47.359C422.774 47.265 422.797 47.218 422.844 47.218C423.377 47.218 423.777 47.1788 424.043 47.1005C424.325 47.0222 424.513 46.8655 424.607 46.6305C424.701 46.3955 424.748 46.0508 424.748 45.5965V34.716C424.748 34.2617 424.701 33.9248 424.607 33.7055C424.513 33.4705 424.325 33.3138 424.043 33.2355C423.777 33.1415 423.377 33.0945 422.844 33.0945C422.797 33.0945 422.774 33.0475 422.774 32.9535C422.774 32.8595 422.797 32.8125 422.844 32.8125H432.432C432.589 32.8125 432.667 32.883 432.667 33.024L432.714 35.985C432.714 36.032 432.667 36.0633 432.573 36.079C432.495 36.079 432.448 36.0555 432.432 36.0085C432.323 35.1468 432.017 34.4967 431.516 34.058C431.015 33.6037 430.357 33.3765 429.542 33.3765H428.343C427.873 33.3765 427.513 33.4157 427.262 33.494C427.012 33.5723 426.839 33.7212 426.745 33.9405C426.651 34.1442 426.604 34.434 426.604 34.81V45.5025C426.604 45.8785 426.644 46.1762 426.722 46.3955C426.816 46.5992 426.98 46.748 427.215 46.842C427.45 46.9203 427.779 46.9595 428.202 46.9595H429.753C430.646 46.9595 431.383 46.701 431.962 46.184C432.542 45.6513 432.942 44.8993 433.161 43.928C433.161 43.881 433.208 43.8653 433.302 43.881C433.396 43.8967 433.443 43.928 433.443 43.975C433.38 44.398 433.325 44.9072 433.278 45.5025C433.231 46.0978 433.208 46.6462 433.208 47.1475C433.208 47.3825 433.09 47.5 432.855 47.5ZM431.539 42.095C431.539 41.4213 431.344 40.9278 430.952 40.6145C430.576 40.2855 429.965 40.121 429.119 40.121H425.711V39.5805H429.189C429.988 39.5805 430.576 39.4473 430.952 39.181C431.328 38.899 431.516 38.4682 431.516 37.8885C431.516 37.8572 431.555 37.8415 431.633 37.8415C431.727 37.8415 431.774 37.8572 431.774 37.8885C431.774 38.3742 431.767 38.7502 431.751 39.0165C431.751 39.2828 431.751 39.5648 431.751 39.8625C431.751 40.2228 431.759 40.5832 431.774 40.9435C431.806 41.3038 431.821 41.6877 431.821 42.095C431.821 42.1263 431.774 42.142 431.68 42.142C431.586 42.142 431.539 42.1263 431.539 42.095ZM451.514 47.5C451.264 47.5 450.848 47.2023 450.269 46.607C449.705 45.996 449.023 45.1343 448.224 44.022C447.425 42.894 446.524 41.5545 445.522 40.0035L447.096 39.51C448.412 41.4057 449.525 42.9175 450.433 44.0455C451.358 45.1735 452.172 45.9882 452.877 46.4895C453.582 46.9752 454.256 47.218 454.898 47.218C454.945 47.218 454.969 47.265 454.969 47.359C454.969 47.453 454.945 47.5 454.898 47.5C454.021 47.5 453.3 47.5 452.736 47.5C452.188 47.5 451.781 47.5 451.514 47.5ZM445.874 32.742C447.19 32.742 448.193 33.024 448.882 33.588C449.587 34.1363 449.94 34.8727 449.94 35.797C449.94 36.6743 449.689 37.4577 449.188 38.147C448.686 38.8363 448.028 39.3768 447.214 39.7685C446.415 40.1602 445.553 40.356 444.629 40.356C444.441 40.356 444.245 40.356 444.041 40.356C443.838 40.3403 443.65 40.3247 443.477 40.309V45.5965C443.477 46.0508 443.516 46.3955 443.595 46.6305C443.689 46.8655 443.869 47.0222 444.135 47.1005C444.417 47.1788 444.832 47.218 445.381 47.218C445.428 47.218 445.451 47.265 445.451 47.359C445.451 47.453 445.428 47.5 445.381 47.5C444.989 47.5 444.558 47.4922 444.088 47.4765C443.618 47.4608 443.101 47.453 442.537 47.453C442.005 47.453 441.495 47.4608 441.01 47.4765C440.524 47.4922 440.085 47.5 439.694 47.5C439.647 47.5 439.623 47.453 439.623 47.359C439.623 47.265 439.647 47.218 439.694 47.218C440.226 47.218 440.626 47.1788 440.892 47.1005C441.174 47.0222 441.362 46.8655 441.456 46.6305C441.566 46.3955 441.621 46.0508 441.621 45.5965V34.716C441.621 34.2617 441.574 33.9248 441.48 33.7055C441.386 33.4705 441.206 33.3138 440.939 33.2355C440.673 33.1415 440.266 33.0945 439.717 33.0945C439.686 33.0945 439.67 33.0475 439.67 32.9535C439.67 32.8595 439.686 32.8125 439.717 32.8125C440.109 32.8125 440.54 32.8282 441.01 32.8595C441.495 32.8752 442.005 32.883 442.537 32.883C443.039 32.883 443.603 32.8595 444.229 32.8125C444.856 32.7655 445.404 32.742 445.874 32.742ZM448.013 36.549C448.013 35.6717 447.895 34.9902 447.66 34.5045C447.425 34.0032 447.088 33.6507 446.65 33.447C446.227 33.2433 445.725 33.1415 445.146 33.1415C444.55 33.1415 444.12 33.2512 443.853 33.4705C443.603 33.6742 443.477 34.105 443.477 34.763V39.7215C443.697 39.7372 443.932 39.7528 444.182 39.7685C444.449 39.7842 444.676 39.792 444.864 39.792C446.023 39.792 446.838 39.5257 447.308 38.993C447.778 38.4603 448.013 37.6457 448.013 36.549ZM463.679 45.5965C463.679 46.0508 463.718 46.3955 463.797 46.6305C463.891 46.8655 464.071 47.0222 464.337 47.1005C464.619 47.1788 465.034 47.218 465.583 47.218C465.614 47.218 465.63 47.265 465.63 47.359C465.63 47.453 465.614 47.5 465.583 47.5C465.191 47.5 464.752 47.4922 464.267 47.4765C463.797 47.4608 463.28 47.453 462.716 47.453C462.167 47.453 461.65 47.4608 461.165 47.4765C460.679 47.4922 460.24 47.5 459.849 47.5C459.817 47.5 459.802 47.453 459.802 47.359C459.802 47.265 459.817 47.218 459.849 47.218C460.397 47.218 460.812 47.1788 461.094 47.1005C461.376 47.0222 461.564 46.8655 461.658 46.6305C461.752 46.3955 461.799 46.0508 461.799 45.5965V34.716C461.799 34.2617 461.752 33.9248 461.658 33.7055C461.564 33.4705 461.376 33.3138 461.094 33.2355C460.812 33.1415 460.397 33.0945 459.849 33.0945C459.817 33.0945 459.802 33.0475 459.802 32.9535C459.802 32.8595 459.817 32.8125 459.849 32.8125C460.24 32.8125 460.679 32.8282 461.165 32.8595C461.65 32.8752 462.167 32.883 462.716 32.883C463.28 32.883 463.805 32.8752 464.29 32.8595C464.776 32.8282 465.207 32.8125 465.583 32.8125C465.614 32.8125 465.63 32.8595 465.63 32.9535C465.63 33.0475 465.614 33.0945 465.583 33.0945C465.034 33.0945 464.627 33.1415 464.361 33.2355C464.094 33.3295 463.914 33.494 463.82 33.729C463.726 33.964 463.679 34.3087 463.679 34.763V45.5965ZM481.797 47.5H471.786C471.739 47.5 471.715 47.453 471.715 47.359C471.715 47.265 471.739 47.218 471.786 47.218C472.319 47.218 472.718 47.1788 472.984 47.1005C473.266 47.0222 473.454 46.8655 473.548 46.6305C473.642 46.3955 473.689 46.0508 473.689 45.5965V34.716C473.689 34.2617 473.642 33.9248 473.548 33.7055C473.454 33.4705 473.266 33.3138 472.984 33.2355C472.718 33.1415 472.319 33.0945 471.786 33.0945C471.739 33.0945 471.715 33.0475 471.715 32.9535C471.715 32.8595 471.739 32.8125 471.786 32.8125H481.374C481.531 32.8125 481.609 32.883 481.609 33.024L481.656 35.985C481.656 36.032 481.609 36.0633 481.515 36.079C481.437 36.079 481.39 36.0555 481.374 36.0085C481.264 35.1468 480.959 34.4967 480.457 34.058C479.956 33.6037 479.298 33.3765 478.483 33.3765H477.285C476.815 33.3765 476.455 33.4157 476.204 33.494C475.953 33.5723 475.781 33.7212 475.687 33.9405C475.593 34.1442 475.546 34.434 475.546 34.81V45.5025C475.546 45.8785 475.585 46.1762 475.663 46.3955C475.757 46.5992 475.922 46.748 476.157 46.842C476.392 46.9203 476.721 46.9595 477.144 46.9595H478.695C479.588 46.9595 480.324 46.701 480.904 46.184C481.484 45.6513 481.883 44.8993 482.102 43.928C482.102 43.881 482.149 43.8653 482.243 43.881C482.337 43.8967 482.384 43.928 482.384 43.975C482.322 44.398 482.267 44.9072 482.22 45.5025C482.173 46.0978 482.149 46.6462 482.149 47.1475C482.149 47.3825 482.032 47.5 481.797 47.5ZM480.481 42.095C480.481 41.4213 480.285 40.9278 479.893 40.6145C479.517 40.2855 478.906 40.121 478.06 40.121H474.653V39.5805H478.131C478.93 39.5805 479.517 39.4473 479.893 39.181C480.269 38.899 480.457 38.4682 480.457 37.8885C480.457 37.8572 480.497 37.8415 480.575 37.8415C480.669 37.8415 480.716 37.8572 480.716 37.8885C480.716 38.3742 480.708 38.7502 480.692 39.0165C480.692 39.2828 480.692 39.5648 480.692 39.8625C480.692 40.2228 480.7 40.5832 480.716 40.9435C480.747 41.3038 480.763 41.6877 480.763 42.095C480.763 42.1263 480.716 42.142 480.622 42.142C480.528 42.142 480.481 42.1263 480.481 42.095ZM490.492 44.821V33.353L491.103 33.4V44.821C491.103 45.6357 491.252 46.2388 491.549 46.6305C491.847 47.0222 492.317 47.218 492.959 47.218C492.991 47.218 493.006 47.265 493.006 47.359C493.006 47.453 492.991 47.5 492.959 47.5C492.63 47.5 492.293 47.4922 491.949 47.4765C491.62 47.4608 491.244 47.453 490.821 47.453C490.413 47.453 490.014 47.4608 489.622 47.4765C489.231 47.4922 488.862 47.5 488.518 47.5C488.486 47.5 488.471 47.453 488.471 47.359C488.471 47.265 488.486 47.218 488.518 47.218C489.207 47.218 489.708 47.0222 490.022 46.6305C490.335 46.2388 490.492 45.6357 490.492 44.821ZM502.383 47.8055C502.383 47.8368 502.344 47.8525 502.265 47.8525C502.203 47.8682 502.156 47.8682 502.124 47.8525L491.056 34.7395C490.507 34.0972 490.03 33.6663 489.622 33.447C489.231 33.212 488.839 33.0945 488.447 33.0945C488.416 33.0945 488.4 33.0475 488.4 32.9535C488.4 32.8595 488.416 32.8125 488.447 32.8125C488.745 32.8125 489.043 32.8203 489.34 32.836C489.638 32.8517 489.912 32.8595 490.163 32.8595C490.539 32.8595 490.883 32.8517 491.197 32.836C491.51 32.8203 491.745 32.8125 491.902 32.8125C492.105 32.8125 492.254 32.9065 492.348 33.0945C492.442 33.2668 492.669 33.5802 493.03 34.0345L502.195 45.0795L502.383 47.8055ZM502.383 35.515V47.8055L501.795 47.077V35.515C501.795 34.7003 501.646 34.0972 501.349 33.7055C501.067 33.2982 500.605 33.0945 499.962 33.0945C499.931 33.0945 499.915 33.0475 499.915 32.9535C499.915 32.8595 499.931 32.8125 499.962 32.8125C500.291 32.8125 500.628 32.8282 500.973 32.8595C501.317 32.8752 501.693 32.883 502.101 32.883C502.492 32.883 502.876 32.8752 503.252 32.8595C503.628 32.8282 503.981 32.8125 504.31 32.8125C504.341 32.8125 504.357 32.8595 504.357 32.9535C504.357 33.0475 504.341 33.0945 504.31 33.0945C503.652 33.0945 503.166 33.2982 502.853 33.7055C502.539 34.0972 502.383 34.7003 502.383 35.515ZM518.679 32.554C519.275 32.554 519.823 32.5853 520.324 32.648C520.841 32.695 521.319 32.7812 521.758 32.9065C522.212 33.0318 522.643 33.1963 523.05 33.4C523.176 33.447 523.246 33.5018 523.262 33.5645C523.293 33.6115 523.317 33.729 523.332 33.917L523.638 36.878C523.638 36.9093 523.591 36.9407 523.497 36.972C523.418 36.9877 523.371 36.9642 523.356 36.9015C522.964 35.6012 522.369 34.622 521.57 33.964C520.771 33.2903 519.752 32.9535 518.515 32.9535C517.261 32.9535 516.165 33.2433 515.225 33.823C514.285 34.4027 513.548 35.2252 513.016 36.2905C512.483 37.3402 512.217 38.5857 512.217 40.027C512.217 41.0923 512.381 42.0715 512.71 42.9645C513.039 43.8575 513.494 44.6408 514.073 45.3145C514.669 45.9725 515.35 46.4817 516.118 46.842C516.901 47.2023 517.739 47.3825 518.632 47.3825C519.886 47.3825 520.896 47.0692 521.664 46.4425C522.447 45.8158 523.074 44.8602 523.544 43.5755C523.575 43.5285 523.63 43.5128 523.708 43.5285C523.787 43.5442 523.826 43.5755 523.826 43.6225L523.567 46.3015C523.552 46.4895 523.52 46.607 523.473 46.654C523.442 46.701 523.371 46.7558 523.262 46.8185C522.463 47.1788 521.695 47.4295 520.959 47.5705C520.238 47.7272 519.463 47.8055 518.632 47.8055C516.972 47.8055 515.491 47.4843 514.191 46.842C512.906 46.184 511.896 45.2832 511.159 44.1395C510.423 42.9802 510.055 41.6407 510.055 40.121C510.055 38.993 510.266 37.9668 510.689 37.0425C511.128 36.1182 511.739 35.3192 512.522 34.6455C513.306 33.9718 514.214 33.4548 515.248 33.0945C516.298 32.7342 517.442 32.554 518.679 32.554ZM540.102 47.5H530.091C530.044 47.5 530.02 47.453 530.02 47.359C530.02 47.265 530.044 47.218 530.091 47.218C530.623 47.218 531.023 47.1788 531.289 47.1005C531.571 47.0222 531.759 46.8655 531.853 46.6305C531.947 46.3955 531.994 46.0508 531.994 45.5965V34.716C531.994 34.2617 531.947 33.9248 531.853 33.7055C531.759 33.4705 531.571 33.3138 531.289 33.2355C531.023 33.1415 530.623 33.0945 530.091 33.0945C530.044 33.0945 530.02 33.0475 530.02 32.9535C530.02 32.8595 530.044 32.8125 530.091 32.8125H539.679C539.835 32.8125 539.914 32.883 539.914 33.024L539.961 35.985C539.961 36.032 539.914 36.0633 539.82 36.079C539.741 36.079 539.694 36.0555 539.679 36.0085C539.569 35.1468 539.264 34.4967 538.762 34.058C538.261 33.6037 537.603 33.3765 536.788 33.3765H535.59C535.12 33.3765 534.759 33.4157 534.509 33.494C534.258 33.5723 534.086 33.7212 533.992 33.9405C533.898 34.1442 533.851 34.434 533.851 34.81V45.5025C533.851 45.8785 533.89 46.1762 533.968 46.3955C534.062 46.5992 534.227 46.748 534.462 46.842C534.697 46.9203 535.026 46.9595 535.449 46.9595H537C537.893 46.9595 538.629 46.701 539.209 46.184C539.788 45.6513 540.188 44.8993 540.407 43.928C540.407 43.881 540.454 43.8653 540.548 43.881C540.642 43.8967 540.689 43.928 540.689 43.975C540.627 44.398 540.572 44.9072 540.525 45.5025C540.478 46.0978 540.454 46.6462 540.454 47.1475C540.454 47.3825 540.337 47.5 540.102 47.5ZM538.786 42.095C538.786 41.4213 538.59 40.9278 538.198 40.6145C537.822 40.2855 537.211 40.121 536.365 40.121H532.958V39.5805H536.436C537.235 39.5805 537.822 39.4473 538.198 39.181C538.574 38.899 538.762 38.4682 538.762 37.8885C538.762 37.8572 538.801 37.8415 538.88 37.8415C538.974 37.8415 539.021 37.8572 539.021 37.8885C539.021 38.3742 539.013 38.7502 538.997 39.0165C538.997 39.2828 538.997 39.5648 538.997 39.8625C538.997 40.2228 539.005 40.5832 539.021 40.9435C539.052 41.3038 539.068 41.6877 539.068 42.095C539.068 42.1263 539.021 42.142 538.927 42.142C538.833 42.142 538.786 42.1263 538.786 42.095ZM549.549 35.4445C549.549 36.0712 549.705 36.6117 550.019 37.066C550.332 37.5203 550.739 37.9277 551.241 38.288C551.742 38.6327 552.275 38.9773 552.839 39.322C553.418 39.6667 553.974 40.0348 554.507 40.4265C555.055 40.8182 555.502 41.2803 555.847 41.813C556.207 42.33 556.387 42.9645 556.387 43.7165C556.387 44.4842 556.183 45.1735 555.776 45.7845C555.384 46.3955 554.82 46.8812 554.084 47.2415C553.363 47.6018 552.494 47.782 551.476 47.782C551.068 47.782 550.653 47.7428 550.23 47.6645C549.823 47.6018 549.431 47.5078 549.055 47.3825C548.679 47.2572 548.334 47.1005 548.021 46.9125C547.958 46.8655 547.904 46.8107 547.857 46.748C547.825 46.6853 547.81 46.5913 547.81 46.466L547.575 43.1055C547.559 43.0272 547.59 42.988 547.669 42.988C547.763 42.9723 547.817 42.9958 547.833 43.0585C547.974 43.5442 548.162 44.0377 548.397 44.539C548.632 45.0403 548.914 45.5025 549.243 45.9255C549.572 46.3328 549.964 46.6697 550.418 46.936C550.888 47.2023 551.429 47.3355 552.04 47.3355C552.463 47.3355 552.87 47.2572 553.262 47.1005C553.669 46.9438 553.998 46.6853 554.249 46.325C554.499 45.949 554.625 45.432 554.625 44.774C554.625 44.022 554.46 43.3875 554.131 42.8705C553.802 42.3535 553.379 41.907 552.862 41.531C552.345 41.155 551.797 40.7947 551.217 40.45C550.669 40.1053 550.136 39.745 549.619 39.369C549.118 38.993 548.71 38.5622 548.397 38.0765C548.084 37.5752 547.927 36.972 547.927 36.267C547.927 35.421 548.146 34.7238 548.585 34.1755C549.039 33.6272 549.611 33.2198 550.301 32.9535C551.006 32.6872 551.726 32.554 552.463 32.554C552.948 32.554 553.442 32.601 553.943 32.695C554.444 32.789 554.899 32.9222 555.306 33.0945C555.447 33.1572 555.541 33.2277 555.588 33.306C555.635 33.3687 555.659 33.4392 555.659 33.5175L555.776 36.455C555.776 36.502 555.737 36.5333 555.659 36.549C555.58 36.5647 555.525 36.5412 555.494 36.4785C555.447 36.2122 555.345 35.8832 555.189 35.4915C555.032 35.0842 554.82 34.6925 554.554 34.3165C554.288 33.9248 553.943 33.6037 553.52 33.353C553.113 33.0867 552.611 32.9535 552.016 32.9535C551.468 32.9535 551.013 33.071 550.653 33.306C550.293 33.5253 550.019 33.823 549.831 34.199C549.643 34.5593 549.549 34.9745 549.549 35.4445Z" fill="#EDEAE2"/>
</svg>
