<svg width="30" height="13" viewBox="0 0 30 13" fill="none" xmlns="http://www.w3.org/2000/svg">
<g clip-path="url(#clip0_130_473)">
<path d="M0.638071 3.5433C1.74523 1.63487 3.44393 0.558509 5.58564 0.172794C8.62787 -0.3751 11.3426 0.393018 13.7351 2.29115C14.1494 2.6199 14.5267 2.98657 14.8845 3.37293C14.9459 3.43931 15.0107 3.49283 15.0326 3.63263C14.4289 3.66578 13.8374 3.71814 13.2781 3.44228C13.1344 3.3485 13.0375 3.20778 12.9285 3.08063C11.8272 1.79612 10.4757 0.891338 8.79111 0.513275C7.59419 0.244652 6.3911 0.24891 5.21723 0.620837C3.41912 1.19054 2.34329 2.43467 1.87439 4.19651C0.98944 7.52164 2.98638 10.9526 6.32496 11.7653C8.17664 12.2161 9.88589 11.7991 11.4121 10.684C12.4053 9.95831 13.1928 9.04246 13.9078 8.06189C14.7847 6.85946 15.5803 5.59838 16.6048 4.50268C18.4414 2.53845 20.5985 1.06726 23.2747 0.428101C25.4078 -0.0813637 27.4234 0.173198 29.4061 1.17776C29.7449 1.35675 29.7643 1.36006 29.5884 1.70312C29.4663 1.94117 29.3574 2.19385 29.2155 2.41299C29.0976 2.41299 29.0394 2.33614 28.9822 2.28045C27.7829 1.11261 26.3363 0.613231 24.6602 0.623969C22.8221 0.635745 21.3275 1.40234 20.0104 2.58286C18.8438 3.6284 17.9535 4.89343 17.0616 6.15507C16.1134 7.4965 15.1241 8.80169 13.827 9.84873C11.9512 11.3628 9.83328 12.3132 7.36635 12.271C5.00848 12.2306 2.93204 11.4586 1.35231 9.66649C0.574745 8.78438 0.151896 7.74466 0.0279548 6.58096C-0.086129 5.50982 0.155199 4.51603 0.638071 3.5433Z" fill="#EDEAE2"/>
<path d="M20.5927 10.5211C22.0425 11.8434 23.7721 12.3864 25.6955 12.3713C26.9287 12.3617 28.0899 12.0939 29.0433 11.2457C29.2683 11.0455 29.4445 10.8249 29.6521 10.59C30.1137 10.9852 30.1146 11.457 29.6645 11.8128C29.1528 12.2174 28.5403 12.4007 27.9107 12.5061C25.0664 12.9824 22.3602 12.61 19.8672 11.1317C18.7551 10.4722 17.8754 9.58144 17.3893 8.36337C17.2049 7.90125 17.1656 7.4243 17.1703 6.93545C17.1722 6.73359 17.2968 6.74049 17.4342 6.7359C18.0134 6.71655 18.5936 6.7109 19.1716 6.67343C21.8528 6.49961 24.53 6.28579 27.1722 5.77632C27.4576 5.7213 27.7388 5.64547 28.0472 5.57336C28.0773 5.92841 27.9895 6.24463 27.945 6.56376C27.873 7.08047 27.7926 7.59605 27.719 8.11254C27.7038 8.21902 27.6982 8.32662 27.5478 8.31608C27.3965 8.30547 27.4081 8.18942 27.4044 8.0876C27.4011 7.99436 27.4046 7.90088 27.4014 7.80762C27.3862 7.36986 27.2146 7.14615 26.7902 6.99952C26.3987 6.86428 25.9856 6.84011 25.5817 6.82705C24.2325 6.78342 22.8817 6.85063 21.5357 6.90343C20.7667 6.93109 19.9978 6.9616 19.2286 6.97511C18.9976 6.97916 18.9055 7.04692 18.9214 7.28314C18.9839 8.20892 19.3664 9.00962 19.9004 9.75279C20.0981 10.0279 20.3259 10.2787 20.5927 10.5211Z" fill="#EDEAE2"/>
</g>
<defs>
<clipPath id="clip0_130_473">
<rect width="30" height="12.7012" fill="white"/>
</clipPath>
</defs>
</svg>
