<svg width="32" height="32" viewBox="0 0 32 32" fill="none" xmlns="http://www.w3.org/2000/svg">
<rect width="32" height="32" fill="#EDEAE2"/>
<path d="M1.63807 13.1933C2.74523 11.2849 4.44393 10.2085 6.58564 9.8228C9.62787 9.2749 12.3426 10.043 14.7351 11.9412C15.1494 12.2699 15.5267 12.6366 15.8845 13.0229C15.9459 13.0893 16.0107 13.1428 16.0326 13.2826C15.4289 13.3158 14.8374 13.3681 14.2781 13.0923C14.1344 12.9985 14.0375 12.8578 13.9285 12.7306C12.8272 11.4461 11.4757 10.5413 9.79111 10.1633C8.59419 9.89465 7.3911 9.89891 6.21723 10.2708C4.41912 10.8405 3.34329 12.0847 2.87439 13.8465C1.98944 17.1716 3.98638 20.6026 7.32496 21.4153C9.17664 21.8661 10.8859 21.4491 12.4121 20.334C13.4053 19.6083 14.1928 18.6925 14.9078 17.7119C15.7847 16.5095 16.5803 15.2484 17.6048 14.1527C19.4414 12.1885 21.5985 10.7173 24.2747 10.0781C26.4078 9.56864 28.4234 9.8232 30.4061 10.8278C30.7449 11.0068 30.7643 11.0101 30.5884 11.3531C30.4663 11.5912 30.3574 11.8438 30.2155 12.063C30.0976 12.063 30.0394 11.9861 29.9822 11.9304C28.7829 10.7626 27.3363 10.2632 25.6602 10.274C23.8221 10.2857 22.3275 11.0523 21.0104 12.2329C19.8438 13.2784 18.9535 14.5434 18.0616 15.8051C17.1134 17.1465 16.1241 18.4517 14.827 19.4987C12.9512 21.0128 10.8333 21.9632 8.36635 21.921C6.00848 21.8806 3.93204 21.1086 2.35231 19.3165C1.57475 18.4344 1.1519 17.3947 1.02795 16.231C0.913871 15.1598 1.1552 14.166 1.63807 13.1933Z" fill="#0F1C2E"/>
<path d="M21.5927 20.1711C23.0425 21.4934 24.7721 22.0364 26.6955 22.0213C27.9287 22.0117 29.0899 21.7439 30.0433 20.8957C30.2683 20.6955 30.4445 20.4749 30.6521 20.24C31.1137 20.6352 31.1146 21.107 30.6645 21.4628C30.1528 21.8674 29.5403 22.0507 28.9107 22.1561C26.0664 22.6324 23.3602 22.26 20.8672 20.7817C19.7551 20.1222 18.8754 19.2314 18.3893 18.0134C18.2049 17.5512 18.1656 17.0743 18.1703 16.5854C18.1722 16.3836 18.2968 16.3905 18.4342 16.3859C19.0134 16.3665 19.5936 16.3609 20.1716 16.3234C22.8528 16.1496 25.53 15.9358 28.1722 15.4263C28.4576 15.3713 28.7388 15.2955 29.0472 15.2234C29.0773 15.5784 28.9895 15.8946 28.945 16.2138C28.873 16.7305 28.7926 17.246 28.719 17.7625C28.7038 17.869 28.6982 17.9766 28.5478 17.9661C28.3965 17.9555 28.4081 17.8394 28.4044 17.7376C28.4011 17.6444 28.4046 17.5509 28.4014 17.4576C28.3862 17.0199 28.2146 16.7961 27.7902 16.6495C27.3987 16.5143 26.9856 16.4901 26.5817 16.477C25.2325 16.4334 23.8817 16.5006 22.5357 16.5534C21.7667 16.5811 20.9978 16.6116 20.2286 16.6251C19.9976 16.6292 19.9055 16.6969 19.9214 16.9331C19.9839 17.8589 20.3664 18.6596 20.9004 19.4028C21.0981 19.6779 21.3259 19.9287 21.5927 20.1711Z" fill="#0F1C2E"/>
</svg>
