<svg width="1180" height="160" viewBox="0 0 1180 160" fill="none" xmlns="http://www.w3.org/2000/svg">
<path d="M8.03784 44.6357C21.9849 20.5948 43.3835 7.03566 70.3628 2.17673C108.686 -4.72522 142.884 4.95094 173.022 28.8622C178.242 33.0035 182.995 37.6224 187.501 42.4896C188.275 43.3258 189.091 44 189.367 45.7611C181.762 46.1786 174.311 46.8382 167.265 43.3631C165.455 42.1818 164.234 40.4091 162.861 38.8074C148.989 22.6261 131.963 11.2284 110.742 6.46584C95.6647 3.08193 80.5093 3.13557 65.7219 7.82082C43.071 14.9975 29.5186 30.6701 23.6119 52.8644C12.4641 94.7518 37.6197 137.973 79.6761 148.21C103.002 153.889 124.533 148.635 143.759 134.588C156.27 125.447 166.19 113.91 175.198 101.557C186.244 86.4101 196.267 70.524 209.173 56.7212C232.308 31.9774 259.482 13.4445 293.194 5.39288C320.065 -1.02496 345.455 2.18182 370.431 14.8365C374.7 17.0913 374.943 17.133 372.728 21.4545C371.19 24.4534 369.819 27.6364 368.031 30.3969C366.546 30.3969 365.812 29.4289 365.091 28.7273C349.984 14.0157 331.761 7.725 310.647 7.86028C287.493 8.00861 268.665 17.6656 252.073 32.5368C237.378 45.7077 226.162 61.6436 214.927 77.5368C202.982 94.4351 190.519 110.877 174.179 124.067C150.551 143.14 123.871 155.112 92.7947 154.58C63.0923 154.071 36.9351 144.347 17.0352 121.771C7.24012 110.659 1.91345 97.5612 0.352149 82.9018C-1.08498 69.4084 1.95506 56.8894 8.03784 44.6357Z" fill="#0F1C2E"/>
<path d="M259.402 132.537C277.666 149.194 299.454 156.034 323.682 155.844C339.217 155.723 353.845 152.35 365.855 141.665C368.69 139.143 370.909 136.364 373.525 133.405C379.339 138.383 379.35 144.327 373.681 148.809C367.235 153.905 359.519 156.214 351.588 157.542C315.757 163.542 281.668 158.851 250.263 140.228C236.254 131.92 225.172 120.7 219.049 105.355C216.726 99.5338 216.231 93.5255 216.29 87.3674C216.314 84.8245 217.883 84.9114 219.614 84.8536C226.911 84.6098 234.219 84.5387 241.501 84.0666C275.276 81.877 309 79.1834 342.285 72.7656C345.879 72.0724 349.422 71.1171 353.308 70.2089C353.686 74.6814 352.58 78.6649 352.02 82.6851C351.113 89.1942 350.1 95.689 349.172 102.195C348.981 103.537 348.911 104.892 347.017 104.759C345.111 104.626 345.256 103.164 345.21 101.881C345.168 100.707 345.213 99.529 345.172 98.3543C344.981 92.8397 342.819 90.0216 337.472 88.1744C332.541 86.4708 327.337 86.1664 322.25 86.0018C305.254 85.4522 288.237 86.2988 271.281 86.964C261.595 87.3124 251.908 87.6968 242.218 87.8669C239.308 87.918 238.148 88.7715 238.349 91.7473C239.136 103.409 243.954 113.496 250.681 122.858C253.172 126.324 256.041 129.484 259.402 132.537Z" fill="#0F1C2E"/>
<line x1="405.5" y1="144" x2="405.5" y2="24" stroke="#0F1C2E"/>
<path d="M464.655 64.472C465.871 64.472 466.991 64.536 468.015 64.664C469.071 64.76 470.047 64.936 470.943 65.192C471.871 65.448 472.751 65.784 473.583 66.2C473.839 66.296 473.983 66.408 474.015 66.536C474.079 66.632 474.127 66.872 474.159 67.256L474.783 73.304C474.783 73.368 474.687 73.432 474.495 73.496C474.335 73.528 474.239 73.48 474.207 73.352C473.407 70.696 472.191 68.696 470.559 67.352C468.927 65.976 466.847 65.288 464.319 65.288C461.759 65.288 459.519 65.88 457.599 67.064C455.679 68.248 454.175 69.928 453.087 72.104C451.999 74.248 451.455 76.792 451.455 79.736C451.455 81.912 451.791 83.912 452.463 85.736C453.135 87.56 454.063 89.16 455.247 90.536C456.463 91.88 457.855 92.92 459.423 93.656C461.023 94.392 462.735 94.76 464.559 94.76C467.119 94.76 469.183 94.12 470.751 92.84C472.351 91.56 473.631 89.608 474.591 86.984C474.655 86.888 474.767 86.856 474.927 86.888C475.087 86.92 475.167 86.984 475.167 87.08L474.639 92.552C474.607 92.936 474.543 93.176 474.447 93.272C474.383 93.368 474.239 93.48 474.015 93.608C472.383 94.344 470.815 94.856 469.311 95.144C467.839 95.464 466.255 95.624 464.559 95.624C461.167 95.624 458.143 94.968 455.487 93.656C452.863 92.312 450.799 90.472 449.295 88.136C447.791 85.768 447.039 83.032 447.039 79.928C447.039 77.624 447.471 75.528 448.335 73.64C449.231 71.752 450.479 70.12 452.079 68.744C453.679 67.368 455.535 66.312 457.647 65.576C459.791 64.84 462.127 64.472 464.655 64.472ZM512.783 71.03C512.783 69.4633 512.423 68.2727 511.702 67.458C511.013 66.612 509.979 66.189 508.6 66.189C508.506 66.189 508.459 66.095 508.459 65.907C508.459 65.719 508.506 65.625 508.6 65.625C509.321 65.625 510.073 65.6563 510.856 65.719C511.64 65.7503 512.486 65.766 513.394 65.766C514.178 65.766 514.945 65.7503 515.697 65.719C516.481 65.6563 517.201 65.625 517.859 65.625C517.922 65.625 517.953 65.719 517.953 65.907C517.953 66.095 517.922 66.189 517.859 66.189C516.606 66.189 515.65 66.612 514.992 67.458C514.366 68.2727 514.052 69.4633 514.052 71.03V84.331C514.052 86.681 513.582 88.702 512.642 90.394C511.702 92.086 510.386 93.3863 508.694 94.295C507.002 95.1723 505.028 95.611 502.772 95.611C500.454 95.611 498.417 95.1723 496.662 94.295C494.908 93.3863 493.545 92.1017 492.573 90.441C491.602 88.7803 491.116 86.8063 491.116 84.519V69.432C491.116 68.5233 491.022 67.8497 490.834 67.411C490.646 66.941 490.27 66.6277 489.706 66.471C489.174 66.283 488.375 66.189 487.309 66.189C487.215 66.189 487.168 66.095 487.168 65.907C487.168 65.719 487.215 65.625 487.309 65.625C488.093 65.625 488.954 65.6563 489.894 65.719C490.834 65.7503 491.853 65.766 492.949 65.766C494.077 65.766 495.111 65.7503 496.051 65.719C497.023 65.6563 497.869 65.625 498.589 65.625C498.683 65.625 498.73 65.719 498.73 65.907C498.73 66.095 498.683 66.189 498.589 66.189C497.524 66.189 496.709 66.283 496.145 66.471C495.613 66.659 495.252 66.988 495.064 67.458C494.908 67.928 494.829 68.6173 494.829 69.526V82.874C494.829 86.634 495.644 89.454 497.273 91.334C498.903 93.1827 501.159 94.107 504.041 94.107C506.799 94.107 508.945 93.261 510.48 91.569C512.016 89.8457 512.783 87.4487 512.783 84.378V71.03ZM552.696 95C552.194 95 551.364 94.4047 550.205 93.214C549.077 91.992 547.714 90.2687 546.116 88.044C544.518 85.788 542.716 83.109 540.711 80.007L543.86 79.02C546.492 82.8113 548.716 85.835 550.534 88.091C552.382 90.347 554.012 91.9763 555.422 92.979C556.832 93.9503 558.179 94.436 559.464 94.436C559.558 94.436 559.605 94.53 559.605 94.718C559.605 94.906 559.558 95 559.464 95C557.709 95 556.268 95 555.14 95C554.043 95 553.228 95 552.696 95ZM541.416 65.484C544.048 65.484 546.053 66.048 547.432 67.176C548.842 68.2727 549.547 69.7453 549.547 71.594C549.547 73.3487 549.045 74.9153 548.043 76.294C547.04 77.6727 545.724 78.7537 544.095 79.537C542.497 80.3203 540.773 80.712 538.925 80.712C538.549 80.712 538.157 80.712 537.75 80.712C537.342 80.6807 536.966 80.6493 536.622 80.618V91.193C536.622 92.1017 536.7 92.791 536.857 93.261C537.045 93.731 537.405 94.0443 537.938 94.201C538.502 94.3577 539.332 94.436 540.429 94.436C540.523 94.436 540.57 94.53 540.57 94.718C540.57 94.906 540.523 95 540.429 95C539.645 95 538.784 94.9843 537.844 94.953C536.904 94.9217 535.87 94.906 534.742 94.906C533.676 94.906 532.658 94.9217 531.687 94.953C530.715 94.9843 529.838 95 529.055 95C528.961 95 528.914 94.906 528.914 94.718C528.914 94.53 528.961 94.436 529.055 94.436C530.12 94.436 530.919 94.3577 531.452 94.201C532.016 94.0443 532.392 93.731 532.58 93.261C532.799 92.791 532.909 92.1017 532.909 91.193V69.432C532.909 68.5233 532.815 67.8497 532.627 67.411C532.439 66.941 532.078 66.6277 531.546 66.471C531.013 66.283 530.198 66.189 529.102 66.189C529.039 66.189 529.008 66.095 529.008 65.907C529.008 65.719 529.039 65.625 529.102 65.625C529.885 65.625 530.747 65.6563 531.687 65.719C532.658 65.7503 533.676 65.766 534.742 65.766C535.744 65.766 536.872 65.719 538.126 65.625C539.379 65.531 540.476 65.484 541.416 65.484ZM545.693 73.098C545.693 71.3433 545.458 69.9803 544.988 69.009C544.518 68.0063 543.844 67.3013 542.967 66.894C542.121 66.4867 541.118 66.283 539.959 66.283C538.768 66.283 537.906 66.5023 537.374 66.941C536.872 67.3483 536.622 68.21 536.622 69.526V79.443C537.06 79.4743 537.53 79.5057 538.032 79.537C538.564 79.5683 539.019 79.584 539.395 79.584C541.713 79.584 543.343 79.0513 544.283 77.986C545.223 76.9207 545.693 75.2913 545.693 73.098ZM576.039 82.733L576.603 81.699H589.387L589.716 82.733H576.039ZM600.338 94.436C600.494 94.436 600.573 94.53 600.573 94.718C600.573 94.906 600.494 95 600.338 95C599.429 95 598.489 94.9687 597.518 94.906C596.578 94.8433 595.653 94.812 594.745 94.812C593.742 94.812 592.865 94.8433 592.113 94.906C591.392 94.9687 590.577 95 589.669 95C589.543 95 589.481 94.906 589.481 94.718C589.481 94.53 589.543 94.436 589.669 94.436C591.204 94.436 592.144 94.201 592.489 93.731C592.833 93.2297 592.661 92.2583 591.972 90.817L581.867 69.808L583.371 67.552L574.206 88.796C573.391 90.7073 573.344 92.133 574.065 93.073C574.785 93.9817 576.133 94.436 578.107 94.436C578.263 94.436 578.342 94.53 578.342 94.718C578.342 94.906 578.263 95 578.107 95C577.167 95 576.305 94.9687 575.522 94.906C574.738 94.8433 573.751 94.812 572.561 94.812C571.401 94.812 570.461 94.8433 569.741 94.906C569.051 94.9687 568.205 95 567.203 95C567.077 95 567.015 94.906 567.015 94.718C567.015 94.53 567.077 94.436 567.203 94.436C568.049 94.436 568.785 94.2793 569.412 93.966C570.038 93.6213 570.634 93.0103 571.198 92.133C571.793 91.2557 572.435 90.0023 573.125 88.373L583.136 65.296C583.167 65.202 583.277 65.155 583.465 65.155C583.653 65.1237 583.762 65.1707 583.794 65.296L595.074 88.561C595.826 90.0963 596.468 91.3027 597.001 92.18C597.565 93.026 598.113 93.6213 598.646 93.966C599.178 94.2793 599.742 94.436 600.338 94.436ZM614.708 66.565C612.765 66.565 611.245 67.1133 610.149 68.21C609.052 69.2753 608.237 70.9987 607.705 73.38C607.673 73.4427 607.564 73.474 607.376 73.474C607.219 73.474 607.141 73.427 607.141 73.333C607.203 72.9257 607.266 72.346 607.329 71.594C607.423 70.842 607.501 70.0273 607.564 69.15C607.626 68.2727 607.673 67.4267 607.705 66.612C607.767 65.7973 607.799 65.1237 607.799 64.591C607.799 64.4343 607.893 64.356 608.081 64.356C608.269 64.356 608.363 64.4343 608.363 64.591C608.363 64.9043 608.519 65.1393 608.833 65.296C609.146 65.4213 609.506 65.5153 609.914 65.578C610.321 65.6093 610.666 65.625 610.948 65.625C613.642 65.719 616.791 65.766 620.395 65.766C622.588 65.766 624.343 65.7503 625.659 65.719C626.975 65.6563 628.244 65.625 629.466 65.625C630.531 65.625 631.346 65.5623 631.91 65.437C632.505 65.2803 632.881 64.9513 633.038 64.45C633.069 64.3247 633.163 64.262 633.32 64.262C633.508 64.262 633.602 64.3247 633.602 64.45C633.539 64.92 633.476 65.578 633.414 66.424C633.382 67.27 633.335 68.1473 633.273 69.056C633.241 69.9647 633.21 70.8107 633.179 71.594C633.147 72.3773 633.132 72.957 633.132 73.333C633.132 73.427 633.038 73.474 632.85 73.474C632.693 73.474 632.615 73.427 632.615 73.333C632.395 70.889 631.769 69.15 630.735 68.116C629.701 67.082 628.165 66.565 626.129 66.565C625.032 66.565 624.202 66.6433 623.638 66.8C623.105 66.9253 622.745 67.1917 622.557 67.599C622.4 68.0063 622.322 68.6487 622.322 69.526V91.193C622.322 92.1017 622.416 92.791 622.604 93.261C622.823 93.731 623.23 94.0443 623.826 94.201C624.452 94.3577 625.408 94.436 626.693 94.436C626.755 94.436 626.787 94.53 626.787 94.718C626.787 94.906 626.755 95 626.693 95C625.847 95 624.891 94.9843 623.826 94.953C622.792 94.9217 621.648 94.906 620.395 94.906C619.204 94.906 618.076 94.9217 617.011 94.953C615.977 94.9843 615.021 95 614.144 95C614.05 95 614.003 94.906 614.003 94.718C614.003 94.53 614.05 94.436 614.144 94.436C615.366 94.436 616.29 94.3577 616.917 94.201C617.575 94.0443 618.013 93.731 618.233 93.261C618.452 92.791 618.562 92.1017 618.562 91.193V69.432C618.562 68.586 618.468 67.9593 618.28 67.552C618.092 67.1133 617.716 66.847 617.152 66.753C616.588 66.6277 615.773 66.565 614.708 66.565ZM665.548 95H645.526C645.432 95 645.385 94.906 645.385 94.718C645.385 94.53 645.432 94.436 645.526 94.436C646.592 94.436 647.391 94.3577 647.923 94.201C648.487 94.0443 648.863 93.731 649.051 93.261C649.239 92.791 649.333 92.1017 649.333 91.193V69.432C649.333 68.5233 649.239 67.8497 649.051 67.411C648.863 66.941 648.487 66.6277 647.923 66.471C647.391 66.283 646.592 66.189 645.526 66.189C645.432 66.189 645.385 66.095 645.385 65.907C645.385 65.719 645.432 65.625 645.526 65.625H664.702C665.016 65.625 665.172 65.766 665.172 66.048L665.266 71.97C665.266 72.064 665.172 72.1267 664.984 72.158C664.828 72.158 664.734 72.111 664.702 72.017C664.483 70.2937 663.872 68.9933 662.869 68.116C661.867 67.2073 660.551 66.753 658.921 66.753H656.524C655.584 66.753 654.864 66.8313 654.362 66.988C653.861 67.1447 653.516 67.4423 653.328 67.881C653.14 68.2883 653.046 68.868 653.046 69.62V91.005C653.046 91.757 653.125 92.3523 653.281 92.791C653.469 93.1983 653.798 93.496 654.268 93.684C654.738 93.8407 655.396 93.919 656.242 93.919H659.344C661.13 93.919 662.603 93.402 663.762 92.368C664.922 91.3027 665.721 89.7987 666.159 87.856C666.159 87.762 666.253 87.7307 666.441 87.762C666.629 87.7933 666.723 87.856 666.723 87.95C666.598 88.796 666.488 89.8143 666.394 91.005C666.3 92.1957 666.253 93.2923 666.253 94.295C666.253 94.765 666.018 95 665.548 95ZM662.916 84.19C662.916 82.8427 662.525 81.8557 661.741 81.229C660.989 80.571 659.767 80.242 658.075 80.242H651.26V79.161H658.216C659.814 79.161 660.989 78.8947 661.741 78.362C662.493 77.798 662.869 76.9363 662.869 75.777C662.869 75.7143 662.948 75.683 663.104 75.683C663.292 75.683 663.386 75.7143 663.386 75.777C663.386 76.7483 663.371 77.5003 663.339 78.033C663.339 78.5657 663.339 79.1297 663.339 79.725C663.339 80.4457 663.355 81.1663 663.386 81.887C663.449 82.6077 663.48 83.3753 663.48 84.19C663.48 84.2527 663.386 84.284 663.198 84.284C663.01 84.284 662.916 84.2527 662.916 84.19ZM691.774 95.188C690.834 95.188 689.675 95.141 688.296 95.047C686.917 94.953 685.648 94.906 684.489 94.906C683.424 94.906 682.39 94.9217 681.387 94.953C680.416 94.9843 679.538 95 678.755 95C678.692 95 678.661 94.906 678.661 94.718C678.661 94.53 678.692 94.436 678.755 94.436C679.852 94.436 680.682 94.3577 681.246 94.201C681.81 94.0443 682.186 93.731 682.374 93.261C682.562 92.791 682.656 92.1017 682.656 91.193V69.432C682.656 68.5233 682.562 67.8497 682.374 67.411C682.186 66.941 681.81 66.6277 681.246 66.471C680.713 66.283 679.914 66.189 678.849 66.189C678.755 66.189 678.708 66.095 678.708 65.907C678.708 65.719 678.755 65.625 678.849 65.625C679.632 65.625 680.494 65.6563 681.434 65.719C682.405 65.7503 683.424 65.766 684.489 65.766C685.554 65.766 686.698 65.7347 687.92 65.672C689.173 65.578 690.239 65.531 691.116 65.531C694.437 65.531 697.32 66.1577 699.764 67.411C702.239 68.6643 704.166 70.372 705.545 72.534C706.924 74.696 707.613 77.1243 707.613 79.819C707.613 82.169 707.19 84.2997 706.344 86.211C705.529 88.091 704.386 89.7047 702.913 91.052C701.44 92.368 699.748 93.3863 697.837 94.107C695.926 94.8277 693.905 95.188 691.774 95.188ZM691.304 94.342C693.654 94.342 695.722 93.825 697.508 92.791C699.325 91.757 700.751 90.2373 701.785 88.232C702.819 86.1953 703.336 83.7357 703.336 80.853C703.336 78.127 702.85 75.683 701.879 73.521C700.908 71.3277 699.545 69.5887 697.79 68.304C696.067 66.988 693.999 66.33 691.586 66.33C689.706 66.33 688.359 66.518 687.544 66.894C686.761 67.27 686.369 68.1473 686.369 69.526V90.676C686.369 91.9293 686.682 92.8537 687.309 93.449C687.936 94.0443 689.267 94.342 691.304 94.342ZM759.089 95H738.641C738.545 95 738.497 94.904 738.497 94.712C738.497 94.52 738.545 94.424 738.641 94.424C739.729 94.424 740.545 94.344 741.089 94.184C741.665 94.024 742.049 93.704 742.241 93.224C742.433 92.744 742.529 92.04 742.529 91.112V68.888C742.529 67.96 742.433 67.272 742.241 66.824C742.049 66.344 741.665 66.024 741.089 65.864C740.545 65.672 739.729 65.576 738.641 65.576C738.545 65.576 738.497 65.48 738.497 65.288C738.497 65.096 738.545 65 738.641 65H758.225C758.545 65 758.705 65.144 758.705 65.432L758.801 71.48C758.801 71.576 758.705 71.64 758.513 71.672C758.353 71.672 758.257 71.624 758.225 71.528C758.001 69.768 757.377 68.44 756.353 67.544C755.329 66.616 753.985 66.152 752.321 66.152H749.873C748.913 66.152 748.177 66.232 747.665 66.392C747.153 66.552 746.801 66.856 746.609 67.304C746.417 67.72 746.321 68.312 746.321 69.08V90.92C746.321 91.688 746.401 92.296 746.561 92.744C746.753 93.16 747.089 93.464 747.569 93.656C748.049 93.816 748.721 93.896 749.585 93.896H752.753C754.577 93.896 756.081 93.368 757.265 92.312C758.449 91.224 759.265 89.688 759.713 87.704C759.713 87.608 759.809 87.576 760.001 87.608C760.193 87.64 760.289 87.704 760.289 87.8C760.161 88.664 760.049 89.704 759.953 90.92C759.857 92.136 759.809 93.256 759.809 94.28C759.809 94.76 759.569 95 759.089 95ZM756.401 83.96C756.401 82.584 756.001 81.576 755.201 80.936C754.433 80.264 753.185 79.928 751.457 79.928H744.497V78.824H751.601C753.233 78.824 754.433 78.552 755.201 78.008C755.969 77.432 756.353 76.552 756.353 75.368C756.353 75.304 756.433 75.272 756.593 75.272C756.785 75.272 756.881 75.304 756.881 75.368C756.881 76.36 756.865 77.128 756.833 77.672C756.833 78.216 756.833 78.792 756.833 79.4C756.833 80.136 756.849 80.872 756.881 81.608C756.945 82.344 756.977 83.128 756.977 83.96C756.977 84.024 756.881 84.056 756.689 84.056C756.497 84.056 756.401 84.024 756.401 83.96ZM790.262 95C790.2 95 790.168 94.906 790.168 94.718C790.168 94.53 790.2 94.436 790.262 94.436C791.234 94.436 791.876 94.3107 792.189 94.06C792.534 93.8093 792.471 93.3237 792.001 92.603L777.008 69.714C776.162 68.4293 775.332 67.5207 774.517 66.988C773.734 66.4553 772.841 66.189 771.838 66.189C771.776 66.189 771.744 66.095 771.744 65.907C771.744 65.719 771.776 65.625 771.838 65.625C772.434 65.625 773.06 65.6563 773.718 65.719C774.376 65.7503 774.987 65.766 775.551 65.766C776.836 65.766 778.027 65.7503 779.123 65.719C780.22 65.6563 781.176 65.625 781.99 65.625C782.084 65.625 782.131 65.719 782.131 65.907C782.131 66.095 782.084 66.189 781.99 66.189C781.019 66.189 780.361 66.3143 780.016 66.565C779.703 66.8157 779.781 67.317 780.251 68.069L795.385 91.099C796.2 92.321 797.03 93.1827 797.876 93.684C798.722 94.1853 799.756 94.436 800.978 94.436C801.041 94.436 801.072 94.53 801.072 94.718C801.072 94.906 801.041 95 800.978 95C800.32 95 799.6 94.9843 798.816 94.953C798.033 94.9217 797.203 94.906 796.325 94.906C795.041 94.906 793.913 94.9217 792.941 94.953C792.001 94.9843 791.108 95 790.262 95ZM771.603 95C771.509 95 771.462 94.906 771.462 94.718C771.462 94.53 771.509 94.436 771.603 94.436C772.606 94.436 773.703 94.0443 774.893 93.261C776.084 92.4777 777.29 91.24 778.512 89.548L785.186 80.43L785.844 80.947L779.687 89.642C778.591 91.146 778.152 92.321 778.371 93.167C778.622 94.013 779.499 94.436 781.003 94.436C781.097 94.436 781.144 94.53 781.144 94.718C781.144 94.906 781.097 95 781.003 95C780.157 95 779.343 94.9843 778.559 94.953C777.776 94.9217 776.758 94.906 775.504 94.906C774.658 94.906 773.985 94.9217 773.483 94.953C772.982 94.9843 772.355 95 771.603 95ZM786.643 80.242L785.985 79.725L791.954 71.218C793.082 69.62 793.537 68.3823 793.317 67.505C793.129 66.6277 792.299 66.189 790.826 66.189C790.732 66.189 790.685 66.095 790.685 65.907C790.685 65.719 790.732 65.625 790.826 65.625C791.672 65.625 792.487 65.6563 793.27 65.719C794.054 65.7503 795.072 65.766 796.325 65.766C797.171 65.766 797.845 65.7503 798.346 65.719C798.848 65.6563 799.459 65.625 800.179 65.625C800.273 65.625 800.32 65.719 800.32 65.907C800.32 66.095 800.273 66.189 800.179 66.189C799.208 66.189 798.111 66.612 796.889 67.458C795.667 68.304 794.414 69.6043 793.129 71.359L786.643 80.242ZM819.186 91.005C819.186 91.945 819.295 92.6657 819.515 93.167C819.765 93.637 820.267 93.966 821.019 94.154C821.771 94.342 822.899 94.436 824.403 94.436C824.497 94.436 824.544 94.53 824.544 94.718C824.544 94.906 824.497 95 824.403 95C823.4 95 822.303 94.9843 821.113 94.953C819.953 94.9217 818.684 94.906 817.306 94.906C816.272 94.906 815.253 94.9217 814.251 94.953C813.279 94.9843 812.402 95 811.619 95C811.556 95 811.525 94.906 811.525 94.718C811.525 94.53 811.556 94.436 811.619 94.436C812.715 94.436 813.53 94.3577 814.063 94.201C814.627 94.0443 814.987 93.731 815.144 93.261C815.332 92.791 815.426 92.1017 815.426 91.193V69.432C815.426 68.5233 815.332 67.8497 815.144 67.411C814.987 66.941 814.627 66.6277 814.063 66.471C813.53 66.283 812.715 66.189 811.619 66.189C811.556 66.189 811.525 66.095 811.525 65.907C811.525 65.719 811.556 65.625 811.619 65.625C812.402 65.625 813.279 65.6563 814.251 65.719C815.222 65.7503 816.225 65.766 817.259 65.766C818.073 65.766 819.06 65.719 820.22 65.625C821.41 65.531 822.601 65.484 823.792 65.484C825.609 65.484 827.238 65.7503 828.68 66.283C830.152 66.8157 831.327 67.646 832.205 68.774C833.082 69.902 833.536 71.3747 833.568 73.192C833.568 74.8213 833.27 76.2313 832.675 77.422C832.079 78.6127 831.265 79.5997 830.231 80.383C829.228 81.1663 828.1 81.746 826.847 82.122C825.625 82.498 824.418 82.686 823.228 82.686C822.852 82.686 822.46 82.6703 822.053 82.639C821.677 82.6077 821.316 82.545 820.972 82.451C820.846 82.4197 820.799 82.31 820.831 82.122C820.893 81.9027 820.972 81.8087 821.066 81.84C821.348 81.9027 821.63 81.9497 821.912 81.981C822.225 82.0123 822.491 82.028 822.711 82.028C823.901 82.028 824.998 81.746 826.001 81.182C827.003 80.618 827.818 79.7563 828.445 78.597C829.071 77.4063 829.385 75.9337 829.385 74.179C829.385 72.487 829.087 71.0613 828.492 69.902C827.928 68.7427 827.129 67.8497 826.095 67.223C825.061 66.5963 823.87 66.283 822.523 66.283C821.645 66.283 820.956 66.3457 820.455 66.471C819.985 66.5963 819.656 66.894 819.468 67.364C819.28 67.834 819.186 68.5547 819.186 69.526V91.005ZM865.711 95H845.689C845.595 95 845.548 94.906 845.548 94.718C845.548 94.53 845.595 94.436 845.689 94.436C846.754 94.436 847.553 94.3577 848.086 94.201C848.65 94.0443 849.026 93.731 849.214 93.261C849.402 92.791 849.496 92.1017 849.496 91.193V69.432C849.496 68.5233 849.402 67.8497 849.214 67.411C849.026 66.941 848.65 66.6277 848.086 66.471C847.553 66.283 846.754 66.189 845.689 66.189C845.595 66.189 845.548 66.095 845.548 65.907C845.548 65.719 845.595 65.625 845.689 65.625H864.865C865.178 65.625 865.335 65.766 865.335 66.048L865.429 71.97C865.429 72.064 865.335 72.1267 865.147 72.158C864.99 72.158 864.896 72.111 864.865 72.017C864.645 70.2937 864.034 68.9933 863.032 68.116C862.029 67.2073 860.713 66.753 859.084 66.753H856.687C855.747 66.753 855.026 66.8313 854.525 66.988C854.023 67.1447 853.679 67.4423 853.491 67.881C853.303 68.2883 853.209 68.868 853.209 69.62V91.005C853.209 91.757 853.287 92.3523 853.444 92.791C853.632 93.1983 853.961 93.496 854.431 93.684C854.901 93.8407 855.559 93.919 856.405 93.919H859.507C861.293 93.919 862.765 93.402 863.925 92.368C865.084 91.3027 865.883 89.7987 866.322 87.856C866.322 87.762 866.416 87.7307 866.604 87.762C866.792 87.7933 866.886 87.856 866.886 87.95C866.76 88.796 866.651 89.8143 866.557 91.005C866.463 92.1957 866.416 93.2923 866.416 94.295C866.416 94.765 866.181 95 865.711 95ZM863.079 84.19C863.079 82.8427 862.687 81.8557 861.904 81.229C861.152 80.571 859.93 80.242 858.238 80.242H851.423V79.161H858.379C859.977 79.161 861.152 78.8947 861.904 78.362C862.656 77.798 863.032 76.9363 863.032 75.777C863.032 75.7143 863.11 75.683 863.267 75.683C863.455 75.683 863.549 75.7143 863.549 75.777C863.549 76.7483 863.533 77.5003 863.502 78.033C863.502 78.5657 863.502 79.1297 863.502 79.725C863.502 80.4457 863.517 81.1663 863.549 81.887C863.611 82.6077 863.643 83.3753 863.643 84.19C863.643 84.2527 863.549 84.284 863.361 84.284C863.173 84.284 863.079 84.2527 863.079 84.19ZM903.028 95C902.527 95 901.697 94.4047 900.537 93.214C899.409 91.992 898.046 90.2687 896.448 88.044C894.85 85.788 893.049 83.109 891.043 80.007L894.192 79.02C896.824 82.8113 899.049 85.835 900.866 88.091C902.715 90.347 904.344 91.9763 905.754 92.979C907.164 93.9503 908.512 94.436 909.796 94.436C909.89 94.436 909.937 94.53 909.937 94.718C909.937 94.906 909.89 95 909.796 95C908.042 95 906.6 95 905.472 95C904.376 95 903.561 95 903.028 95ZM891.748 65.484C894.38 65.484 896.386 66.048 897.764 67.176C899.174 68.2727 899.879 69.7453 899.879 71.594C899.879 73.3487 899.378 74.9153 898.375 76.294C897.373 77.6727 896.057 78.7537 894.427 79.537C892.829 80.3203 891.106 80.712 889.257 80.712C888.881 80.712 888.49 80.712 888.082 80.712C887.675 80.6807 887.299 80.6493 886.954 80.618V91.193C886.954 92.1017 887.033 92.791 887.189 93.261C887.377 93.731 887.738 94.0443 888.27 94.201C888.834 94.3577 889.665 94.436 890.761 94.436C890.855 94.436 890.902 94.53 890.902 94.718C890.902 94.906 890.855 95 890.761 95C889.978 95 889.116 94.9843 888.176 94.953C887.236 94.9217 886.202 94.906 885.074 94.906C884.009 94.906 882.991 94.9217 882.019 94.953C881.048 94.9843 880.171 95 879.387 95C879.293 95 879.246 94.906 879.246 94.718C879.246 94.53 879.293 94.436 879.387 94.436C880.453 94.436 881.252 94.3577 881.784 94.201C882.348 94.0443 882.724 93.731 882.912 93.261C883.132 92.791 883.241 92.1017 883.241 91.193V69.432C883.241 68.5233 883.147 67.8497 882.959 67.411C882.771 66.941 882.411 66.6277 881.878 66.471C881.346 66.283 880.531 66.189 879.434 66.189C879.372 66.189 879.34 66.095 879.34 65.907C879.34 65.719 879.372 65.625 879.434 65.625C880.218 65.625 881.079 65.6563 882.019 65.719C882.991 65.7503 884.009 65.766 885.074 65.766C886.077 65.766 887.205 65.719 888.458 65.625C889.712 65.531 890.808 65.484 891.748 65.484ZM896.025 73.098C896.025 71.3433 895.79 69.9803 895.32 69.009C894.85 68.0063 894.177 67.3013 893.299 66.894C892.453 66.4867 891.451 66.283 890.291 66.283C889.101 66.283 888.239 66.5023 887.706 66.941C887.205 67.3483 886.954 68.21 886.954 69.526V79.443C887.393 79.4743 887.863 79.5057 888.364 79.537C888.897 79.5683 889.351 79.584 889.727 79.584C892.046 79.584 893.675 79.0513 894.615 77.986C895.555 76.9207 896.025 75.2913 896.025 73.098ZM927.359 91.193C927.359 92.1017 927.437 92.791 927.594 93.261C927.782 93.731 928.142 94.0443 928.675 94.201C929.239 94.3577 930.069 94.436 931.166 94.436C931.228 94.436 931.26 94.53 931.26 94.718C931.26 94.906 931.228 95 931.166 95C930.382 95 929.505 94.9843 928.534 94.953C927.594 94.9217 926.56 94.906 925.432 94.906C924.335 94.906 923.301 94.9217 922.33 94.953C921.358 94.9843 920.481 95 919.698 95C919.635 95 919.604 94.906 919.604 94.718C919.604 94.53 919.635 94.436 919.698 94.436C920.794 94.436 921.625 94.3577 922.189 94.201C922.753 94.0443 923.129 93.731 923.317 93.261C923.505 92.791 923.599 92.1017 923.599 91.193V69.432C923.599 68.5233 923.505 67.8497 923.317 67.411C923.129 66.941 922.753 66.6277 922.189 66.471C921.625 66.283 920.794 66.189 919.698 66.189C919.635 66.189 919.604 66.095 919.604 65.907C919.604 65.719 919.635 65.625 919.698 65.625C920.481 65.625 921.358 65.6563 922.33 65.719C923.301 65.7503 924.335 65.766 925.432 65.766C926.56 65.766 927.609 65.7503 928.581 65.719C929.552 65.6563 930.414 65.625 931.166 65.625C931.228 65.625 931.26 65.719 931.26 65.907C931.26 66.095 931.228 66.189 931.166 66.189C930.069 66.189 929.254 66.283 928.722 66.471C928.189 66.659 927.829 66.988 927.641 67.458C927.453 67.928 927.359 68.6173 927.359 69.526V91.193ZM963.594 95H943.572C943.478 95 943.431 94.906 943.431 94.718C943.431 94.53 943.478 94.436 943.572 94.436C944.637 94.436 945.436 94.3577 945.969 94.201C946.533 94.0443 946.909 93.731 947.097 93.261C947.285 92.791 947.379 92.1017 947.379 91.193V69.432C947.379 68.5233 947.285 67.8497 947.097 67.411C946.909 66.941 946.533 66.6277 945.969 66.471C945.436 66.283 944.637 66.189 943.572 66.189C943.478 66.189 943.431 66.095 943.431 65.907C943.431 65.719 943.478 65.625 943.572 65.625H962.748C963.061 65.625 963.218 65.766 963.218 66.048L963.312 71.97C963.312 72.064 963.218 72.1267 963.03 72.158C962.873 72.158 962.779 72.111 962.748 72.017C962.528 70.2937 961.917 68.9933 960.915 68.116C959.912 67.2073 958.596 66.753 956.967 66.753H954.57C953.63 66.753 952.909 66.8313 952.408 66.988C951.906 67.1447 951.562 67.4423 951.374 67.881C951.186 68.2883 951.092 68.868 951.092 69.62V91.005C951.092 91.757 951.17 92.3523 951.327 92.791C951.515 93.1983 951.844 93.496 952.314 93.684C952.784 93.8407 953.442 93.919 954.288 93.919H957.39C959.176 93.919 960.648 93.402 961.808 92.368C962.967 91.3027 963.766 89.7987 964.205 87.856C964.205 87.762 964.299 87.7307 964.487 87.762C964.675 87.7933 964.769 87.856 964.769 87.95C964.643 88.796 964.534 89.8143 964.44 91.005C964.346 92.1957 964.299 93.2923 964.299 94.295C964.299 94.765 964.064 95 963.594 95ZM960.962 84.19C960.962 82.8427 960.57 81.8557 959.787 81.229C959.035 80.571 957.813 80.242 956.121 80.242H949.306V79.161H956.262C957.86 79.161 959.035 78.8947 959.787 78.362C960.539 77.798 960.915 76.9363 960.915 75.777C960.915 75.7143 960.993 75.683 961.15 75.683C961.338 75.683 961.432 75.7143 961.432 75.777C961.432 76.7483 961.416 77.5003 961.385 78.033C961.385 78.5657 961.385 79.1297 961.385 79.725C961.385 80.4457 961.4 81.1663 961.432 81.887C961.494 82.6077 961.526 83.3753 961.526 84.19C961.526 84.2527 961.432 84.284 961.244 84.284C961.056 84.284 960.962 84.2527 960.962 84.19ZM980.983 89.642V66.706L982.205 66.8V89.642C982.205 91.2713 982.503 92.4777 983.098 93.261C983.694 94.0443 984.634 94.436 985.918 94.436C985.981 94.436 986.012 94.53 986.012 94.718C986.012 94.906 985.981 95 985.918 95C985.26 95 984.587 94.9843 983.897 94.953C983.239 94.9217 982.487 94.906 981.641 94.906C980.827 94.906 980.028 94.9217 979.244 94.953C978.461 94.9843 977.725 95 977.035 95C976.973 95 976.941 94.906 976.941 94.718C976.941 94.53 976.973 94.436 977.035 94.436C978.414 94.436 979.417 94.0443 980.043 93.261C980.67 92.4777 980.983 91.2713 980.983 89.642ZM1004.77 95.611C1004.77 95.6737 1004.69 95.705 1004.53 95.705C1004.41 95.7363 1004.31 95.7363 1004.25 95.705L982.111 69.479C981.015 68.1943 980.059 67.3327 979.244 66.894C978.461 66.424 977.678 66.189 976.894 66.189C976.832 66.189 976.8 66.095 976.8 65.907C976.8 65.719 976.832 65.625 976.894 65.625C977.49 65.625 978.085 65.6407 978.68 65.672C979.276 65.7033 979.824 65.719 980.325 65.719C981.077 65.719 981.767 65.7033 982.393 65.672C983.02 65.6407 983.49 65.625 983.803 65.625C984.211 65.625 984.508 65.813 984.696 66.189C984.884 66.5337 985.339 67.1603 986.059 68.069L1004.39 90.159L1004.77 95.611ZM1004.77 71.03V95.611L1003.59 94.154V71.03C1003.59 69.4007 1003.29 68.1943 1002.7 67.411C1002.13 66.5963 1001.21 66.189 999.924 66.189C999.862 66.189 999.83 66.095 999.83 65.907C999.83 65.719 999.862 65.625 999.924 65.625C1000.58 65.625 1001.26 65.6563 1001.95 65.719C1002.63 65.7503 1003.39 65.766 1004.2 65.766C1004.98 65.766 1005.75 65.7503 1006.5 65.719C1007.26 65.6563 1007.96 65.625 1008.62 65.625C1008.68 65.625 1008.71 65.719 1008.71 65.907C1008.71 66.095 1008.68 66.189 1008.62 66.189C1007.3 66.189 1006.33 66.5963 1005.71 67.411C1005.08 68.1943 1004.77 69.4007 1004.77 71.03ZM1037.36 65.108C1038.55 65.108 1039.65 65.1707 1040.65 65.296C1041.68 65.39 1042.64 65.5623 1043.52 65.813C1044.42 66.0637 1045.29 66.3927 1046.1 66.8C1046.35 66.894 1046.49 67.0037 1046.52 67.129C1046.59 67.223 1046.63 67.458 1046.66 67.834L1047.28 73.756C1047.28 73.8187 1047.18 73.8813 1046.99 73.944C1046.84 73.9753 1046.74 73.9283 1046.71 73.803C1045.93 71.2023 1044.74 69.244 1043.14 67.928C1041.54 66.5807 1039.5 65.907 1037.03 65.907C1034.52 65.907 1032.33 66.4867 1030.45 67.646C1028.57 68.8053 1027.1 70.4503 1026.03 72.581C1024.97 74.6803 1024.43 77.1713 1024.43 80.054C1024.43 82.1847 1024.76 84.143 1025.42 85.929C1026.08 87.715 1026.99 89.2817 1028.15 90.629C1029.34 91.945 1030.7 92.9633 1032.24 93.684C1033.8 94.4047 1035.48 94.765 1037.26 94.765C1039.77 94.765 1041.79 94.1383 1043.33 92.885C1044.89 91.6317 1046.15 89.7203 1047.09 87.151C1047.15 87.057 1047.26 87.0257 1047.42 87.057C1047.57 87.0883 1047.65 87.151 1047.65 87.245L1047.13 92.603C1047.1 92.979 1047.04 93.214 1046.95 93.308C1046.88 93.402 1046.74 93.5117 1046.52 93.637C1044.93 94.3577 1043.39 94.859 1041.92 95.141C1040.48 95.4543 1038.93 95.611 1037.26 95.611C1033.94 95.611 1030.98 94.9687 1028.38 93.684C1025.81 92.368 1023.79 90.5663 1022.32 88.279C1020.85 85.9603 1020.11 83.2813 1020.11 80.242C1020.11 77.986 1020.53 75.9337 1021.38 74.085C1022.26 72.2363 1023.48 70.6383 1025.04 69.291C1026.61 67.9437 1028.43 66.9097 1030.5 66.189C1032.6 65.4683 1034.88 65.108 1037.36 65.108ZM1080.2 95H1060.18C1060.09 95 1060.04 94.906 1060.04 94.718C1060.04 94.53 1060.09 94.436 1060.18 94.436C1061.25 94.436 1062.05 94.3577 1062.58 94.201C1063.14 94.0443 1063.52 93.731 1063.71 93.261C1063.89 92.791 1063.99 92.1017 1063.99 91.193V69.432C1063.99 68.5233 1063.89 67.8497 1063.71 67.411C1063.52 66.941 1063.14 66.6277 1062.58 66.471C1062.05 66.283 1061.25 66.189 1060.18 66.189C1060.09 66.189 1060.04 66.095 1060.04 65.907C1060.04 65.719 1060.09 65.625 1060.18 65.625H1079.36C1079.67 65.625 1079.83 65.766 1079.83 66.048L1079.92 71.97C1079.92 72.064 1079.83 72.1267 1079.64 72.158C1079.48 72.158 1079.39 72.111 1079.36 72.017C1079.14 70.2937 1078.53 68.9933 1077.52 68.116C1076.52 67.2073 1075.21 66.753 1073.58 66.753H1071.18C1070.24 66.753 1069.52 66.8313 1069.02 66.988C1068.52 67.1447 1068.17 67.4423 1067.98 67.881C1067.8 68.2883 1067.7 68.868 1067.7 69.62V91.005C1067.7 91.757 1067.78 92.3523 1067.94 92.791C1068.12 93.1983 1068.45 93.496 1068.92 93.684C1069.39 93.8407 1070.05 93.919 1070.9 93.919H1074C1075.79 93.919 1077.26 93.402 1078.42 92.368C1079.58 91.3027 1080.38 89.7987 1080.81 87.856C1080.81 87.762 1080.91 87.7307 1081.1 87.762C1081.28 87.7933 1081.38 87.856 1081.38 87.95C1081.25 88.796 1081.14 89.8143 1081.05 91.005C1080.96 92.1957 1080.91 93.2923 1080.91 94.295C1080.91 94.765 1080.67 95 1080.2 95ZM1077.57 84.19C1077.57 82.8427 1077.18 81.8557 1076.4 81.229C1075.64 80.571 1074.42 80.242 1072.73 80.242H1065.92V79.161H1072.87C1074.47 79.161 1075.64 78.8947 1076.4 78.362C1077.15 77.798 1077.52 76.9363 1077.52 75.777C1077.52 75.7143 1077.6 75.683 1077.76 75.683C1077.95 75.683 1078.04 75.7143 1078.04 75.777C1078.04 76.7483 1078.03 77.5003 1077.99 78.033C1077.99 78.5657 1077.99 79.1297 1077.99 79.725C1077.99 80.4457 1078.01 81.1663 1078.04 81.887C1078.1 82.6077 1078.14 83.3753 1078.14 84.19C1078.14 84.2527 1078.04 84.284 1077.85 84.284C1077.67 84.284 1077.57 84.2527 1077.57 84.19ZM1099.1 70.889C1099.1 72.1423 1099.41 73.2233 1100.04 74.132C1100.66 75.0407 1101.48 75.8553 1102.48 76.576C1103.48 77.2653 1104.55 77.9547 1105.68 78.644C1106.84 79.3333 1107.95 80.0697 1109.01 80.853C1110.11 81.6363 1111 82.5607 1111.69 83.626C1112.41 84.66 1112.77 85.929 1112.77 87.433C1112.77 88.9683 1112.37 90.347 1111.55 91.569C1110.77 92.791 1109.64 93.7623 1108.17 94.483C1106.73 95.2037 1104.99 95.564 1102.95 95.564C1102.14 95.564 1101.31 95.4857 1100.46 95.329C1099.65 95.2037 1098.86 95.0157 1098.11 94.765C1097.36 94.5143 1096.67 94.201 1096.04 93.825C1095.92 93.731 1095.81 93.6213 1095.71 93.496C1095.65 93.3707 1095.62 93.1827 1095.62 92.932L1095.15 86.211C1095.12 86.0543 1095.18 85.976 1095.34 85.976C1095.53 85.9447 1095.63 85.9917 1095.67 86.117C1095.95 87.0883 1096.32 88.0753 1096.79 89.078C1097.26 90.0807 1097.83 91.005 1098.49 91.851C1099.14 92.6657 1099.93 93.3393 1100.84 93.872C1101.78 94.4047 1102.86 94.671 1104.08 94.671C1104.93 94.671 1105.74 94.5143 1106.52 94.201C1107.34 93.8877 1108 93.3707 1108.5 92.65C1109 91.898 1109.25 90.864 1109.25 89.548C1109.25 88.044 1108.92 86.775 1108.26 85.741C1107.6 84.707 1106.76 83.814 1105.72 83.062C1104.69 82.31 1103.59 81.5893 1102.43 80.9C1101.34 80.2107 1100.27 79.49 1099.24 78.738C1098.24 77.986 1097.42 77.1243 1096.79 76.153C1096.17 75.1503 1095.85 73.944 1095.85 72.534C1095.85 70.842 1096.29 69.4477 1097.17 68.351C1098.08 67.2543 1099.22 66.4397 1100.6 65.907C1102.01 65.3743 1103.45 65.108 1104.93 65.108C1105.9 65.108 1106.88 65.202 1107.89 65.39C1108.89 65.578 1109.8 65.8443 1110.61 66.189C1110.89 66.3143 1111.08 66.4553 1111.18 66.612C1111.27 66.7373 1111.32 66.8783 1111.32 67.035L1111.55 72.91C1111.55 73.004 1111.47 73.0667 1111.32 73.098C1111.16 73.1293 1111.05 73.0823 1110.99 72.957C1110.89 72.4243 1110.69 71.7663 1110.38 70.983C1110.06 70.1683 1109.64 69.385 1109.11 68.633C1108.58 67.8497 1107.89 67.2073 1107.04 66.706C1106.23 66.1733 1105.22 65.907 1104.03 65.907C1102.94 65.907 1102.03 66.142 1101.31 66.612C1100.59 67.0507 1100.04 67.646 1099.66 68.398C1099.29 69.1187 1099.1 69.949 1099.1 70.889Z" fill="#0F1C2E"/>
</svg>
