<svg width="800" height="305" viewBox="0 0 800 305" fill="none" xmlns="http://www.w3.org/2000/svg">
<path d="M84.6549 246.972C85.8709 246.972 86.9909 247.036 88.0149 247.164C89.0709 247.26 90.0469 247.436 90.9429 247.692C91.8709 247.948 92.7509 248.284 93.5829 248.7C93.8389 248.796 93.9829 248.908 94.0149 249.036C94.0789 249.132 94.1269 249.372 94.1589 249.756L94.7829 255.804C94.7829 255.868 94.6869 255.932 94.4949 255.996C94.3349 256.028 94.2389 255.98 94.2069 255.852C93.4069 253.196 92.1909 251.196 90.5589 249.852C88.9269 248.476 86.8469 247.788 84.3189 247.788C81.7589 247.788 79.5189 248.38 77.5989 249.564C75.6789 250.748 74.1749 252.428 73.0869 254.604C71.9989 256.748 71.4549 259.292 71.4549 262.236C71.4549 264.412 71.7909 266.412 72.4629 268.236C73.1349 270.06 74.0629 271.66 75.2469 273.036C76.4629 274.38 77.8549 275.42 79.4229 276.156C81.0229 276.892 82.7349 277.26 84.5589 277.26C87.1189 277.26 89.1829 276.62 90.7509 275.34C92.3509 274.06 93.6309 272.108 94.5909 269.484C94.6549 269.388 94.7669 269.356 94.9269 269.388C95.0869 269.42 95.1669 269.484 95.1669 269.58L94.6389 275.052C94.6069 275.436 94.5429 275.676 94.4469 275.772C94.3829 275.868 94.2389 275.98 94.0149 276.108C92.3829 276.844 90.8149 277.356 89.3109 277.644C87.8389 277.964 86.2549 278.124 84.5589 278.124C81.1669 278.124 78.1429 277.468 75.4869 276.156C72.8629 274.812 70.7989 272.972 69.2949 270.636C67.7909 268.268 67.0389 265.532 67.0389 262.428C67.0389 260.124 67.4709 258.028 68.3349 256.14C69.2309 254.252 70.4789 252.62 72.0789 251.244C73.6789 249.868 75.5349 248.812 77.6469 248.076C79.7909 247.34 82.1269 246.972 84.6549 246.972ZM132.783 253.53C132.783 251.963 132.423 250.773 131.702 249.958C131.013 249.112 129.979 248.689 128.6 248.689C128.506 248.689 128.459 248.595 128.459 248.407C128.459 248.219 128.506 248.125 128.6 248.125C129.321 248.125 130.073 248.156 130.856 248.219C131.64 248.25 132.486 248.266 133.394 248.266C134.178 248.266 134.945 248.25 135.697 248.219C136.481 248.156 137.201 248.125 137.859 248.125C137.922 248.125 137.953 248.219 137.953 248.407C137.953 248.595 137.922 248.689 137.859 248.689C136.606 248.689 135.65 249.112 134.992 249.958C134.366 250.773 134.052 251.963 134.052 253.53V266.831C134.052 269.181 133.582 271.202 132.642 272.894C131.702 274.586 130.386 275.886 128.694 276.795C127.002 277.672 125.028 278.111 122.772 278.111C120.454 278.111 118.417 277.672 116.662 276.795C114.908 275.886 113.545 274.602 112.573 272.941C111.602 271.28 111.116 269.306 111.116 267.019V251.932C111.116 251.023 111.022 250.35 110.834 249.911C110.646 249.441 110.27 249.128 109.706 248.971C109.174 248.783 108.375 248.689 107.309 248.689C107.215 248.689 107.168 248.595 107.168 248.407C107.168 248.219 107.215 248.125 107.309 248.125C108.093 248.125 108.954 248.156 109.894 248.219C110.834 248.25 111.853 248.266 112.949 248.266C114.077 248.266 115.111 248.25 116.051 248.219C117.023 248.156 117.869 248.125 118.589 248.125C118.683 248.125 118.73 248.219 118.73 248.407C118.73 248.595 118.683 248.689 118.589 248.689C117.524 248.689 116.709 248.783 116.145 248.971C115.613 249.159 115.252 249.488 115.064 249.958C114.908 250.428 114.829 251.117 114.829 252.026V265.374C114.829 269.134 115.644 271.954 117.273 273.834C118.903 275.683 121.159 276.607 124.041 276.607C126.799 276.607 128.945 275.761 130.48 274.069C132.016 272.346 132.783 269.949 132.783 266.878V253.53ZM172.696 277.5C172.194 277.5 171.364 276.905 170.205 275.714C169.077 274.492 167.714 272.769 166.116 270.544C164.518 268.288 162.716 265.609 160.711 262.507L163.86 261.52C166.492 265.311 168.716 268.335 170.534 270.591C172.382 272.847 174.012 274.476 175.422 275.479C176.832 276.45 178.179 276.936 179.464 276.936C179.558 276.936 179.605 277.03 179.605 277.218C179.605 277.406 179.558 277.5 179.464 277.5C177.709 277.5 176.268 277.5 175.14 277.5C174.043 277.5 173.228 277.5 172.696 277.5ZM161.416 247.984C164.048 247.984 166.053 248.548 167.432 249.676C168.842 250.773 169.547 252.245 169.547 254.094C169.547 255.849 169.045 257.415 168.043 258.794C167.04 260.173 165.724 261.254 164.095 262.037C162.497 262.82 160.773 263.212 158.925 263.212C158.549 263.212 158.157 263.212 157.75 263.212C157.342 263.181 156.966 263.149 156.622 263.118V273.693C156.622 274.602 156.7 275.291 156.857 275.761C157.045 276.231 157.405 276.544 157.938 276.701C158.502 276.858 159.332 276.936 160.429 276.936C160.523 276.936 160.57 277.03 160.57 277.218C160.57 277.406 160.523 277.5 160.429 277.5C159.645 277.5 158.784 277.484 157.844 277.453C156.904 277.422 155.87 277.406 154.742 277.406C153.676 277.406 152.658 277.422 151.687 277.453C150.715 277.484 149.838 277.5 149.055 277.5C148.961 277.5 148.914 277.406 148.914 277.218C148.914 277.03 148.961 276.936 149.055 276.936C150.12 276.936 150.919 276.858 151.452 276.701C152.016 276.544 152.392 276.231 152.58 275.761C152.799 275.291 152.909 274.602 152.909 273.693V251.932C152.909 251.023 152.815 250.35 152.627 249.911C152.439 249.441 152.078 249.128 151.546 248.971C151.013 248.783 150.198 248.689 149.102 248.689C149.039 248.689 149.008 248.595 149.008 248.407C149.008 248.219 149.039 248.125 149.102 248.125C149.885 248.125 150.747 248.156 151.687 248.219C152.658 248.25 153.676 248.266 154.742 248.266C155.744 248.266 156.872 248.219 158.126 248.125C159.379 248.031 160.476 247.984 161.416 247.984ZM165.693 255.598C165.693 253.843 165.458 252.48 164.988 251.509C164.518 250.506 163.844 249.801 162.967 249.394C162.121 248.987 161.118 248.783 159.959 248.783C158.768 248.783 157.906 249.002 157.374 249.441C156.872 249.848 156.622 250.71 156.622 252.026V261.943C157.06 261.974 157.53 262.006 158.032 262.037C158.564 262.068 159.019 262.084 159.395 262.084C161.713 262.084 163.343 261.551 164.283 260.486C165.223 259.421 165.693 257.791 165.693 255.598ZM196.039 265.233L196.603 264.199H209.387L209.716 265.233H196.039ZM220.338 276.936C220.494 276.936 220.573 277.03 220.573 277.218C220.573 277.406 220.494 277.5 220.338 277.5C219.429 277.5 218.489 277.469 217.518 277.406C216.578 277.343 215.653 277.312 214.745 277.312C213.742 277.312 212.865 277.343 212.113 277.406C211.392 277.469 210.577 277.5 209.669 277.5C209.543 277.5 209.481 277.406 209.481 277.218C209.481 277.03 209.543 276.936 209.669 276.936C211.204 276.936 212.144 276.701 212.489 276.231C212.833 275.73 212.661 274.758 211.972 273.317L201.867 252.308L203.371 250.052L194.206 271.296C193.391 273.207 193.344 274.633 194.065 275.573C194.785 276.482 196.133 276.936 198.107 276.936C198.263 276.936 198.342 277.03 198.342 277.218C198.342 277.406 198.263 277.5 198.107 277.5C197.167 277.5 196.305 277.469 195.522 277.406C194.738 277.343 193.751 277.312 192.561 277.312C191.401 277.312 190.461 277.343 189.741 277.406C189.051 277.469 188.205 277.5 187.203 277.5C187.077 277.5 187.015 277.406 187.015 277.218C187.015 277.03 187.077 276.936 187.203 276.936C188.049 276.936 188.785 276.779 189.412 276.466C190.038 276.121 190.634 275.51 191.198 274.633C191.793 273.756 192.435 272.502 193.125 270.873L203.136 247.796C203.167 247.702 203.277 247.655 203.465 247.655C203.653 247.624 203.762 247.671 203.794 247.796L215.074 271.061C215.826 272.596 216.468 273.803 217.001 274.68C217.565 275.526 218.113 276.121 218.646 276.466C219.178 276.779 219.742 276.936 220.338 276.936ZM234.708 249.065C232.765 249.065 231.245 249.613 230.149 250.71C229.052 251.775 228.237 253.499 227.705 255.88C227.673 255.943 227.564 255.974 227.376 255.974C227.219 255.974 227.141 255.927 227.141 255.833C227.203 255.426 227.266 254.846 227.329 254.094C227.423 253.342 227.501 252.527 227.564 251.65C227.626 250.773 227.673 249.927 227.705 249.112C227.767 248.297 227.799 247.624 227.799 247.091C227.799 246.934 227.893 246.856 228.081 246.856C228.269 246.856 228.363 246.934 228.363 247.091C228.363 247.404 228.519 247.639 228.833 247.796C229.146 247.921 229.506 248.015 229.914 248.078C230.321 248.109 230.666 248.125 230.948 248.125C233.642 248.219 236.791 248.266 240.395 248.266C242.588 248.266 244.343 248.25 245.659 248.219C246.975 248.156 248.244 248.125 249.466 248.125C250.531 248.125 251.346 248.062 251.91 247.937C252.505 247.78 252.881 247.451 253.038 246.95C253.069 246.825 253.163 246.762 253.32 246.762C253.508 246.762 253.602 246.825 253.602 246.95C253.539 247.42 253.476 248.078 253.414 248.924C253.382 249.77 253.335 250.647 253.273 251.556C253.241 252.465 253.21 253.311 253.179 254.094C253.147 254.877 253.132 255.457 253.132 255.833C253.132 255.927 253.038 255.974 252.85 255.974C252.693 255.974 252.615 255.927 252.615 255.833C252.395 253.389 251.769 251.65 250.735 250.616C249.701 249.582 248.165 249.065 246.129 249.065C245.032 249.065 244.202 249.143 243.638 249.3C243.105 249.425 242.745 249.692 242.557 250.099C242.4 250.506 242.322 251.149 242.322 252.026V273.693C242.322 274.602 242.416 275.291 242.604 275.761C242.823 276.231 243.23 276.544 243.826 276.701C244.452 276.858 245.408 276.936 246.693 276.936C246.755 276.936 246.787 277.03 246.787 277.218C246.787 277.406 246.755 277.5 246.693 277.5C245.847 277.5 244.891 277.484 243.826 277.453C242.792 277.422 241.648 277.406 240.395 277.406C239.204 277.406 238.076 277.422 237.011 277.453C235.977 277.484 235.021 277.5 234.144 277.5C234.05 277.5 234.003 277.406 234.003 277.218C234.003 277.03 234.05 276.936 234.144 276.936C235.366 276.936 236.29 276.858 236.917 276.701C237.575 276.544 238.013 276.231 238.233 275.761C238.452 275.291 238.562 274.602 238.562 273.693V251.932C238.562 251.086 238.468 250.459 238.28 250.052C238.092 249.613 237.716 249.347 237.152 249.253C236.588 249.128 235.773 249.065 234.708 249.065ZM285.548 277.5H265.526C265.432 277.5 265.385 277.406 265.385 277.218C265.385 277.03 265.432 276.936 265.526 276.936C266.592 276.936 267.391 276.858 267.923 276.701C268.487 276.544 268.863 276.231 269.051 275.761C269.239 275.291 269.333 274.602 269.333 273.693V251.932C269.333 251.023 269.239 250.35 269.051 249.911C268.863 249.441 268.487 249.128 267.923 248.971C267.391 248.783 266.592 248.689 265.526 248.689C265.432 248.689 265.385 248.595 265.385 248.407C265.385 248.219 265.432 248.125 265.526 248.125H284.702C285.016 248.125 285.172 248.266 285.172 248.548L285.266 254.47C285.266 254.564 285.172 254.627 284.984 254.658C284.828 254.658 284.734 254.611 284.702 254.517C284.483 252.794 283.872 251.493 282.869 250.616C281.867 249.707 280.551 249.253 278.921 249.253H276.524C275.584 249.253 274.864 249.331 274.362 249.488C273.861 249.645 273.516 249.942 273.328 250.381C273.14 250.788 273.046 251.368 273.046 252.12V273.505C273.046 274.257 273.125 274.852 273.281 275.291C273.469 275.698 273.798 275.996 274.268 276.184C274.738 276.341 275.396 276.419 276.242 276.419H279.344C281.13 276.419 282.603 275.902 283.762 274.868C284.922 273.803 285.721 272.299 286.159 270.356C286.159 270.262 286.253 270.231 286.441 270.262C286.629 270.293 286.723 270.356 286.723 270.45C286.598 271.296 286.488 272.314 286.394 273.505C286.3 274.696 286.253 275.792 286.253 276.795C286.253 277.265 286.018 277.5 285.548 277.5ZM282.916 266.69C282.916 265.343 282.525 264.356 281.741 263.729C280.989 263.071 279.767 262.742 278.075 262.742H271.26V261.661H278.216C279.814 261.661 280.989 261.395 281.741 260.862C282.493 260.298 282.869 259.436 282.869 258.277C282.869 258.214 282.948 258.183 283.104 258.183C283.292 258.183 283.386 258.214 283.386 258.277C283.386 259.248 283.371 260 283.339 260.533C283.339 261.066 283.339 261.63 283.339 262.225C283.339 262.946 283.355 263.666 283.386 264.387C283.449 265.108 283.48 265.875 283.48 266.69C283.48 266.753 283.386 266.784 283.198 266.784C283.01 266.784 282.916 266.753 282.916 266.69ZM311.774 277.688C310.834 277.688 309.675 277.641 308.296 277.547C306.917 277.453 305.648 277.406 304.489 277.406C303.424 277.406 302.39 277.422 301.387 277.453C300.416 277.484 299.538 277.5 298.755 277.5C298.692 277.5 298.661 277.406 298.661 277.218C298.661 277.03 298.692 276.936 298.755 276.936C299.852 276.936 300.682 276.858 301.246 276.701C301.81 276.544 302.186 276.231 302.374 275.761C302.562 275.291 302.656 274.602 302.656 273.693V251.932C302.656 251.023 302.562 250.35 302.374 249.911C302.186 249.441 301.81 249.128 301.246 248.971C300.713 248.783 299.914 248.689 298.849 248.689C298.755 248.689 298.708 248.595 298.708 248.407C298.708 248.219 298.755 248.125 298.849 248.125C299.632 248.125 300.494 248.156 301.434 248.219C302.405 248.25 303.424 248.266 304.489 248.266C305.554 248.266 306.698 248.235 307.92 248.172C309.173 248.078 310.239 248.031 311.116 248.031C314.437 248.031 317.32 248.658 319.764 249.911C322.239 251.164 324.166 252.872 325.545 255.034C326.924 257.196 327.613 259.624 327.613 262.319C327.613 264.669 327.19 266.8 326.344 268.711C325.529 270.591 324.386 272.205 322.913 273.552C321.44 274.868 319.748 275.886 317.837 276.607C315.926 277.328 313.905 277.688 311.774 277.688ZM311.304 276.842C313.654 276.842 315.722 276.325 317.508 275.291C319.325 274.257 320.751 272.737 321.785 270.732C322.819 268.695 323.336 266.236 323.336 263.353C323.336 260.627 322.85 258.183 321.879 256.021C320.908 253.828 319.545 252.089 317.79 250.804C316.067 249.488 313.999 248.83 311.586 248.83C309.706 248.83 308.359 249.018 307.544 249.394C306.761 249.77 306.369 250.647 306.369 252.026V273.176C306.369 274.429 306.682 275.354 307.309 275.949C307.936 276.544 309.267 276.842 311.304 276.842ZM379.089 277.5H358.641C358.545 277.5 358.497 277.404 358.497 277.212C358.497 277.02 358.545 276.924 358.641 276.924C359.729 276.924 360.545 276.844 361.089 276.684C361.665 276.524 362.049 276.204 362.241 275.724C362.433 275.244 362.529 274.54 362.529 273.612V251.388C362.529 250.46 362.433 249.772 362.241 249.324C362.049 248.844 361.665 248.524 361.089 248.364C360.545 248.172 359.729 248.076 358.641 248.076C358.545 248.076 358.497 247.98 358.497 247.788C358.497 247.596 358.545 247.5 358.641 247.5H378.225C378.545 247.5 378.705 247.644 378.705 247.932L378.801 253.98C378.801 254.076 378.705 254.14 378.513 254.172C378.353 254.172 378.257 254.124 378.225 254.028C378.001 252.268 377.377 250.94 376.353 250.044C375.329 249.116 373.985 248.652 372.321 248.652H369.873C368.913 248.652 368.177 248.732 367.665 248.892C367.153 249.052 366.801 249.356 366.609 249.804C366.417 250.22 366.321 250.812 366.321 251.58V273.42C366.321 274.188 366.401 274.796 366.561 275.244C366.753 275.66 367.089 275.964 367.569 276.156C368.049 276.316 368.721 276.396 369.585 276.396H372.753C374.577 276.396 376.081 275.868 377.265 274.812C378.449 273.724 379.265 272.188 379.713 270.204C379.713 270.108 379.809 270.076 380.001 270.108C380.193 270.14 380.289 270.204 380.289 270.3C380.161 271.164 380.049 272.204 379.953 273.42C379.857 274.636 379.809 275.756 379.809 276.78C379.809 277.26 379.569 277.5 379.089 277.5ZM376.401 266.46C376.401 265.084 376.001 264.076 375.201 263.436C374.433 262.764 373.185 262.428 371.457 262.428H364.497V261.324H371.601C373.233 261.324 374.433 261.052 375.201 260.508C375.969 259.932 376.353 259.052 376.353 257.868C376.353 257.804 376.433 257.772 376.593 257.772C376.785 257.772 376.881 257.804 376.881 257.868C376.881 258.86 376.865 259.628 376.833 260.172C376.833 260.716 376.833 261.292 376.833 261.9C376.833 262.636 376.849 263.372 376.881 264.108C376.945 264.844 376.977 265.628 376.977 266.46C376.977 266.524 376.881 266.556 376.689 266.556C376.497 266.556 376.401 266.524 376.401 266.46ZM410.262 277.5C410.2 277.5 410.168 277.406 410.168 277.218C410.168 277.03 410.2 276.936 410.262 276.936C411.234 276.936 411.876 276.811 412.189 276.56C412.534 276.309 412.471 275.824 412.001 275.103L397.008 252.214C396.162 250.929 395.332 250.021 394.517 249.488C393.734 248.955 392.841 248.689 391.838 248.689C391.776 248.689 391.744 248.595 391.744 248.407C391.744 248.219 391.776 248.125 391.838 248.125C392.434 248.125 393.06 248.156 393.718 248.219C394.376 248.25 394.987 248.266 395.551 248.266C396.836 248.266 398.027 248.25 399.123 248.219C400.22 248.156 401.176 248.125 401.99 248.125C402.084 248.125 402.131 248.219 402.131 248.407C402.131 248.595 402.084 248.689 401.99 248.689C401.019 248.689 400.361 248.814 400.016 249.065C399.703 249.316 399.781 249.817 400.251 250.569L415.385 273.599C416.2 274.821 417.03 275.683 417.876 276.184C418.722 276.685 419.756 276.936 420.978 276.936C421.041 276.936 421.072 277.03 421.072 277.218C421.072 277.406 421.041 277.5 420.978 277.5C420.32 277.5 419.6 277.484 418.816 277.453C418.033 277.422 417.203 277.406 416.325 277.406C415.041 277.406 413.913 277.422 412.941 277.453C412.001 277.484 411.108 277.5 410.262 277.5ZM391.603 277.5C391.509 277.5 391.462 277.406 391.462 277.218C391.462 277.03 391.509 276.936 391.603 276.936C392.606 276.936 393.703 276.544 394.893 275.761C396.084 274.978 397.29 273.74 398.512 272.048L405.186 262.93L405.844 263.447L399.687 272.142C398.591 273.646 398.152 274.821 398.371 275.667C398.622 276.513 399.499 276.936 401.003 276.936C401.097 276.936 401.144 277.03 401.144 277.218C401.144 277.406 401.097 277.5 401.003 277.5C400.157 277.5 399.343 277.484 398.559 277.453C397.776 277.422 396.758 277.406 395.504 277.406C394.658 277.406 393.985 277.422 393.483 277.453C392.982 277.484 392.355 277.5 391.603 277.5ZM406.643 262.742L405.985 262.225L411.954 253.718C413.082 252.12 413.537 250.882 413.317 250.005C413.129 249.128 412.299 248.689 410.826 248.689C410.732 248.689 410.685 248.595 410.685 248.407C410.685 248.219 410.732 248.125 410.826 248.125C411.672 248.125 412.487 248.156 413.27 248.219C414.054 248.25 415.072 248.266 416.325 248.266C417.171 248.266 417.845 248.25 418.346 248.219C418.848 248.156 419.459 248.125 420.179 248.125C420.273 248.125 420.32 248.219 420.32 248.407C420.32 248.595 420.273 248.689 420.179 248.689C419.208 248.689 418.111 249.112 416.889 249.958C415.667 250.804 414.414 252.104 413.129 253.859L406.643 262.742ZM439.186 273.505C439.186 274.445 439.295 275.166 439.515 275.667C439.765 276.137 440.267 276.466 441.019 276.654C441.771 276.842 442.899 276.936 444.403 276.936C444.497 276.936 444.544 277.03 444.544 277.218C444.544 277.406 444.497 277.5 444.403 277.5C443.4 277.5 442.303 277.484 441.113 277.453C439.953 277.422 438.684 277.406 437.306 277.406C436.272 277.406 435.253 277.422 434.251 277.453C433.279 277.484 432.402 277.5 431.619 277.5C431.556 277.5 431.525 277.406 431.525 277.218C431.525 277.03 431.556 276.936 431.619 276.936C432.715 276.936 433.53 276.858 434.063 276.701C434.627 276.544 434.987 276.231 435.144 275.761C435.332 275.291 435.426 274.602 435.426 273.693V251.932C435.426 251.023 435.332 250.35 435.144 249.911C434.987 249.441 434.627 249.128 434.063 248.971C433.53 248.783 432.715 248.689 431.619 248.689C431.556 248.689 431.525 248.595 431.525 248.407C431.525 248.219 431.556 248.125 431.619 248.125C432.402 248.125 433.279 248.156 434.251 248.219C435.222 248.25 436.225 248.266 437.259 248.266C438.073 248.266 439.06 248.219 440.22 248.125C441.41 248.031 442.601 247.984 443.792 247.984C445.609 247.984 447.238 248.25 448.68 248.783C450.152 249.316 451.327 250.146 452.205 251.274C453.082 252.402 453.536 253.875 453.568 255.692C453.568 257.321 453.27 258.731 452.675 259.922C452.079 261.113 451.265 262.1 450.231 262.883C449.228 263.666 448.1 264.246 446.847 264.622C445.625 264.998 444.418 265.186 443.228 265.186C442.852 265.186 442.46 265.17 442.053 265.139C441.677 265.108 441.316 265.045 440.972 264.951C440.846 264.92 440.799 264.81 440.831 264.622C440.893 264.403 440.972 264.309 441.066 264.34C441.348 264.403 441.63 264.45 441.912 264.481C442.225 264.512 442.491 264.528 442.711 264.528C443.901 264.528 444.998 264.246 446.001 263.682C447.003 263.118 447.818 262.256 448.445 261.097C449.071 259.906 449.385 258.434 449.385 256.679C449.385 254.987 449.087 253.561 448.492 252.402C447.928 251.243 447.129 250.35 446.095 249.723C445.061 249.096 443.87 248.783 442.523 248.783C441.645 248.783 440.956 248.846 440.455 248.971C439.985 249.096 439.656 249.394 439.468 249.864C439.28 250.334 439.186 251.055 439.186 252.026V273.505ZM485.711 277.5H465.689C465.595 277.5 465.548 277.406 465.548 277.218C465.548 277.03 465.595 276.936 465.689 276.936C466.754 276.936 467.553 276.858 468.086 276.701C468.65 276.544 469.026 276.231 469.214 275.761C469.402 275.291 469.496 274.602 469.496 273.693V251.932C469.496 251.023 469.402 250.35 469.214 249.911C469.026 249.441 468.65 249.128 468.086 248.971C467.553 248.783 466.754 248.689 465.689 248.689C465.595 248.689 465.548 248.595 465.548 248.407C465.548 248.219 465.595 248.125 465.689 248.125H484.865C485.178 248.125 485.335 248.266 485.335 248.548L485.429 254.47C485.429 254.564 485.335 254.627 485.147 254.658C484.99 254.658 484.896 254.611 484.865 254.517C484.645 252.794 484.034 251.493 483.032 250.616C482.029 249.707 480.713 249.253 479.084 249.253H476.687C475.747 249.253 475.026 249.331 474.525 249.488C474.023 249.645 473.679 249.942 473.491 250.381C473.303 250.788 473.209 251.368 473.209 252.12V273.505C473.209 274.257 473.287 274.852 473.444 275.291C473.632 275.698 473.961 275.996 474.431 276.184C474.901 276.341 475.559 276.419 476.405 276.419H479.507C481.293 276.419 482.765 275.902 483.925 274.868C485.084 273.803 485.883 272.299 486.322 270.356C486.322 270.262 486.416 270.231 486.604 270.262C486.792 270.293 486.886 270.356 486.886 270.45C486.76 271.296 486.651 272.314 486.557 273.505C486.463 274.696 486.416 275.792 486.416 276.795C486.416 277.265 486.181 277.5 485.711 277.5ZM483.079 266.69C483.079 265.343 482.687 264.356 481.904 263.729C481.152 263.071 479.93 262.742 478.238 262.742H471.423V261.661H478.379C479.977 261.661 481.152 261.395 481.904 260.862C482.656 260.298 483.032 259.436 483.032 258.277C483.032 258.214 483.11 258.183 483.267 258.183C483.455 258.183 483.549 258.214 483.549 258.277C483.549 259.248 483.533 260 483.502 260.533C483.502 261.066 483.502 261.63 483.502 262.225C483.502 262.946 483.517 263.666 483.549 264.387C483.611 265.108 483.643 265.875 483.643 266.69C483.643 266.753 483.549 266.784 483.361 266.784C483.173 266.784 483.079 266.753 483.079 266.69ZM523.028 277.5C522.527 277.5 521.697 276.905 520.537 275.714C519.409 274.492 518.046 272.769 516.448 270.544C514.85 268.288 513.049 265.609 511.043 262.507L514.192 261.52C516.824 265.311 519.049 268.335 520.866 270.591C522.715 272.847 524.344 274.476 525.754 275.479C527.164 276.45 528.512 276.936 529.796 276.936C529.89 276.936 529.937 277.03 529.937 277.218C529.937 277.406 529.89 277.5 529.796 277.5C528.042 277.5 526.6 277.5 525.472 277.5C524.376 277.5 523.561 277.5 523.028 277.5ZM511.748 247.984C514.38 247.984 516.386 248.548 517.764 249.676C519.174 250.773 519.879 252.245 519.879 254.094C519.879 255.849 519.378 257.415 518.375 258.794C517.373 260.173 516.057 261.254 514.427 262.037C512.829 262.82 511.106 263.212 509.257 263.212C508.881 263.212 508.49 263.212 508.082 263.212C507.675 263.181 507.299 263.149 506.954 263.118V273.693C506.954 274.602 507.033 275.291 507.189 275.761C507.377 276.231 507.738 276.544 508.27 276.701C508.834 276.858 509.665 276.936 510.761 276.936C510.855 276.936 510.902 277.03 510.902 277.218C510.902 277.406 510.855 277.5 510.761 277.5C509.978 277.5 509.116 277.484 508.176 277.453C507.236 277.422 506.202 277.406 505.074 277.406C504.009 277.406 502.991 277.422 502.019 277.453C501.048 277.484 500.171 277.5 499.387 277.5C499.293 277.5 499.246 277.406 499.246 277.218C499.246 277.03 499.293 276.936 499.387 276.936C500.453 276.936 501.252 276.858 501.784 276.701C502.348 276.544 502.724 276.231 502.912 275.761C503.132 275.291 503.241 274.602 503.241 273.693V251.932C503.241 251.023 503.147 250.35 502.959 249.911C502.771 249.441 502.411 249.128 501.878 248.971C501.346 248.783 500.531 248.689 499.434 248.689C499.372 248.689 499.34 248.595 499.34 248.407C499.34 248.219 499.372 248.125 499.434 248.125C500.218 248.125 501.079 248.156 502.019 248.219C502.991 248.25 504.009 248.266 505.074 248.266C506.077 248.266 507.205 248.219 508.458 248.125C509.712 248.031 510.808 247.984 511.748 247.984ZM516.025 255.598C516.025 253.843 515.79 252.48 515.32 251.509C514.85 250.506 514.177 249.801 513.299 249.394C512.453 248.987 511.451 248.783 510.291 248.783C509.101 248.783 508.239 249.002 507.706 249.441C507.205 249.848 506.954 250.71 506.954 252.026V261.943C507.393 261.974 507.863 262.006 508.364 262.037C508.897 262.068 509.351 262.084 509.727 262.084C512.046 262.084 513.675 261.551 514.615 260.486C515.555 259.421 516.025 257.791 516.025 255.598ZM547.359 273.693C547.359 274.602 547.437 275.291 547.594 275.761C547.782 276.231 548.142 276.544 548.675 276.701C549.239 276.858 550.069 276.936 551.166 276.936C551.228 276.936 551.26 277.03 551.26 277.218C551.26 277.406 551.228 277.5 551.166 277.5C550.382 277.5 549.505 277.484 548.534 277.453C547.594 277.422 546.56 277.406 545.432 277.406C544.335 277.406 543.301 277.422 542.33 277.453C541.358 277.484 540.481 277.5 539.698 277.5C539.635 277.5 539.604 277.406 539.604 277.218C539.604 277.03 539.635 276.936 539.698 276.936C540.794 276.936 541.625 276.858 542.189 276.701C542.753 276.544 543.129 276.231 543.317 275.761C543.505 275.291 543.599 274.602 543.599 273.693V251.932C543.599 251.023 543.505 250.35 543.317 249.911C543.129 249.441 542.753 249.128 542.189 248.971C541.625 248.783 540.794 248.689 539.698 248.689C539.635 248.689 539.604 248.595 539.604 248.407C539.604 248.219 539.635 248.125 539.698 248.125C540.481 248.125 541.358 248.156 542.33 248.219C543.301 248.25 544.335 248.266 545.432 248.266C546.56 248.266 547.609 248.25 548.581 248.219C549.552 248.156 550.414 248.125 551.166 248.125C551.228 248.125 551.26 248.219 551.26 248.407C551.26 248.595 551.228 248.689 551.166 248.689C550.069 248.689 549.254 248.783 548.722 248.971C548.189 249.159 547.829 249.488 547.641 249.958C547.453 250.428 547.359 251.117 547.359 252.026V273.693ZM583.594 277.5H563.572C563.478 277.5 563.431 277.406 563.431 277.218C563.431 277.03 563.478 276.936 563.572 276.936C564.637 276.936 565.436 276.858 565.969 276.701C566.533 276.544 566.909 276.231 567.097 275.761C567.285 275.291 567.379 274.602 567.379 273.693V251.932C567.379 251.023 567.285 250.35 567.097 249.911C566.909 249.441 566.533 249.128 565.969 248.971C565.436 248.783 564.637 248.689 563.572 248.689C563.478 248.689 563.431 248.595 563.431 248.407C563.431 248.219 563.478 248.125 563.572 248.125H582.748C583.061 248.125 583.218 248.266 583.218 248.548L583.312 254.47C583.312 254.564 583.218 254.627 583.03 254.658C582.873 254.658 582.779 254.611 582.748 254.517C582.528 252.794 581.917 251.493 580.915 250.616C579.912 249.707 578.596 249.253 576.967 249.253H574.57C573.63 249.253 572.909 249.331 572.408 249.488C571.906 249.645 571.562 249.942 571.374 250.381C571.186 250.788 571.092 251.368 571.092 252.12V273.505C571.092 274.257 571.17 274.852 571.327 275.291C571.515 275.698 571.844 275.996 572.314 276.184C572.784 276.341 573.442 276.419 574.288 276.419H577.39C579.176 276.419 580.648 275.902 581.808 274.868C582.967 273.803 583.766 272.299 584.205 270.356C584.205 270.262 584.299 270.231 584.487 270.262C584.675 270.293 584.769 270.356 584.769 270.45C584.643 271.296 584.534 272.314 584.44 273.505C584.346 274.696 584.299 275.792 584.299 276.795C584.299 277.265 584.064 277.5 583.594 277.5ZM580.962 266.69C580.962 265.343 580.57 264.356 579.787 263.729C579.035 263.071 577.813 262.742 576.121 262.742H569.306V261.661H576.262C577.86 261.661 579.035 261.395 579.787 260.862C580.539 260.298 580.915 259.436 580.915 258.277C580.915 258.214 580.993 258.183 581.15 258.183C581.338 258.183 581.432 258.214 581.432 258.277C581.432 259.248 581.416 260 581.385 260.533C581.385 261.066 581.385 261.63 581.385 262.225C581.385 262.946 581.4 263.666 581.432 264.387C581.494 265.108 581.526 265.875 581.526 266.69C581.526 266.753 581.432 266.784 581.244 266.784C581.056 266.784 580.962 266.753 580.962 266.69ZM600.983 272.142V249.206L602.205 249.3V272.142C602.205 273.771 602.503 274.978 603.098 275.761C603.694 276.544 604.634 276.936 605.918 276.936C605.981 276.936 606.012 277.03 606.012 277.218C606.012 277.406 605.981 277.5 605.918 277.5C605.26 277.5 604.587 277.484 603.897 277.453C603.239 277.422 602.487 277.406 601.641 277.406C600.827 277.406 600.028 277.422 599.244 277.453C598.461 277.484 597.725 277.5 597.035 277.5C596.973 277.5 596.941 277.406 596.941 277.218C596.941 277.03 596.973 276.936 597.035 276.936C598.414 276.936 599.417 276.544 600.043 275.761C600.67 274.978 600.983 273.771 600.983 272.142ZM624.765 278.111C624.765 278.174 624.687 278.205 624.53 278.205C624.405 278.236 624.311 278.236 624.248 278.205L602.111 251.979C601.015 250.694 600.059 249.833 599.244 249.394C598.461 248.924 597.678 248.689 596.894 248.689C596.832 248.689 596.8 248.595 596.8 248.407C596.8 248.219 596.832 248.125 596.894 248.125C597.49 248.125 598.085 248.141 598.68 248.172C599.276 248.203 599.824 248.219 600.325 248.219C601.077 248.219 601.767 248.203 602.393 248.172C603.02 248.141 603.49 248.125 603.803 248.125C604.211 248.125 604.508 248.313 604.696 248.689C604.884 249.034 605.339 249.66 606.059 250.569L624.389 272.659L624.765 278.111ZM624.765 253.53V278.111L623.59 276.654V253.53C623.59 251.901 623.293 250.694 622.697 249.911C622.133 249.096 621.209 248.689 619.924 248.689C619.862 248.689 619.83 248.595 619.83 248.407C619.83 248.219 619.862 248.125 619.924 248.125C620.582 248.125 621.256 248.156 621.945 248.219C622.635 248.25 623.387 248.266 624.201 248.266C624.985 248.266 625.752 248.25 626.504 248.219C627.256 248.156 627.961 248.125 628.619 248.125C628.682 248.125 628.713 248.219 628.713 248.407C628.713 248.595 628.682 248.689 628.619 248.689C627.303 248.689 626.332 249.096 625.705 249.911C625.079 250.694 624.765 251.901 624.765 253.53ZM657.358 247.608C658.549 247.608 659.646 247.671 660.648 247.796C661.682 247.89 662.638 248.062 663.515 248.313C664.424 248.564 665.286 248.893 666.1 249.3C666.351 249.394 666.492 249.504 666.523 249.629C666.586 249.723 666.633 249.958 666.664 250.334L667.275 256.256C667.275 256.319 667.181 256.381 666.993 256.444C666.837 256.475 666.743 256.428 666.711 256.303C665.928 253.702 664.737 251.744 663.139 250.428C661.541 249.081 659.505 248.407 657.029 248.407C654.523 248.407 652.329 248.987 650.449 250.146C648.569 251.305 647.097 252.95 646.031 255.081C644.966 257.18 644.433 259.671 644.433 262.554C644.433 264.685 644.762 266.643 645.42 268.429C646.078 270.215 646.987 271.782 648.146 273.129C649.337 274.445 650.7 275.463 652.235 276.184C653.802 276.905 655.478 277.265 657.264 277.265C659.771 277.265 661.792 276.638 663.327 275.385C664.894 274.132 666.147 272.22 667.087 269.651C667.15 269.557 667.26 269.526 667.416 269.557C667.573 269.588 667.651 269.651 667.651 269.745L667.134 275.103C667.103 275.479 667.04 275.714 666.946 275.808C666.884 275.902 666.743 276.012 666.523 276.137C664.925 276.858 663.39 277.359 661.917 277.641C660.476 277.954 658.925 278.111 657.264 278.111C653.943 278.111 650.982 277.469 648.381 276.184C645.812 274.868 643.791 273.066 642.318 270.779C640.846 268.46 640.109 265.781 640.109 262.742C640.109 260.486 640.532 258.434 641.378 256.585C642.256 254.736 643.478 253.138 645.044 251.791C646.611 250.444 648.428 249.41 650.496 248.689C652.596 247.968 654.883 247.608 657.358 247.608ZM700.203 277.5H680.181C680.087 277.5 680.04 277.406 680.04 277.218C680.04 277.03 680.087 276.936 680.181 276.936C681.247 276.936 682.046 276.858 682.578 276.701C683.142 276.544 683.518 276.231 683.706 275.761C683.894 275.291 683.988 274.602 683.988 273.693V251.932C683.988 251.023 683.894 250.35 683.706 249.911C683.518 249.441 683.142 249.128 682.578 248.971C682.046 248.783 681.247 248.689 680.181 248.689C680.087 248.689 680.04 248.595 680.04 248.407C680.04 248.219 680.087 248.125 680.181 248.125H699.357C699.671 248.125 699.827 248.266 699.827 248.548L699.921 254.47C699.921 254.564 699.827 254.627 699.639 254.658C699.483 254.658 699.389 254.611 699.357 254.517C699.138 252.794 698.527 251.493 697.524 250.616C696.522 249.707 695.206 249.253 693.576 249.253H691.179C690.239 249.253 689.519 249.331 689.017 249.488C688.516 249.645 688.171 249.942 687.983 250.381C687.795 250.788 687.701 251.368 687.701 252.12V273.505C687.701 274.257 687.78 274.852 687.936 275.291C688.124 275.698 688.453 275.996 688.923 276.184C689.393 276.341 690.051 276.419 690.897 276.419H693.999C695.785 276.419 697.258 275.902 698.417 274.868C699.577 273.803 700.376 272.299 700.814 270.356C700.814 270.262 700.908 270.231 701.096 270.262C701.284 270.293 701.378 270.356 701.378 270.45C701.253 271.296 701.143 272.314 701.049 273.505C700.955 274.696 700.908 275.792 700.908 276.795C700.908 277.265 700.673 277.5 700.203 277.5ZM697.571 266.69C697.571 265.343 697.18 264.356 696.396 263.729C695.644 263.071 694.422 262.742 692.73 262.742H685.915V261.661H692.871C694.469 261.661 695.644 261.395 696.396 260.862C697.148 260.298 697.524 259.436 697.524 258.277C697.524 258.214 697.603 258.183 697.759 258.183C697.947 258.183 698.041 258.214 698.041 258.277C698.041 259.248 698.026 260 697.994 260.533C697.994 261.066 697.994 261.63 697.994 262.225C697.994 262.946 698.01 263.666 698.041 264.387C698.104 265.108 698.135 265.875 698.135 266.69C698.135 266.753 698.041 266.784 697.853 266.784C697.665 266.784 697.571 266.753 697.571 266.69ZM719.097 253.389C719.097 254.642 719.41 255.723 720.037 256.632C720.664 257.541 721.478 258.355 722.481 259.076C723.484 259.765 724.549 260.455 725.677 261.144C726.836 261.833 727.949 262.57 729.014 263.353C730.111 264.136 731.004 265.061 731.693 266.126C732.414 267.16 732.774 268.429 732.774 269.933C732.774 271.468 732.367 272.847 731.552 274.069C730.769 275.291 729.641 276.262 728.168 276.983C726.727 277.704 724.988 278.064 722.951 278.064C722.136 278.064 721.306 277.986 720.46 277.829C719.645 277.704 718.862 277.516 718.11 277.265C717.358 277.014 716.669 276.701 716.042 276.325C715.917 276.231 715.807 276.121 715.713 275.996C715.65 275.871 715.619 275.683 715.619 275.432L715.149 268.711C715.118 268.554 715.18 268.476 715.337 268.476C715.525 268.445 715.635 268.492 715.666 268.617C715.948 269.588 716.324 270.575 716.794 271.578C717.264 272.581 717.828 273.505 718.486 274.351C719.144 275.166 719.927 275.839 720.836 276.372C721.776 276.905 722.857 277.171 724.079 277.171C724.925 277.171 725.74 277.014 726.523 276.701C727.338 276.388 727.996 275.871 728.497 275.15C728.998 274.398 729.249 273.364 729.249 272.048C729.249 270.544 728.92 269.275 728.262 268.241C727.604 267.207 726.758 266.314 725.724 265.562C724.69 264.81 723.593 264.089 722.434 263.4C721.337 262.711 720.272 261.99 719.238 261.238C718.235 260.486 717.421 259.624 716.794 258.653C716.167 257.65 715.854 256.444 715.854 255.034C715.854 253.342 716.293 251.948 717.17 250.851C718.079 249.754 719.222 248.94 720.601 248.407C722.011 247.874 723.452 247.608 724.925 247.608C725.896 247.608 726.883 247.702 727.886 247.89C728.889 248.078 729.797 248.344 730.612 248.689C730.894 248.814 731.082 248.955 731.176 249.112C731.27 249.237 731.317 249.378 731.317 249.535L731.552 255.41C731.552 255.504 731.474 255.567 731.317 255.598C731.16 255.629 731.051 255.582 730.988 255.457C730.894 254.924 730.69 254.266 730.377 253.483C730.064 252.668 729.641 251.885 729.108 251.133C728.575 250.35 727.886 249.707 727.04 249.206C726.225 248.673 725.223 248.407 724.032 248.407C722.935 248.407 722.027 248.642 721.306 249.112C720.585 249.551 720.037 250.146 719.661 250.898C719.285 251.619 719.097 252.449 719.097 253.389Z" fill="#0F1C2E"/>
<path d="M145.052 61.374C164.229 28.3178 193.652 9.67403 230.749 2.993C283.443 -6.49718 330.466 6.80754 371.905 39.6855C379.082 45.3798 385.617 51.7308 391.814 58.4232C392.878 59.5729 394 60.5 394.379 62.9214C383.923 63.4956 373.678 64.4025 363.99 59.6243C361.5 58 359.822 55.5625 357.934 53.3602C338.859 31.1109 315.449 15.439 286.271 8.89052C265.539 4.23766 244.7 4.31141 224.368 10.7536C193.223 20.6216 174.588 42.1713 166.466 72.6886C151.138 130.284 185.727 189.713 243.555 203.789C275.628 211.597 305.233 204.373 331.669 185.059C348.872 172.49 362.512 156.626 374.897 139.641C390.085 118.814 403.867 96.9705 421.612 77.9917C453.423 43.969 490.787 18.4861 537.141 7.41521C574.089 -1.40931 609 3 643.342 20.4001C649.212 23.5006 649.546 23.5579 646.5 29.5C644.386 33.6234 642.5 38 640.041 41.7958C638 41.7958 636.991 40.4648 636 39.5C615.228 19.2716 590.171 10.6219 561.139 10.8079C529.302 11.0118 503.414 24.2902 480.6 44.7381C460.394 62.8481 444.972 84.7599 429.524 106.613C413.1 129.848 395.964 152.456 373.497 170.592C341.007 196.817 304.322 213.279 261.593 212.547C220.752 211.848 184.786 198.477 157.423 167.435C143.955 152.156 136.631 134.147 134.484 113.99C132.508 95.4365 136.688 78.2229 145.052 61.374Z" fill="#0F1C2E"/>
<path d="M490.678 182.238C515.79 205.142 545.748 214.547 579.063 214.286C600.422 214.119 620.536 209.481 637.051 194.789C640.948 191.321 644 187.5 647.596 183.432C655.591 190.277 655.606 198.449 647.811 204.612C638.947 211.619 628.338 214.794 617.432 216.62C568.166 224.87 521.293 218.42 478.112 192.814C458.849 181.39 443.61 165.962 435.192 144.863C431.998 136.859 431.317 128.598 431.398 120.13C431.431 116.634 433.589 116.753 435.969 116.674C446.002 116.339 456.051 116.241 466.063 115.592C512.505 112.581 558.875 108.877 604.641 100.053C609.584 99.0996 614.454 97.7861 619.797 96.5372C620.317 102.687 618.797 108.164 618.027 113.692C616.78 122.642 615.387 131.572 614.112 140.519C613.849 142.363 613.752 144.227 611.148 144.044C608.526 143.861 608.727 141.85 608.663 140.087C608.606 138.472 608.667 136.852 608.611 135.237C608.348 127.655 605.376 123.78 598.024 121.24C591.243 118.897 584.087 118.479 577.092 118.253C553.723 117.497 530.325 118.661 507.01 119.576C493.692 120.055 480.373 120.583 467.049 120.817C463.048 120.887 461.453 122.061 461.729 126.153C462.812 142.188 469.436 156.057 478.686 168.93C482.111 173.695 486.055 178.04 490.678 182.238Z" fill="#0F1C2E"/>
</svg>
