<svg width="800" height="800" viewBox="0 0 800 800" fill="none" xmlns="http://www.w3.org/2000/svg">
<rect width="800" height="800" fill="#EDEAE2"/>
<path d="M84.6549 468.972C85.8709 468.972 86.9909 469.036 88.0149 469.164C89.0709 469.26 90.0469 469.436 90.9429 469.692C91.8709 469.948 92.7509 470.284 93.5829 470.7C93.8389 470.796 93.9829 470.908 94.0149 471.036C94.0789 471.132 94.1269 471.372 94.1589 471.756L94.7829 477.804C94.7829 477.868 94.6869 477.932 94.4949 477.996C94.3349 478.028 94.2389 477.98 94.2069 477.852C93.4069 475.196 92.1909 473.196 90.5589 471.852C88.9269 470.476 86.8469 469.788 84.3189 469.788C81.7589 469.788 79.5189 470.38 77.5989 471.564C75.6789 472.748 74.1749 474.428 73.0869 476.604C71.9989 478.748 71.4549 481.292 71.4549 484.236C71.4549 486.412 71.7909 488.412 72.4629 490.236C73.1349 492.06 74.0629 493.66 75.2469 495.036C76.4629 496.38 77.8549 497.42 79.4229 498.156C81.0229 498.892 82.7349 499.26 84.5589 499.26C87.1189 499.26 89.1829 498.62 90.7509 497.34C92.3509 496.06 93.6309 494.108 94.5909 491.484C94.6549 491.388 94.7669 491.356 94.9269 491.388C95.0869 491.42 95.1669 491.484 95.1669 491.58L94.6389 497.052C94.6069 497.436 94.5429 497.676 94.4469 497.772C94.3829 497.868 94.2389 497.98 94.0149 498.108C92.3829 498.844 90.8149 499.356 89.3109 499.644C87.8389 499.964 86.2549 500.124 84.5589 500.124C81.1669 500.124 78.1429 499.468 75.4869 498.156C72.8629 496.812 70.7989 494.972 69.2949 492.636C67.7909 490.268 67.0389 487.532 67.0389 484.428C67.0389 482.124 67.4709 480.028 68.3349 478.14C69.2309 476.252 70.4789 474.62 72.0789 473.244C73.6789 471.868 75.5349 470.812 77.6469 470.076C79.7909 469.34 82.1269 468.972 84.6549 468.972ZM132.783 475.53C132.783 473.963 132.423 472.773 131.702 471.958C131.013 471.112 129.979 470.689 128.6 470.689C128.506 470.689 128.459 470.595 128.459 470.407C128.459 470.219 128.506 470.125 128.6 470.125C129.321 470.125 130.073 470.156 130.856 470.219C131.64 470.25 132.486 470.266 133.394 470.266C134.178 470.266 134.945 470.25 135.697 470.219C136.481 470.156 137.201 470.125 137.859 470.125C137.922 470.125 137.953 470.219 137.953 470.407C137.953 470.595 137.922 470.689 137.859 470.689C136.606 470.689 135.65 471.112 134.992 471.958C134.366 472.773 134.052 473.963 134.052 475.53V488.831C134.052 491.181 133.582 493.202 132.642 494.894C131.702 496.586 130.386 497.886 128.694 498.795C127.002 499.672 125.028 500.111 122.772 500.111C120.454 500.111 118.417 499.672 116.662 498.795C114.908 497.886 113.545 496.602 112.573 494.941C111.602 493.28 111.116 491.306 111.116 489.019V473.932C111.116 473.023 111.022 472.35 110.834 471.911C110.646 471.441 110.27 471.128 109.706 470.971C109.174 470.783 108.375 470.689 107.309 470.689C107.215 470.689 107.168 470.595 107.168 470.407C107.168 470.219 107.215 470.125 107.309 470.125C108.093 470.125 108.954 470.156 109.894 470.219C110.834 470.25 111.853 470.266 112.949 470.266C114.077 470.266 115.111 470.25 116.051 470.219C117.023 470.156 117.869 470.125 118.589 470.125C118.683 470.125 118.73 470.219 118.73 470.407C118.73 470.595 118.683 470.689 118.589 470.689C117.524 470.689 116.709 470.783 116.145 470.971C115.613 471.159 115.252 471.488 115.064 471.958C114.908 472.428 114.829 473.117 114.829 474.026V487.374C114.829 491.134 115.644 493.954 117.273 495.834C118.903 497.683 121.159 498.607 124.041 498.607C126.799 498.607 128.945 497.761 130.48 496.069C132.016 494.346 132.783 491.949 132.783 488.878V475.53ZM172.696 499.5C172.194 499.5 171.364 498.905 170.205 497.714C169.077 496.492 167.714 494.769 166.116 492.544C164.518 490.288 162.716 487.609 160.711 484.507L163.86 483.52C166.492 487.311 168.716 490.335 170.534 492.591C172.382 494.847 174.012 496.476 175.422 497.479C176.832 498.45 178.179 498.936 179.464 498.936C179.558 498.936 179.605 499.03 179.605 499.218C179.605 499.406 179.558 499.5 179.464 499.5C177.709 499.5 176.268 499.5 175.14 499.5C174.043 499.5 173.228 499.5 172.696 499.5ZM161.416 469.984C164.048 469.984 166.053 470.548 167.432 471.676C168.842 472.773 169.547 474.245 169.547 476.094C169.547 477.849 169.045 479.415 168.043 480.794C167.04 482.173 165.724 483.254 164.095 484.037C162.497 484.82 160.773 485.212 158.925 485.212C158.549 485.212 158.157 485.212 157.75 485.212C157.342 485.181 156.966 485.149 156.622 485.118V495.693C156.622 496.602 156.7 497.291 156.857 497.761C157.045 498.231 157.405 498.544 157.938 498.701C158.502 498.858 159.332 498.936 160.429 498.936C160.523 498.936 160.57 499.03 160.57 499.218C160.57 499.406 160.523 499.5 160.429 499.5C159.645 499.5 158.784 499.484 157.844 499.453C156.904 499.422 155.87 499.406 154.742 499.406C153.676 499.406 152.658 499.422 151.687 499.453C150.715 499.484 149.838 499.5 149.055 499.5C148.961 499.5 148.914 499.406 148.914 499.218C148.914 499.03 148.961 498.936 149.055 498.936C150.12 498.936 150.919 498.858 151.452 498.701C152.016 498.544 152.392 498.231 152.58 497.761C152.799 497.291 152.909 496.602 152.909 495.693V473.932C152.909 473.023 152.815 472.35 152.627 471.911C152.439 471.441 152.078 471.128 151.546 470.971C151.013 470.783 150.198 470.689 149.102 470.689C149.039 470.689 149.008 470.595 149.008 470.407C149.008 470.219 149.039 470.125 149.102 470.125C149.885 470.125 150.747 470.156 151.687 470.219C152.658 470.25 153.676 470.266 154.742 470.266C155.744 470.266 156.872 470.219 158.126 470.125C159.379 470.031 160.476 469.984 161.416 469.984ZM165.693 477.598C165.693 475.843 165.458 474.48 164.988 473.509C164.518 472.506 163.844 471.801 162.967 471.394C162.121 470.987 161.118 470.783 159.959 470.783C158.768 470.783 157.906 471.002 157.374 471.441C156.872 471.848 156.622 472.71 156.622 474.026V483.943C157.06 483.974 157.53 484.006 158.032 484.037C158.564 484.068 159.019 484.084 159.395 484.084C161.713 484.084 163.343 483.551 164.283 482.486C165.223 481.421 165.693 479.791 165.693 477.598ZM196.039 487.233L196.603 486.199H209.387L209.716 487.233H196.039ZM220.338 498.936C220.494 498.936 220.573 499.03 220.573 499.218C220.573 499.406 220.494 499.5 220.338 499.5C219.429 499.5 218.489 499.469 217.518 499.406C216.578 499.343 215.653 499.312 214.745 499.312C213.742 499.312 212.865 499.343 212.113 499.406C211.392 499.469 210.577 499.5 209.669 499.5C209.543 499.5 209.481 499.406 209.481 499.218C209.481 499.03 209.543 498.936 209.669 498.936C211.204 498.936 212.144 498.701 212.489 498.231C212.833 497.73 212.661 496.758 211.972 495.317L201.867 474.308L203.371 472.052L194.206 493.296C193.391 495.207 193.344 496.633 194.065 497.573C194.785 498.482 196.133 498.936 198.107 498.936C198.263 498.936 198.342 499.03 198.342 499.218C198.342 499.406 198.263 499.5 198.107 499.5C197.167 499.5 196.305 499.469 195.522 499.406C194.738 499.343 193.751 499.312 192.561 499.312C191.401 499.312 190.461 499.343 189.741 499.406C189.051 499.469 188.205 499.5 187.203 499.5C187.077 499.5 187.015 499.406 187.015 499.218C187.015 499.03 187.077 498.936 187.203 498.936C188.049 498.936 188.785 498.779 189.412 498.466C190.038 498.121 190.634 497.51 191.198 496.633C191.793 495.756 192.435 494.502 193.125 492.873L203.136 469.796C203.167 469.702 203.277 469.655 203.465 469.655C203.653 469.624 203.762 469.671 203.794 469.796L215.074 493.061C215.826 494.596 216.468 495.803 217.001 496.68C217.565 497.526 218.113 498.121 218.646 498.466C219.178 498.779 219.742 498.936 220.338 498.936ZM234.708 471.065C232.765 471.065 231.245 471.613 230.149 472.71C229.052 473.775 228.237 475.499 227.705 477.88C227.673 477.943 227.564 477.974 227.376 477.974C227.219 477.974 227.141 477.927 227.141 477.833C227.203 477.426 227.266 476.846 227.329 476.094C227.423 475.342 227.501 474.527 227.564 473.65C227.626 472.773 227.673 471.927 227.705 471.112C227.767 470.297 227.799 469.624 227.799 469.091C227.799 468.934 227.893 468.856 228.081 468.856C228.269 468.856 228.363 468.934 228.363 469.091C228.363 469.404 228.519 469.639 228.833 469.796C229.146 469.921 229.506 470.015 229.914 470.078C230.321 470.109 230.666 470.125 230.948 470.125C233.642 470.219 236.791 470.266 240.395 470.266C242.588 470.266 244.343 470.25 245.659 470.219C246.975 470.156 248.244 470.125 249.466 470.125C250.531 470.125 251.346 470.062 251.91 469.937C252.505 469.78 252.881 469.451 253.038 468.95C253.069 468.825 253.163 468.762 253.32 468.762C253.508 468.762 253.602 468.825 253.602 468.95C253.539 469.42 253.476 470.078 253.414 470.924C253.382 471.77 253.335 472.647 253.273 473.556C253.241 474.465 253.21 475.311 253.179 476.094C253.147 476.877 253.132 477.457 253.132 477.833C253.132 477.927 253.038 477.974 252.85 477.974C252.693 477.974 252.615 477.927 252.615 477.833C252.395 475.389 251.769 473.65 250.735 472.616C249.701 471.582 248.165 471.065 246.129 471.065C245.032 471.065 244.202 471.143 243.638 471.3C243.105 471.425 242.745 471.692 242.557 472.099C242.4 472.506 242.322 473.149 242.322 474.026V495.693C242.322 496.602 242.416 497.291 242.604 497.761C242.823 498.231 243.23 498.544 243.826 498.701C244.452 498.858 245.408 498.936 246.693 498.936C246.755 498.936 246.787 499.03 246.787 499.218C246.787 499.406 246.755 499.5 246.693 499.5C245.847 499.5 244.891 499.484 243.826 499.453C242.792 499.422 241.648 499.406 240.395 499.406C239.204 499.406 238.076 499.422 237.011 499.453C235.977 499.484 235.021 499.5 234.144 499.5C234.05 499.5 234.003 499.406 234.003 499.218C234.003 499.03 234.05 498.936 234.144 498.936C235.366 498.936 236.29 498.858 236.917 498.701C237.575 498.544 238.013 498.231 238.233 497.761C238.452 497.291 238.562 496.602 238.562 495.693V473.932C238.562 473.086 238.468 472.459 238.28 472.052C238.092 471.613 237.716 471.347 237.152 471.253C236.588 471.128 235.773 471.065 234.708 471.065ZM285.548 499.5H265.526C265.432 499.5 265.385 499.406 265.385 499.218C265.385 499.03 265.432 498.936 265.526 498.936C266.592 498.936 267.391 498.858 267.923 498.701C268.487 498.544 268.863 498.231 269.051 497.761C269.239 497.291 269.333 496.602 269.333 495.693V473.932C269.333 473.023 269.239 472.35 269.051 471.911C268.863 471.441 268.487 471.128 267.923 470.971C267.391 470.783 266.592 470.689 265.526 470.689C265.432 470.689 265.385 470.595 265.385 470.407C265.385 470.219 265.432 470.125 265.526 470.125H284.702C285.016 470.125 285.172 470.266 285.172 470.548L285.266 476.47C285.266 476.564 285.172 476.627 284.984 476.658C284.828 476.658 284.734 476.611 284.702 476.517C284.483 474.794 283.872 473.493 282.869 472.616C281.867 471.707 280.551 471.253 278.921 471.253H276.524C275.584 471.253 274.864 471.331 274.362 471.488C273.861 471.645 273.516 471.942 273.328 472.381C273.14 472.788 273.046 473.368 273.046 474.12V495.505C273.046 496.257 273.125 496.852 273.281 497.291C273.469 497.698 273.798 497.996 274.268 498.184C274.738 498.341 275.396 498.419 276.242 498.419H279.344C281.13 498.419 282.603 497.902 283.762 496.868C284.922 495.803 285.721 494.299 286.159 492.356C286.159 492.262 286.253 492.231 286.441 492.262C286.629 492.293 286.723 492.356 286.723 492.45C286.598 493.296 286.488 494.314 286.394 495.505C286.3 496.696 286.253 497.792 286.253 498.795C286.253 499.265 286.018 499.5 285.548 499.5ZM282.916 488.69C282.916 487.343 282.525 486.356 281.741 485.729C280.989 485.071 279.767 484.742 278.075 484.742H271.26V483.661H278.216C279.814 483.661 280.989 483.395 281.741 482.862C282.493 482.298 282.869 481.436 282.869 480.277C282.869 480.214 282.948 480.183 283.104 480.183C283.292 480.183 283.386 480.214 283.386 480.277C283.386 481.248 283.371 482 283.339 482.533C283.339 483.066 283.339 483.63 283.339 484.225C283.339 484.946 283.355 485.666 283.386 486.387C283.449 487.108 283.48 487.875 283.48 488.69C283.48 488.753 283.386 488.784 283.198 488.784C283.01 488.784 282.916 488.753 282.916 488.69ZM311.774 499.688C310.834 499.688 309.675 499.641 308.296 499.547C306.917 499.453 305.648 499.406 304.489 499.406C303.424 499.406 302.39 499.422 301.387 499.453C300.416 499.484 299.538 499.5 298.755 499.5C298.692 499.5 298.661 499.406 298.661 499.218C298.661 499.03 298.692 498.936 298.755 498.936C299.852 498.936 300.682 498.858 301.246 498.701C301.81 498.544 302.186 498.231 302.374 497.761C302.562 497.291 302.656 496.602 302.656 495.693V473.932C302.656 473.023 302.562 472.35 302.374 471.911C302.186 471.441 301.81 471.128 301.246 470.971C300.713 470.783 299.914 470.689 298.849 470.689C298.755 470.689 298.708 470.595 298.708 470.407C298.708 470.219 298.755 470.125 298.849 470.125C299.632 470.125 300.494 470.156 301.434 470.219C302.405 470.25 303.424 470.266 304.489 470.266C305.554 470.266 306.698 470.235 307.92 470.172C309.173 470.078 310.239 470.031 311.116 470.031C314.437 470.031 317.32 470.658 319.764 471.911C322.239 473.164 324.166 474.872 325.545 477.034C326.924 479.196 327.613 481.624 327.613 484.319C327.613 486.669 327.19 488.8 326.344 490.711C325.529 492.591 324.386 494.205 322.913 495.552C321.44 496.868 319.748 497.886 317.837 498.607C315.926 499.328 313.905 499.688 311.774 499.688ZM311.304 498.842C313.654 498.842 315.722 498.325 317.508 497.291C319.325 496.257 320.751 494.737 321.785 492.732C322.819 490.695 323.336 488.236 323.336 485.353C323.336 482.627 322.85 480.183 321.879 478.021C320.908 475.828 319.545 474.089 317.79 472.804C316.067 471.488 313.999 470.83 311.586 470.83C309.706 470.83 308.359 471.018 307.544 471.394C306.761 471.77 306.369 472.647 306.369 474.026V495.176C306.369 496.429 306.682 497.354 307.309 497.949C307.936 498.544 309.267 498.842 311.304 498.842ZM379.089 499.5H358.641C358.545 499.5 358.497 499.404 358.497 499.212C358.497 499.02 358.545 498.924 358.641 498.924C359.729 498.924 360.545 498.844 361.089 498.684C361.665 498.524 362.049 498.204 362.241 497.724C362.433 497.244 362.529 496.54 362.529 495.612V473.388C362.529 472.46 362.433 471.772 362.241 471.324C362.049 470.844 361.665 470.524 361.089 470.364C360.545 470.172 359.729 470.076 358.641 470.076C358.545 470.076 358.497 469.98 358.497 469.788C358.497 469.596 358.545 469.5 358.641 469.5H378.225C378.545 469.5 378.705 469.644 378.705 469.932L378.801 475.98C378.801 476.076 378.705 476.14 378.513 476.172C378.353 476.172 378.257 476.124 378.225 476.028C378.001 474.268 377.377 472.94 376.353 472.044C375.329 471.116 373.985 470.652 372.321 470.652H369.873C368.913 470.652 368.177 470.732 367.665 470.892C367.153 471.052 366.801 471.356 366.609 471.804C366.417 472.22 366.321 472.812 366.321 473.58V495.42C366.321 496.188 366.401 496.796 366.561 497.244C366.753 497.66 367.089 497.964 367.569 498.156C368.049 498.316 368.721 498.396 369.585 498.396H372.753C374.577 498.396 376.081 497.868 377.265 496.812C378.449 495.724 379.265 494.188 379.713 492.204C379.713 492.108 379.809 492.076 380.001 492.108C380.193 492.14 380.289 492.204 380.289 492.3C380.161 493.164 380.049 494.204 379.953 495.42C379.857 496.636 379.809 497.756 379.809 498.78C379.809 499.26 379.569 499.5 379.089 499.5ZM376.401 488.46C376.401 487.084 376.001 486.076 375.201 485.436C374.433 484.764 373.185 484.428 371.457 484.428H364.497V483.324H371.601C373.233 483.324 374.433 483.052 375.201 482.508C375.969 481.932 376.353 481.052 376.353 479.868C376.353 479.804 376.433 479.772 376.593 479.772C376.785 479.772 376.881 479.804 376.881 479.868C376.881 480.86 376.865 481.628 376.833 482.172C376.833 482.716 376.833 483.292 376.833 483.9C376.833 484.636 376.849 485.372 376.881 486.108C376.945 486.844 376.977 487.628 376.977 488.46C376.977 488.524 376.881 488.556 376.689 488.556C376.497 488.556 376.401 488.524 376.401 488.46ZM410.262 499.5C410.2 499.5 410.168 499.406 410.168 499.218C410.168 499.03 410.2 498.936 410.262 498.936C411.234 498.936 411.876 498.811 412.189 498.56C412.534 498.309 412.471 497.824 412.001 497.103L397.008 474.214C396.162 472.929 395.332 472.021 394.517 471.488C393.734 470.955 392.841 470.689 391.838 470.689C391.776 470.689 391.744 470.595 391.744 470.407C391.744 470.219 391.776 470.125 391.838 470.125C392.434 470.125 393.06 470.156 393.718 470.219C394.376 470.25 394.987 470.266 395.551 470.266C396.836 470.266 398.027 470.25 399.123 470.219C400.22 470.156 401.176 470.125 401.99 470.125C402.084 470.125 402.131 470.219 402.131 470.407C402.131 470.595 402.084 470.689 401.99 470.689C401.019 470.689 400.361 470.814 400.016 471.065C399.703 471.316 399.781 471.817 400.251 472.569L415.385 495.599C416.2 496.821 417.03 497.683 417.876 498.184C418.722 498.685 419.756 498.936 420.978 498.936C421.041 498.936 421.072 499.03 421.072 499.218C421.072 499.406 421.041 499.5 420.978 499.5C420.32 499.5 419.6 499.484 418.816 499.453C418.033 499.422 417.203 499.406 416.325 499.406C415.041 499.406 413.913 499.422 412.941 499.453C412.001 499.484 411.108 499.5 410.262 499.5ZM391.603 499.5C391.509 499.5 391.462 499.406 391.462 499.218C391.462 499.03 391.509 498.936 391.603 498.936C392.606 498.936 393.703 498.544 394.893 497.761C396.084 496.978 397.29 495.74 398.512 494.048L405.186 484.93L405.844 485.447L399.687 494.142C398.591 495.646 398.152 496.821 398.371 497.667C398.622 498.513 399.499 498.936 401.003 498.936C401.097 498.936 401.144 499.03 401.144 499.218C401.144 499.406 401.097 499.5 401.003 499.5C400.157 499.5 399.343 499.484 398.559 499.453C397.776 499.422 396.758 499.406 395.504 499.406C394.658 499.406 393.985 499.422 393.483 499.453C392.982 499.484 392.355 499.5 391.603 499.5ZM406.643 484.742L405.985 484.225L411.954 475.718C413.082 474.12 413.537 472.882 413.317 472.005C413.129 471.128 412.299 470.689 410.826 470.689C410.732 470.689 410.685 470.595 410.685 470.407C410.685 470.219 410.732 470.125 410.826 470.125C411.672 470.125 412.487 470.156 413.27 470.219C414.054 470.25 415.072 470.266 416.325 470.266C417.171 470.266 417.845 470.25 418.346 470.219C418.848 470.156 419.459 470.125 420.179 470.125C420.273 470.125 420.32 470.219 420.32 470.407C420.32 470.595 420.273 470.689 420.179 470.689C419.208 470.689 418.111 471.112 416.889 471.958C415.667 472.804 414.414 474.104 413.129 475.859L406.643 484.742ZM439.186 495.505C439.186 496.445 439.295 497.166 439.515 497.667C439.765 498.137 440.267 498.466 441.019 498.654C441.771 498.842 442.899 498.936 444.403 498.936C444.497 498.936 444.544 499.03 444.544 499.218C444.544 499.406 444.497 499.5 444.403 499.5C443.4 499.5 442.303 499.484 441.113 499.453C439.953 499.422 438.684 499.406 437.306 499.406C436.272 499.406 435.253 499.422 434.251 499.453C433.279 499.484 432.402 499.5 431.619 499.5C431.556 499.5 431.525 499.406 431.525 499.218C431.525 499.03 431.556 498.936 431.619 498.936C432.715 498.936 433.53 498.858 434.063 498.701C434.627 498.544 434.987 498.231 435.144 497.761C435.332 497.291 435.426 496.602 435.426 495.693V473.932C435.426 473.023 435.332 472.35 435.144 471.911C434.987 471.441 434.627 471.128 434.063 470.971C433.53 470.783 432.715 470.689 431.619 470.689C431.556 470.689 431.525 470.595 431.525 470.407C431.525 470.219 431.556 470.125 431.619 470.125C432.402 470.125 433.279 470.156 434.251 470.219C435.222 470.25 436.225 470.266 437.259 470.266C438.073 470.266 439.06 470.219 440.22 470.125C441.41 470.031 442.601 469.984 443.792 469.984C445.609 469.984 447.238 470.25 448.68 470.783C450.152 471.316 451.327 472.146 452.205 473.274C453.082 474.402 453.536 475.875 453.568 477.692C453.568 479.321 453.27 480.731 452.675 481.922C452.079 483.113 451.265 484.1 450.231 484.883C449.228 485.666 448.1 486.246 446.847 486.622C445.625 486.998 444.418 487.186 443.228 487.186C442.852 487.186 442.46 487.17 442.053 487.139C441.677 487.108 441.316 487.045 440.972 486.951C440.846 486.92 440.799 486.81 440.831 486.622C440.893 486.403 440.972 486.309 441.066 486.34C441.348 486.403 441.63 486.45 441.912 486.481C442.225 486.512 442.491 486.528 442.711 486.528C443.901 486.528 444.998 486.246 446.001 485.682C447.003 485.118 447.818 484.256 448.445 483.097C449.071 481.906 449.385 480.434 449.385 478.679C449.385 476.987 449.087 475.561 448.492 474.402C447.928 473.243 447.129 472.35 446.095 471.723C445.061 471.096 443.87 470.783 442.523 470.783C441.645 470.783 440.956 470.846 440.455 470.971C439.985 471.096 439.656 471.394 439.468 471.864C439.28 472.334 439.186 473.055 439.186 474.026V495.505ZM485.711 499.5H465.689C465.595 499.5 465.548 499.406 465.548 499.218C465.548 499.03 465.595 498.936 465.689 498.936C466.754 498.936 467.553 498.858 468.086 498.701C468.65 498.544 469.026 498.231 469.214 497.761C469.402 497.291 469.496 496.602 469.496 495.693V473.932C469.496 473.023 469.402 472.35 469.214 471.911C469.026 471.441 468.65 471.128 468.086 470.971C467.553 470.783 466.754 470.689 465.689 470.689C465.595 470.689 465.548 470.595 465.548 470.407C465.548 470.219 465.595 470.125 465.689 470.125H484.865C485.178 470.125 485.335 470.266 485.335 470.548L485.429 476.47C485.429 476.564 485.335 476.627 485.147 476.658C484.99 476.658 484.896 476.611 484.865 476.517C484.645 474.794 484.034 473.493 483.032 472.616C482.029 471.707 480.713 471.253 479.084 471.253H476.687C475.747 471.253 475.026 471.331 474.525 471.488C474.023 471.645 473.679 471.942 473.491 472.381C473.303 472.788 473.209 473.368 473.209 474.12V495.505C473.209 496.257 473.287 496.852 473.444 497.291C473.632 497.698 473.961 497.996 474.431 498.184C474.901 498.341 475.559 498.419 476.405 498.419H479.507C481.293 498.419 482.765 497.902 483.925 496.868C485.084 495.803 485.883 494.299 486.322 492.356C486.322 492.262 486.416 492.231 486.604 492.262C486.792 492.293 486.886 492.356 486.886 492.45C486.76 493.296 486.651 494.314 486.557 495.505C486.463 496.696 486.416 497.792 486.416 498.795C486.416 499.265 486.181 499.5 485.711 499.5ZM483.079 488.69C483.079 487.343 482.687 486.356 481.904 485.729C481.152 485.071 479.93 484.742 478.238 484.742H471.423V483.661H478.379C479.977 483.661 481.152 483.395 481.904 482.862C482.656 482.298 483.032 481.436 483.032 480.277C483.032 480.214 483.11 480.183 483.267 480.183C483.455 480.183 483.549 480.214 483.549 480.277C483.549 481.248 483.533 482 483.502 482.533C483.502 483.066 483.502 483.63 483.502 484.225C483.502 484.946 483.517 485.666 483.549 486.387C483.611 487.108 483.643 487.875 483.643 488.69C483.643 488.753 483.549 488.784 483.361 488.784C483.173 488.784 483.079 488.753 483.079 488.69ZM523.028 499.5C522.527 499.5 521.697 498.905 520.537 497.714C519.409 496.492 518.046 494.769 516.448 492.544C514.85 490.288 513.049 487.609 511.043 484.507L514.192 483.52C516.824 487.311 519.049 490.335 520.866 492.591C522.715 494.847 524.344 496.476 525.754 497.479C527.164 498.45 528.512 498.936 529.796 498.936C529.89 498.936 529.937 499.03 529.937 499.218C529.937 499.406 529.89 499.5 529.796 499.5C528.042 499.5 526.6 499.5 525.472 499.5C524.376 499.5 523.561 499.5 523.028 499.5ZM511.748 469.984C514.38 469.984 516.386 470.548 517.764 471.676C519.174 472.773 519.879 474.245 519.879 476.094C519.879 477.849 519.378 479.415 518.375 480.794C517.373 482.173 516.057 483.254 514.427 484.037C512.829 484.82 511.106 485.212 509.257 485.212C508.881 485.212 508.49 485.212 508.082 485.212C507.675 485.181 507.299 485.149 506.954 485.118V495.693C506.954 496.602 507.033 497.291 507.189 497.761C507.377 498.231 507.738 498.544 508.27 498.701C508.834 498.858 509.665 498.936 510.761 498.936C510.855 498.936 510.902 499.03 510.902 499.218C510.902 499.406 510.855 499.5 510.761 499.5C509.978 499.5 509.116 499.484 508.176 499.453C507.236 499.422 506.202 499.406 505.074 499.406C504.009 499.406 502.991 499.422 502.019 499.453C501.048 499.484 500.171 499.5 499.387 499.5C499.293 499.5 499.246 499.406 499.246 499.218C499.246 499.03 499.293 498.936 499.387 498.936C500.453 498.936 501.252 498.858 501.784 498.701C502.348 498.544 502.724 498.231 502.912 497.761C503.132 497.291 503.241 496.602 503.241 495.693V473.932C503.241 473.023 503.147 472.35 502.959 471.911C502.771 471.441 502.411 471.128 501.878 470.971C501.346 470.783 500.531 470.689 499.434 470.689C499.372 470.689 499.34 470.595 499.34 470.407C499.34 470.219 499.372 470.125 499.434 470.125C500.218 470.125 501.079 470.156 502.019 470.219C502.991 470.25 504.009 470.266 505.074 470.266C506.077 470.266 507.205 470.219 508.458 470.125C509.712 470.031 510.808 469.984 511.748 469.984ZM516.025 477.598C516.025 475.843 515.79 474.48 515.32 473.509C514.85 472.506 514.177 471.801 513.299 471.394C512.453 470.987 511.451 470.783 510.291 470.783C509.101 470.783 508.239 471.002 507.706 471.441C507.205 471.848 506.954 472.71 506.954 474.026V483.943C507.393 483.974 507.863 484.006 508.364 484.037C508.897 484.068 509.351 484.084 509.727 484.084C512.046 484.084 513.675 483.551 514.615 482.486C515.555 481.421 516.025 479.791 516.025 477.598ZM547.359 495.693C547.359 496.602 547.437 497.291 547.594 497.761C547.782 498.231 548.142 498.544 548.675 498.701C549.239 498.858 550.069 498.936 551.166 498.936C551.228 498.936 551.26 499.03 551.26 499.218C551.26 499.406 551.228 499.5 551.166 499.5C550.382 499.5 549.505 499.484 548.534 499.453C547.594 499.422 546.56 499.406 545.432 499.406C544.335 499.406 543.301 499.422 542.33 499.453C541.358 499.484 540.481 499.5 539.698 499.5C539.635 499.5 539.604 499.406 539.604 499.218C539.604 499.03 539.635 498.936 539.698 498.936C540.794 498.936 541.625 498.858 542.189 498.701C542.753 498.544 543.129 498.231 543.317 497.761C543.505 497.291 543.599 496.602 543.599 495.693V473.932C543.599 473.023 543.505 472.35 543.317 471.911C543.129 471.441 542.753 471.128 542.189 470.971C541.625 470.783 540.794 470.689 539.698 470.689C539.635 470.689 539.604 470.595 539.604 470.407C539.604 470.219 539.635 470.125 539.698 470.125C540.481 470.125 541.358 470.156 542.33 470.219C543.301 470.25 544.335 470.266 545.432 470.266C546.56 470.266 547.609 470.25 548.581 470.219C549.552 470.156 550.414 470.125 551.166 470.125C551.228 470.125 551.26 470.219 551.26 470.407C551.26 470.595 551.228 470.689 551.166 470.689C550.069 470.689 549.254 470.783 548.722 470.971C548.189 471.159 547.829 471.488 547.641 471.958C547.453 472.428 547.359 473.117 547.359 474.026V495.693ZM583.594 499.5H563.572C563.478 499.5 563.431 499.406 563.431 499.218C563.431 499.03 563.478 498.936 563.572 498.936C564.637 498.936 565.436 498.858 565.969 498.701C566.533 498.544 566.909 498.231 567.097 497.761C567.285 497.291 567.379 496.602 567.379 495.693V473.932C567.379 473.023 567.285 472.35 567.097 471.911C566.909 471.441 566.533 471.128 565.969 470.971C565.436 470.783 564.637 470.689 563.572 470.689C563.478 470.689 563.431 470.595 563.431 470.407C563.431 470.219 563.478 470.125 563.572 470.125H582.748C583.061 470.125 583.218 470.266 583.218 470.548L583.312 476.47C583.312 476.564 583.218 476.627 583.03 476.658C582.873 476.658 582.779 476.611 582.748 476.517C582.528 474.794 581.917 473.493 580.915 472.616C579.912 471.707 578.596 471.253 576.967 471.253H574.57C573.63 471.253 572.909 471.331 572.408 471.488C571.906 471.645 571.562 471.942 571.374 472.381C571.186 472.788 571.092 473.368 571.092 474.12V495.505C571.092 496.257 571.17 496.852 571.327 497.291C571.515 497.698 571.844 497.996 572.314 498.184C572.784 498.341 573.442 498.419 574.288 498.419H577.39C579.176 498.419 580.648 497.902 581.808 496.868C582.967 495.803 583.766 494.299 584.205 492.356C584.205 492.262 584.299 492.231 584.487 492.262C584.675 492.293 584.769 492.356 584.769 492.45C584.643 493.296 584.534 494.314 584.44 495.505C584.346 496.696 584.299 497.792 584.299 498.795C584.299 499.265 584.064 499.5 583.594 499.5ZM580.962 488.69C580.962 487.343 580.57 486.356 579.787 485.729C579.035 485.071 577.813 484.742 576.121 484.742H569.306V483.661H576.262C577.86 483.661 579.035 483.395 579.787 482.862C580.539 482.298 580.915 481.436 580.915 480.277C580.915 480.214 580.993 480.183 581.15 480.183C581.338 480.183 581.432 480.214 581.432 480.277C581.432 481.248 581.416 482 581.385 482.533C581.385 483.066 581.385 483.63 581.385 484.225C581.385 484.946 581.4 485.666 581.432 486.387C581.494 487.108 581.526 487.875 581.526 488.69C581.526 488.753 581.432 488.784 581.244 488.784C581.056 488.784 580.962 488.753 580.962 488.69ZM600.983 494.142V471.206L602.205 471.3V494.142C602.205 495.771 602.503 496.978 603.098 497.761C603.694 498.544 604.634 498.936 605.918 498.936C605.981 498.936 606.012 499.03 606.012 499.218C606.012 499.406 605.981 499.5 605.918 499.5C605.26 499.5 604.587 499.484 603.897 499.453C603.239 499.422 602.487 499.406 601.641 499.406C600.827 499.406 600.028 499.422 599.244 499.453C598.461 499.484 597.725 499.5 597.035 499.5C596.973 499.5 596.941 499.406 596.941 499.218C596.941 499.03 596.973 498.936 597.035 498.936C598.414 498.936 599.417 498.544 600.043 497.761C600.67 496.978 600.983 495.771 600.983 494.142ZM624.765 500.111C624.765 500.174 624.687 500.205 624.53 500.205C624.405 500.236 624.311 500.236 624.248 500.205L602.111 473.979C601.015 472.694 600.059 471.833 599.244 471.394C598.461 470.924 597.678 470.689 596.894 470.689C596.832 470.689 596.8 470.595 596.8 470.407C596.8 470.219 596.832 470.125 596.894 470.125C597.49 470.125 598.085 470.141 598.68 470.172C599.276 470.203 599.824 470.219 600.325 470.219C601.077 470.219 601.767 470.203 602.393 470.172C603.02 470.141 603.49 470.125 603.803 470.125C604.211 470.125 604.508 470.313 604.696 470.689C604.884 471.034 605.339 471.66 606.059 472.569L624.389 494.659L624.765 500.111ZM624.765 475.53V500.111L623.59 498.654V475.53C623.59 473.901 623.293 472.694 622.697 471.911C622.133 471.096 621.209 470.689 619.924 470.689C619.862 470.689 619.83 470.595 619.83 470.407C619.83 470.219 619.862 470.125 619.924 470.125C620.582 470.125 621.256 470.156 621.945 470.219C622.635 470.25 623.387 470.266 624.201 470.266C624.985 470.266 625.752 470.25 626.504 470.219C627.256 470.156 627.961 470.125 628.619 470.125C628.682 470.125 628.713 470.219 628.713 470.407C628.713 470.595 628.682 470.689 628.619 470.689C627.303 470.689 626.332 471.096 625.705 471.911C625.079 472.694 624.765 473.901 624.765 475.53ZM657.358 469.608C658.549 469.608 659.646 469.671 660.648 469.796C661.682 469.89 662.638 470.062 663.515 470.313C664.424 470.564 665.286 470.893 666.1 471.3C666.351 471.394 666.492 471.504 666.523 471.629C666.586 471.723 666.633 471.958 666.664 472.334L667.275 478.256C667.275 478.319 667.181 478.381 666.993 478.444C666.837 478.475 666.743 478.428 666.711 478.303C665.928 475.702 664.737 473.744 663.139 472.428C661.541 471.081 659.505 470.407 657.029 470.407C654.523 470.407 652.329 470.987 650.449 472.146C648.569 473.305 647.097 474.95 646.031 477.081C644.966 479.18 644.433 481.671 644.433 484.554C644.433 486.685 644.762 488.643 645.42 490.429C646.078 492.215 646.987 493.782 648.146 495.129C649.337 496.445 650.7 497.463 652.235 498.184C653.802 498.905 655.478 499.265 657.264 499.265C659.771 499.265 661.792 498.638 663.327 497.385C664.894 496.132 666.147 494.22 667.087 491.651C667.15 491.557 667.26 491.526 667.416 491.557C667.573 491.588 667.651 491.651 667.651 491.745L667.134 497.103C667.103 497.479 667.04 497.714 666.946 497.808C666.884 497.902 666.743 498.012 666.523 498.137C664.925 498.858 663.39 499.359 661.917 499.641C660.476 499.954 658.925 500.111 657.264 500.111C653.943 500.111 650.982 499.469 648.381 498.184C645.812 496.868 643.791 495.066 642.318 492.779C640.846 490.46 640.109 487.781 640.109 484.742C640.109 482.486 640.532 480.434 641.378 478.585C642.256 476.736 643.478 475.138 645.044 473.791C646.611 472.444 648.428 471.41 650.496 470.689C652.596 469.968 654.883 469.608 657.358 469.608ZM700.203 499.5H680.181C680.087 499.5 680.04 499.406 680.04 499.218C680.04 499.03 680.087 498.936 680.181 498.936C681.247 498.936 682.046 498.858 682.578 498.701C683.142 498.544 683.518 498.231 683.706 497.761C683.894 497.291 683.988 496.602 683.988 495.693V473.932C683.988 473.023 683.894 472.35 683.706 471.911C683.518 471.441 683.142 471.128 682.578 470.971C682.046 470.783 681.247 470.689 680.181 470.689C680.087 470.689 680.04 470.595 680.04 470.407C680.04 470.219 680.087 470.125 680.181 470.125H699.357C699.671 470.125 699.827 470.266 699.827 470.548L699.921 476.47C699.921 476.564 699.827 476.627 699.639 476.658C699.483 476.658 699.389 476.611 699.357 476.517C699.138 474.794 698.527 473.493 697.524 472.616C696.522 471.707 695.206 471.253 693.576 471.253H691.179C690.239 471.253 689.519 471.331 689.017 471.488C688.516 471.645 688.171 471.942 687.983 472.381C687.795 472.788 687.701 473.368 687.701 474.12V495.505C687.701 496.257 687.78 496.852 687.936 497.291C688.124 497.698 688.453 497.996 688.923 498.184C689.393 498.341 690.051 498.419 690.897 498.419H693.999C695.785 498.419 697.258 497.902 698.417 496.868C699.577 495.803 700.376 494.299 700.814 492.356C700.814 492.262 700.908 492.231 701.096 492.262C701.284 492.293 701.378 492.356 701.378 492.45C701.253 493.296 701.143 494.314 701.049 495.505C700.955 496.696 700.908 497.792 700.908 498.795C700.908 499.265 700.673 499.5 700.203 499.5ZM697.571 488.69C697.571 487.343 697.18 486.356 696.396 485.729C695.644 485.071 694.422 484.742 692.73 484.742H685.915V483.661H692.871C694.469 483.661 695.644 483.395 696.396 482.862C697.148 482.298 697.524 481.436 697.524 480.277C697.524 480.214 697.603 480.183 697.759 480.183C697.947 480.183 698.041 480.214 698.041 480.277C698.041 481.248 698.026 482 697.994 482.533C697.994 483.066 697.994 483.63 697.994 484.225C697.994 484.946 698.01 485.666 698.041 486.387C698.104 487.108 698.135 487.875 698.135 488.69C698.135 488.753 698.041 488.784 697.853 488.784C697.665 488.784 697.571 488.753 697.571 488.69ZM719.097 475.389C719.097 476.642 719.41 477.723 720.037 478.632C720.664 479.541 721.478 480.355 722.481 481.076C723.484 481.765 724.549 482.455 725.677 483.144C726.836 483.833 727.949 484.57 729.014 485.353C730.111 486.136 731.004 487.061 731.693 488.126C732.414 489.16 732.774 490.429 732.774 491.933C732.774 493.468 732.367 494.847 731.552 496.069C730.769 497.291 729.641 498.262 728.168 498.983C726.727 499.704 724.988 500.064 722.951 500.064C722.136 500.064 721.306 499.986 720.46 499.829C719.645 499.704 718.862 499.516 718.11 499.265C717.358 499.014 716.669 498.701 716.042 498.325C715.917 498.231 715.807 498.121 715.713 497.996C715.65 497.871 715.619 497.683 715.619 497.432L715.149 490.711C715.118 490.554 715.18 490.476 715.337 490.476C715.525 490.445 715.635 490.492 715.666 490.617C715.948 491.588 716.324 492.575 716.794 493.578C717.264 494.581 717.828 495.505 718.486 496.351C719.144 497.166 719.927 497.839 720.836 498.372C721.776 498.905 722.857 499.171 724.079 499.171C724.925 499.171 725.74 499.014 726.523 498.701C727.338 498.388 727.996 497.871 728.497 497.15C728.998 496.398 729.249 495.364 729.249 494.048C729.249 492.544 728.92 491.275 728.262 490.241C727.604 489.207 726.758 488.314 725.724 487.562C724.69 486.81 723.593 486.089 722.434 485.4C721.337 484.711 720.272 483.99 719.238 483.238C718.235 482.486 717.421 481.624 716.794 480.653C716.167 479.65 715.854 478.444 715.854 477.034C715.854 475.342 716.293 473.948 717.17 472.851C718.079 471.754 719.222 470.94 720.601 470.407C722.011 469.874 723.452 469.608 724.925 469.608C725.896 469.608 726.883 469.702 727.886 469.89C728.889 470.078 729.797 470.344 730.612 470.689C730.894 470.814 731.082 470.955 731.176 471.112C731.27 471.237 731.317 471.378 731.317 471.535L731.552 477.41C731.552 477.504 731.474 477.567 731.317 477.598C731.16 477.629 731.051 477.582 730.988 477.457C730.894 476.924 730.69 476.266 730.377 475.483C730.064 474.668 729.641 473.885 729.108 473.133C728.575 472.35 727.886 471.707 727.04 471.206C726.225 470.673 725.223 470.407 724.032 470.407C722.935 470.407 722.027 470.642 721.306 471.112C720.585 471.551 720.037 472.146 719.661 472.898C719.285 473.619 719.097 474.449 719.097 475.389Z" fill="#0F1C2E"/>
<path d="M145.052 283.374C164.229 250.318 193.652 231.674 230.749 224.993C283.443 215.503 330.466 228.808 371.905 261.685C379.082 267.38 385.617 273.731 391.814 280.423C392.878 281.573 394 282.5 394.379 284.921C383.923 285.496 373.678 286.402 363.99 281.624C361.5 280 359.822 277.563 357.934 275.36C338.859 253.111 315.449 237.439 286.271 230.891C265.539 226.238 244.7 226.311 224.368 232.754C193.223 242.622 174.588 264.171 166.466 294.689C151.138 352.284 185.727 411.713 243.555 425.789C275.628 433.597 305.233 426.373 331.669 407.059C348.872 394.49 362.512 378.626 374.897 361.641C390.085 340.814 403.867 318.971 421.612 299.992C453.423 265.969 490.787 240.486 537.141 229.415C574.089 220.591 609 225 643.342 242.4C649.212 245.501 649.546 245.558 646.5 251.5C644.386 255.623 642.5 260 640.041 263.796C638 263.796 636.991 262.465 636 261.5C615.228 241.272 590.171 232.622 561.139 232.808C529.302 233.012 503.414 246.29 480.6 266.738C460.394 284.848 444.972 306.76 429.524 328.613C413.1 351.848 395.964 374.456 373.497 392.592C341.007 418.817 304.322 435.279 261.593 434.547C220.752 433.848 184.786 420.477 157.423 389.435C143.955 374.156 136.631 356.147 134.484 335.99C132.508 317.436 136.688 300.223 145.052 283.374Z" fill="#0F1C2E"/>
<path d="M490.678 404.238C515.79 427.141 545.748 436.547 579.063 436.286C600.422 436.119 620.536 431.481 637.051 416.789C640.948 413.321 644 409.5 647.596 405.431C655.591 412.277 655.606 420.449 647.811 426.612C638.947 433.619 628.338 436.794 617.432 438.62C568.166 446.87 521.293 440.42 478.112 414.813C458.849 403.39 443.61 387.962 435.192 366.863C431.998 358.859 431.317 350.598 431.398 342.13C431.431 338.634 433.589 338.753 435.969 338.674C446.002 338.339 456.051 338.241 466.063 337.592C512.505 334.581 558.875 330.877 604.641 322.053C609.584 321.1 614.454 319.786 619.797 318.537C620.317 324.687 618.797 330.164 618.027 335.692C616.78 344.642 615.387 353.572 614.112 362.519C613.849 364.363 613.752 366.227 611.148 366.044C608.526 365.86 608.727 363.85 608.663 362.087C608.606 360.472 608.667 358.852 608.611 357.237C608.348 349.655 605.376 345.78 598.024 343.24C591.243 340.897 584.087 340.479 577.092 340.253C553.723 339.497 530.325 340.661 507.01 341.575C493.692 342.055 480.373 342.583 467.049 342.817C463.048 342.887 461.453 344.061 461.729 348.152C462.812 364.188 469.436 378.057 478.686 390.93C482.111 395.695 486.055 400.04 490.678 404.238Z" fill="#0F1C2E"/>
</svg>
