<svg width="1080" height="1080" viewBox="0 0 1080 1080" fill="none" xmlns="http://www.w3.org/2000/svg">
<rect width="1080" height="1080" fill="#EDEAE2"/>
<path d="M96.542 456.52C130.451 398.071 182.476 365.105 248.07 353.292C341.243 336.512 424.387 360.037 497.66 418.171C510.35 428.24 521.906 439.47 532.862 451.303C534.744 453.336 536.728 454.975 537.399 459.257C518.909 460.272 500.794 461.875 483.664 453.427C479.262 450.555 476.295 446.245 472.956 442.351C439.229 403.01 397.835 375.299 346.243 363.72C309.585 355.493 272.738 355.623 236.786 367.014C181.716 384.463 148.767 422.567 134.406 476.527C107.303 578.365 168.463 683.446 270.712 708.337C327.424 722.142 379.772 709.369 426.514 675.218C456.933 652.993 481.05 624.944 502.95 594.912C529.805 558.085 554.174 519.462 585.551 485.904C641.799 425.745 707.865 380.687 789.827 361.111C855.158 345.508 916.887 353.305 977.611 384.071C987.989 389.553 988.581 389.655 983.194 400.161C979.456 407.452 976.121 415.191 971.774 421.903C968.164 421.903 966.38 419.549 964.628 417.843C927.9 382.076 883.595 366.781 832.259 367.11C775.966 367.471 730.192 390.949 689.852 427.105C654.124 459.127 626.855 497.871 599.541 536.511C570.5 577.595 540.2 617.569 500.474 649.637C443.027 696.009 378.161 725.117 302.607 723.822C230.393 722.585 166.799 698.943 118.417 644.056C94.6025 617.039 81.6521 585.196 77.8562 549.555C74.3622 516.749 81.7532 486.312 96.542 456.52Z" fill="#0F1C2E"/>
<path d="M707.671 670.229C752.074 710.727 805.046 727.357 863.952 726.897C901.72 726.602 937.285 718.4 966.486 692.422C973.377 686.291 978.773 679.534 985.131 672.34C999.268 684.445 999.294 698.894 985.512 709.791C969.839 722.181 951.081 727.795 931.797 731.024C844.685 745.611 761.805 734.207 685.453 688.929C651.392 668.731 624.448 641.451 609.562 604.145C603.915 589.991 602.711 575.384 602.854 560.412C602.913 554.229 606.727 554.441 610.936 554.3C628.676 553.708 646.445 553.535 664.148 552.387C746.265 547.063 828.256 540.515 909.179 524.911C917.919 523.226 926.531 520.903 935.979 518.695C936.898 529.569 934.21 539.254 932.849 549.028C930.644 564.853 928.181 580.644 925.925 596.463C925.46 599.724 925.289 603.019 920.684 602.696C916.049 602.371 916.404 598.817 916.292 595.699C916.189 592.843 916.298 589.98 916.199 587.124C915.734 573.716 910.478 566.865 897.479 562.374C885.49 558.232 872.837 557.492 860.469 557.092C819.147 555.756 777.776 557.814 736.551 559.431C713.001 560.278 689.451 561.213 665.892 561.626C658.817 561.751 655.997 563.826 656.486 571.06C658.4 599.414 670.113 623.938 686.468 646.698C692.523 655.125 699.499 662.807 707.671 670.229Z" fill="#0F1C2E"/>
</svg>
