<svg width="919" height="389" viewBox="0 0 919 389" fill="none" xmlns="http://www.w3.org/2000/svg">
<path d="M19.542 108.52C53.4507 50.0711 105.476 17.1055 171.07 5.29217C264.243 -11.4882 347.387 12.037 420.66 70.1712C433.35 80.2397 444.906 91.4695 455.862 103.303C457.744 105.336 459.728 106.975 460.399 111.257C441.909 112.272 423.794 113.875 406.664 105.427C402.262 102.555 399.295 98.2447 395.956 94.3505C362.229 55.0097 320.835 27.299 269.243 15.7201C232.585 7.49295 195.738 7.62335 159.786 19.0144C104.716 36.4627 71.7671 74.5666 57.4063 128.527C30.3033 230.365 91.463 335.446 193.712 360.337C250.424 374.142 302.772 361.369 349.514 327.218C379.933 304.993 404.05 276.944 425.95 246.912C452.805 210.085 477.174 171.462 508.551 137.904C564.799 77.7452 630.865 32.6869 712.827 13.1115C778.158 -2.49192 839.887 5.30455 900.611 36.0712C910.989 41.5533 911.581 41.6547 906.194 52.1614C902.456 59.4522 899.121 67.1909 894.774 73.9025C891.164 73.9025 889.38 71.5491 887.628 69.8432C850.9 34.0757 806.595 18.7814 755.259 19.1103C698.966 19.4709 653.192 42.9495 612.852 79.1051C577.124 111.127 549.855 149.871 522.541 188.511C493.5 229.595 463.2 269.569 423.474 301.637C366.027 348.009 301.161 377.117 225.607 375.822C153.393 374.585 89.7985 350.943 41.4168 296.056C17.6025 269.039 4.65208 237.196 0.856162 201.555C-2.63785 168.749 4.75323 138.312 19.542 108.52Z" fill="#EDEAE2"/>
<path d="M630.671 322.23C675.074 362.727 728.046 379.358 786.952 378.897C824.72 378.602 860.285 370.4 889.486 344.422C896.377 338.291 901.773 331.534 908.131 324.34C922.268 336.445 922.294 350.894 908.512 361.791C892.839 374.181 874.081 379.795 854.797 383.024C767.685 397.611 684.805 386.207 608.453 340.929C574.392 320.731 547.448 293.451 532.562 256.145C526.915 241.992 525.711 227.384 525.854 212.412C525.913 206.229 529.727 206.441 533.936 206.3C551.676 205.708 569.445 205.535 587.148 204.387C669.265 199.063 751.256 192.515 832.179 176.911C840.919 175.226 849.531 172.904 858.979 170.695C859.898 181.569 857.21 191.254 855.849 201.028C853.644 216.853 851.181 232.644 848.925 248.463C848.46 251.724 848.289 255.019 843.684 254.696C839.049 254.371 839.404 250.817 839.292 247.699C839.189 244.843 839.298 241.98 839.199 239.124C838.734 225.717 833.478 218.865 820.479 214.374C808.49 210.232 795.837 209.492 783.469 209.092C742.147 207.756 700.776 209.814 659.551 211.431C636.001 212.278 612.451 213.213 588.892 213.626C581.817 213.751 578.997 215.826 579.486 223.061C581.4 251.414 593.113 275.938 609.468 298.698C615.523 307.125 622.499 314.807 630.671 322.23Z" fill="#EDEAE2"/>
</svg>
