<svg width="1200" height="400" viewBox="0 0 1200 400" fill="none" xmlns="http://www.w3.org/2000/svg">
<rect width="1200" height="400" fill="#0F1C2E"/>
<path d="M44.0378 164.636C57.9849 140.595 79.3835 127.036 106.363 122.177C144.686 115.275 178.884 124.951 209.022 148.862C214.242 153.003 218.995 157.622 223.501 162.49C224.275 163.326 225.091 164 225.367 165.761C217.762 166.179 210.311 166.838 203.265 163.363C201.455 162.182 200.234 160.409 198.861 158.807C184.989 142.626 167.963 131.228 146.742 126.466C131.665 123.082 116.509 123.136 101.722 127.821C79.071 134.998 65.5186 150.67 59.6119 172.864C48.4641 214.752 73.6197 257.973 115.676 268.21C139.002 273.889 160.533 268.635 179.759 254.588C192.27 245.447 202.19 233.91 211.198 221.557C222.244 206.41 232.267 190.524 245.173 176.721C268.308 151.977 295.482 133.444 329.194 125.393C356.065 118.975 381.455 122.182 406.431 134.836C410.7 137.091 410.943 137.133 408.728 141.455C407.19 144.453 405.819 147.636 404.031 150.397C402.546 150.397 401.812 149.429 401.091 148.727C385.984 134.016 367.761 127.725 346.647 127.86C323.493 128.009 304.665 137.666 288.073 152.537C273.378 165.708 262.162 181.644 250.927 197.537C238.982 214.435 226.519 230.877 210.179 244.067C186.551 263.14 159.871 275.112 128.795 274.58C99.0923 274.071 72.9351 264.347 53.0352 241.771C43.2401 230.659 37.9135 217.561 36.3521 202.902C34.915 189.408 37.9551 176.889 44.0378 164.636Z" fill="#EDEAE2"/>
<path d="M295.402 252.537C313.666 269.194 335.454 276.034 359.682 275.844C375.217 275.723 389.845 272.35 401.855 261.665C404.69 259.143 406.909 256.364 409.525 253.405C415.339 258.383 415.35 264.327 409.681 268.809C403.235 273.905 395.519 276.214 387.588 277.542C351.757 283.542 317.668 278.851 286.263 260.228C272.254 251.92 261.172 240.7 255.049 225.355C252.726 219.534 252.231 213.526 252.29 207.367C252.314 204.824 253.883 204.911 255.614 204.854C262.911 204.61 270.219 204.539 277.501 204.067C311.276 201.877 345 199.183 378.285 192.766C381.879 192.072 385.422 191.117 389.308 190.209C389.686 194.681 388.58 198.665 388.02 202.685C387.113 209.194 386.1 215.689 385.172 222.195C384.981 223.537 384.911 224.892 383.017 224.759C381.111 224.626 381.256 223.164 381.21 221.881C381.168 220.707 381.213 219.529 381.172 218.354C380.981 212.84 378.819 210.022 373.472 208.174C368.541 206.471 363.337 206.166 358.25 206.002C341.254 205.452 324.237 206.299 307.281 206.964C297.595 207.312 287.908 207.697 278.218 207.867C275.308 207.918 274.148 208.772 274.349 211.747C275.136 223.409 279.954 233.496 286.681 242.858C289.172 246.324 292.041 249.484 295.402 252.537Z" fill="#EDEAE2"/>
<line x1="441.5" y1="264" x2="441.5" y2="144" stroke="#EDEAE2"/>
<path d="M500.655 184.472C501.871 184.472 502.991 184.536 504.015 184.664C505.071 184.76 506.047 184.936 506.943 185.192C507.871 185.448 508.751 185.784 509.583 186.2C509.839 186.296 509.983 186.408 510.015 186.536C510.079 186.632 510.127 186.872 510.159 187.256L510.783 193.304C510.783 193.368 510.687 193.432 510.495 193.496C510.335 193.528 510.239 193.48 510.207 193.352C509.407 190.696 508.191 188.696 506.559 187.352C504.927 185.976 502.847 185.288 500.319 185.288C497.759 185.288 495.519 185.88 493.599 187.064C491.679 188.248 490.175 189.928 489.087 192.104C487.999 194.248 487.455 196.792 487.455 199.736C487.455 201.912 487.791 203.912 488.463 205.736C489.135 207.56 490.063 209.16 491.247 210.536C492.463 211.88 493.855 212.92 495.423 213.656C497.023 214.392 498.735 214.76 500.559 214.76C503.119 214.76 505.183 214.12 506.751 212.84C508.351 211.56 509.631 209.608 510.591 206.984C510.655 206.888 510.767 206.856 510.927 206.888C511.087 206.92 511.167 206.984 511.167 207.08L510.639 212.552C510.607 212.936 510.543 213.176 510.447 213.272C510.383 213.368 510.239 213.48 510.015 213.608C508.383 214.344 506.815 214.856 505.311 215.144C503.839 215.464 502.255 215.624 500.559 215.624C497.167 215.624 494.143 214.968 491.487 213.656C488.863 212.312 486.799 210.472 485.295 208.136C483.791 205.768 483.039 203.032 483.039 199.928C483.039 197.624 483.471 195.528 484.335 193.64C485.231 191.752 486.479 190.12 488.079 188.744C489.679 187.368 491.535 186.312 493.647 185.576C495.791 184.84 498.127 184.472 500.655 184.472ZM548.783 191.03C548.783 189.463 548.423 188.273 547.702 187.458C547.013 186.612 545.979 186.189 544.6 186.189C544.506 186.189 544.459 186.095 544.459 185.907C544.459 185.719 544.506 185.625 544.6 185.625C545.321 185.625 546.073 185.656 546.856 185.719C547.64 185.75 548.486 185.766 549.394 185.766C550.178 185.766 550.945 185.75 551.697 185.719C552.481 185.656 553.201 185.625 553.859 185.625C553.922 185.625 553.953 185.719 553.953 185.907C553.953 186.095 553.922 186.189 553.859 186.189C552.606 186.189 551.65 186.612 550.992 187.458C550.366 188.273 550.052 189.463 550.052 191.03V204.331C550.052 206.681 549.582 208.702 548.642 210.394C547.702 212.086 546.386 213.386 544.694 214.295C543.002 215.172 541.028 215.611 538.772 215.611C536.454 215.611 534.417 215.172 532.662 214.295C530.908 213.386 529.545 212.102 528.573 210.441C527.602 208.78 527.116 206.806 527.116 204.519V189.432C527.116 188.523 527.022 187.85 526.834 187.411C526.646 186.941 526.27 186.628 525.706 186.471C525.174 186.283 524.375 186.189 523.309 186.189C523.215 186.189 523.168 186.095 523.168 185.907C523.168 185.719 523.215 185.625 523.309 185.625C524.093 185.625 524.954 185.656 525.894 185.719C526.834 185.75 527.853 185.766 528.949 185.766C530.077 185.766 531.111 185.75 532.051 185.719C533.023 185.656 533.869 185.625 534.589 185.625C534.683 185.625 534.73 185.719 534.73 185.907C534.73 186.095 534.683 186.189 534.589 186.189C533.524 186.189 532.709 186.283 532.145 186.471C531.613 186.659 531.252 186.988 531.064 187.458C530.908 187.928 530.829 188.617 530.829 189.526V202.874C530.829 206.634 531.644 209.454 533.273 211.334C534.903 213.183 537.159 214.107 540.041 214.107C542.799 214.107 544.945 213.261 546.48 211.569C548.016 209.846 548.783 207.449 548.783 204.378V191.03ZM588.696 215C588.194 215 587.364 214.405 586.205 213.214C585.077 211.992 583.714 210.269 582.116 208.044C580.518 205.788 578.716 203.109 576.711 200.007L579.86 199.02C582.492 202.811 584.716 205.835 586.534 208.091C588.382 210.347 590.012 211.976 591.422 212.979C592.832 213.95 594.179 214.436 595.464 214.436C595.558 214.436 595.605 214.53 595.605 214.718C595.605 214.906 595.558 215 595.464 215C593.709 215 592.268 215 591.14 215C590.043 215 589.228 215 588.696 215ZM577.416 185.484C580.048 185.484 582.053 186.048 583.432 187.176C584.842 188.273 585.547 189.745 585.547 191.594C585.547 193.349 585.045 194.915 584.043 196.294C583.04 197.673 581.724 198.754 580.095 199.537C578.497 200.32 576.773 200.712 574.925 200.712C574.549 200.712 574.157 200.712 573.75 200.712C573.342 200.681 572.966 200.649 572.622 200.618V211.193C572.622 212.102 572.7 212.791 572.857 213.261C573.045 213.731 573.405 214.044 573.938 214.201C574.502 214.358 575.332 214.436 576.429 214.436C576.523 214.436 576.57 214.53 576.57 214.718C576.57 214.906 576.523 215 576.429 215C575.645 215 574.784 214.984 573.844 214.953C572.904 214.922 571.87 214.906 570.742 214.906C569.676 214.906 568.658 214.922 567.687 214.953C566.715 214.984 565.838 215 565.055 215C564.961 215 564.914 214.906 564.914 214.718C564.914 214.53 564.961 214.436 565.055 214.436C566.12 214.436 566.919 214.358 567.452 214.201C568.016 214.044 568.392 213.731 568.58 213.261C568.799 212.791 568.909 212.102 568.909 211.193V189.432C568.909 188.523 568.815 187.85 568.627 187.411C568.439 186.941 568.078 186.628 567.546 186.471C567.013 186.283 566.198 186.189 565.102 186.189C565.039 186.189 565.008 186.095 565.008 185.907C565.008 185.719 565.039 185.625 565.102 185.625C565.885 185.625 566.747 185.656 567.687 185.719C568.658 185.75 569.676 185.766 570.742 185.766C571.744 185.766 572.872 185.719 574.126 185.625C575.379 185.531 576.476 185.484 577.416 185.484ZM581.693 193.098C581.693 191.343 581.458 189.98 580.988 189.009C580.518 188.006 579.844 187.301 578.967 186.894C578.121 186.487 577.118 186.283 575.959 186.283C574.768 186.283 573.906 186.502 573.374 186.941C572.872 187.348 572.622 188.21 572.622 189.526V199.443C573.06 199.474 573.53 199.506 574.032 199.537C574.564 199.568 575.019 199.584 575.395 199.584C577.713 199.584 579.343 199.051 580.283 197.986C581.223 196.921 581.693 195.291 581.693 193.098ZM612.039 202.733L612.603 201.699H625.387L625.716 202.733H612.039ZM636.338 214.436C636.494 214.436 636.573 214.53 636.573 214.718C636.573 214.906 636.494 215 636.338 215C635.429 215 634.489 214.969 633.518 214.906C632.578 214.843 631.653 214.812 630.745 214.812C629.742 214.812 628.865 214.843 628.113 214.906C627.392 214.969 626.577 215 625.669 215C625.543 215 625.481 214.906 625.481 214.718C625.481 214.53 625.543 214.436 625.669 214.436C627.204 214.436 628.144 214.201 628.489 213.731C628.833 213.23 628.661 212.258 627.972 210.817L617.867 189.808L619.371 187.552L610.206 208.796C609.391 210.707 609.344 212.133 610.065 213.073C610.785 213.982 612.133 214.436 614.107 214.436C614.263 214.436 614.342 214.53 614.342 214.718C614.342 214.906 614.263 215 614.107 215C613.167 215 612.305 214.969 611.522 214.906C610.738 214.843 609.751 214.812 608.561 214.812C607.401 214.812 606.461 214.843 605.741 214.906C605.051 214.969 604.205 215 603.203 215C603.077 215 603.015 214.906 603.015 214.718C603.015 214.53 603.077 214.436 603.203 214.436C604.049 214.436 604.785 214.279 605.412 213.966C606.038 213.621 606.634 213.01 607.198 212.133C607.793 211.256 608.435 210.002 609.125 208.373L619.136 185.296C619.167 185.202 619.277 185.155 619.465 185.155C619.653 185.124 619.762 185.171 619.794 185.296L631.074 208.561C631.826 210.096 632.468 211.303 633.001 212.18C633.565 213.026 634.113 213.621 634.646 213.966C635.178 214.279 635.742 214.436 636.338 214.436ZM650.708 186.565C648.765 186.565 647.245 187.113 646.149 188.21C645.052 189.275 644.237 190.999 643.705 193.38C643.673 193.443 643.564 193.474 643.376 193.474C643.219 193.474 643.141 193.427 643.141 193.333C643.203 192.926 643.266 192.346 643.329 191.594C643.423 190.842 643.501 190.027 643.564 189.15C643.626 188.273 643.673 187.427 643.705 186.612C643.767 185.797 643.799 185.124 643.799 184.591C643.799 184.434 643.893 184.356 644.081 184.356C644.269 184.356 644.363 184.434 644.363 184.591C644.363 184.904 644.519 185.139 644.833 185.296C645.146 185.421 645.506 185.515 645.914 185.578C646.321 185.609 646.666 185.625 646.948 185.625C649.642 185.719 652.791 185.766 656.395 185.766C658.588 185.766 660.343 185.75 661.659 185.719C662.975 185.656 664.244 185.625 665.466 185.625C666.531 185.625 667.346 185.562 667.91 185.437C668.505 185.28 668.881 184.951 669.038 184.45C669.069 184.325 669.163 184.262 669.32 184.262C669.508 184.262 669.602 184.325 669.602 184.45C669.539 184.92 669.476 185.578 669.414 186.424C669.382 187.27 669.335 188.147 669.273 189.056C669.241 189.965 669.21 190.811 669.179 191.594C669.147 192.377 669.132 192.957 669.132 193.333C669.132 193.427 669.038 193.474 668.85 193.474C668.693 193.474 668.615 193.427 668.615 193.333C668.395 190.889 667.769 189.15 666.735 188.116C665.701 187.082 664.165 186.565 662.129 186.565C661.032 186.565 660.202 186.643 659.638 186.8C659.105 186.925 658.745 187.192 658.557 187.599C658.4 188.006 658.322 188.649 658.322 189.526V211.193C658.322 212.102 658.416 212.791 658.604 213.261C658.823 213.731 659.23 214.044 659.826 214.201C660.452 214.358 661.408 214.436 662.693 214.436C662.755 214.436 662.787 214.53 662.787 214.718C662.787 214.906 662.755 215 662.693 215C661.847 215 660.891 214.984 659.826 214.953C658.792 214.922 657.648 214.906 656.395 214.906C655.204 214.906 654.076 214.922 653.011 214.953C651.977 214.984 651.021 215 650.144 215C650.05 215 650.003 214.906 650.003 214.718C650.003 214.53 650.05 214.436 650.144 214.436C651.366 214.436 652.29 214.358 652.917 214.201C653.575 214.044 654.013 213.731 654.233 213.261C654.452 212.791 654.562 212.102 654.562 211.193V189.432C654.562 188.586 654.468 187.959 654.28 187.552C654.092 187.113 653.716 186.847 653.152 186.753C652.588 186.628 651.773 186.565 650.708 186.565ZM701.548 215H681.526C681.432 215 681.385 214.906 681.385 214.718C681.385 214.53 681.432 214.436 681.526 214.436C682.592 214.436 683.391 214.358 683.923 214.201C684.487 214.044 684.863 213.731 685.051 213.261C685.239 212.791 685.333 212.102 685.333 211.193V189.432C685.333 188.523 685.239 187.85 685.051 187.411C684.863 186.941 684.487 186.628 683.923 186.471C683.391 186.283 682.592 186.189 681.526 186.189C681.432 186.189 681.385 186.095 681.385 185.907C681.385 185.719 681.432 185.625 681.526 185.625H700.702C701.016 185.625 701.172 185.766 701.172 186.048L701.266 191.97C701.266 192.064 701.172 192.127 700.984 192.158C700.828 192.158 700.734 192.111 700.702 192.017C700.483 190.294 699.872 188.993 698.869 188.116C697.867 187.207 696.551 186.753 694.921 186.753H692.524C691.584 186.753 690.864 186.831 690.362 186.988C689.861 187.145 689.516 187.442 689.328 187.881C689.14 188.288 689.046 188.868 689.046 189.62V211.005C689.046 211.757 689.125 212.352 689.281 212.791C689.469 213.198 689.798 213.496 690.268 213.684C690.738 213.841 691.396 213.919 692.242 213.919H695.344C697.13 213.919 698.603 213.402 699.762 212.368C700.922 211.303 701.721 209.799 702.159 207.856C702.159 207.762 702.253 207.731 702.441 207.762C702.629 207.793 702.723 207.856 702.723 207.95C702.598 208.796 702.488 209.814 702.394 211.005C702.3 212.196 702.253 213.292 702.253 214.295C702.253 214.765 702.018 215 701.548 215ZM698.916 204.19C698.916 202.843 698.525 201.856 697.741 201.229C696.989 200.571 695.767 200.242 694.075 200.242H687.26V199.161H694.216C695.814 199.161 696.989 198.895 697.741 198.362C698.493 197.798 698.869 196.936 698.869 195.777C698.869 195.714 698.948 195.683 699.104 195.683C699.292 195.683 699.386 195.714 699.386 195.777C699.386 196.748 699.371 197.5 699.339 198.033C699.339 198.566 699.339 199.13 699.339 199.725C699.339 200.446 699.355 201.166 699.386 201.887C699.449 202.608 699.48 203.375 699.48 204.19C699.48 204.253 699.386 204.284 699.198 204.284C699.01 204.284 698.916 204.253 698.916 204.19ZM727.774 215.188C726.834 215.188 725.675 215.141 724.296 215.047C722.917 214.953 721.648 214.906 720.489 214.906C719.424 214.906 718.39 214.922 717.387 214.953C716.416 214.984 715.538 215 714.755 215C714.692 215 714.661 214.906 714.661 214.718C714.661 214.53 714.692 214.436 714.755 214.436C715.852 214.436 716.682 214.358 717.246 214.201C717.81 214.044 718.186 213.731 718.374 213.261C718.562 212.791 718.656 212.102 718.656 211.193V189.432C718.656 188.523 718.562 187.85 718.374 187.411C718.186 186.941 717.81 186.628 717.246 186.471C716.713 186.283 715.914 186.189 714.849 186.189C714.755 186.189 714.708 186.095 714.708 185.907C714.708 185.719 714.755 185.625 714.849 185.625C715.632 185.625 716.494 185.656 717.434 185.719C718.405 185.75 719.424 185.766 720.489 185.766C721.554 185.766 722.698 185.735 723.92 185.672C725.173 185.578 726.239 185.531 727.116 185.531C730.437 185.531 733.32 186.158 735.764 187.411C738.239 188.664 740.166 190.372 741.545 192.534C742.924 194.696 743.613 197.124 743.613 199.819C743.613 202.169 743.19 204.3 742.344 206.211C741.529 208.091 740.386 209.705 738.913 211.052C737.44 212.368 735.748 213.386 733.837 214.107C731.926 214.828 729.905 215.188 727.774 215.188ZM727.304 214.342C729.654 214.342 731.722 213.825 733.508 212.791C735.325 211.757 736.751 210.237 737.785 208.232C738.819 206.195 739.336 203.736 739.336 200.853C739.336 198.127 738.85 195.683 737.879 193.521C736.908 191.328 735.545 189.589 733.79 188.304C732.067 186.988 729.999 186.33 727.586 186.33C725.706 186.33 724.359 186.518 723.544 186.894C722.761 187.27 722.369 188.147 722.369 189.526V210.676C722.369 211.929 722.682 212.854 723.309 213.449C723.936 214.044 725.267 214.342 727.304 214.342ZM795.089 215H774.641C774.545 215 774.497 214.904 774.497 214.712C774.497 214.52 774.545 214.424 774.641 214.424C775.729 214.424 776.545 214.344 777.089 214.184C777.665 214.024 778.049 213.704 778.241 213.224C778.433 212.744 778.529 212.04 778.529 211.112V188.888C778.529 187.96 778.433 187.272 778.241 186.824C778.049 186.344 777.665 186.024 777.089 185.864C776.545 185.672 775.729 185.576 774.641 185.576C774.545 185.576 774.497 185.48 774.497 185.288C774.497 185.096 774.545 185 774.641 185H794.225C794.545 185 794.705 185.144 794.705 185.432L794.801 191.48C794.801 191.576 794.705 191.64 794.513 191.672C794.353 191.672 794.257 191.624 794.225 191.528C794.001 189.768 793.377 188.44 792.353 187.544C791.329 186.616 789.985 186.152 788.321 186.152H785.873C784.913 186.152 784.177 186.232 783.665 186.392C783.153 186.552 782.801 186.856 782.609 187.304C782.417 187.72 782.321 188.312 782.321 189.08V210.92C782.321 211.688 782.401 212.296 782.561 212.744C782.753 213.16 783.089 213.464 783.569 213.656C784.049 213.816 784.721 213.896 785.585 213.896H788.753C790.577 213.896 792.081 213.368 793.265 212.312C794.449 211.224 795.265 209.688 795.713 207.704C795.713 207.608 795.809 207.576 796.001 207.608C796.193 207.64 796.289 207.704 796.289 207.8C796.161 208.664 796.049 209.704 795.953 210.92C795.857 212.136 795.809 213.256 795.809 214.28C795.809 214.76 795.569 215 795.089 215ZM792.401 203.96C792.401 202.584 792.001 201.576 791.201 200.936C790.433 200.264 789.185 199.928 787.457 199.928H780.497V198.824H787.601C789.233 198.824 790.433 198.552 791.201 198.008C791.969 197.432 792.353 196.552 792.353 195.368C792.353 195.304 792.433 195.272 792.593 195.272C792.785 195.272 792.881 195.304 792.881 195.368C792.881 196.36 792.865 197.128 792.833 197.672C792.833 198.216 792.833 198.792 792.833 199.4C792.833 200.136 792.849 200.872 792.881 201.608C792.945 202.344 792.977 203.128 792.977 203.96C792.977 204.024 792.881 204.056 792.689 204.056C792.497 204.056 792.401 204.024 792.401 203.96ZM826.262 215C826.2 215 826.168 214.906 826.168 214.718C826.168 214.53 826.2 214.436 826.262 214.436C827.234 214.436 827.876 214.311 828.189 214.06C828.534 213.809 828.471 213.324 828.001 212.603L813.008 189.714C812.162 188.429 811.332 187.521 810.517 186.988C809.734 186.455 808.841 186.189 807.838 186.189C807.776 186.189 807.744 186.095 807.744 185.907C807.744 185.719 807.776 185.625 807.838 185.625C808.434 185.625 809.06 185.656 809.718 185.719C810.376 185.75 810.987 185.766 811.551 185.766C812.836 185.766 814.027 185.75 815.123 185.719C816.22 185.656 817.176 185.625 817.99 185.625C818.084 185.625 818.131 185.719 818.131 185.907C818.131 186.095 818.084 186.189 817.99 186.189C817.019 186.189 816.361 186.314 816.016 186.565C815.703 186.816 815.781 187.317 816.251 188.069L831.385 211.099C832.2 212.321 833.03 213.183 833.876 213.684C834.722 214.185 835.756 214.436 836.978 214.436C837.041 214.436 837.072 214.53 837.072 214.718C837.072 214.906 837.041 215 836.978 215C836.32 215 835.6 214.984 834.816 214.953C834.033 214.922 833.203 214.906 832.325 214.906C831.041 214.906 829.913 214.922 828.941 214.953C828.001 214.984 827.108 215 826.262 215ZM807.603 215C807.509 215 807.462 214.906 807.462 214.718C807.462 214.53 807.509 214.436 807.603 214.436C808.606 214.436 809.703 214.044 810.893 213.261C812.084 212.478 813.29 211.24 814.512 209.548L821.186 200.43L821.844 200.947L815.687 209.642C814.591 211.146 814.152 212.321 814.371 213.167C814.622 214.013 815.499 214.436 817.003 214.436C817.097 214.436 817.144 214.53 817.144 214.718C817.144 214.906 817.097 215 817.003 215C816.157 215 815.343 214.984 814.559 214.953C813.776 214.922 812.758 214.906 811.504 214.906C810.658 214.906 809.985 214.922 809.483 214.953C808.982 214.984 808.355 215 807.603 215ZM822.643 200.242L821.985 199.725L827.954 191.218C829.082 189.62 829.537 188.382 829.317 187.505C829.129 186.628 828.299 186.189 826.826 186.189C826.732 186.189 826.685 186.095 826.685 185.907C826.685 185.719 826.732 185.625 826.826 185.625C827.672 185.625 828.487 185.656 829.27 185.719C830.054 185.75 831.072 185.766 832.325 185.766C833.171 185.766 833.845 185.75 834.346 185.719C834.848 185.656 835.459 185.625 836.179 185.625C836.273 185.625 836.32 185.719 836.32 185.907C836.32 186.095 836.273 186.189 836.179 186.189C835.208 186.189 834.111 186.612 832.889 187.458C831.667 188.304 830.414 189.604 829.129 191.359L822.643 200.242ZM855.186 211.005C855.186 211.945 855.295 212.666 855.515 213.167C855.765 213.637 856.267 213.966 857.019 214.154C857.771 214.342 858.899 214.436 860.403 214.436C860.497 214.436 860.544 214.53 860.544 214.718C860.544 214.906 860.497 215 860.403 215C859.4 215 858.303 214.984 857.113 214.953C855.953 214.922 854.684 214.906 853.306 214.906C852.272 214.906 851.253 214.922 850.251 214.953C849.279 214.984 848.402 215 847.619 215C847.556 215 847.525 214.906 847.525 214.718C847.525 214.53 847.556 214.436 847.619 214.436C848.715 214.436 849.53 214.358 850.063 214.201C850.627 214.044 850.987 213.731 851.144 213.261C851.332 212.791 851.426 212.102 851.426 211.193V189.432C851.426 188.523 851.332 187.85 851.144 187.411C850.987 186.941 850.627 186.628 850.063 186.471C849.53 186.283 848.715 186.189 847.619 186.189C847.556 186.189 847.525 186.095 847.525 185.907C847.525 185.719 847.556 185.625 847.619 185.625C848.402 185.625 849.279 185.656 850.251 185.719C851.222 185.75 852.225 185.766 853.259 185.766C854.073 185.766 855.06 185.719 856.22 185.625C857.41 185.531 858.601 185.484 859.792 185.484C861.609 185.484 863.238 185.75 864.68 186.283C866.152 186.816 867.327 187.646 868.205 188.774C869.082 189.902 869.536 191.375 869.568 193.192C869.568 194.821 869.27 196.231 868.675 197.422C868.079 198.613 867.265 199.6 866.231 200.383C865.228 201.166 864.1 201.746 862.847 202.122C861.625 202.498 860.418 202.686 859.228 202.686C858.852 202.686 858.46 202.67 858.053 202.639C857.677 202.608 857.316 202.545 856.972 202.451C856.846 202.42 856.799 202.31 856.831 202.122C856.893 201.903 856.972 201.809 857.066 201.84C857.348 201.903 857.63 201.95 857.912 201.981C858.225 202.012 858.491 202.028 858.711 202.028C859.901 202.028 860.998 201.746 862.001 201.182C863.003 200.618 863.818 199.756 864.445 198.597C865.071 197.406 865.385 195.934 865.385 194.179C865.385 192.487 865.087 191.061 864.492 189.902C863.928 188.743 863.129 187.85 862.095 187.223C861.061 186.596 859.87 186.283 858.523 186.283C857.645 186.283 856.956 186.346 856.455 186.471C855.985 186.596 855.656 186.894 855.468 187.364C855.28 187.834 855.186 188.555 855.186 189.526V211.005ZM901.711 215H881.689C881.595 215 881.548 214.906 881.548 214.718C881.548 214.53 881.595 214.436 881.689 214.436C882.754 214.436 883.553 214.358 884.086 214.201C884.65 214.044 885.026 213.731 885.214 213.261C885.402 212.791 885.496 212.102 885.496 211.193V189.432C885.496 188.523 885.402 187.85 885.214 187.411C885.026 186.941 884.65 186.628 884.086 186.471C883.553 186.283 882.754 186.189 881.689 186.189C881.595 186.189 881.548 186.095 881.548 185.907C881.548 185.719 881.595 185.625 881.689 185.625H900.865C901.178 185.625 901.335 185.766 901.335 186.048L901.429 191.97C901.429 192.064 901.335 192.127 901.147 192.158C900.99 192.158 900.896 192.111 900.865 192.017C900.645 190.294 900.034 188.993 899.032 188.116C898.029 187.207 896.713 186.753 895.084 186.753H892.687C891.747 186.753 891.026 186.831 890.525 186.988C890.023 187.145 889.679 187.442 889.491 187.881C889.303 188.288 889.209 188.868 889.209 189.62V211.005C889.209 211.757 889.287 212.352 889.444 212.791C889.632 213.198 889.961 213.496 890.431 213.684C890.901 213.841 891.559 213.919 892.405 213.919H895.507C897.293 213.919 898.765 213.402 899.925 212.368C901.084 211.303 901.883 209.799 902.322 207.856C902.322 207.762 902.416 207.731 902.604 207.762C902.792 207.793 902.886 207.856 902.886 207.95C902.76 208.796 902.651 209.814 902.557 211.005C902.463 212.196 902.416 213.292 902.416 214.295C902.416 214.765 902.181 215 901.711 215ZM899.079 204.19C899.079 202.843 898.687 201.856 897.904 201.229C897.152 200.571 895.93 200.242 894.238 200.242H887.423V199.161H894.379C895.977 199.161 897.152 198.895 897.904 198.362C898.656 197.798 899.032 196.936 899.032 195.777C899.032 195.714 899.11 195.683 899.267 195.683C899.455 195.683 899.549 195.714 899.549 195.777C899.549 196.748 899.533 197.5 899.502 198.033C899.502 198.566 899.502 199.13 899.502 199.725C899.502 200.446 899.517 201.166 899.549 201.887C899.611 202.608 899.643 203.375 899.643 204.19C899.643 204.253 899.549 204.284 899.361 204.284C899.173 204.284 899.079 204.253 899.079 204.19ZM939.028 215C938.527 215 937.697 214.405 936.537 213.214C935.409 211.992 934.046 210.269 932.448 208.044C930.85 205.788 929.049 203.109 927.043 200.007L930.192 199.02C932.824 202.811 935.049 205.835 936.866 208.091C938.715 210.347 940.344 211.976 941.754 212.979C943.164 213.95 944.512 214.436 945.796 214.436C945.89 214.436 945.937 214.53 945.937 214.718C945.937 214.906 945.89 215 945.796 215C944.042 215 942.6 215 941.472 215C940.376 215 939.561 215 939.028 215ZM927.748 185.484C930.38 185.484 932.386 186.048 933.764 187.176C935.174 188.273 935.879 189.745 935.879 191.594C935.879 193.349 935.378 194.915 934.375 196.294C933.373 197.673 932.057 198.754 930.427 199.537C928.829 200.32 927.106 200.712 925.257 200.712C924.881 200.712 924.49 200.712 924.082 200.712C923.675 200.681 923.299 200.649 922.954 200.618V211.193C922.954 212.102 923.033 212.791 923.189 213.261C923.377 213.731 923.738 214.044 924.27 214.201C924.834 214.358 925.665 214.436 926.761 214.436C926.855 214.436 926.902 214.53 926.902 214.718C926.902 214.906 926.855 215 926.761 215C925.978 215 925.116 214.984 924.176 214.953C923.236 214.922 922.202 214.906 921.074 214.906C920.009 214.906 918.991 214.922 918.019 214.953C917.048 214.984 916.171 215 915.387 215C915.293 215 915.246 214.906 915.246 214.718C915.246 214.53 915.293 214.436 915.387 214.436C916.453 214.436 917.252 214.358 917.784 214.201C918.348 214.044 918.724 213.731 918.912 213.261C919.132 212.791 919.241 212.102 919.241 211.193V189.432C919.241 188.523 919.147 187.85 918.959 187.411C918.771 186.941 918.411 186.628 917.878 186.471C917.346 186.283 916.531 186.189 915.434 186.189C915.372 186.189 915.34 186.095 915.34 185.907C915.34 185.719 915.372 185.625 915.434 185.625C916.218 185.625 917.079 185.656 918.019 185.719C918.991 185.75 920.009 185.766 921.074 185.766C922.077 185.766 923.205 185.719 924.458 185.625C925.712 185.531 926.808 185.484 927.748 185.484ZM932.025 193.098C932.025 191.343 931.79 189.98 931.32 189.009C930.85 188.006 930.177 187.301 929.299 186.894C928.453 186.487 927.451 186.283 926.291 186.283C925.101 186.283 924.239 186.502 923.706 186.941C923.205 187.348 922.954 188.21 922.954 189.526V199.443C923.393 199.474 923.863 199.506 924.364 199.537C924.897 199.568 925.351 199.584 925.727 199.584C928.046 199.584 929.675 199.051 930.615 197.986C931.555 196.921 932.025 195.291 932.025 193.098ZM963.359 211.193C963.359 212.102 963.437 212.791 963.594 213.261C963.782 213.731 964.142 214.044 964.675 214.201C965.239 214.358 966.069 214.436 967.166 214.436C967.228 214.436 967.26 214.53 967.26 214.718C967.26 214.906 967.228 215 967.166 215C966.382 215 965.505 214.984 964.534 214.953C963.594 214.922 962.56 214.906 961.432 214.906C960.335 214.906 959.301 214.922 958.33 214.953C957.358 214.984 956.481 215 955.698 215C955.635 215 955.604 214.906 955.604 214.718C955.604 214.53 955.635 214.436 955.698 214.436C956.794 214.436 957.625 214.358 958.189 214.201C958.753 214.044 959.129 213.731 959.317 213.261C959.505 212.791 959.599 212.102 959.599 211.193V189.432C959.599 188.523 959.505 187.85 959.317 187.411C959.129 186.941 958.753 186.628 958.189 186.471C957.625 186.283 956.794 186.189 955.698 186.189C955.635 186.189 955.604 186.095 955.604 185.907C955.604 185.719 955.635 185.625 955.698 185.625C956.481 185.625 957.358 185.656 958.33 185.719C959.301 185.75 960.335 185.766 961.432 185.766C962.56 185.766 963.609 185.75 964.581 185.719C965.552 185.656 966.414 185.625 967.166 185.625C967.228 185.625 967.26 185.719 967.26 185.907C967.26 186.095 967.228 186.189 967.166 186.189C966.069 186.189 965.254 186.283 964.722 186.471C964.189 186.659 963.829 186.988 963.641 187.458C963.453 187.928 963.359 188.617 963.359 189.526V211.193ZM999.594 215H979.572C979.478 215 979.431 214.906 979.431 214.718C979.431 214.53 979.478 214.436 979.572 214.436C980.637 214.436 981.436 214.358 981.969 214.201C982.533 214.044 982.909 213.731 983.097 213.261C983.285 212.791 983.379 212.102 983.379 211.193V189.432C983.379 188.523 983.285 187.85 983.097 187.411C982.909 186.941 982.533 186.628 981.969 186.471C981.436 186.283 980.637 186.189 979.572 186.189C979.478 186.189 979.431 186.095 979.431 185.907C979.431 185.719 979.478 185.625 979.572 185.625H998.748C999.061 185.625 999.218 185.766 999.218 186.048L999.312 191.97C999.312 192.064 999.218 192.127 999.03 192.158C998.873 192.158 998.779 192.111 998.748 192.017C998.528 190.294 997.917 188.993 996.915 188.116C995.912 187.207 994.596 186.753 992.967 186.753H990.57C989.63 186.753 988.909 186.831 988.408 186.988C987.906 187.145 987.562 187.442 987.374 187.881C987.186 188.288 987.092 188.868 987.092 189.62V211.005C987.092 211.757 987.17 212.352 987.327 212.791C987.515 213.198 987.844 213.496 988.314 213.684C988.784 213.841 989.442 213.919 990.288 213.919H993.39C995.176 213.919 996.648 213.402 997.808 212.368C998.967 211.303 999.766 209.799 1000.2 207.856C1000.2 207.762 1000.3 207.731 1000.49 207.762C1000.67 207.793 1000.77 207.856 1000.77 207.95C1000.64 208.796 1000.53 209.814 1000.44 211.005C1000.35 212.196 1000.3 213.292 1000.3 214.295C1000.3 214.765 1000.06 215 999.594 215ZM996.962 204.19C996.962 202.843 996.57 201.856 995.787 201.229C995.035 200.571 993.813 200.242 992.121 200.242H985.306V199.161H992.262C993.86 199.161 995.035 198.895 995.787 198.362C996.539 197.798 996.915 196.936 996.915 195.777C996.915 195.714 996.993 195.683 997.15 195.683C997.338 195.683 997.432 195.714 997.432 195.777C997.432 196.748 997.416 197.5 997.385 198.033C997.385 198.566 997.385 199.13 997.385 199.725C997.385 200.446 997.4 201.166 997.432 201.887C997.494 202.608 997.526 203.375 997.526 204.19C997.526 204.253 997.432 204.284 997.244 204.284C997.056 204.284 996.962 204.253 996.962 204.19ZM1016.98 209.642V186.706L1018.21 186.8V209.642C1018.21 211.271 1018.5 212.478 1019.1 213.261C1019.69 214.044 1020.63 214.436 1021.92 214.436C1021.98 214.436 1022.01 214.53 1022.01 214.718C1022.01 214.906 1021.98 215 1021.92 215C1021.26 215 1020.59 214.984 1019.9 214.953C1019.24 214.922 1018.49 214.906 1017.64 214.906C1016.83 214.906 1016.03 214.922 1015.24 214.953C1014.46 214.984 1013.72 215 1013.04 215C1012.97 215 1012.94 214.906 1012.94 214.718C1012.94 214.53 1012.97 214.436 1013.04 214.436C1014.41 214.436 1015.42 214.044 1016.04 213.261C1016.67 212.478 1016.98 211.271 1016.98 209.642ZM1040.77 215.611C1040.77 215.674 1040.69 215.705 1040.53 215.705C1040.41 215.736 1040.31 215.736 1040.25 215.705L1018.11 189.479C1017.01 188.194 1016.06 187.333 1015.24 186.894C1014.46 186.424 1013.68 186.189 1012.89 186.189C1012.83 186.189 1012.8 186.095 1012.8 185.907C1012.8 185.719 1012.83 185.625 1012.89 185.625C1013.49 185.625 1014.09 185.641 1014.68 185.672C1015.28 185.703 1015.82 185.719 1016.33 185.719C1017.08 185.719 1017.77 185.703 1018.39 185.672C1019.02 185.641 1019.49 185.625 1019.8 185.625C1020.21 185.625 1020.51 185.813 1020.7 186.189C1020.88 186.534 1021.34 187.16 1022.06 188.069L1040.39 210.159L1040.77 215.611ZM1040.77 191.03V215.611L1039.59 214.154V191.03C1039.59 189.401 1039.29 188.194 1038.7 187.411C1038.13 186.596 1037.21 186.189 1035.92 186.189C1035.86 186.189 1035.83 186.095 1035.83 185.907C1035.83 185.719 1035.86 185.625 1035.92 185.625C1036.58 185.625 1037.26 185.656 1037.95 185.719C1038.63 185.75 1039.39 185.766 1040.2 185.766C1040.98 185.766 1041.75 185.75 1042.5 185.719C1043.26 185.656 1043.96 185.625 1044.62 185.625C1044.68 185.625 1044.71 185.719 1044.71 185.907C1044.71 186.095 1044.68 186.189 1044.62 186.189C1043.3 186.189 1042.33 186.596 1041.71 187.411C1041.08 188.194 1040.77 189.401 1040.77 191.03ZM1073.36 185.108C1074.55 185.108 1075.65 185.171 1076.65 185.296C1077.68 185.39 1078.64 185.562 1079.52 185.813C1080.42 186.064 1081.29 186.393 1082.1 186.8C1082.35 186.894 1082.49 187.004 1082.52 187.129C1082.59 187.223 1082.63 187.458 1082.66 187.834L1083.28 193.756C1083.28 193.819 1083.18 193.881 1082.99 193.944C1082.84 193.975 1082.74 193.928 1082.71 193.803C1081.93 191.202 1080.74 189.244 1079.14 187.928C1077.54 186.581 1075.5 185.907 1073.03 185.907C1070.52 185.907 1068.33 186.487 1066.45 187.646C1064.57 188.805 1063.1 190.45 1062.03 192.581C1060.97 194.68 1060.43 197.171 1060.43 200.054C1060.43 202.185 1060.76 204.143 1061.42 205.929C1062.08 207.715 1062.99 209.282 1064.15 210.629C1065.34 211.945 1066.7 212.963 1068.24 213.684C1069.8 214.405 1071.48 214.765 1073.26 214.765C1075.77 214.765 1077.79 214.138 1079.33 212.885C1080.89 211.632 1082.15 209.72 1083.09 207.151C1083.15 207.057 1083.26 207.026 1083.42 207.057C1083.57 207.088 1083.65 207.151 1083.65 207.245L1083.13 212.603C1083.1 212.979 1083.04 213.214 1082.95 213.308C1082.88 213.402 1082.74 213.512 1082.52 213.637C1080.93 214.358 1079.39 214.859 1077.92 215.141C1076.48 215.454 1074.93 215.611 1073.26 215.611C1069.94 215.611 1066.98 214.969 1064.38 213.684C1061.81 212.368 1059.79 210.566 1058.32 208.279C1056.85 205.96 1056.11 203.281 1056.11 200.242C1056.11 197.986 1056.53 195.934 1057.38 194.085C1058.26 192.236 1059.48 190.638 1061.04 189.291C1062.61 187.944 1064.43 186.91 1066.5 186.189C1068.6 185.468 1070.88 185.108 1073.36 185.108ZM1116.2 215H1096.18C1096.09 215 1096.04 214.906 1096.04 214.718C1096.04 214.53 1096.09 214.436 1096.18 214.436C1097.25 214.436 1098.05 214.358 1098.58 214.201C1099.14 214.044 1099.52 213.731 1099.71 213.261C1099.89 212.791 1099.99 212.102 1099.99 211.193V189.432C1099.99 188.523 1099.89 187.85 1099.71 187.411C1099.52 186.941 1099.14 186.628 1098.58 186.471C1098.05 186.283 1097.25 186.189 1096.18 186.189C1096.09 186.189 1096.04 186.095 1096.04 185.907C1096.04 185.719 1096.09 185.625 1096.18 185.625H1115.36C1115.67 185.625 1115.83 185.766 1115.83 186.048L1115.92 191.97C1115.92 192.064 1115.83 192.127 1115.64 192.158C1115.48 192.158 1115.39 192.111 1115.36 192.017C1115.14 190.294 1114.53 188.993 1113.52 188.116C1112.52 187.207 1111.21 186.753 1109.58 186.753H1107.18C1106.24 186.753 1105.52 186.831 1105.02 186.988C1104.52 187.145 1104.17 187.442 1103.98 187.881C1103.8 188.288 1103.7 188.868 1103.7 189.62V211.005C1103.7 211.757 1103.78 212.352 1103.94 212.791C1104.12 213.198 1104.45 213.496 1104.92 213.684C1105.39 213.841 1106.05 213.919 1106.9 213.919H1110C1111.79 213.919 1113.26 213.402 1114.42 212.368C1115.58 211.303 1116.38 209.799 1116.81 207.856C1116.81 207.762 1116.91 207.731 1117.1 207.762C1117.28 207.793 1117.38 207.856 1117.38 207.95C1117.25 208.796 1117.14 209.814 1117.05 211.005C1116.96 212.196 1116.91 213.292 1116.91 214.295C1116.91 214.765 1116.67 215 1116.2 215ZM1113.57 204.19C1113.57 202.843 1113.18 201.856 1112.4 201.229C1111.64 200.571 1110.42 200.242 1108.73 200.242H1101.92V199.161H1108.87C1110.47 199.161 1111.64 198.895 1112.4 198.362C1113.15 197.798 1113.52 196.936 1113.52 195.777C1113.52 195.714 1113.6 195.683 1113.76 195.683C1113.95 195.683 1114.04 195.714 1114.04 195.777C1114.04 196.748 1114.03 197.5 1113.99 198.033C1113.99 198.566 1113.99 199.13 1113.99 199.725C1113.99 200.446 1114.01 201.166 1114.04 201.887C1114.1 202.608 1114.14 203.375 1114.14 204.19C1114.14 204.253 1114.04 204.284 1113.85 204.284C1113.67 204.284 1113.57 204.253 1113.57 204.19ZM1135.1 190.889C1135.1 192.142 1135.41 193.223 1136.04 194.132C1136.66 195.041 1137.48 195.855 1138.48 196.576C1139.48 197.265 1140.55 197.955 1141.68 198.644C1142.84 199.333 1143.95 200.07 1145.01 200.853C1146.11 201.636 1147 202.561 1147.69 203.626C1148.41 204.66 1148.77 205.929 1148.77 207.433C1148.77 208.968 1148.37 210.347 1147.55 211.569C1146.77 212.791 1145.64 213.762 1144.17 214.483C1142.73 215.204 1140.99 215.564 1138.95 215.564C1138.14 215.564 1137.31 215.486 1136.46 215.329C1135.65 215.204 1134.86 215.016 1134.11 214.765C1133.36 214.514 1132.67 214.201 1132.04 213.825C1131.92 213.731 1131.81 213.621 1131.71 213.496C1131.65 213.371 1131.62 213.183 1131.62 212.932L1131.15 206.211C1131.12 206.054 1131.18 205.976 1131.34 205.976C1131.53 205.945 1131.63 205.992 1131.67 206.117C1131.95 207.088 1132.32 208.075 1132.79 209.078C1133.26 210.081 1133.83 211.005 1134.49 211.851C1135.14 212.666 1135.93 213.339 1136.84 213.872C1137.78 214.405 1138.86 214.671 1140.08 214.671C1140.93 214.671 1141.74 214.514 1142.52 214.201C1143.34 213.888 1144 213.371 1144.5 212.65C1145 211.898 1145.25 210.864 1145.25 209.548C1145.25 208.044 1144.92 206.775 1144.26 205.741C1143.6 204.707 1142.76 203.814 1141.72 203.062C1140.69 202.31 1139.59 201.589 1138.43 200.9C1137.34 200.211 1136.27 199.49 1135.24 198.738C1134.24 197.986 1133.42 197.124 1132.79 196.153C1132.17 195.15 1131.85 193.944 1131.85 192.534C1131.85 190.842 1132.29 189.448 1133.17 188.351C1134.08 187.254 1135.22 186.44 1136.6 185.907C1138.01 185.374 1139.45 185.108 1140.93 185.108C1141.9 185.108 1142.88 185.202 1143.89 185.39C1144.89 185.578 1145.8 185.844 1146.61 186.189C1146.89 186.314 1147.08 186.455 1147.18 186.612C1147.27 186.737 1147.32 186.878 1147.32 187.035L1147.55 192.91C1147.55 193.004 1147.47 193.067 1147.32 193.098C1147.16 193.129 1147.05 193.082 1146.99 192.957C1146.89 192.424 1146.69 191.766 1146.38 190.983C1146.06 190.168 1145.64 189.385 1145.11 188.633C1144.58 187.85 1143.89 187.207 1143.04 186.706C1142.23 186.173 1141.22 185.907 1140.03 185.907C1138.94 185.907 1138.03 186.142 1137.31 186.612C1136.59 187.051 1136.04 187.646 1135.66 188.398C1135.29 189.119 1135.1 189.949 1135.1 190.889Z" fill="#EDEAE2"/>
</svg>
