<svg width="1200" height="400" viewBox="0 0 1200 400" fill="none" xmlns="http://www.w3.org/2000/svg">
<rect width="1200" height="400" fill="#EDEAE2"/>
<path d="M529.232 186.051C530.265 186.051 531.217 186.106 532.088 186.214C532.985 186.296 533.815 186.446 534.577 186.663C535.365 186.881 536.113 187.166 536.821 187.52C537.038 187.602 537.161 187.697 537.188 187.806C537.242 187.887 537.283 188.091 537.31 188.418L537.841 193.558C537.841 193.613 537.759 193.667 537.596 193.722C537.46 193.749 537.378 193.708 537.351 193.599C536.671 191.342 535.637 189.642 534.25 188.499C532.863 187.33 531.095 186.745 528.946 186.745C526.77 186.745 524.866 187.248 523.234 188.254C521.602 189.261 520.324 190.689 519.399 192.538C518.474 194.361 518.012 196.523 518.012 199.026C518.012 200.875 518.297 202.575 518.869 204.126C519.44 205.676 520.229 207.036 521.235 208.206C522.269 209.348 523.452 210.232 524.785 210.858C526.145 211.483 527.6 211.796 529.15 211.796C531.326 211.796 533.081 211.252 534.413 210.164C535.773 209.076 536.861 207.417 537.677 205.186C537.732 205.105 537.827 205.078 537.963 205.105C538.099 205.132 538.167 205.186 538.167 205.268L537.718 209.919C537.691 210.246 537.637 210.45 537.555 210.531C537.501 210.613 537.378 210.708 537.188 210.817C535.801 211.442 534.468 211.878 533.189 212.122C531.938 212.394 530.592 212.53 529.15 212.53C526.267 212.53 523.697 211.973 521.439 210.858C519.209 209.715 517.454 208.151 516.176 206.166C514.897 204.153 514.258 201.827 514.258 199.189C514.258 197.23 514.625 195.449 515.36 193.844C516.121 192.239 517.182 190.852 518.542 189.682C519.902 188.513 521.48 187.615 523.275 186.99C525.097 186.364 527.083 186.051 529.232 186.051ZM573.23 191.6C573.23 190.267 572.923 189.253 572.31 188.56C571.723 187.84 570.843 187.48 569.67 187.48C569.59 187.48 569.55 187.4 569.55 187.24C569.55 187.08 569.59 187 569.67 187C570.283 187 570.923 187.027 571.59 187.08C572.256 187.107 572.976 187.12 573.75 187.12C574.416 187.12 575.07 187.107 575.71 187.08C576.376 187.027 576.99 187 577.55 187C577.603 187 577.63 187.08 577.63 187.24C577.63 187.4 577.603 187.48 577.55 187.48C576.483 187.48 575.67 187.84 575.11 188.56C574.576 189.253 574.31 190.267 574.31 191.6V202.92C574.31 204.92 573.91 206.64 573.11 208.08C572.31 209.52 571.19 210.627 569.75 211.4C568.31 212.147 566.63 212.52 564.71 212.52C562.736 212.52 561.003 212.147 559.51 211.4C558.016 210.627 556.856 209.533 556.03 208.12C555.203 206.707 554.79 205.027 554.79 203.08V190.24C554.79 189.467 554.71 188.893 554.55 188.52C554.39 188.12 554.07 187.853 553.59 187.72C553.136 187.56 552.456 187.48 551.55 187.48C551.47 187.48 551.43 187.4 551.43 187.24C551.43 187.08 551.47 187 551.55 187C552.216 187 552.95 187.027 553.75 187.08C554.55 187.107 555.416 187.12 556.35 187.12C557.31 187.12 558.19 187.107 558.99 187.08C559.816 187.027 560.536 187 561.15 187C561.23 187 561.27 187.08 561.27 187.24C561.27 187.4 561.23 187.48 561.15 187.48C560.243 187.48 559.55 187.56 559.07 187.72C558.616 187.88 558.31 188.16 558.15 188.56C558.016 188.96 557.95 189.547 557.95 190.32V201.68C557.95 204.88 558.643 207.28 560.03 208.88C561.416 210.453 563.336 211.24 565.79 211.24C568.136 211.24 569.963 210.52 571.27 209.08C572.576 207.613 573.23 205.573 573.23 202.96V191.6ZM610.197 212C609.771 212 609.064 211.493 608.077 210.48C607.117 209.44 605.957 207.973 604.597 206.08C603.237 204.16 601.704 201.88 599.997 199.24L602.677 198.4C604.917 201.627 606.811 204.2 608.357 206.12C609.931 208.04 611.317 209.427 612.517 210.28C613.717 211.107 614.864 211.52 615.957 211.52C616.037 211.52 616.077 211.6 616.077 211.76C616.077 211.92 616.037 212 615.957 212C614.464 212 613.237 212 612.277 212C611.344 212 610.651 212 610.197 212ZM600.597 186.88C602.837 186.88 604.544 187.36 605.717 188.32C606.917 189.253 607.517 190.507 607.517 192.08C607.517 193.573 607.091 194.907 606.237 196.08C605.384 197.253 604.264 198.173 602.877 198.84C601.517 199.507 600.051 199.84 598.477 199.84C598.157 199.84 597.824 199.84 597.477 199.84C597.131 199.813 596.811 199.787 596.517 199.76V208.76C596.517 209.533 596.584 210.12 596.717 210.52C596.877 210.92 597.184 211.187 597.637 211.32C598.117 211.453 598.824 211.52 599.757 211.52C599.837 211.52 599.877 211.6 599.877 211.76C599.877 211.92 599.837 212 599.757 212C599.091 212 598.357 211.987 597.557 211.96C596.757 211.933 595.877 211.92 594.917 211.92C594.011 211.92 593.144 211.933 592.317 211.96C591.491 211.987 590.744 212 590.077 212C589.997 212 589.957 211.92 589.957 211.76C589.957 211.6 589.997 211.52 590.077 211.52C590.984 211.52 591.664 211.453 592.117 211.32C592.597 211.187 592.917 210.92 593.077 210.52C593.264 210.12 593.357 209.533 593.357 208.76V190.24C593.357 189.467 593.277 188.893 593.117 188.52C592.957 188.12 592.651 187.853 592.197 187.72C591.744 187.56 591.051 187.48 590.117 187.48C590.064 187.48 590.037 187.4 590.037 187.24C590.037 187.08 590.064 187 590.117 187C590.784 187 591.517 187.027 592.317 187.08C593.144 187.107 594.011 187.12 594.917 187.12C595.771 187.12 596.731 187.08 597.797 187C598.864 186.92 599.797 186.88 600.597 186.88ZM604.237 193.36C604.237 191.867 604.037 190.707 603.637 189.88C603.237 189.027 602.664 188.427 601.917 188.08C601.197 187.733 600.344 187.56 599.357 187.56C598.344 187.56 597.611 187.747 597.157 188.12C596.731 188.467 596.517 189.2 596.517 190.32V198.76C596.891 198.787 597.291 198.813 597.717 198.84C598.171 198.867 598.557 198.88 598.877 198.88C600.851 198.88 602.237 198.427 603.037 197.52C603.837 196.613 604.237 195.227 604.237 193.36ZM633.064 201.56L633.544 200.68H644.424L644.704 201.56H633.064ZM653.744 211.52C653.877 211.52 653.944 211.6 653.944 211.76C653.944 211.92 653.877 212 653.744 212C652.971 212 652.171 211.973 651.344 211.92C650.544 211.867 649.757 211.84 648.984 211.84C648.131 211.84 647.384 211.867 646.744 211.92C646.131 211.973 645.437 212 644.664 212C644.557 212 644.504 211.92 644.504 211.76C644.504 211.6 644.557 211.52 644.664 211.52C645.971 211.52 646.771 211.32 647.064 210.92C647.357 210.493 647.211 209.667 646.624 208.44L638.024 190.56L639.304 188.64L631.504 206.72C630.811 208.347 630.771 209.56 631.384 210.36C631.997 211.133 633.144 211.52 634.824 211.52C634.957 211.52 635.024 211.6 635.024 211.76C635.024 211.92 634.957 212 634.824 212C634.024 212 633.291 211.973 632.624 211.92C631.957 211.867 631.117 211.84 630.104 211.84C629.117 211.84 628.317 211.867 627.704 211.92C627.117 211.973 626.397 212 625.544 212C625.437 212 625.384 211.92 625.384 211.76C625.384 211.6 625.437 211.52 625.544 211.52C626.264 211.52 626.891 211.387 627.424 211.12C627.957 210.827 628.464 210.307 628.944 209.56C629.451 208.813 629.997 207.747 630.584 206.36L639.104 186.72C639.131 186.64 639.224 186.6 639.384 186.6C639.544 186.573 639.637 186.613 639.664 186.72L649.264 206.52C649.904 207.827 650.451 208.853 650.904 209.6C651.384 210.32 651.851 210.827 652.304 211.12C652.757 211.387 653.237 211.52 653.744 211.52ZM668.974 187.8C667.32 187.8 666.027 188.267 665.094 189.2C664.16 190.107 663.467 191.573 663.014 193.6C662.987 193.653 662.894 193.68 662.734 193.68C662.6 193.68 662.534 193.64 662.534 193.56C662.587 193.213 662.64 192.72 662.694 192.08C662.774 191.44 662.84 190.747 662.894 190C662.947 189.253 662.987 188.533 663.014 187.84C663.067 187.147 663.094 186.573 663.094 186.12C663.094 185.987 663.174 185.92 663.334 185.92C663.494 185.92 663.574 185.987 663.574 186.12C663.574 186.387 663.707 186.587 663.974 186.72C664.24 186.827 664.547 186.907 664.894 186.96C665.24 186.987 665.534 187 665.774 187C668.067 187.08 670.747 187.12 673.814 187.12C675.68 187.12 677.174 187.107 678.294 187.08C679.414 187.027 680.494 187 681.534 187C682.44 187 683.134 186.947 683.614 186.84C684.12 186.707 684.44 186.427 684.574 186C684.6 185.893 684.68 185.84 684.814 185.84C684.974 185.84 685.054 185.893 685.054 186C685 186.4 684.947 186.96 684.894 187.68C684.867 188.4 684.827 189.147 684.774 189.92C684.747 190.693 684.72 191.413 684.694 192.08C684.667 192.747 684.654 193.24 684.654 193.56C684.654 193.64 684.574 193.68 684.414 193.68C684.28 193.68 684.214 193.64 684.214 193.56C684.027 191.48 683.494 190 682.614 189.12C681.734 188.24 680.427 187.8 678.694 187.8C677.76 187.8 677.054 187.867 676.574 188C676.12 188.107 675.814 188.333 675.654 188.68C675.52 189.027 675.454 189.573 675.454 190.32V208.76C675.454 209.533 675.534 210.12 675.694 210.52C675.88 210.92 676.227 211.187 676.734 211.32C677.267 211.453 678.08 211.52 679.174 211.52C679.227 211.52 679.254 211.6 679.254 211.76C679.254 211.92 679.227 212 679.174 212C678.454 212 677.64 211.987 676.734 211.96C675.854 211.933 674.88 211.92 673.814 211.92C672.8 211.92 671.84 211.933 670.934 211.96C670.054 211.987 669.24 212 668.494 212C668.414 212 668.374 211.92 668.374 211.76C668.374 211.6 668.414 211.52 668.494 211.52C669.534 211.52 670.32 211.453 670.854 211.32C671.414 211.187 671.787 210.92 671.974 210.52C672.16 210.12 672.254 209.533 672.254 208.76V190.24C672.254 189.52 672.174 188.987 672.014 188.64C671.854 188.267 671.534 188.04 671.054 187.96C670.574 187.853 669.88 187.8 668.974 187.8ZM715.242 212H698.202C698.122 212 698.082 211.92 698.082 211.76C698.082 211.6 698.122 211.52 698.202 211.52C699.109 211.52 699.789 211.453 700.242 211.32C700.722 211.187 701.042 210.92 701.202 210.52C701.362 210.12 701.442 209.533 701.442 208.76V190.24C701.442 189.467 701.362 188.893 701.202 188.52C701.042 188.12 700.722 187.853 700.242 187.72C699.789 187.56 699.109 187.48 698.202 187.48C698.122 187.48 698.082 187.4 698.082 187.24C698.082 187.08 698.122 187 698.202 187H714.522C714.789 187 714.922 187.12 714.922 187.36L715.002 192.4C715.002 192.48 714.922 192.533 714.762 192.56C714.629 192.56 714.549 192.52 714.522 192.44C714.336 190.973 713.816 189.867 712.962 189.12C712.109 188.347 710.989 187.96 709.602 187.96H707.562C706.762 187.96 706.149 188.027 705.722 188.16C705.296 188.293 705.002 188.547 704.842 188.92C704.682 189.267 704.602 189.76 704.602 190.4V208.6C704.602 209.24 704.669 209.747 704.802 210.12C704.962 210.467 705.242 210.72 705.642 210.88C706.042 211.013 706.602 211.08 707.322 211.08H709.962C711.482 211.08 712.736 210.64 713.722 209.76C714.709 208.853 715.389 207.573 715.762 205.92C715.762 205.84 715.842 205.813 716.002 205.84C716.162 205.867 716.242 205.92 716.242 206C716.136 206.72 716.042 207.587 715.962 208.6C715.882 209.613 715.842 210.547 715.842 211.4C715.842 211.8 715.642 212 715.242 212ZM713.002 202.8C713.002 201.653 712.669 200.813 712.002 200.28C711.362 199.72 710.322 199.44 708.882 199.44H703.082V198.52H709.002C710.362 198.52 711.362 198.293 712.002 197.84C712.642 197.36 712.962 196.627 712.962 195.64C712.962 195.587 713.029 195.56 713.162 195.56C713.322 195.56 713.402 195.587 713.402 195.64C713.402 196.467 713.389 197.107 713.362 197.56C713.362 198.013 713.362 198.493 713.362 199C713.362 199.613 713.376 200.227 713.402 200.84C713.456 201.453 713.482 202.107 713.482 202.8C713.482 202.853 713.402 202.88 713.242 202.88C713.082 202.88 713.002 202.853 713.002 202.8ZM740.562 212.16C739.762 212.16 738.775 212.12 737.602 212.04C736.429 211.96 735.349 211.92 734.362 211.92C733.455 211.92 732.575 211.933 731.722 211.96C730.895 211.987 730.149 212 729.482 212C729.429 212 729.402 211.92 729.402 211.76C729.402 211.6 729.429 211.52 729.482 211.52C730.415 211.52 731.122 211.453 731.602 211.32C732.082 211.187 732.402 210.92 732.562 210.52C732.722 210.12 732.802 209.533 732.802 208.76V190.24C732.802 189.467 732.722 188.893 732.562 188.52C732.402 188.12 732.082 187.853 731.602 187.72C731.149 187.56 730.469 187.48 729.562 187.48C729.482 187.48 729.442 187.4 729.442 187.24C729.442 187.08 729.482 187 729.562 187C730.229 187 730.962 187.027 731.762 187.08C732.589 187.107 733.455 187.12 734.362 187.12C735.269 187.12 736.242 187.093 737.282 187.04C738.349 186.96 739.255 186.92 740.002 186.92C742.829 186.92 745.282 187.453 747.362 188.52C749.469 189.587 751.109 191.04 752.282 192.88C753.455 194.72 754.042 196.787 754.042 199.08C754.042 201.08 753.682 202.893 752.962 204.52C752.269 206.12 751.295 207.493 750.042 208.64C748.789 209.76 747.349 210.627 745.722 211.24C744.095 211.853 742.375 212.16 740.562 212.16ZM740.162 211.44C742.162 211.44 743.922 211 745.442 210.12C746.989 209.24 748.202 207.947 749.082 206.24C749.962 204.507 750.402 202.413 750.402 199.96C750.402 197.64 749.989 195.56 749.162 193.72C748.335 191.853 747.175 190.373 745.682 189.28C744.215 188.16 742.455 187.6 740.402 187.6C738.802 187.6 737.655 187.76 736.962 188.08C736.295 188.4 735.962 189.147 735.962 190.32V208.32C735.962 209.387 736.229 210.173 736.762 210.68C737.295 211.187 738.429 211.44 740.162 211.44ZM804.524 212H787.143C787.061 212 787.021 211.918 787.021 211.755C787.021 211.592 787.061 211.51 787.143 211.51C788.068 211.51 788.761 211.442 789.224 211.306C789.713 211.17 790.04 210.898 790.203 210.49C790.366 210.082 790.448 209.484 790.448 208.695V189.805C790.448 189.016 790.366 188.431 790.203 188.05C790.04 187.642 789.713 187.37 789.224 187.234C788.761 187.071 788.068 186.99 787.143 186.99C787.061 186.99 787.021 186.908 787.021 186.745C787.021 186.582 787.061 186.5 787.143 186.5H803.789C804.061 186.5 804.197 186.622 804.197 186.867L804.279 192.008C804.279 192.09 804.197 192.144 804.034 192.171C803.898 192.171 803.817 192.13 803.789 192.049C803.599 190.553 803.069 189.424 802.198 188.662C801.328 187.874 800.185 187.479 798.771 187.479H796.69C795.874 187.479 795.249 187.547 794.813 187.683C794.378 187.819 794.079 188.078 793.916 188.458C793.753 188.812 793.671 189.315 793.671 189.968V208.532C793.671 209.185 793.739 209.702 793.875 210.082C794.038 210.436 794.324 210.694 794.732 210.858C795.14 210.994 795.711 211.062 796.445 211.062H799.138C800.689 211.062 801.967 210.613 802.973 209.715C803.98 208.79 804.673 207.485 805.054 205.798C805.054 205.717 805.136 205.69 805.299 205.717C805.462 205.744 805.544 205.798 805.544 205.88C805.435 206.614 805.34 207.498 805.258 208.532C805.177 209.566 805.136 210.518 805.136 211.388C805.136 211.796 804.932 212 804.524 212ZM802.239 202.616C802.239 201.446 801.899 200.59 801.219 200.046C800.566 199.474 799.505 199.189 798.037 199.189H792.121V198.25H798.159C799.546 198.25 800.566 198.019 801.219 197.557C801.872 197.067 802.198 196.319 802.198 195.313C802.198 195.258 802.266 195.231 802.402 195.231C802.565 195.231 802.647 195.258 802.647 195.313C802.647 196.156 802.633 196.809 802.606 197.271C802.606 197.734 802.606 198.223 802.606 198.74C802.606 199.366 802.62 199.991 802.647 200.617C802.701 201.242 802.729 201.909 802.729 202.616C802.729 202.67 802.647 202.698 802.484 202.698C802.321 202.698 802.239 202.67 802.239 202.616ZM834.102 212C834.049 212 834.022 211.92 834.022 211.76C834.022 211.6 834.049 211.52 834.102 211.52C834.929 211.52 835.475 211.413 835.742 211.2C836.035 210.987 835.982 210.573 835.582 209.96L822.822 190.48C822.102 189.387 821.395 188.613 820.702 188.16C820.035 187.707 819.275 187.48 818.422 187.48C818.369 187.48 818.342 187.4 818.342 187.24C818.342 187.08 818.369 187 818.422 187C818.929 187 819.462 187.027 820.022 187.08C820.582 187.107 821.102 187.12 821.582 187.12C822.675 187.12 823.689 187.107 824.622 187.08C825.555 187.027 826.369 187 827.062 187C827.142 187 827.182 187.08 827.182 187.24C827.182 187.4 827.142 187.48 827.062 187.48C826.235 187.48 825.675 187.587 825.382 187.8C825.115 188.013 825.182 188.44 825.582 189.08L838.462 208.68C839.155 209.72 839.862 210.453 840.582 210.88C841.302 211.307 842.182 211.52 843.222 211.52C843.275 211.52 843.302 211.6 843.302 211.76C843.302 211.92 843.275 212 843.222 212C842.662 212 842.049 211.987 841.382 211.96C840.715 211.933 840.009 211.92 839.262 211.92C838.169 211.92 837.209 211.933 836.382 211.96C835.582 211.987 834.822 212 834.102 212ZM818.222 212C818.142 212 818.102 211.92 818.102 211.76C818.102 211.6 818.142 211.52 818.222 211.52C819.075 211.52 820.009 211.187 821.022 210.52C822.035 209.853 823.062 208.8 824.102 207.36L829.782 199.6L830.342 200.04L825.102 207.44C824.169 208.72 823.795 209.72 823.982 210.44C824.195 211.16 824.942 211.52 826.222 211.52C826.302 211.52 826.342 211.6 826.342 211.76C826.342 211.92 826.302 212 826.222 212C825.502 212 824.809 211.987 824.142 211.96C823.475 211.933 822.609 211.92 821.542 211.92C820.822 211.92 820.249 211.933 819.822 211.96C819.395 211.987 818.862 212 818.222 212ZM831.022 199.44L830.462 199L835.542 191.76C836.502 190.4 836.889 189.347 836.702 188.6C836.542 187.853 835.835 187.48 834.582 187.48C834.502 187.48 834.462 187.4 834.462 187.24C834.462 187.08 834.502 187 834.582 187C835.302 187 835.995 187.027 836.662 187.08C837.329 187.107 838.195 187.12 839.262 187.12C839.982 187.12 840.555 187.107 840.982 187.08C841.409 187.027 841.929 187 842.542 187C842.622 187 842.662 187.08 842.662 187.24C842.662 187.4 842.622 187.48 842.542 187.48C841.715 187.48 840.782 187.84 839.742 188.56C838.702 189.28 837.635 190.387 836.542 191.88L831.022 199.44ZM861.718 208.6C861.718 209.4 861.811 210.013 861.998 210.44C862.211 210.84 862.638 211.12 863.278 211.28C863.918 211.44 864.878 211.52 866.158 211.52C866.238 211.52 866.278 211.6 866.278 211.76C866.278 211.92 866.238 212 866.158 212C865.304 212 864.371 211.987 863.358 211.96C862.371 211.933 861.291 211.92 860.118 211.92C859.238 211.92 858.371 211.933 857.518 211.96C856.691 211.987 855.944 212 855.278 212C855.224 212 855.198 211.92 855.198 211.76C855.198 211.6 855.224 211.52 855.278 211.52C856.211 211.52 856.904 211.453 857.358 211.32C857.838 211.187 858.144 210.92 858.278 210.52C858.438 210.12 858.518 209.533 858.518 208.76V190.24C858.518 189.467 858.438 188.893 858.278 188.52C858.144 188.12 857.838 187.853 857.358 187.72C856.904 187.56 856.211 187.48 855.278 187.48C855.224 187.48 855.198 187.4 855.198 187.24C855.198 187.08 855.224 187 855.278 187C855.944 187 856.691 187.027 857.518 187.08C858.344 187.107 859.198 187.12 860.078 187.12C860.771 187.12 861.611 187.08 862.598 187C863.611 186.92 864.624 186.88 865.638 186.88C867.184 186.88 868.571 187.107 869.798 187.56C871.051 188.013 872.051 188.72 872.798 189.68C873.544 190.64 873.931 191.893 873.958 193.44C873.958 194.827 873.704 196.027 873.198 197.04C872.691 198.053 871.998 198.893 871.118 199.56C870.264 200.227 869.304 200.72 868.238 201.04C867.198 201.36 866.171 201.52 865.158 201.52C864.838 201.52 864.504 201.507 864.158 201.48C863.838 201.453 863.531 201.4 863.238 201.32C863.131 201.293 863.091 201.2 863.118 201.04C863.171 200.853 863.238 200.773 863.318 200.8C863.558 200.853 863.798 200.893 864.038 200.92C864.304 200.947 864.531 200.96 864.718 200.96C865.731 200.96 866.664 200.72 867.518 200.24C868.371 199.76 869.064 199.027 869.598 198.04C870.131 197.027 870.398 195.773 870.398 194.28C870.398 192.84 870.144 191.627 869.638 190.64C869.158 189.653 868.478 188.893 867.598 188.36C866.718 187.827 865.704 187.56 864.558 187.56C863.811 187.56 863.224 187.613 862.798 187.72C862.398 187.827 862.118 188.08 861.958 188.48C861.798 188.88 861.718 189.493 861.718 190.32V208.6ZM904.313 212H887.273C887.193 212 887.153 211.92 887.153 211.76C887.153 211.6 887.193 211.52 887.273 211.52C888.18 211.52 888.86 211.453 889.313 211.32C889.793 211.187 890.113 210.92 890.273 210.52C890.433 210.12 890.513 209.533 890.513 208.76V190.24C890.513 189.467 890.433 188.893 890.273 188.52C890.113 188.12 889.793 187.853 889.313 187.72C888.86 187.56 888.18 187.48 887.273 187.48C887.193 187.48 887.153 187.4 887.153 187.24C887.153 187.08 887.193 187 887.273 187H903.593C903.86 187 903.993 187.12 903.993 187.36L904.073 192.4C904.073 192.48 903.993 192.533 903.833 192.56C903.7 192.56 903.62 192.52 903.593 192.44C903.407 190.973 902.887 189.867 902.033 189.12C901.18 188.347 900.06 187.96 898.673 187.96H896.633C895.833 187.96 895.22 188.027 894.793 188.16C894.367 188.293 894.073 188.547 893.913 188.92C893.753 189.267 893.673 189.76 893.673 190.4V208.6C893.673 209.24 893.74 209.747 893.873 210.12C894.033 210.467 894.313 210.72 894.713 210.88C895.113 211.013 895.673 211.08 896.393 211.08H899.033C900.553 211.08 901.807 210.64 902.793 209.76C903.78 208.853 904.46 207.573 904.833 205.92C904.833 205.84 904.913 205.813 905.073 205.84C905.233 205.867 905.313 205.92 905.313 206C905.207 206.72 905.113 207.587 905.033 208.6C904.953 209.613 904.913 210.547 904.913 211.4C904.913 211.8 904.713 212 904.313 212ZM902.073 202.8C902.073 201.653 901.74 200.813 901.073 200.28C900.433 199.72 899.393 199.44 897.953 199.44H892.153V198.52H898.073C899.433 198.52 900.433 198.293 901.073 197.84C901.713 197.36 902.033 196.627 902.033 195.64C902.033 195.587 902.1 195.56 902.233 195.56C902.393 195.56 902.473 195.587 902.473 195.64C902.473 196.467 902.46 197.107 902.433 197.56C902.433 198.013 902.433 198.493 902.433 199C902.433 199.613 902.447 200.227 902.473 200.84C902.527 201.453 902.553 202.107 902.553 202.8C902.553 202.853 902.473 202.88 902.313 202.88C902.153 202.88 902.073 202.853 902.073 202.8ZM939.073 212C938.646 212 937.94 211.493 936.953 210.48C935.993 209.44 934.833 207.973 933.473 206.08C932.113 204.16 930.58 201.88 928.873 199.24L931.553 198.4C933.793 201.627 935.686 204.2 937.233 206.12C938.806 208.04 940.193 209.427 941.393 210.28C942.593 211.107 943.74 211.52 944.833 211.52C944.913 211.52 944.953 211.6 944.953 211.76C944.953 211.92 944.913 212 944.833 212C943.34 212 942.113 212 941.153 212C940.22 212 939.526 212 939.073 212ZM929.473 186.88C931.713 186.88 933.42 187.36 934.593 188.32C935.793 189.253 936.393 190.507 936.393 192.08C936.393 193.573 935.966 194.907 935.113 196.08C934.26 197.253 933.14 198.173 931.753 198.84C930.393 199.507 928.926 199.84 927.353 199.84C927.033 199.84 926.7 199.84 926.353 199.84C926.006 199.813 925.686 199.787 925.393 199.76V208.76C925.393 209.533 925.46 210.12 925.593 210.52C925.753 210.92 926.06 211.187 926.513 211.32C926.993 211.453 927.7 211.52 928.633 211.52C928.713 211.52 928.753 211.6 928.753 211.76C928.753 211.92 928.713 212 928.633 212C927.966 212 927.233 211.987 926.433 211.96C925.633 211.933 924.753 211.92 923.793 211.92C922.886 211.92 922.02 211.933 921.193 211.96C920.366 211.987 919.62 212 918.953 212C918.873 212 918.833 211.92 918.833 211.76C918.833 211.6 918.873 211.52 918.953 211.52C919.86 211.52 920.54 211.453 920.993 211.32C921.473 211.187 921.793 210.92 921.953 210.52C922.14 210.12 922.233 209.533 922.233 208.76V190.24C922.233 189.467 922.153 188.893 921.993 188.52C921.833 188.12 921.526 187.853 921.073 187.72C920.62 187.56 919.926 187.48 918.993 187.48C918.94 187.48 918.913 187.4 918.913 187.24C918.913 187.08 918.94 187 918.993 187C919.66 187 920.393 187.027 921.193 187.08C922.02 187.107 922.886 187.12 923.793 187.12C924.646 187.12 925.606 187.08 926.673 187C927.74 186.92 928.673 186.88 929.473 186.88ZM933.113 193.36C933.113 191.867 932.913 190.707 932.513 189.88C932.113 189.027 931.54 188.427 930.793 188.08C930.073 187.733 929.22 187.56 928.233 187.56C927.22 187.56 926.486 187.747 926.033 188.12C925.606 188.467 925.393 189.2 925.393 190.32V198.76C925.766 198.787 926.166 198.813 926.593 198.84C927.046 198.867 927.433 198.88 927.753 198.88C929.726 198.88 931.113 198.427 931.913 197.52C932.713 196.613 933.113 195.227 933.113 193.36ZM962.78 208.76C962.78 209.533 962.846 210.12 962.98 210.52C963.14 210.92 963.446 211.187 963.9 211.32C964.38 211.453 965.086 211.52 966.02 211.52C966.073 211.52 966.1 211.6 966.1 211.76C966.1 211.92 966.073 212 966.02 212C965.353 212 964.606 211.987 963.78 211.96C962.98 211.933 962.1 211.92 961.14 211.92C960.206 211.92 959.326 211.933 958.5 211.96C957.673 211.987 956.926 212 956.26 212C956.206 212 956.18 211.92 956.18 211.76C956.18 211.6 956.206 211.52 956.26 211.52C957.193 211.52 957.9 211.453 958.38 211.32C958.86 211.187 959.18 210.92 959.34 210.52C959.5 210.12 959.58 209.533 959.58 208.76V190.24C959.58 189.467 959.5 188.893 959.34 188.52C959.18 188.12 958.86 187.853 958.38 187.72C957.9 187.56 957.193 187.48 956.26 187.48C956.206 187.48 956.18 187.4 956.18 187.24C956.18 187.08 956.206 187 956.26 187C956.926 187 957.673 187.027 958.5 187.08C959.326 187.107 960.206 187.12 961.14 187.12C962.1 187.12 962.993 187.107 963.82 187.08C964.646 187.027 965.38 187 966.02 187C966.073 187 966.1 187.08 966.1 187.24C966.1 187.4 966.073 187.48 966.02 187.48C965.086 187.48 964.393 187.56 963.94 187.72C963.486 187.88 963.18 188.16 963.02 188.56C962.86 188.96 962.78 189.547 962.78 190.32V208.76ZM996.618 212H979.578C979.498 212 979.458 211.92 979.458 211.76C979.458 211.6 979.498 211.52 979.578 211.52C980.485 211.52 981.165 211.453 981.618 211.32C982.098 211.187 982.418 210.92 982.578 210.52C982.738 210.12 982.818 209.533 982.818 208.76V190.24C982.818 189.467 982.738 188.893 982.578 188.52C982.418 188.12 982.098 187.853 981.618 187.72C981.165 187.56 980.485 187.48 979.578 187.48C979.498 187.48 979.458 187.4 979.458 187.24C979.458 187.08 979.498 187 979.578 187H995.898C996.165 187 996.298 187.12 996.298 187.36L996.378 192.4C996.378 192.48 996.298 192.533 996.138 192.56C996.005 192.56 995.925 192.52 995.898 192.44C995.711 190.973 995.191 189.867 994.338 189.12C993.485 188.347 992.365 187.96 990.978 187.96H988.938C988.138 187.96 987.525 188.027 987.098 188.16C986.671 188.293 986.378 188.547 986.218 188.92C986.058 189.267 985.978 189.76 985.978 190.4V208.6C985.978 209.24 986.045 209.747 986.178 210.12C986.338 210.467 986.618 210.72 987.018 210.88C987.418 211.013 987.978 211.08 988.698 211.08H991.338C992.858 211.08 994.111 210.64 995.098 209.76C996.085 208.853 996.765 207.573 997.138 205.92C997.138 205.84 997.218 205.813 997.378 205.84C997.538 205.867 997.618 205.92 997.618 206C997.511 206.72 997.418 207.587 997.338 208.6C997.258 209.613 997.218 210.547 997.218 211.4C997.218 211.8 997.018 212 996.618 212ZM994.378 202.8C994.378 201.653 994.045 200.813 993.378 200.28C992.738 199.72 991.698 199.44 990.258 199.44H984.458V198.52H990.378C991.738 198.52 992.738 198.293 993.378 197.84C994.018 197.36 994.338 196.627 994.338 195.64C994.338 195.587 994.405 195.56 994.538 195.56C994.698 195.56 994.778 195.587 994.778 195.64C994.778 196.467 994.765 197.107 994.738 197.56C994.738 198.013 994.738 198.493 994.738 199C994.738 199.613 994.751 200.227 994.778 200.84C994.831 201.453 994.858 202.107 994.858 202.8C994.858 202.853 994.778 202.88 994.618 202.88C994.458 202.88 994.378 202.853 994.378 202.8ZM1014.42 207.44V187.92L1015.46 188V207.44C1015.46 208.827 1015.71 209.853 1016.22 210.52C1016.72 211.187 1017.52 211.52 1018.62 211.52C1018.67 211.52 1018.7 211.6 1018.7 211.76C1018.7 211.92 1018.67 212 1018.62 212C1018.06 212 1017.48 211.987 1016.9 211.96C1016.34 211.933 1015.7 211.92 1014.98 211.92C1014.28 211.92 1013.6 211.933 1012.94 211.96C1012.27 211.987 1011.64 212 1011.06 212C1011 212 1010.98 211.92 1010.98 211.76C1010.98 211.6 1011 211.52 1011.06 211.52C1012.23 211.52 1013.08 211.187 1013.62 210.52C1014.15 209.853 1014.42 208.827 1014.42 207.44ZM1034.66 212.52C1034.66 212.573 1034.59 212.6 1034.46 212.6C1034.35 212.627 1034.27 212.627 1034.22 212.6L1015.38 190.28C1014.44 189.187 1013.63 188.453 1012.94 188.08C1012.27 187.68 1011.6 187.48 1010.94 187.48C1010.88 187.48 1010.86 187.4 1010.86 187.24C1010.86 187.08 1010.88 187 1010.94 187C1011.44 187 1011.95 187.013 1012.46 187.04C1012.96 187.067 1013.43 187.08 1013.86 187.08C1014.5 187.08 1015.08 187.067 1015.62 187.04C1016.15 187.013 1016.55 187 1016.82 187C1017.16 187 1017.42 187.16 1017.58 187.48C1017.74 187.773 1018.12 188.307 1018.74 189.08L1034.34 207.88L1034.66 212.52ZM1034.66 191.6V212.52L1033.66 211.28V191.6C1033.66 190.213 1033.4 189.187 1032.9 188.52C1032.42 187.827 1031.63 187.48 1030.54 187.48C1030.48 187.48 1030.46 187.4 1030.46 187.24C1030.46 187.08 1030.48 187 1030.54 187C1031.1 187 1031.67 187.027 1032.26 187.08C1032.84 187.107 1033.48 187.12 1034.18 187.12C1034.84 187.12 1035.5 187.107 1036.14 187.08C1036.78 187.027 1037.38 187 1037.94 187C1037.99 187 1038.02 187.08 1038.02 187.24C1038.02 187.4 1037.99 187.48 1037.94 187.48C1036.82 187.48 1035.99 187.827 1035.46 188.52C1034.92 189.187 1034.66 190.213 1034.66 191.6ZM1065.4 186.56C1066.41 186.56 1067.34 186.613 1068.2 186.72C1069.08 186.8 1069.89 186.947 1070.64 187.16C1071.41 187.373 1072.14 187.653 1072.84 188C1073.05 188.08 1073.17 188.173 1073.2 188.28C1073.25 188.36 1073.29 188.56 1073.32 188.88L1073.84 193.92C1073.84 193.973 1073.76 194.027 1073.6 194.08C1073.46 194.107 1073.38 194.067 1073.36 193.96C1072.69 191.747 1071.68 190.08 1070.32 188.96C1068.96 187.813 1067.22 187.24 1065.12 187.24C1062.98 187.24 1061.12 187.733 1059.52 188.72C1057.92 189.707 1056.66 191.107 1055.76 192.92C1054.85 194.707 1054.4 196.827 1054.4 199.28C1054.4 201.093 1054.68 202.76 1055.24 204.28C1055.8 205.8 1056.57 207.133 1057.56 208.28C1058.57 209.4 1059.73 210.267 1061.04 210.88C1062.37 211.493 1063.8 211.8 1065.32 211.8C1067.45 211.8 1069.17 211.267 1070.48 210.2C1071.81 209.133 1072.88 207.507 1073.68 205.32C1073.73 205.24 1073.82 205.213 1073.96 205.24C1074.09 205.267 1074.16 205.32 1074.16 205.4L1073.72 209.96C1073.69 210.28 1073.64 210.48 1073.56 210.56C1073.5 210.64 1073.38 210.733 1073.2 210.84C1071.84 211.453 1070.53 211.88 1069.28 212.12C1068.05 212.387 1066.73 212.52 1065.32 212.52C1062.49 212.52 1059.97 211.973 1057.76 210.88C1055.57 209.76 1053.85 208.227 1052.6 206.28C1051.34 204.307 1050.72 202.027 1050.72 199.44C1050.72 197.52 1051.08 195.773 1051.8 194.2C1052.54 192.627 1053.58 191.267 1054.92 190.12C1056.25 188.973 1057.8 188.093 1059.56 187.48C1061.34 186.867 1063.29 186.56 1065.4 186.56ZM1104.86 212H1087.82C1087.74 212 1087.7 211.92 1087.7 211.76C1087.7 211.6 1087.74 211.52 1087.82 211.52C1088.73 211.52 1089.41 211.453 1089.86 211.32C1090.34 211.187 1090.66 210.92 1090.82 210.52C1090.98 210.12 1091.06 209.533 1091.06 208.76V190.24C1091.06 189.467 1090.98 188.893 1090.82 188.52C1090.66 188.12 1090.34 187.853 1089.86 187.72C1089.41 187.56 1088.73 187.48 1087.82 187.48C1087.74 187.48 1087.7 187.4 1087.7 187.24C1087.7 187.08 1087.74 187 1087.82 187H1104.14C1104.41 187 1104.54 187.12 1104.54 187.36L1104.62 192.4C1104.62 192.48 1104.54 192.533 1104.38 192.56C1104.25 192.56 1104.17 192.52 1104.14 192.44C1103.95 190.973 1103.43 189.867 1102.58 189.12C1101.73 188.347 1100.61 187.96 1099.22 187.96H1097.18C1096.38 187.96 1095.77 188.027 1095.34 188.16C1094.91 188.293 1094.62 188.547 1094.46 188.92C1094.3 189.267 1094.22 189.76 1094.22 190.4V208.6C1094.22 209.24 1094.29 209.747 1094.42 210.12C1094.58 210.467 1094.86 210.72 1095.26 210.88C1095.66 211.013 1096.22 211.08 1096.94 211.08H1099.58C1101.1 211.08 1102.35 210.64 1103.34 209.76C1104.33 208.853 1105.01 207.573 1105.38 205.92C1105.38 205.84 1105.46 205.813 1105.62 205.84C1105.78 205.867 1105.86 205.92 1105.86 206C1105.75 206.72 1105.66 207.587 1105.58 208.6C1105.5 209.613 1105.46 210.547 1105.46 211.4C1105.46 211.8 1105.26 212 1104.86 212ZM1102.62 202.8C1102.62 201.653 1102.29 200.813 1101.62 200.28C1100.98 199.72 1099.94 199.44 1098.5 199.44H1092.7V198.52H1098.62C1099.98 198.52 1100.98 198.293 1101.62 197.84C1102.26 197.36 1102.58 196.627 1102.58 195.64C1102.58 195.587 1102.65 195.56 1102.78 195.56C1102.94 195.56 1103.02 195.587 1103.02 195.64C1103.02 196.467 1103.01 197.107 1102.98 197.56C1102.98 198.013 1102.98 198.493 1102.98 199C1102.98 199.613 1102.99 200.227 1103.02 200.84C1103.07 201.453 1103.1 202.107 1103.1 202.8C1103.1 202.853 1103.02 202.88 1102.86 202.88C1102.7 202.88 1102.62 202.853 1102.62 202.8ZM1123.94 191.48C1123.94 192.547 1124.21 193.467 1124.74 194.24C1125.27 195.013 1125.97 195.707 1126.82 196.32C1127.67 196.907 1128.58 197.493 1129.54 198.08C1130.53 198.667 1131.47 199.293 1132.38 199.96C1133.31 200.627 1134.07 201.413 1134.66 202.32C1135.27 203.2 1135.58 204.28 1135.58 205.56C1135.58 206.867 1135.23 208.04 1134.54 209.08C1133.87 210.12 1132.91 210.947 1131.66 211.56C1130.43 212.173 1128.95 212.48 1127.22 212.48C1126.53 212.48 1125.82 212.413 1125.1 212.28C1124.41 212.173 1123.74 212.013 1123.1 211.8C1122.46 211.587 1121.87 211.32 1121.34 211C1121.23 210.92 1121.14 210.827 1121.06 210.72C1121.01 210.613 1120.98 210.453 1120.98 210.24L1120.58 204.52C1120.55 204.387 1120.61 204.32 1120.74 204.32C1120.9 204.293 1120.99 204.333 1121.02 204.44C1121.26 205.267 1121.58 206.107 1121.98 206.96C1122.38 207.813 1122.86 208.6 1123.42 209.32C1123.98 210.013 1124.65 210.587 1125.42 211.04C1126.22 211.493 1127.14 211.72 1128.18 211.72C1128.9 211.72 1129.59 211.587 1130.26 211.32C1130.95 211.053 1131.51 210.613 1131.94 210C1132.37 209.36 1132.58 208.48 1132.58 207.36C1132.58 206.08 1132.3 205 1131.74 204.12C1131.18 203.24 1130.46 202.48 1129.58 201.84C1128.7 201.2 1127.77 200.587 1126.78 200C1125.85 199.413 1124.94 198.8 1124.06 198.16C1123.21 197.52 1122.51 196.787 1121.98 195.96C1121.45 195.107 1121.18 194.08 1121.18 192.88C1121.18 191.44 1121.55 190.253 1122.3 189.32C1123.07 188.387 1124.05 187.693 1125.22 187.24C1126.42 186.787 1127.65 186.56 1128.9 186.56C1129.73 186.56 1130.57 186.64 1131.42 186.8C1132.27 186.96 1133.05 187.187 1133.74 187.48C1133.98 187.587 1134.14 187.707 1134.22 187.84C1134.3 187.947 1134.34 188.067 1134.34 188.2L1134.54 193.2C1134.54 193.28 1134.47 193.333 1134.34 193.36C1134.21 193.387 1134.11 193.347 1134.06 193.24C1133.98 192.787 1133.81 192.227 1133.54 191.56C1133.27 190.867 1132.91 190.2 1132.46 189.56C1132.01 188.893 1131.42 188.347 1130.7 187.92C1130.01 187.467 1129.15 187.24 1128.14 187.24C1127.21 187.24 1126.43 187.44 1125.82 187.84C1125.21 188.213 1124.74 188.72 1124.42 189.36C1124.1 189.973 1123.94 190.68 1123.94 191.48Z" fill="#0F1C2E"/>
<path d="M55.0425 164.662C68.9977 140.607 90.4089 127.04 117.404 122.178C155.75 115.272 189.968 124.954 220.123 148.879C225.346 153.023 230.102 157.644 234.611 162.514C235.385 163.351 236.419 164.045 236.478 165.788C228.868 166.206 221.413 166.866 214.363 163.389C212.353 162.397 211.331 160.433 209.957 158.83C196.076 142.639 179.04 131.235 157.807 126.47C142.721 123.084 127.556 123.137 112.76 127.825C90.0962 135.006 76.5359 150.688 70.6257 172.895C59.4714 214.807 84.6417 258.054 126.723 268.297C150.062 273.979 171.606 268.722 190.843 254.667C203.362 245.521 213.288 233.977 222.301 221.617C233.353 206.461 243.382 190.565 256.295 176.754C279.444 151.996 306.633 133.452 340.365 125.396C367.252 118.974 393.14 121.899 417.648 134.845C421.919 137.101 421.997 137.145 419.78 141.469C418.242 144.47 417.317 147.79 415.246 150.415C413.713 150.559 413.186 149.473 412.465 148.771C397.349 134.051 378.955 127.73 357.828 127.865C334.661 128.013 315.822 137.676 299.22 152.556C284.516 165.735 273.294 181.68 262.053 197.582C250.101 214.49 237.631 230.942 221.281 244.139C197.639 263.224 170.943 275.203 139.849 274.67C110.129 274.161 83.9567 264.431 64.0451 241.842C54.2444 230.724 48.9146 217.618 47.3524 202.95C45.9144 189.449 48.9562 176.923 55.0425 164.662Z" fill="#0F1C2E"/>
<path d="M306.361 251.895C324.635 268.562 346.436 275.407 370.679 275.217C386.222 275.096 400.859 271.72 412.877 261.029C415.713 258.506 417.945 255.456 420.55 252.764C426.368 257.746 426.379 263.692 420.707 268.177C414.257 273.276 406.537 275.587 398.6 276.916C362.749 282.919 328.64 278.225 297.217 259.591C283.199 251.279 272.11 240.051 265.984 224.698C263.66 218.873 263.164 212.862 263.223 206.7C263.248 204.155 264.817 204.242 266.55 204.185C273.85 203.941 281.163 203.869 288.449 203.397C322.245 201.206 355.988 198.511 389.292 192.089C392.889 191.396 396.433 190.44 400.321 189.531C400.7 194.006 399.594 197.992 399.033 202.015C398.126 208.528 397.112 215.026 396.184 221.537C395.992 222.879 395.922 224.235 394.027 224.102C392.119 223.968 392.265 222.506 392.219 221.222C392.177 220.047 392.222 218.869 392.181 217.693C391.99 212.175 389.827 209.356 384.477 207.507C379.543 205.803 374.335 205.498 369.245 205.333C352.239 204.784 335.242 205.685 318.246 206.296C308.555 206.645 298.862 207.029 289.167 207.2C286.255 207.251 285.094 208.105 285.296 211.082C286.083 222.751 290.904 232.844 297.635 242.211C300.127 245.679 302.998 248.841 306.361 251.895Z" fill="#0F1C2E"/>
<line x1="467.5" y1="279" x2="467.5" y2="124" stroke="#0F1C2E"/>
</svg>
