<svg width="32" height="32" viewBox="0 0 32 32" fill="none" xmlns="http://www.w3.org/2000/svg">
<rect width="32" height="32" fill="#EDEAE2"/>
<path d="M1.61422 13.4109C2.67999 11.5738 4.31518 10.5376 6.37682 10.1663C9.30533 9.63892 11.9186 10.3783 14.2216 12.2055C14.6205 12.522 14.9837 12.875 15.328 13.2469C15.3872 13.3108 15.4661 13.3638 15.4706 13.4969C14.8895 13.5288 14.3201 13.5792 13.7817 13.3136C13.6282 13.2379 13.5501 13.0879 13.4452 12.9655C12.3851 11.729 11.084 10.858 9.46247 10.4941C8.31029 10.2355 7.15218 10.2396 6.02219 10.5976C4.2913 11.146 3.25569 12.3437 2.80432 14.0397C1.95245 17.2406 3.87474 20.5433 7.08851 21.3256C8.87097 21.7596 10.5163 21.3581 11.9855 20.2847C12.9415 19.5862 13.6996 18.7045 14.3879 17.7606C15.232 16.6031 15.9979 15.3892 16.9841 14.3344C18.752 12.4436 20.8285 11.0274 23.4046 10.4121C25.458 9.92168 27.4351 10.1451 29.3068 11.1337C29.633 11.306 29.6404 11.3194 29.4711 11.6496C29.3536 11.8788 29.2815 12.1224 29.1233 12.3228C29.0063 12.3338 28.966 12.2509 28.9109 12.1973C27.7565 11.0731 26.3518 10.5903 24.7383 10.6007C22.969 10.612 21.5302 11.3499 20.2623 12.4863C19.1394 13.4928 18.2823 14.7106 17.4238 15.925C16.511 17.2163 15.5587 18.4728 14.3101 19.4807C12.5045 20.9382 10.4657 21.8531 8.09097 21.8124C5.82125 21.7735 3.82243 21.0304 2.30176 19.3052C1.55326 18.4561 1.14622 17.4552 1.02691 16.335C0.917091 15.3039 1.1494 14.3473 1.61422 13.4109Z" fill="#0F1C2E"/>
<path d="M20.9442 19.9508C22.3398 21.2237 24.0048 21.7464 25.8562 21.7319C27.0433 21.7226 28.1611 21.4649 29.0789 20.6483C29.2955 20.4556 29.466 20.2227 29.665 20.0172C30.1093 20.3976 30.1101 20.8518 29.6769 21.1943C29.1843 21.5837 28.5948 21.7601 27.9887 21.8616C25.2507 22.3201 22.6457 21.9617 20.2459 20.5386C19.1754 19.9037 18.3285 19.0463 17.8606 17.8737C17.6831 17.4289 17.6453 16.9698 17.6498 16.4992C17.6516 16.3049 17.7715 16.3115 17.9038 16.3071C18.4614 16.2885 19.0199 16.283 19.5763 16.2469C22.1573 16.0796 24.7343 15.8738 27.2778 15.3834C27.5525 15.3304 27.8301 15.2626 28.127 15.1932C28.156 15.535 28.0645 15.8342 28.0217 16.1414C27.9524 16.6388 27.875 17.1351 27.8041 17.6323C27.7895 17.7348 27.7841 17.8384 27.6394 17.8282C27.4937 17.818 27.5048 17.7063 27.5013 17.6083C27.4981 17.5185 27.5015 17.4285 27.4984 17.3388C27.4838 16.9173 27.3186 16.702 26.91 16.5608C26.5332 16.4307 26.1355 16.4074 25.7468 16.3948C24.448 16.3528 23.1499 16.4217 21.8519 16.4684C21.1118 16.495 20.3716 16.5244 19.6311 16.5374C19.4087 16.5413 19.3201 16.6065 19.3354 16.8339C19.3956 17.7251 19.7638 18.4958 20.2778 19.2112C20.4681 19.4761 20.6874 19.7175 20.9442 19.9508Z" fill="#0F1C2E"/>
</svg>
