<svg width="32" height="32" viewBox="0 0 32 32" fill="none" xmlns="http://www.w3.org/2000/svg">
<rect width="32" height="32" fill="#0F1C2E"/>
<path d="M1.61682 13.4253C2.6871 11.5804 4.32922 10.5399 6.39959 10.167C9.3405 9.63739 11.9648 10.3799 14.2776 12.2149C14.6782 12.5327 15.0429 12.8871 15.3887 13.2606C15.4481 13.3248 15.5274 13.378 15.5319 13.5117C14.9483 13.5437 14.3765 13.5943 13.8358 13.3276C13.6817 13.2516 13.6032 13.101 13.4979 12.978C12.4333 11.7363 11.1268 10.8617 9.4983 10.4962C8.34125 10.2365 7.17823 10.2406 6.04346 10.6002C4.30524 11.1509 3.26524 12.3536 2.81196 14.0568C1.95648 17.2712 3.88691 20.5879 7.11429 21.3735C8.90431 21.8093 10.5566 21.4061 12.032 20.3282C12.9921 19.6267 13.7533 18.7413 14.4446 17.7934C15.2922 16.631 16.0614 15.412 17.0518 14.3527C18.8272 12.4539 20.9125 11.0317 23.4995 10.4138C25.5616 9.92135 27.547 10.1457 29.4267 11.1385C29.7542 11.3116 29.7602 11.3149 29.5902 11.6466C29.4722 11.8767 29.4012 12.1313 29.2424 12.3326C29.1249 12.3437 29.0844 12.2604 29.0291 12.2066C27.8698 11.0777 26.4592 10.5928 24.8388 10.6032C23.062 10.6146 21.6172 11.3556 20.3439 12.4968C19.2162 13.5076 18.3555 14.7305 17.4934 15.9501C16.5767 17.2469 15.6203 18.5086 14.3664 19.5208C12.5532 20.9844 10.5058 21.9032 8.121 21.8623C5.84166 21.8233 3.83438 21.077 2.30727 19.3446C1.5556 18.4919 1.14684 17.4868 1.02702 16.3618C0.91674 15.3263 1.15003 14.3656 1.61682 13.4253Z" fill="#EDEAE2"/>
<path d="M20.906 20.1156C22.3075 21.3939 23.9795 21.9188 25.8388 21.9042C27.0309 21.8949 28.1534 21.6361 29.0751 20.8161C29.2926 20.6226 29.4638 20.3887 29.6636 20.1822C30.1098 20.5643 30.1107 21.0204 29.6756 21.3643C29.181 21.7554 28.5889 21.9326 27.9802 22.0345C25.2306 22.4949 22.6146 22.135 20.2046 20.7059C19.1296 20.0683 18.2791 19.2073 17.8093 18.0297C17.631 17.583 17.593 17.1219 17.5975 16.6494C17.5994 16.4542 17.7198 16.4609 17.8526 16.4565C18.4126 16.4378 18.9734 16.4323 19.5322 16.3961C22.1241 16.228 24.7121 16.0213 27.2663 15.5288C27.5421 15.4757 27.814 15.4023 28.1122 15.3326C28.1412 15.6759 28.0564 15.9816 28.0134 16.2901C27.9438 16.7896 27.866 17.288 27.7949 17.7873C27.7802 17.8902 27.7748 17.9942 27.6294 17.984C27.4831 17.9738 27.4943 17.8616 27.4908 17.7632C27.4876 17.673 27.491 17.5826 27.4879 17.4925C27.4732 17.0693 27.3073 16.8531 26.897 16.7113C26.5186 16.5806 26.1192 16.5572 25.7288 16.5446C24.4245 16.5024 23.1209 16.5715 21.8175 16.6184C21.0742 16.6452 20.3308 16.6747 19.5872 16.6877C19.3639 16.6916 19.2749 16.7571 19.2903 16.9855C19.3508 17.8804 19.7205 18.6545 20.2367 19.3729C20.4278 19.6389 20.648 19.8813 20.906 20.1156Z" fill="#EDEAE2"/>
</svg>
