<svg width="500" height="500" viewBox="0 0 500 500" fill="none" xmlns="http://www.w3.org/2000/svg">
<rect width="500" height="500" fill="#0F1C2E"/>
<path d="M43.7633 291.874C44.5613 291.874 45.2643 291.912 45.8723 291.988C46.4993 292.064 47.0788 292.187 47.6108 292.358C48.1428 292.51 48.6843 292.729 49.2353 293.014C49.3683 293.09 49.4443 293.156 49.4633 293.213C49.5013 293.251 49.5298 293.394 49.5488 293.641L49.8908 297.032C49.8908 297.07 49.8433 297.108 49.7483 297.146C49.6533 297.165 49.5868 297.137 49.5488 297.061C49.1118 295.484 48.4088 294.296 47.4398 293.498C46.4898 292.7 45.2358 292.301 43.6778 292.301C42.0628 292.301 40.6473 292.653 39.4313 293.356C38.2343 294.059 37.2938 295.056 36.6098 296.348C35.9448 297.64 35.6123 299.16 35.6123 300.908C35.6123 302.162 35.8213 303.34 36.2393 304.442C36.6763 305.525 37.2748 306.485 38.0348 307.321C38.7948 308.138 39.6593 308.774 40.6283 309.23C41.6163 309.686 42.6613 309.914 43.7633 309.914C45.3403 309.914 46.6133 309.534 47.5823 308.774C48.5513 307.995 49.2828 306.836 49.7768 305.297C49.7958 305.24 49.8528 305.221 49.9478 305.24C50.0618 305.259 50.1188 305.288 50.1188 305.326L49.8338 308.461C49.8148 308.689 49.7863 308.831 49.7483 308.888C49.7103 308.945 49.6343 309.012 49.5203 309.088C48.5323 309.582 47.6013 309.914 46.7273 310.086C45.8533 310.276 44.8653 310.371 43.7633 310.371C41.7493 310.371 39.9633 309.981 38.4053 309.202C36.8663 308.404 35.6503 307.302 34.7573 305.896C33.8833 304.471 33.4463 302.827 33.4463 300.965C33.4463 299.597 33.7028 298.362 34.2158 297.26C34.7288 296.139 35.4508 295.18 36.3818 294.382C37.3128 293.584 38.4053 292.966 39.6593 292.529C40.9133 292.092 42.2813 291.874 43.7633 291.874ZM74.7289 295.58C74.7289 294.665 74.5236 293.984 74.1129 293.536C73.7209 293.069 73.1142 292.836 72.2929 292.836C72.2369 292.836 72.2089 292.78 72.2089 292.668C72.2089 292.556 72.2369 292.5 72.2929 292.5C72.7222 292.5 73.1609 292.519 73.6089 292.556C74.0569 292.575 74.5516 292.584 75.0929 292.584C75.5222 292.584 75.9609 292.575 76.4089 292.556C76.8569 292.519 77.2676 292.5 77.6409 292.5C77.6782 292.5 77.6969 292.556 77.6969 292.668C77.6969 292.78 77.6782 292.836 77.6409 292.836C76.8942 292.836 76.3342 293.069 75.9609 293.536C75.5876 293.984 75.4009 294.665 75.4009 295.58V303.532C75.4009 304.969 75.1209 306.201 74.5609 307.228C74.0196 308.236 73.2542 309.011 72.2649 309.552C71.2756 310.093 70.1182 310.364 68.7929 310.364C67.4116 310.364 66.1982 310.093 65.1529 309.552C64.1262 309.011 63.3236 308.245 62.7449 307.256C62.1849 306.248 61.9049 305.072 61.9049 303.728V294.768C61.9049 294.227 61.8489 293.825 61.7369 293.564C61.6249 293.284 61.3916 293.097 61.0369 293.004C60.7009 292.892 60.1969 292.836 59.5249 292.836C59.4876 292.836 59.4689 292.78 59.4689 292.668C59.4689 292.556 59.4876 292.5 59.5249 292.5C59.9729 292.5 60.4676 292.519 61.0089 292.556C61.5689 292.575 62.1662 292.584 62.8009 292.584C63.4542 292.584 64.0609 292.575 64.6209 292.556C65.1809 292.519 65.6662 292.5 66.0769 292.5C66.1329 292.5 66.1609 292.556 66.1609 292.668C66.1609 292.78 66.1329 292.836 66.0769 292.836C65.4049 292.836 64.9009 292.892 64.5649 293.004C64.2289 293.116 64.0049 293.312 63.8929 293.592C63.7809 293.872 63.7249 294.283 63.7249 294.824V302.748C63.7249 304.969 64.2196 306.659 65.2089 307.816C66.2169 308.955 67.6169 309.524 69.4089 309.524C71.0889 309.524 72.3956 309.001 73.3289 307.956C74.2622 306.892 74.7289 305.427 74.7289 303.56V295.58ZM100.776 310C100.458 310 99.945 309.645 99.2357 308.936C98.545 308.208 97.6957 307.172 96.6877 305.828C95.6983 304.465 94.5877 302.86 93.3557 301.012L94.9237 300.536C96.5103 302.795 97.8543 304.596 98.9557 305.94C100.076 307.265 101.056 308.217 101.896 308.796C102.754 309.375 103.576 309.664 104.36 309.664C104.416 309.664 104.444 309.72 104.444 309.832C104.444 309.944 104.416 310 104.36 310C103.426 310 102.661 310 102.064 310C101.485 310 101.056 310 100.776 310ZM93.7197 292.416C95.213 292.416 96.3517 292.761 97.1357 293.452C97.9383 294.124 98.3397 295.011 98.3397 296.112C98.3397 297.12 98.041 298.035 97.4437 298.856C96.865 299.659 96.0903 300.293 95.1197 300.76C94.1677 301.227 93.1223 301.46 91.9837 301.46C91.797 301.46 91.5823 301.451 91.3397 301.432C91.1157 301.413 90.9103 301.395 90.7237 301.376V307.732C90.7237 308.273 90.7703 308.684 90.8637 308.964C90.9757 309.244 91.1997 309.431 91.5357 309.524C91.8903 309.617 92.413 309.664 93.1037 309.664C93.1597 309.664 93.1877 309.72 93.1877 309.832C93.1877 309.944 93.1597 310 93.1037 310C92.6557 310 92.1517 309.991 91.5917 309.972C91.0503 309.953 90.453 309.944 89.7997 309.944C89.1837 309.944 88.5863 309.953 88.0077 309.972C87.4477 309.991 86.9343 310 86.4677 310C86.4303 310 86.4117 309.944 86.4117 309.832C86.4117 309.72 86.4303 309.664 86.4677 309.664C87.1583 309.664 87.6717 309.617 88.0077 309.524C88.3623 309.431 88.605 309.244 88.7357 308.964C88.8663 308.684 88.9317 308.273 88.9317 307.732V294.768C88.9317 294.227 88.8663 293.825 88.7357 293.564C88.6237 293.284 88.3997 293.097 88.0637 293.004C87.7277 292.892 87.2143 292.836 86.5237 292.836C86.4677 292.836 86.4397 292.78 86.4397 292.668C86.4397 292.556 86.4677 292.5 86.5237 292.5C86.9717 292.5 87.4757 292.519 88.0357 292.556C88.5957 292.575 89.1837 292.584 89.7997 292.584C90.3783 292.584 91.041 292.556 91.7877 292.5C92.553 292.444 93.197 292.416 93.7197 292.416ZM96.4357 296.924C96.4357 295.897 96.277 295.085 95.9597 294.488C95.661 293.891 95.2317 293.471 94.6717 293.228C94.1117 292.967 93.4397 292.836 92.6557 292.836C91.965 292.836 91.4703 292.957 91.1717 293.2C90.873 293.443 90.7237 293.984 90.7237 294.824V300.704C90.985 300.741 91.265 300.769 91.5637 300.788C91.8623 300.807 92.133 300.816 92.3757 300.816C93.8877 300.816 94.9423 300.489 95.5397 299.836C96.137 299.164 96.4357 298.193 96.4357 296.924ZM116.536 302.3L116.816 301.74H124.236L124.432 302.3H116.536ZM130.676 309.664C130.75 309.664 130.788 309.72 130.788 309.832C130.788 309.944 130.75 310 130.676 310C130.134 310 129.584 309.981 129.024 309.944C128.464 309.907 127.922 309.888 127.4 309.888C126.821 309.888 126.317 309.907 125.888 309.944C125.458 309.981 124.982 310 124.46 310C124.385 310 124.348 309.944 124.348 309.832C124.348 309.72 124.385 309.664 124.46 309.664C125.449 309.664 126.065 309.524 126.308 309.244C126.55 308.945 126.485 308.395 126.112 307.592L119.896 294.46L120.596 293.592L115.164 306.444C114.697 307.583 114.669 308.404 115.08 308.908C115.49 309.412 116.302 309.664 117.516 309.664C117.609 309.664 117.656 309.72 117.656 309.832C117.656 309.944 117.609 310 117.516 310C116.956 310 116.442 309.981 115.976 309.944C115.509 309.907 114.921 309.888 114.212 309.888C113.54 309.888 112.998 309.907 112.588 309.944C112.196 309.981 111.71 310 111.132 310C111.057 310 111.02 309.944 111.02 309.832C111.02 309.72 111.057 309.664 111.132 309.664C111.636 309.664 112.074 309.571 112.448 309.384C112.821 309.179 113.166 308.833 113.484 308.348C113.82 307.844 114.184 307.125 114.576 306.192L120.484 292.248C120.521 292.192 120.586 292.164 120.68 292.164C120.773 292.164 120.829 292.192 120.848 292.248L127.456 306.164C127.885 307.079 128.268 307.797 128.604 308.32C128.94 308.824 129.266 309.179 129.584 309.384C129.92 309.571 130.284 309.664 130.676 309.664ZM141.059 293.004C139.902 293.004 139.024 293.303 138.427 293.9C137.848 294.497 137.428 295.515 137.167 296.952C137.167 296.989 137.111 297.008 136.999 297.008C136.906 297.008 136.859 296.989 136.859 296.952C136.896 296.709 136.934 296.373 136.971 295.944C137.008 295.496 137.046 295.02 137.083 294.516C137.139 294.012 137.176 293.527 137.195 293.06C137.232 292.575 137.251 292.183 137.251 291.884C137.251 291.791 137.298 291.744 137.391 291.744C137.503 291.744 137.559 291.791 137.559 291.884C137.559 292.071 137.652 292.211 137.839 292.304C138.026 292.379 138.231 292.435 138.455 292.472C138.698 292.491 138.903 292.5 139.071 292.5C140.676 292.556 142.552 292.584 144.699 292.584C146.024 292.584 147.07 292.575 147.835 292.556C148.619 292.519 149.375 292.5 150.103 292.5C150.738 292.5 151.223 292.463 151.559 292.388C151.914 292.295 152.138 292.099 152.231 291.8C152.25 291.725 152.306 291.688 152.399 291.688C152.492 291.688 152.539 291.725 152.539 291.8C152.52 292.08 152.492 292.463 152.455 292.948C152.418 293.433 152.39 293.937 152.371 294.46C152.352 294.983 152.334 295.468 152.315 295.916C152.296 296.364 152.287 296.709 152.287 296.952C152.287 296.989 152.231 297.008 152.119 297.008C152.007 297.008 151.951 296.989 151.951 296.952C151.895 295.496 151.596 294.479 151.055 293.9C150.514 293.303 149.618 293.004 148.367 293.004C147.583 293.004 146.995 293.041 146.603 293.116C146.211 293.191 145.95 293.359 145.819 293.62C145.707 293.863 145.651 294.264 145.651 294.824V307.732C145.651 308.273 145.716 308.684 145.847 308.964C145.978 309.244 146.23 309.431 146.603 309.524C146.995 309.617 147.583 309.664 148.367 309.664C148.423 309.664 148.451 309.72 148.451 309.832C148.451 309.944 148.423 310 148.367 310C147.882 310 147.331 309.991 146.715 309.972C146.099 309.953 145.427 309.944 144.699 309.944C144.008 309.944 143.355 309.953 142.739 309.972C142.123 309.991 141.563 310 141.059 310C141.022 310 141.003 309.944 141.003 309.832C141.003 309.72 141.022 309.664 141.059 309.664C141.824 309.664 142.403 309.617 142.795 309.524C143.206 309.431 143.476 309.244 143.607 308.964C143.738 308.684 143.803 308.273 143.803 307.732V294.768C143.803 294.208 143.738 293.807 143.607 293.564C143.476 293.303 143.215 293.144 142.823 293.088C142.431 293.032 141.843 293.004 141.059 293.004ZM173.477 310H161.745C161.708 310 161.689 309.944 161.689 309.832C161.689 309.72 161.708 309.664 161.745 309.664C162.436 309.664 162.949 309.617 163.285 309.524C163.621 309.431 163.845 309.244 163.957 308.964C164.088 308.684 164.153 308.273 164.153 307.732V294.768C164.153 294.227 164.088 293.825 163.957 293.564C163.845 293.284 163.621 293.097 163.285 293.004C162.949 292.892 162.436 292.836 161.745 292.836C161.708 292.836 161.689 292.78 161.689 292.668C161.689 292.556 161.708 292.5 161.745 292.5H173.001C173.169 292.5 173.253 292.584 173.253 292.752L173.309 296.196C173.309 296.252 173.253 296.289 173.141 296.308C173.048 296.308 173.001 296.28 173.001 296.224C172.945 295.216 172.637 294.441 172.077 293.9C171.536 293.359 170.826 293.088 169.949 293.088H168.241C167.606 293.088 167.121 293.135 166.785 293.228C166.468 293.321 166.244 293.499 166.113 293.76C166.001 294.021 165.945 294.404 165.945 294.908V307.62C165.945 308.105 166.001 308.479 166.113 308.74C166.244 309.001 166.458 309.179 166.757 309.272C167.074 309.365 167.541 309.412 168.157 309.412H170.397C171.293 309.412 172.04 309.095 172.637 308.46C173.253 307.807 173.654 306.929 173.841 305.828C173.841 305.772 173.897 305.753 174.009 305.772C174.121 305.791 174.177 305.828 174.177 305.884C174.102 306.369 174.037 306.957 173.981 307.648C173.944 308.339 173.925 308.983 173.925 309.58C173.925 309.86 173.776 310 173.477 310ZM171.909 303.476C171.909 302.655 171.704 302.067 171.293 301.712C170.901 301.357 170.238 301.18 169.305 301.18H165.105V300.592H169.389C170.285 300.592 170.92 300.443 171.293 300.144C171.685 299.827 171.881 299.323 171.881 298.632C171.881 298.595 171.937 298.576 172.049 298.576C172.161 298.576 172.217 298.595 172.217 298.632C172.217 299.192 172.208 299.631 172.189 299.948C172.189 300.247 172.189 300.564 172.189 300.9C172.189 301.329 172.198 301.749 172.217 302.16C172.236 302.571 172.245 303.009 172.245 303.476C172.245 303.513 172.189 303.532 172.077 303.532C171.965 303.532 171.909 303.513 171.909 303.476ZM191.064 310.112C190.523 310.112 189.851 310.084 189.048 310.028C188.264 309.972 187.536 309.944 186.864 309.944C186.248 309.944 185.651 309.953 185.072 309.972C184.512 309.991 184.008 310 183.56 310C183.523 310 183.504 309.944 183.504 309.832C183.504 309.72 183.523 309.664 183.56 309.664C184.232 309.664 184.745 309.617 185.1 309.524C185.455 309.431 185.688 309.244 185.8 308.964C185.912 308.684 185.968 308.273 185.968 307.732V294.768C185.968 294.227 185.912 293.825 185.8 293.564C185.688 293.284 185.455 293.097 185.1 293.004C184.764 292.892 184.26 292.836 183.588 292.836C183.551 292.836 183.532 292.78 183.532 292.668C183.532 292.556 183.551 292.5 183.588 292.5C184.036 292.5 184.54 292.519 185.1 292.556C185.66 292.575 186.248 292.584 186.864 292.584C187.48 292.584 188.143 292.565 188.852 292.528C189.561 292.472 190.168 292.444 190.672 292.444C192.651 292.444 194.377 292.817 195.852 293.564C197.345 294.311 198.503 295.328 199.324 296.616C200.145 297.904 200.556 299.351 200.556 300.956C200.556 302.356 200.304 303.625 199.8 304.764C199.315 305.884 198.624 306.845 197.728 307.648C196.851 308.432 195.833 309.039 194.676 309.468C193.537 309.897 192.333 310.112 191.064 310.112ZM190.784 309.692C192.277 309.692 193.593 309.384 194.732 308.768C195.871 308.133 196.767 307.209 197.42 305.996C198.092 304.783 198.428 303.308 198.428 301.572C198.428 299.948 198.12 298.483 197.504 297.176C196.888 295.851 196.02 294.805 194.9 294.04C193.799 293.256 192.473 292.864 190.924 292.864C189.804 292.864 189.001 292.976 188.516 293.2C188.031 293.424 187.788 293.965 187.788 294.824V307.424C187.788 308.208 187.975 308.787 188.348 309.16C188.74 309.515 189.552 309.692 190.784 309.692ZM235.669 310H223.727C223.689 310 223.67 309.943 223.67 309.829C223.67 309.715 223.689 309.658 223.727 309.658C224.43 309.658 224.953 309.61 225.295 309.515C225.637 309.42 225.865 309.23 225.979 308.945C226.112 308.66 226.178 308.242 226.178 307.691V294.496C226.178 293.945 226.112 293.536 225.979 293.27C225.865 292.985 225.637 292.795 225.295 292.7C224.953 292.586 224.43 292.529 223.727 292.529C223.689 292.529 223.67 292.472 223.67 292.358C223.67 292.244 223.689 292.188 223.727 292.188H235.184C235.355 292.188 235.441 292.273 235.441 292.444L235.498 295.949C235.498 296.006 235.441 296.044 235.327 296.063C235.232 296.063 235.184 296.035 235.184 295.978C235.127 294.952 234.814 294.163 234.244 293.612C233.693 293.061 232.971 292.786 232.078 292.786H230.339C229.693 292.786 229.199 292.833 228.857 292.928C228.534 293.023 228.306 293.204 228.173 293.47C228.059 293.736 228.002 294.125 228.002 294.638V307.577C228.002 308.071 228.059 308.451 228.173 308.717C228.306 308.983 228.525 309.164 228.829 309.259C229.152 309.354 229.627 309.401 230.254 309.401H232.534C233.446 309.401 234.206 309.078 234.814 308.432C235.441 307.767 235.849 306.874 236.039 305.753C236.039 305.696 236.096 305.677 236.21 305.696C236.324 305.715 236.381 305.753 236.381 305.811C236.305 306.304 236.239 306.903 236.182 307.606C236.144 308.309 236.125 308.964 236.125 309.572C236.125 309.857 235.973 310 235.669 310ZM234.073 303.359C234.073 302.523 233.864 301.925 233.446 301.564C233.047 301.203 232.372 301.022 231.422 301.022H227.147V300.424H231.508C232.42 300.424 233.066 300.272 233.446 299.968C233.845 299.645 234.044 299.132 234.044 298.429C234.044 298.391 234.101 298.372 234.215 298.372C234.329 298.372 234.386 298.391 234.386 298.429C234.386 298.999 234.377 299.445 234.358 299.768C234.358 300.072 234.358 300.395 234.358 300.737C234.358 301.174 234.367 301.602 234.386 302.02C234.405 302.438 234.415 302.884 234.415 303.359C234.415 303.397 234.358 303.416 234.244 303.416C234.13 303.416 234.073 303.397 234.073 303.359ZM256.499 310C256.461 310 256.443 309.944 256.443 309.832C256.443 309.72 256.461 309.664 256.499 309.664C257.171 309.664 257.6 309.589 257.787 309.44C257.992 309.272 257.955 308.983 257.675 308.572L248.659 294.88C248.173 294.133 247.688 293.611 247.203 293.312C246.717 292.995 246.157 292.836 245.523 292.836C245.485 292.836 245.467 292.78 245.467 292.668C245.467 292.556 245.485 292.5 245.523 292.5C245.859 292.5 246.213 292.519 246.587 292.556C246.96 292.575 247.315 292.584 247.651 292.584C248.416 292.584 249.116 292.575 249.751 292.556C250.385 292.519 250.936 292.5 251.403 292.5C251.459 292.5 251.487 292.556 251.487 292.668C251.487 292.78 251.459 292.836 251.403 292.836C250.731 292.836 250.292 292.92 250.087 293.088C249.9 293.237 249.947 293.527 250.227 293.956L259.299 307.676C259.784 308.404 260.279 308.917 260.783 309.216C261.305 309.515 261.949 309.664 262.715 309.664C262.752 309.664 262.771 309.72 262.771 309.832C262.771 309.944 262.752 310 262.715 310C262.341 310 261.921 309.991 261.455 309.972C261.007 309.953 260.531 309.944 260.027 309.944C259.28 309.944 258.627 309.953 258.067 309.972C257.507 309.991 256.984 310 256.499 310ZM245.411 310C245.355 310 245.327 309.944 245.327 309.832C245.327 309.72 245.355 309.664 245.411 309.664C246.027 309.664 246.661 309.459 247.315 309.048C247.968 308.619 248.603 307.975 249.219 307.116L253.447 301.32L253.783 301.628L249.835 307.144C249.275 307.947 249.079 308.572 249.247 309.02C249.415 309.449 249.947 309.664 250.843 309.664C250.899 309.664 250.927 309.72 250.927 309.832C250.927 309.944 250.899 310 250.843 310C250.339 310 249.863 309.991 249.415 309.972C248.967 309.953 248.369 309.944 247.623 309.944C247.156 309.944 246.773 309.953 246.475 309.972C246.195 309.991 245.84 310 245.411 310ZM254.231 301.18L253.867 300.9L257.647 295.552C258.281 294.675 258.524 294.003 258.375 293.536C258.225 293.069 257.712 292.836 256.835 292.836C256.779 292.836 256.751 292.78 256.751 292.668C256.751 292.556 256.779 292.5 256.835 292.5C257.32 292.5 257.787 292.519 258.235 292.556C258.701 292.575 259.299 292.584 260.027 292.584C260.512 292.584 260.895 292.575 261.175 292.556C261.473 292.519 261.828 292.5 262.239 292.5C262.295 292.5 262.323 292.556 262.323 292.668C262.323 292.78 262.295 292.836 262.239 292.836C261.623 292.836 260.979 293.069 260.307 293.536C259.635 294.003 258.963 294.693 258.291 295.608L254.231 301.18ZM275.576 307.62C275.576 308.18 275.651 308.609 275.8 308.908C275.95 309.188 276.267 309.384 276.752 309.496C277.238 309.608 277.956 309.664 278.908 309.664C278.964 309.664 278.992 309.72 278.992 309.832C278.992 309.944 278.964 310 278.908 310C278.311 310 277.658 309.991 276.948 309.972C276.258 309.953 275.502 309.944 274.68 309.944C274.064 309.944 273.467 309.953 272.888 309.972C272.328 309.991 271.824 310 271.376 310C271.339 310 271.32 309.944 271.32 309.832C271.32 309.72 271.339 309.664 271.376 309.664C272.067 309.664 272.58 309.617 272.916 309.524C273.252 309.431 273.476 309.244 273.588 308.964C273.7 308.684 273.756 308.273 273.756 307.732V294.768C273.756 294.227 273.7 293.825 273.588 293.564C273.476 293.284 273.252 293.097 272.916 293.004C272.58 292.892 272.067 292.836 271.376 292.836C271.339 292.836 271.32 292.78 271.32 292.668C271.32 292.556 271.339 292.5 271.376 292.5C271.824 292.5 272.328 292.519 272.888 292.556C273.448 292.575 274.036 292.584 274.652 292.584C275.138 292.584 275.726 292.556 276.416 292.5C277.126 292.444 277.835 292.416 278.544 292.416C279.608 292.416 280.56 292.575 281.4 292.892C282.259 293.209 282.94 293.704 283.444 294.376C283.948 295.048 284.21 295.925 284.228 297.008C284.228 297.997 284.042 298.847 283.668 299.556C283.314 300.265 282.828 300.853 282.212 301.32C281.615 301.768 280.952 302.104 280.224 302.328C279.496 302.552 278.768 302.664 278.04 302.664C277.816 302.664 277.583 302.655 277.34 302.636C277.116 302.617 276.902 302.58 276.696 302.524C276.622 302.505 276.594 302.44 276.612 302.328C276.65 302.197 276.696 302.141 276.752 302.16C276.92 302.197 277.088 302.225 277.256 302.244C277.443 302.263 277.611 302.272 277.76 302.272C278.526 302.272 279.244 302.104 279.916 301.768C280.588 301.432 281.13 300.919 281.54 300.228C281.951 299.519 282.156 298.641 282.156 297.596C282.156 296.569 281.97 295.711 281.596 295.02C281.223 294.311 280.71 293.769 280.056 293.396C279.403 293.023 278.675 292.836 277.872 292.836C277.256 292.836 276.78 292.873 276.444 292.948C276.127 293.004 275.903 293.172 275.772 293.452C275.642 293.732 275.576 294.189 275.576 294.824V307.62ZM305.339 310H293.607C293.57 310 293.551 309.944 293.551 309.832C293.551 309.72 293.57 309.664 293.607 309.664C294.298 309.664 294.811 309.617 295.147 309.524C295.483 309.431 295.707 309.244 295.819 308.964C295.95 308.684 296.015 308.273 296.015 307.732V294.768C296.015 294.227 295.95 293.825 295.819 293.564C295.707 293.284 295.483 293.097 295.147 293.004C294.811 292.892 294.298 292.836 293.607 292.836C293.57 292.836 293.551 292.78 293.551 292.668C293.551 292.556 293.57 292.5 293.607 292.5H304.863C305.031 292.5 305.115 292.584 305.115 292.752L305.171 296.196C305.171 296.252 305.115 296.289 305.003 296.308C304.91 296.308 304.863 296.28 304.863 296.224C304.807 295.216 304.499 294.441 303.939 293.9C303.398 293.359 302.689 293.088 301.811 293.088H300.103C299.469 293.088 298.983 293.135 298.647 293.228C298.33 293.321 298.106 293.499 297.975 293.76C297.863 294.021 297.807 294.404 297.807 294.908V307.62C297.807 308.105 297.863 308.479 297.975 308.74C298.106 309.001 298.321 309.179 298.619 309.272C298.937 309.365 299.403 309.412 300.019 309.412H302.259C303.155 309.412 303.902 309.095 304.499 308.46C305.115 307.807 305.517 306.929 305.703 305.828C305.703 305.772 305.759 305.753 305.871 305.772C305.983 305.791 306.039 305.828 306.039 305.884C305.965 306.369 305.899 306.957 305.843 307.648C305.806 308.339 305.787 308.983 305.787 309.58C305.787 309.86 305.638 310 305.339 310ZM303.771 303.476C303.771 302.655 303.566 302.067 303.155 301.712C302.763 301.357 302.101 301.18 301.167 301.18H296.967V300.592H301.251C302.147 300.592 302.782 300.443 303.155 300.144C303.547 299.827 303.743 299.323 303.743 298.632C303.743 298.595 303.799 298.576 303.911 298.576C304.023 298.576 304.079 298.595 304.079 298.632C304.079 299.192 304.07 299.631 304.051 299.948C304.051 300.247 304.051 300.564 304.051 300.9C304.051 301.329 304.061 301.749 304.079 302.16C304.098 302.571 304.107 303.009 304.107 303.476C304.107 303.513 304.051 303.532 303.939 303.532C303.827 303.532 303.771 303.513 303.771 303.476ZM329.954 310C329.637 310 329.124 309.645 328.414 308.936C327.724 308.208 326.874 307.172 325.866 305.828C324.877 304.465 323.766 302.86 322.534 301.012L324.102 300.536C325.689 302.795 327.033 304.596 328.134 305.94C329.254 307.265 330.234 308.217 331.074 308.796C331.933 309.375 332.754 309.664 333.538 309.664C333.594 309.664 333.622 309.72 333.622 309.832C333.622 309.944 333.594 310 333.538 310C332.605 310 331.84 310 331.242 310C330.664 310 330.234 310 329.954 310ZM322.898 292.416C324.392 292.416 325.53 292.761 326.314 293.452C327.117 294.124 327.518 295.011 327.518 296.112C327.518 297.12 327.22 298.035 326.622 298.856C326.044 299.659 325.269 300.293 324.298 300.76C323.346 301.227 322.301 301.46 321.162 301.46C320.976 301.46 320.761 301.451 320.518 301.432C320.294 301.413 320.089 301.395 319.902 301.376V307.732C319.902 308.273 319.949 308.684 320.042 308.964C320.154 309.244 320.378 309.431 320.714 309.524C321.069 309.617 321.592 309.664 322.282 309.664C322.338 309.664 322.366 309.72 322.366 309.832C322.366 309.944 322.338 310 322.282 310C321.834 310 321.33 309.991 320.77 309.972C320.229 309.953 319.632 309.944 318.978 309.944C318.362 309.944 317.765 309.953 317.186 309.972C316.626 309.991 316.113 310 315.646 310C315.609 310 315.59 309.944 315.59 309.832C315.59 309.72 315.609 309.664 315.646 309.664C316.337 309.664 316.85 309.617 317.186 309.524C317.541 309.431 317.784 309.244 317.914 308.964C318.045 308.684 318.11 308.273 318.11 307.732V294.768C318.11 294.227 318.045 293.825 317.914 293.564C317.802 293.284 317.578 293.097 317.242 293.004C316.906 292.892 316.393 292.836 315.702 292.836C315.646 292.836 315.618 292.78 315.618 292.668C315.618 292.556 315.646 292.5 315.702 292.5C316.15 292.5 316.654 292.519 317.214 292.556C317.774 292.575 318.362 292.584 318.978 292.584C319.557 292.584 320.22 292.556 320.966 292.5C321.732 292.444 322.376 292.416 322.898 292.416ZM325.614 296.924C325.614 295.897 325.456 295.085 325.138 294.488C324.84 293.891 324.41 293.471 323.85 293.228C323.29 292.967 322.618 292.836 321.834 292.836C321.144 292.836 320.649 292.957 320.35 293.2C320.052 293.443 319.902 293.984 319.902 294.824V300.704C320.164 300.741 320.444 300.769 320.742 300.788C321.041 300.807 321.312 300.816 321.554 300.816C323.066 300.816 324.121 300.489 324.718 299.836C325.316 299.164 325.614 298.193 325.614 296.924ZM345.854 307.732C345.854 308.273 345.91 308.684 346.022 308.964C346.134 309.244 346.358 309.431 346.694 309.524C347.049 309.617 347.562 309.664 348.234 309.664C348.29 309.664 348.318 309.72 348.318 309.832C348.318 309.944 348.29 310 348.234 310C347.786 310 347.282 309.991 346.722 309.972C346.181 309.953 345.574 309.944 344.902 309.944C344.286 309.944 343.689 309.953 343.11 309.972C342.55 309.991 342.046 310 341.598 310C341.542 310 341.514 309.944 341.514 309.832C341.514 309.72 341.542 309.664 341.598 309.664C342.27 309.664 342.784 309.617 343.138 309.524C343.493 309.431 343.726 309.244 343.838 308.964C343.95 308.684 344.006 308.273 344.006 307.732V294.768C344.006 294.227 343.95 293.825 343.838 293.564C343.726 293.284 343.493 293.097 343.138 293.004C342.784 292.892 342.27 292.836 341.598 292.836C341.542 292.836 341.514 292.78 341.514 292.668C341.514 292.556 341.542 292.5 341.598 292.5C342.046 292.5 342.55 292.519 343.11 292.556C343.689 292.575 344.286 292.584 344.902 292.584C345.574 292.584 346.19 292.575 346.75 292.556C347.31 292.519 347.805 292.5 348.234 292.5C348.29 292.5 348.318 292.556 348.318 292.668C348.318 292.78 348.29 292.836 348.234 292.836C347.562 292.836 347.049 292.892 346.694 293.004C346.358 293.116 346.134 293.312 346.022 293.592C345.91 293.872 345.854 294.283 345.854 294.824V307.732ZM369.515 310H357.783C357.746 310 357.727 309.944 357.727 309.832C357.727 309.72 357.746 309.664 357.783 309.664C358.474 309.664 358.987 309.617 359.323 309.524C359.659 309.431 359.883 309.244 359.995 308.964C360.126 308.684 360.191 308.273 360.191 307.732V294.768C360.191 294.227 360.126 293.825 359.995 293.564C359.883 293.284 359.659 293.097 359.323 293.004C358.987 292.892 358.474 292.836 357.783 292.836C357.746 292.836 357.727 292.78 357.727 292.668C357.727 292.556 357.746 292.5 357.783 292.5H369.039C369.207 292.5 369.291 292.584 369.291 292.752L369.347 296.196C369.347 296.252 369.291 296.289 369.179 296.308C369.086 296.308 369.039 296.28 369.039 296.224C368.983 295.216 368.675 294.441 368.115 293.9C367.574 293.359 366.864 293.088 365.987 293.088H364.279C363.644 293.088 363.159 293.135 362.823 293.228C362.506 293.321 362.282 293.499 362.151 293.76C362.039 294.021 361.983 294.404 361.983 294.908V307.62C361.983 308.105 362.039 308.479 362.151 308.74C362.282 309.001 362.496 309.179 362.795 309.272C363.112 309.365 363.579 309.412 364.195 309.412H366.435C367.331 309.412 368.078 309.095 368.675 308.46C369.291 307.807 369.692 306.929 369.879 305.828C369.879 305.772 369.935 305.753 370.047 305.772C370.159 305.791 370.215 305.828 370.215 305.884C370.14 306.369 370.075 306.957 370.019 307.648C369.982 308.339 369.963 308.983 369.963 309.58C369.963 309.86 369.814 310 369.515 310ZM367.947 303.476C367.947 302.655 367.742 302.067 367.331 301.712C366.939 301.357 366.276 301.18 365.343 301.18H361.143V300.592H365.427C366.323 300.592 366.958 300.443 367.331 300.144C367.723 299.827 367.919 299.323 367.919 298.632C367.919 298.595 367.975 298.576 368.087 298.576C368.199 298.576 368.255 298.595 368.255 298.632C368.255 299.192 368.246 299.631 368.227 299.948C368.227 300.247 368.227 300.564 368.227 300.9C368.227 301.329 368.236 301.749 368.255 302.16C368.274 302.571 368.283 303.009 368.283 303.476C368.283 303.513 368.227 303.532 368.115 303.532C368.003 303.532 367.947 303.513 367.947 303.476ZM381.978 306.948V293.144L382.622 293.2V306.948C382.622 307.919 382.79 308.619 383.126 309.048C383.462 309.459 384.022 309.664 384.806 309.664C384.862 309.664 384.89 309.72 384.89 309.832C384.89 309.944 384.862 310 384.806 310C384.433 310 384.05 309.991 383.658 309.972C383.266 309.953 382.827 309.944 382.342 309.944C381.875 309.944 381.427 309.953 380.998 309.972C380.569 309.991 380.158 310 379.766 310C379.729 310 379.71 309.944 379.71 309.832C379.71 309.72 379.729 309.664 379.766 309.664C380.587 309.664 381.157 309.459 381.474 309.048C381.81 308.619 381.978 307.919 381.978 306.948ZM396.09 310.336C396.09 310.373 396.043 310.392 395.95 310.392C395.857 310.411 395.791 310.411 395.754 310.392L382.874 294.796C382.239 294.031 381.67 293.517 381.166 293.256C380.681 292.976 380.214 292.836 379.766 292.836C379.71 292.836 379.682 292.78 379.682 292.668C379.682 292.556 379.71 292.5 379.766 292.5C380.102 292.5 380.438 292.509 380.774 292.528C381.129 292.547 381.446 292.556 381.726 292.556C382.062 292.556 382.379 292.547 382.678 292.528C382.977 292.509 383.201 292.5 383.35 292.5C383.593 292.5 383.761 292.612 383.854 292.836C383.947 293.041 384.218 293.415 384.666 293.956L395.866 307.704L396.09 310.336ZM396.09 295.58V310.336L395.446 309.468V295.58C395.446 294.609 395.278 293.909 394.942 293.48C394.625 293.051 394.083 292.836 393.318 292.836C393.281 292.836 393.262 292.78 393.262 292.668C393.262 292.556 393.281 292.5 393.318 292.5C393.691 292.5 394.074 292.519 394.466 292.556C394.877 292.575 395.315 292.584 395.782 292.584C396.23 292.584 396.669 292.575 397.098 292.556C397.546 292.519 397.957 292.5 398.33 292.5C398.386 292.5 398.414 292.556 398.414 292.668C398.414 292.78 398.386 292.836 398.33 292.836C397.527 292.836 396.949 293.051 396.594 293.48C396.258 293.909 396.09 294.609 396.09 295.58ZM417.47 292.192C418.254 292.192 418.945 292.229 419.542 292.304C420.158 292.379 420.727 292.5 421.25 292.668C421.773 292.817 422.305 293.032 422.846 293.312C422.977 293.387 423.051 293.452 423.07 293.508C423.107 293.545 423.135 293.685 423.154 293.928L423.49 297.26C423.49 297.297 423.443 297.335 423.35 297.372C423.257 297.391 423.191 297.363 423.154 297.288C422.725 295.739 422.034 294.572 421.082 293.788C420.149 293.004 418.917 292.612 417.386 292.612C415.799 292.612 414.409 292.957 413.214 293.648C412.038 294.339 411.114 295.319 410.442 296.588C409.789 297.857 409.462 299.351 409.462 301.068C409.462 302.3 409.667 303.457 410.078 304.54C410.507 305.604 411.095 306.547 411.842 307.368C412.589 308.171 413.438 308.796 414.39 309.244C415.361 309.692 416.387 309.916 417.47 309.916C419.019 309.916 420.27 309.543 421.222 308.796C422.174 308.031 422.893 306.892 423.378 305.38C423.397 305.324 423.453 305.305 423.546 305.324C423.658 305.343 423.714 305.371 423.714 305.408L423.434 308.488C423.415 308.712 423.387 308.852 423.35 308.908C423.313 308.964 423.238 309.029 423.126 309.104C422.155 309.589 421.241 309.916 420.382 310.084C419.523 310.271 418.553 310.364 417.47 310.364C415.491 310.364 413.737 309.981 412.206 309.216C410.694 308.432 409.499 307.349 408.622 305.968C407.763 304.568 407.334 302.953 407.334 301.124C407.334 299.78 407.586 298.567 408.09 297.484C408.594 296.383 409.303 295.44 410.218 294.656C411.133 293.872 412.206 293.265 413.438 292.836C414.67 292.407 416.014 292.192 417.47 292.192ZM445.093 310H433.361C433.324 310 433.305 309.944 433.305 309.832C433.305 309.72 433.324 309.664 433.361 309.664C434.052 309.664 434.565 309.617 434.901 309.524C435.237 309.431 435.461 309.244 435.573 308.964C435.704 308.684 435.769 308.273 435.769 307.732V294.768C435.769 294.227 435.704 293.825 435.573 293.564C435.461 293.284 435.237 293.097 434.901 293.004C434.565 292.892 434.052 292.836 433.361 292.836C433.324 292.836 433.305 292.78 433.305 292.668C433.305 292.556 433.324 292.5 433.361 292.5H444.617C444.785 292.5 444.869 292.584 444.869 292.752L444.925 296.196C444.925 296.252 444.869 296.289 444.757 296.308C444.664 296.308 444.617 296.28 444.617 296.224C444.561 295.216 444.253 294.441 443.693 293.9C443.152 293.359 442.443 293.088 441.565 293.088H439.857C439.223 293.088 438.737 293.135 438.401 293.228C438.084 293.321 437.86 293.499 437.729 293.76C437.617 294.021 437.561 294.404 437.561 294.908V307.62C437.561 308.105 437.617 308.479 437.729 308.74C437.86 309.001 438.075 309.179 438.373 309.272C438.691 309.365 439.157 309.412 439.773 309.412H442.013C442.909 309.412 443.656 309.095 444.253 308.46C444.869 307.807 445.271 306.929 445.457 305.828C445.457 305.772 445.513 305.753 445.625 305.772C445.737 305.791 445.793 305.828 445.793 305.884C445.719 306.369 445.653 306.957 445.597 307.648C445.56 308.339 445.541 308.983 445.541 309.58C445.541 309.86 445.392 310 445.093 310ZM443.525 303.476C443.525 302.655 443.32 302.067 442.909 301.712C442.517 301.357 441.855 301.18 440.921 301.18H436.721V300.592H441.005C441.901 300.592 442.536 300.443 442.909 300.144C443.301 299.827 443.497 299.323 443.497 298.632C443.497 298.595 443.553 298.576 443.665 298.576C443.777 298.576 443.833 298.595 443.833 298.632C443.833 299.192 443.824 299.631 443.805 299.948C443.805 300.247 443.805 300.564 443.805 300.9C443.805 301.329 443.815 301.749 443.833 302.16C443.852 302.571 443.861 303.009 443.861 303.476C443.861 303.513 443.805 303.532 443.693 303.532C443.581 303.532 443.525 303.513 443.525 303.476ZM458.256 295.776C458.256 296.541 458.443 297.204 458.816 297.764C459.208 298.305 459.703 298.781 460.3 299.192C460.898 299.603 461.532 300.013 462.204 300.424C462.895 300.816 463.558 301.236 464.192 301.684C464.846 302.132 465.378 302.664 465.788 303.28C466.218 303.896 466.432 304.652 466.432 305.548C466.432 306.444 466.208 307.256 465.76 307.984C465.312 308.693 464.659 309.263 463.8 309.692C462.96 310.121 461.915 310.336 460.664 310.336C460.216 310.336 459.768 310.299 459.32 310.224C458.891 310.168 458.452 310.065 458.004 309.916C457.575 309.767 457.146 309.58 456.716 309.356C456.623 309.3 456.558 309.235 456.52 309.16C456.502 309.067 456.483 308.955 456.464 308.824L456.1 305.016C456.082 304.923 456.119 304.876 456.212 304.876C456.324 304.857 456.39 304.885 456.408 304.96C456.539 305.52 456.726 306.089 456.968 306.668C457.211 307.247 457.528 307.779 457.92 308.264C458.312 308.749 458.788 309.141 459.348 309.44C459.908 309.739 460.562 309.888 461.308 309.888C461.85 309.888 462.372 309.785 462.876 309.58C463.399 309.375 463.819 309.039 464.136 308.572C464.472 308.105 464.64 307.471 464.64 306.668C464.64 305.753 464.435 304.997 464.024 304.4C463.632 303.784 463.128 303.252 462.512 302.804C461.896 302.356 461.243 301.936 460.552 301.544C459.899 301.133 459.264 300.713 458.648 300.284C458.051 299.855 457.556 299.351 457.164 298.772C456.791 298.175 456.604 297.437 456.604 296.56C456.604 295.571 456.856 294.759 457.36 294.124C457.864 293.471 458.518 292.985 459.32 292.668C460.123 292.351 460.954 292.192 461.812 292.192C462.335 292.192 462.876 292.248 463.436 292.36C463.996 292.453 464.547 292.621 465.088 292.864C465.238 292.92 465.34 292.995 465.396 293.088C465.471 293.163 465.508 293.247 465.508 293.34L465.704 296.532C465.704 296.607 465.658 296.653 465.564 296.672C465.471 296.672 465.406 296.635 465.368 296.56C465.331 296.187 465.228 295.776 465.06 295.328C464.892 294.861 464.65 294.423 464.332 294.012C464.015 293.601 463.614 293.265 463.128 293.004C462.643 292.743 462.055 292.612 461.364 292.612C460.636 292.612 460.039 292.771 459.572 293.088C459.124 293.387 458.788 293.779 458.564 294.264C458.359 294.731 458.256 295.235 458.256 295.776Z" fill="#EDEAE2"/>
<path d="M131.027 199.914C139.749 184.879 153.131 176.4 170.002 173.361C193.969 169.045 215.355 175.096 234.202 190.049C237.466 192.639 240.439 195.528 243.257 198.572C243.741 199.094 244.387 199.528 244.424 200.617C239.668 200.879 235.008 201.291 230.602 199.118C229.346 198.498 228.707 197.27 227.848 196.269C219.172 186.15 208.525 179.022 195.255 176.044C185.825 173.927 176.348 173.961 167.1 176.891C152.935 181.379 144.46 191.18 140.766 205.06C133.795 231.255 149.526 258.284 175.827 264.686C190.414 268.237 203.879 264.951 215.902 256.167C223.726 250.45 229.93 243.235 235.563 235.511C242.47 226.038 248.739 216.103 256.809 207.472C271.277 191.998 288.271 180.408 309.353 175.373C326.158 171.359 342.338 173.187 357.655 181.278C360.324 182.688 360.373 182.716 358.987 185.418C358.026 187.294 357.448 189.369 356.154 191.009C355.196 191.099 354.866 190.421 354.415 189.982C344.968 180.782 333.472 176.831 320.268 176.916C305.788 177.008 294.014 183.047 283.638 192.347C274.448 200.584 267.434 210.55 260.408 220.489C252.938 231.056 245.144 241.339 234.926 249.587C220.149 261.515 203.465 269.002 184.031 268.669C165.456 268.351 149.098 262.27 136.653 248.151C130.528 241.202 127.197 233.011 126.22 223.844C125.321 215.406 127.223 207.577 131.027 199.914Z" fill="#EDEAE2"/>
<path d="M288.218 254.435C299.639 264.852 313.265 269.129 328.416 269.011C338.131 268.935 347.279 266.825 354.79 260.143C356.563 258.566 357.958 256.66 359.586 254.978C363.222 258.091 363.229 261.808 359.684 264.611C355.653 267.798 350.828 269.242 345.867 270.072C323.46 273.824 302.142 270.891 282.503 259.245C273.742 254.049 266.811 247.032 262.982 237.436C261.53 233.796 261.22 230.038 261.257 226.187C261.272 224.597 262.253 224.651 263.336 224.615C267.899 224.463 272.469 224.418 277.023 224.123C298.145 222.754 319.235 221.069 340.05 217.056C342.298 216.622 344.513 216.025 346.943 215.457C347.18 218.254 346.488 220.745 346.138 223.259C345.571 227.33 344.937 231.391 344.357 235.46C344.237 236.299 344.193 237.147 343.009 237.064C341.817 236.98 341.908 236.066 341.879 235.264C341.853 234.529 341.881 233.793 341.855 233.058C341.736 229.61 340.384 227.847 337.04 226.692C333.956 225.627 330.702 225.436 327.52 225.333C316.892 224.99 306.268 225.553 295.646 225.935C289.589 226.153 283.531 226.393 277.471 226.5C275.652 226.532 274.926 227.065 275.052 228.926C275.544 236.22 278.557 242.527 282.764 248.382C284.321 250.549 286.116 252.525 288.218 254.435Z" fill="#EDEAE2"/>
</svg>
