<svg width="500" height="500" viewBox="0 0 500 500" fill="none" xmlns="http://www.w3.org/2000/svg">
<rect width="500" height="500" fill="#EDEAE2"/>
<path d="M42.8643 291.874C43.5863 291.874 44.2513 291.912 44.8593 291.988C45.4863 292.045 46.0658 292.149 46.5978 292.301C47.1488 292.453 47.6713 292.653 48.1653 292.9C48.3173 292.957 48.4028 293.023 48.4218 293.099C48.4598 293.156 48.4883 293.299 48.5073 293.527L48.8778 297.118C48.8778 297.156 48.8208 297.194 48.7068 297.232C48.6118 297.251 48.5548 297.222 48.5358 297.146C48.0608 295.569 47.3388 294.382 46.3698 293.584C45.4008 292.767 44.1658 292.358 42.6648 292.358C41.1448 292.358 39.8148 292.71 38.6748 293.413C37.5348 294.116 36.6418 295.113 35.9958 296.405C35.3498 297.678 35.0268 299.189 35.0268 300.937C35.0268 302.229 35.2263 303.416 35.6253 304.499C36.0243 305.582 36.5753 306.532 37.2783 307.349C38.0003 308.147 38.8268 308.765 39.7578 309.202C40.7078 309.639 41.7243 309.857 42.8073 309.857C44.3273 309.857 45.5528 309.477 46.4838 308.717C47.4338 307.957 48.1938 306.798 48.7638 305.24C48.8018 305.183 48.8683 305.164 48.9633 305.183C49.0583 305.202 49.1058 305.24 49.1058 305.297L48.7923 308.546C48.7733 308.774 48.7353 308.917 48.6783 308.974C48.6403 309.031 48.5548 309.097 48.4218 309.173C47.4528 309.61 46.5218 309.914 45.6288 310.086C44.7548 310.276 43.8143 310.371 42.8073 310.371C40.7933 310.371 38.9978 309.981 37.4208 309.202C35.8628 308.404 34.6373 307.311 33.7443 305.924C32.8513 304.518 32.4048 302.894 32.4048 301.051C32.4048 299.683 32.6613 298.438 33.1743 297.317C33.7063 296.196 34.4473 295.227 35.3973 294.41C36.3473 293.593 37.4493 292.966 38.7033 292.529C39.9763 292.092 41.3633 291.874 42.8643 291.874ZM73.6317 295.72C73.6317 294.787 73.4171 294.077 72.9877 293.592C72.5771 293.088 71.9611 292.836 71.1397 292.836C71.0837 292.836 71.0557 292.78 71.0557 292.668C71.0557 292.556 71.0837 292.5 71.1397 292.5C71.5691 292.5 72.0171 292.519 72.4837 292.556C72.9504 292.575 73.4544 292.584 73.9957 292.584C74.4624 292.584 74.9197 292.575 75.3677 292.556C75.8344 292.519 76.2637 292.5 76.6557 292.5C76.6931 292.5 76.7117 292.556 76.7117 292.668C76.7117 292.78 76.6931 292.836 76.6557 292.836C75.9091 292.836 75.3397 293.088 74.9477 293.592C74.5744 294.077 74.3877 294.787 74.3877 295.72V303.644C74.3877 305.044 74.1077 306.248 73.5477 307.256C72.9877 308.264 72.2037 309.039 71.1957 309.58C70.1877 310.103 69.0117 310.364 67.6677 310.364C66.2864 310.364 65.0731 310.103 64.0277 309.58C62.9824 309.039 62.1704 308.273 61.5917 307.284C61.0131 306.295 60.7237 305.119 60.7237 303.756V294.768C60.7237 294.227 60.6677 293.825 60.5557 293.564C60.4437 293.284 60.2197 293.097 59.8837 293.004C59.5664 292.892 59.0904 292.836 58.4557 292.836C58.3997 292.836 58.3717 292.78 58.3717 292.668C58.3717 292.556 58.3997 292.5 58.4557 292.5C58.9224 292.5 59.4357 292.519 59.9957 292.556C60.5557 292.575 61.1624 292.584 61.8157 292.584C62.4877 292.584 63.1037 292.575 63.6637 292.556C64.2424 292.519 64.7464 292.5 65.1757 292.5C65.2317 292.5 65.2597 292.556 65.2597 292.668C65.2597 292.78 65.2317 292.836 65.1757 292.836C64.5411 292.836 64.0557 292.892 63.7197 293.004C63.4024 293.116 63.1877 293.312 63.0757 293.592C62.9824 293.872 62.9357 294.283 62.9357 294.824V302.776C62.9357 305.016 63.4211 306.696 64.3917 307.816C65.3624 308.917 66.7064 309.468 68.4237 309.468C70.0664 309.468 71.3451 308.964 72.2597 307.956C73.1744 306.929 73.6317 305.501 73.6317 303.672V295.72ZM99.5092 310C99.2105 310 98.7159 309.645 98.0252 308.936C97.3532 308.208 96.5412 307.181 95.5892 305.856C94.6372 304.512 93.5639 302.916 92.3692 301.068L94.2452 300.48C95.8132 302.739 97.1385 304.54 98.2212 305.884C99.3225 307.228 100.293 308.199 101.133 308.796C101.973 309.375 102.776 309.664 103.541 309.664C103.597 309.664 103.625 309.72 103.625 309.832C103.625 309.944 103.597 310 103.541 310C102.496 310 101.637 310 100.965 310C100.312 310 99.8265 310 99.5092 310ZM92.7892 292.416C94.3572 292.416 95.5519 292.752 96.3732 293.424C97.2132 294.077 97.6332 294.955 97.6332 296.056C97.6332 297.101 97.3345 298.035 96.7372 298.856C96.1399 299.677 95.3559 300.321 94.3852 300.788C93.4332 301.255 92.4065 301.488 91.3052 301.488C91.0812 301.488 90.8479 301.488 90.6052 301.488C90.3625 301.469 90.1385 301.451 89.9332 301.432V307.732C89.9332 308.273 89.9799 308.684 90.0732 308.964C90.1852 309.244 90.3999 309.431 90.7172 309.524C91.0532 309.617 91.5479 309.664 92.2012 309.664C92.2572 309.664 92.2852 309.72 92.2852 309.832C92.2852 309.944 92.2572 310 92.2012 310C91.7345 310 91.2212 309.991 90.6612 309.972C90.1012 309.953 89.4852 309.944 88.8132 309.944C88.1785 309.944 87.5719 309.953 86.9932 309.972C86.4145 309.991 85.8919 310 85.4252 310C85.3692 310 85.3412 309.944 85.3412 309.832C85.3412 309.72 85.3692 309.664 85.4252 309.664C86.0599 309.664 86.5359 309.617 86.8532 309.524C87.1892 309.431 87.4132 309.244 87.5252 308.964C87.6559 308.684 87.7212 308.273 87.7212 307.732V294.768C87.7212 294.227 87.6652 293.825 87.5532 293.564C87.4412 293.284 87.2265 293.097 86.9092 293.004C86.5919 292.892 86.1065 292.836 85.4532 292.836C85.4159 292.836 85.3972 292.78 85.3972 292.668C85.3972 292.556 85.4159 292.5 85.4532 292.5C85.9199 292.5 86.4332 292.519 86.9932 292.556C87.5719 292.575 88.1785 292.584 88.8132 292.584C89.4105 292.584 90.0825 292.556 90.8292 292.5C91.5759 292.444 92.2292 292.416 92.7892 292.416ZM95.3372 296.952C95.3372 295.907 95.1972 295.095 94.9172 294.516C94.6372 293.919 94.2359 293.499 93.7132 293.256C93.2092 293.013 92.6119 292.892 91.9212 292.892C91.2119 292.892 90.6985 293.023 90.3812 293.284C90.0825 293.527 89.9332 294.04 89.9332 294.824V300.732C90.1945 300.751 90.4745 300.769 90.7732 300.788C91.0905 300.807 91.3612 300.816 91.5852 300.816C92.9665 300.816 93.9372 300.499 94.4972 299.864C95.0572 299.229 95.3372 298.259 95.3372 296.952ZM115.516 302.692L115.852 302.076H123.468L123.664 302.692H115.516ZM129.992 309.664C130.085 309.664 130.132 309.72 130.132 309.832C130.132 309.944 130.085 310 129.992 310C129.45 310 128.89 309.981 128.312 309.944C127.752 309.907 127.201 309.888 126.66 309.888C126.062 309.888 125.54 309.907 125.092 309.944C124.662 309.981 124.177 310 123.636 310C123.561 310 123.524 309.944 123.524 309.832C123.524 309.72 123.561 309.664 123.636 309.664C124.55 309.664 125.11 309.524 125.316 309.244C125.521 308.945 125.418 308.367 125.008 307.508L118.988 294.992L119.884 293.648L114.424 306.304C113.938 307.443 113.91 308.292 114.34 308.852C114.769 309.393 115.572 309.664 116.748 309.664C116.841 309.664 116.888 309.72 116.888 309.832C116.888 309.944 116.841 310 116.748 310C116.188 310 115.674 309.981 115.208 309.944C114.741 309.907 114.153 309.888 113.444 309.888C112.753 309.888 112.193 309.907 111.764 309.944C111.353 309.981 110.849 310 110.252 310C110.177 310 110.14 309.944 110.14 309.832C110.14 309.72 110.177 309.664 110.252 309.664C110.756 309.664 111.194 309.571 111.568 309.384C111.941 309.179 112.296 308.815 112.632 308.292C112.986 307.769 113.369 307.023 113.78 306.052L119.744 292.304C119.762 292.248 119.828 292.22 119.94 292.22C120.052 292.201 120.117 292.229 120.136 292.304L126.856 306.164C127.304 307.079 127.686 307.797 128.004 308.32C128.34 308.824 128.666 309.179 128.984 309.384C129.301 309.571 129.637 309.664 129.992 309.664ZM140.653 293.06C139.495 293.06 138.59 293.387 137.937 294.04C137.283 294.675 136.798 295.701 136.481 297.12C136.462 297.157 136.397 297.176 136.285 297.176C136.191 297.176 136.145 297.148 136.145 297.092C136.182 296.849 136.219 296.504 136.257 296.056C136.313 295.608 136.359 295.123 136.397 294.6C136.434 294.077 136.462 293.573 136.481 293.088C136.518 292.603 136.537 292.201 136.537 291.884C136.537 291.791 136.593 291.744 136.705 291.744C136.817 291.744 136.873 291.791 136.873 291.884C136.873 292.071 136.966 292.211 137.153 292.304C137.339 292.379 137.554 292.435 137.797 292.472C138.039 292.491 138.245 292.5 138.413 292.5C140.018 292.556 141.894 292.584 144.041 292.584C145.347 292.584 146.393 292.575 147.177 292.556C147.961 292.519 148.717 292.5 149.445 292.5C150.079 292.5 150.565 292.463 150.901 292.388C151.255 292.295 151.479 292.099 151.573 291.8C151.591 291.725 151.647 291.688 151.741 291.688C151.853 291.688 151.909 291.725 151.909 291.8C151.871 292.08 151.834 292.472 151.797 292.976C151.778 293.48 151.75 294.003 151.713 294.544C151.694 295.085 151.675 295.589 151.657 296.056C151.638 296.523 151.629 296.868 151.629 297.092C151.629 297.148 151.573 297.176 151.461 297.176C151.367 297.176 151.321 297.148 151.321 297.092C151.19 295.636 150.817 294.6 150.201 293.984C149.585 293.368 148.67 293.06 147.457 293.06C146.803 293.06 146.309 293.107 145.973 293.2C145.655 293.275 145.441 293.433 145.329 293.676C145.235 293.919 145.189 294.301 145.189 294.824V307.732C145.189 308.273 145.245 308.684 145.357 308.964C145.487 309.244 145.73 309.431 146.085 309.524C146.458 309.617 147.027 309.664 147.793 309.664C147.83 309.664 147.849 309.72 147.849 309.832C147.849 309.944 147.83 310 147.793 310C147.289 310 146.719 309.991 146.085 309.972C145.469 309.953 144.787 309.944 144.041 309.944C143.331 309.944 142.659 309.953 142.025 309.972C141.409 309.991 140.839 310 140.317 310C140.261 310 140.233 309.944 140.233 309.832C140.233 309.72 140.261 309.664 140.317 309.664C141.045 309.664 141.595 309.617 141.969 309.524C142.361 309.431 142.622 309.244 142.753 308.964C142.883 308.684 142.949 308.273 142.949 307.732V294.768C142.949 294.264 142.893 293.891 142.781 293.648C142.669 293.387 142.445 293.228 142.109 293.172C141.773 293.097 141.287 293.06 140.653 293.06ZM173.041 310H161.113C161.057 310 161.029 309.944 161.029 309.832C161.029 309.72 161.057 309.664 161.113 309.664C161.747 309.664 162.223 309.617 162.541 309.524C162.877 309.431 163.101 309.244 163.213 308.964C163.325 308.684 163.381 308.273 163.381 307.732V294.768C163.381 294.227 163.325 293.825 163.213 293.564C163.101 293.284 162.877 293.097 162.541 293.004C162.223 292.892 161.747 292.836 161.113 292.836C161.057 292.836 161.029 292.78 161.029 292.668C161.029 292.556 161.057 292.5 161.113 292.5H172.537C172.723 292.5 172.817 292.584 172.817 292.752L172.873 296.28C172.873 296.336 172.817 296.373 172.705 296.392C172.611 296.392 172.555 296.364 172.537 296.308C172.406 295.281 172.042 294.507 171.445 293.984C170.847 293.443 170.063 293.172 169.093 293.172H167.665C167.105 293.172 166.675 293.219 166.377 293.312C166.078 293.405 165.873 293.583 165.761 293.844C165.649 294.087 165.593 294.432 165.593 294.88V307.62C165.593 308.068 165.639 308.423 165.733 308.684C165.845 308.927 166.041 309.104 166.321 309.216C166.601 309.309 166.993 309.356 167.497 309.356H169.345C170.409 309.356 171.286 309.048 171.977 308.432C172.667 307.797 173.143 306.901 173.405 305.744C173.405 305.688 173.461 305.669 173.573 305.688C173.685 305.707 173.741 305.744 173.741 305.8C173.666 306.304 173.601 306.911 173.545 307.62C173.489 308.329 173.461 308.983 173.461 309.58C173.461 309.86 173.321 310 173.041 310ZM171.473 303.56C171.473 302.757 171.239 302.169 170.773 301.796C170.325 301.404 169.597 301.208 168.589 301.208H164.529V300.564H168.673C169.625 300.564 170.325 300.405 170.773 300.088C171.221 299.752 171.445 299.239 171.445 298.548C171.445 298.511 171.491 298.492 171.585 298.492C171.697 298.492 171.753 298.511 171.753 298.548C171.753 299.127 171.743 299.575 171.725 299.892C171.725 300.209 171.725 300.545 171.725 300.9C171.725 301.329 171.734 301.759 171.753 302.188C171.79 302.617 171.809 303.075 171.809 303.56C171.809 303.597 171.753 303.616 171.641 303.616C171.529 303.616 171.473 303.597 171.473 303.56ZM190.764 310.112C190.204 310.112 189.514 310.084 188.692 310.028C187.871 309.972 187.115 309.944 186.424 309.944C185.79 309.944 185.174 309.953 184.576 309.972C183.998 309.991 183.475 310 183.008 310C182.971 310 182.952 309.944 182.952 309.832C182.952 309.72 182.971 309.664 183.008 309.664C183.662 309.664 184.156 309.617 184.492 309.524C184.828 309.431 185.052 309.244 185.164 308.964C185.276 308.684 185.332 308.273 185.332 307.732V294.768C185.332 294.227 185.276 293.825 185.164 293.564C185.052 293.284 184.828 293.097 184.492 293.004C184.175 292.892 183.699 292.836 183.064 292.836C183.008 292.836 182.98 292.78 182.98 292.668C182.98 292.556 183.008 292.5 183.064 292.5C183.531 292.5 184.044 292.519 184.604 292.556C185.183 292.575 185.79 292.584 186.424 292.584C187.059 292.584 187.74 292.565 188.468 292.528C189.215 292.472 189.85 292.444 190.372 292.444C192.351 292.444 194.068 292.817 195.524 293.564C196.999 294.311 198.147 295.328 198.968 296.616C199.79 297.904 200.2 299.351 200.2 300.956C200.2 302.356 199.948 303.625 199.444 304.764C198.959 305.884 198.278 306.845 197.4 307.648C196.523 308.432 195.515 309.039 194.376 309.468C193.238 309.897 192.034 310.112 190.764 310.112ZM190.484 309.608C191.884 309.608 193.116 309.3 194.18 308.684C195.263 308.068 196.112 307.163 196.728 305.968C197.344 304.755 197.652 303.289 197.652 301.572C197.652 299.948 197.363 298.492 196.784 297.204C196.206 295.897 195.394 294.861 194.348 294.096C193.322 293.312 192.09 292.92 190.652 292.92C189.532 292.92 188.73 293.032 188.244 293.256C187.778 293.48 187.544 294.003 187.544 294.824V307.424C187.544 308.171 187.731 308.721 188.104 309.076C188.478 309.431 189.271 309.608 190.484 309.608ZM235.51 310H223.369C223.312 310 223.283 309.943 223.283 309.829C223.283 309.715 223.312 309.658 223.369 309.658C224.015 309.658 224.499 309.61 224.822 309.515C225.164 309.42 225.392 309.23 225.506 308.945C225.62 308.66 225.677 308.242 225.677 307.691V294.496C225.677 293.945 225.62 293.536 225.506 293.27C225.392 292.985 225.164 292.795 224.822 292.7C224.499 292.586 224.015 292.529 223.369 292.529C223.312 292.529 223.283 292.472 223.283 292.358C223.283 292.244 223.312 292.188 223.369 292.188H234.997C235.187 292.188 235.282 292.273 235.282 292.444L235.339 296.035C235.339 296.092 235.282 296.13 235.168 296.149C235.073 296.149 235.016 296.12 234.997 296.063C234.864 295.018 234.493 294.23 233.885 293.698C233.277 293.147 232.479 292.871 231.491 292.871H230.038C229.468 292.871 229.031 292.919 228.727 293.014C228.423 293.109 228.214 293.289 228.1 293.555C227.986 293.802 227.929 294.154 227.929 294.61V307.577C227.929 308.033 227.976 308.394 228.071 308.66C228.185 308.907 228.385 309.088 228.67 309.202C228.955 309.297 229.354 309.344 229.867 309.344H231.748C232.831 309.344 233.724 309.031 234.427 308.404C235.13 307.758 235.614 306.846 235.88 305.668C235.88 305.611 235.937 305.592 236.051 305.611C236.165 305.63 236.222 305.668 236.222 305.725C236.146 306.238 236.08 306.855 236.023 307.577C235.966 308.299 235.937 308.964 235.937 309.572C235.937 309.857 235.795 310 235.51 310ZM233.914 303.445C233.914 302.628 233.676 302.029 233.201 301.649C232.745 301.25 232.004 301.051 230.978 301.051H226.846V300.395H231.064C232.033 300.395 232.745 300.234 233.201 299.911C233.657 299.569 233.885 299.046 233.885 298.343C233.885 298.305 233.933 298.286 234.028 298.286C234.142 298.286 234.199 298.305 234.199 298.343C234.199 298.932 234.189 299.388 234.17 299.711C234.17 300.034 234.17 300.376 234.17 300.737C234.17 301.174 234.18 301.611 234.199 302.048C234.237 302.485 234.256 302.951 234.256 303.445C234.256 303.483 234.199 303.502 234.085 303.502C233.971 303.502 233.914 303.483 233.914 303.445ZM256.195 310C256.158 310 256.139 309.944 256.139 309.832C256.139 309.72 256.158 309.664 256.195 309.664C256.774 309.664 257.156 309.589 257.343 309.44C257.548 309.291 257.511 309.001 257.231 308.572L248.299 294.936C247.795 294.171 247.3 293.629 246.815 293.312C246.348 292.995 245.816 292.836 245.219 292.836C245.182 292.836 245.163 292.78 245.163 292.668C245.163 292.556 245.182 292.5 245.219 292.5C245.574 292.5 245.947 292.519 246.339 292.556C246.731 292.575 247.095 292.584 247.431 292.584C248.196 292.584 248.906 292.575 249.559 292.556C250.212 292.519 250.782 292.5 251.267 292.5C251.323 292.5 251.351 292.556 251.351 292.668C251.351 292.78 251.323 292.836 251.267 292.836C250.688 292.836 250.296 292.911 250.091 293.06C249.904 293.209 249.951 293.508 250.231 293.956L259.247 307.676C259.732 308.404 260.227 308.917 260.731 309.216C261.235 309.515 261.851 309.664 262.579 309.664C262.616 309.664 262.635 309.72 262.635 309.832C262.635 309.944 262.616 310 262.579 310C262.187 310 261.758 309.991 261.291 309.972C260.824 309.953 260.33 309.944 259.807 309.944C259.042 309.944 258.37 309.953 257.791 309.972C257.231 309.991 256.699 310 256.195 310ZM245.079 310C245.023 310 244.995 309.944 244.995 309.832C244.995 309.72 245.023 309.664 245.079 309.664C245.676 309.664 246.33 309.431 247.039 308.964C247.748 308.497 248.467 307.76 249.195 306.752L253.171 301.32L253.563 301.628L249.895 306.808C249.242 307.704 248.98 308.404 249.111 308.908C249.26 309.412 249.783 309.664 250.679 309.664C250.735 309.664 250.763 309.72 250.763 309.832C250.763 309.944 250.735 310 250.679 310C250.175 310 249.69 309.991 249.223 309.972C248.756 309.953 248.15 309.944 247.403 309.944C246.899 309.944 246.498 309.953 246.199 309.972C245.9 309.991 245.527 310 245.079 310ZM254.039 301.208L253.647 300.9L257.203 295.832C257.875 294.88 258.146 294.143 258.015 293.62C257.903 293.097 257.408 292.836 256.531 292.836C256.475 292.836 256.447 292.78 256.447 292.668C256.447 292.556 256.475 292.5 256.531 292.5C257.035 292.5 257.52 292.519 257.987 292.556C258.454 292.575 259.06 292.584 259.807 292.584C260.311 292.584 260.712 292.575 261.011 292.556C261.31 292.519 261.674 292.5 262.103 292.5C262.159 292.5 262.187 292.556 262.187 292.668C262.187 292.78 262.159 292.836 262.103 292.836C261.524 292.836 260.871 293.088 260.143 293.592C259.415 294.096 258.668 294.871 257.903 295.916L254.039 301.208ZM275.526 307.62C275.526 308.18 275.591 308.609 275.722 308.908C275.871 309.188 276.17 309.384 276.618 309.496C277.066 309.608 277.738 309.664 278.634 309.664C278.69 309.664 278.718 309.72 278.718 309.832C278.718 309.944 278.69 310 278.634 310C278.036 310 277.383 309.991 276.674 309.972C275.983 309.953 275.227 309.944 274.406 309.944C273.79 309.944 273.183 309.953 272.586 309.972C272.007 309.991 271.484 310 271.018 310C270.98 310 270.962 309.944 270.962 309.832C270.962 309.72 270.98 309.664 271.018 309.664C271.671 309.664 272.156 309.617 272.474 309.524C272.81 309.431 273.024 309.244 273.118 308.964C273.23 308.684 273.286 308.273 273.286 307.732V294.768C273.286 294.227 273.23 293.825 273.118 293.564C273.024 293.284 272.81 293.097 272.474 293.004C272.156 292.892 271.671 292.836 271.018 292.836C270.98 292.836 270.962 292.78 270.962 292.668C270.962 292.556 270.98 292.5 271.018 292.5C271.484 292.5 272.007 292.519 272.586 292.556C273.164 292.575 273.762 292.584 274.378 292.584C274.863 292.584 275.451 292.556 276.142 292.5C276.851 292.444 277.56 292.416 278.27 292.416C279.352 292.416 280.323 292.575 281.182 292.892C282.059 293.209 282.759 293.704 283.282 294.376C283.804 295.048 284.075 295.925 284.094 297.008C284.094 297.979 283.916 298.819 283.562 299.528C283.207 300.237 282.722 300.825 282.106 301.292C281.508 301.759 280.836 302.104 280.09 302.328C279.362 302.552 278.643 302.664 277.934 302.664C277.71 302.664 277.476 302.655 277.234 302.636C277.01 302.617 276.795 302.58 276.59 302.524C276.515 302.505 276.487 302.44 276.506 302.328C276.543 302.197 276.59 302.141 276.646 302.16C276.814 302.197 276.982 302.225 277.15 302.244C277.336 302.263 277.495 302.272 277.626 302.272C278.335 302.272 278.988 302.104 279.586 301.768C280.183 301.432 280.668 300.919 281.042 300.228C281.415 299.519 281.602 298.641 281.602 297.596C281.602 296.588 281.424 295.739 281.07 295.048C280.734 294.357 280.258 293.825 279.642 293.452C279.026 293.079 278.316 292.892 277.514 292.892C276.991 292.892 276.58 292.929 276.282 293.004C276.002 293.079 275.806 293.256 275.694 293.536C275.582 293.816 275.526 294.245 275.526 294.824V307.62ZM305.343 310H293.415C293.359 310 293.331 309.944 293.331 309.832C293.331 309.72 293.359 309.664 293.415 309.664C294.05 309.664 294.526 309.617 294.843 309.524C295.179 309.431 295.403 309.244 295.515 308.964C295.627 308.684 295.683 308.273 295.683 307.732V294.768C295.683 294.227 295.627 293.825 295.515 293.564C295.403 293.284 295.179 293.097 294.843 293.004C294.526 292.892 294.05 292.836 293.415 292.836C293.359 292.836 293.331 292.78 293.331 292.668C293.331 292.556 293.359 292.5 293.415 292.5H304.839C305.026 292.5 305.119 292.584 305.119 292.752L305.175 296.28C305.175 296.336 305.119 296.373 305.007 296.392C304.914 296.392 304.858 296.364 304.839 296.308C304.708 295.281 304.344 294.507 303.747 293.984C303.15 293.443 302.366 293.172 301.395 293.172H299.967C299.407 293.172 298.978 293.219 298.679 293.312C298.38 293.405 298.175 293.583 298.063 293.844C297.951 294.087 297.895 294.432 297.895 294.88V307.62C297.895 308.068 297.942 308.423 298.035 308.684C298.147 308.927 298.343 309.104 298.623 309.216C298.903 309.309 299.295 309.356 299.799 309.356H301.647C302.711 309.356 303.588 309.048 304.279 308.432C304.97 307.797 305.446 306.901 305.707 305.744C305.707 305.688 305.763 305.669 305.875 305.688C305.987 305.707 306.043 305.744 306.043 305.8C305.968 306.304 305.903 306.911 305.847 307.62C305.791 308.329 305.763 308.983 305.763 309.58C305.763 309.86 305.623 310 305.343 310ZM303.775 303.56C303.775 302.757 303.542 302.169 303.075 301.796C302.627 301.404 301.899 301.208 300.891 301.208H296.831V300.564H300.975C301.927 300.564 302.627 300.405 303.075 300.088C303.523 299.752 303.747 299.239 303.747 298.548C303.747 298.511 303.794 298.492 303.887 298.492C303.999 298.492 304.055 298.511 304.055 298.548C304.055 299.127 304.046 299.575 304.027 299.892C304.027 300.209 304.027 300.545 304.027 300.9C304.027 301.329 304.036 301.759 304.055 302.188C304.092 302.617 304.111 303.075 304.111 303.56C304.111 303.597 304.055 303.616 303.943 303.616C303.831 303.616 303.775 303.597 303.775 303.56ZM329.675 310C329.376 310 328.881 309.645 328.191 308.936C327.519 308.208 326.707 307.181 325.755 305.856C324.803 304.512 323.729 302.916 322.535 301.068L324.411 300.48C325.979 302.739 327.304 304.54 328.387 305.884C329.488 307.228 330.459 308.199 331.299 308.796C332.139 309.375 332.941 309.664 333.707 309.664C333.763 309.664 333.791 309.72 333.791 309.832C333.791 309.944 333.763 310 333.707 310C332.661 310 331.803 310 331.131 310C330.477 310 329.992 310 329.675 310ZM322.955 292.416C324.523 292.416 325.717 292.752 326.539 293.424C327.379 294.077 327.799 294.955 327.799 296.056C327.799 297.101 327.5 298.035 326.903 298.856C326.305 299.677 325.521 300.321 324.551 300.788C323.599 301.255 322.572 301.488 321.471 301.488C321.247 301.488 321.013 301.488 320.771 301.488C320.528 301.469 320.304 301.451 320.099 301.432V307.732C320.099 308.273 320.145 308.684 320.239 308.964C320.351 309.244 320.565 309.431 320.883 309.524C321.219 309.617 321.713 309.664 322.367 309.664C322.423 309.664 322.451 309.72 322.451 309.832C322.451 309.944 322.423 310 322.367 310C321.9 310 321.387 309.991 320.827 309.972C320.267 309.953 319.651 309.944 318.979 309.944C318.344 309.944 317.737 309.953 317.159 309.972C316.58 309.991 316.057 310 315.591 310C315.535 310 315.507 309.944 315.507 309.832C315.507 309.72 315.535 309.664 315.591 309.664C316.225 309.664 316.701 309.617 317.019 309.524C317.355 309.431 317.579 309.244 317.691 308.964C317.821 308.684 317.887 308.273 317.887 307.732V294.768C317.887 294.227 317.831 293.825 317.719 293.564C317.607 293.284 317.392 293.097 317.075 293.004C316.757 292.892 316.272 292.836 315.619 292.836C315.581 292.836 315.563 292.78 315.563 292.668C315.563 292.556 315.581 292.5 315.619 292.5C316.085 292.5 316.599 292.519 317.159 292.556C317.737 292.575 318.344 292.584 318.979 292.584C319.576 292.584 320.248 292.556 320.995 292.5C321.741 292.444 322.395 292.416 322.955 292.416ZM325.503 296.952C325.503 295.907 325.363 295.095 325.083 294.516C324.803 293.919 324.401 293.499 323.879 293.256C323.375 293.013 322.777 292.892 322.087 292.892C321.377 292.892 320.864 293.023 320.547 293.284C320.248 293.527 320.099 294.04 320.099 294.824V300.732C320.36 300.751 320.64 300.769 320.939 300.788C321.256 300.807 321.527 300.816 321.751 300.816C323.132 300.816 324.103 300.499 324.663 299.864C325.223 299.229 325.503 298.259 325.503 296.952ZM346.269 307.732C346.269 308.273 346.316 308.684 346.409 308.964C346.521 309.244 346.736 309.431 347.053 309.524C347.389 309.617 347.884 309.664 348.537 309.664C348.575 309.664 348.593 309.72 348.593 309.832C348.593 309.944 348.575 310 348.537 310C348.071 310 347.548 309.991 346.969 309.972C346.409 309.953 345.793 309.944 345.121 309.944C344.468 309.944 343.852 309.953 343.273 309.972C342.695 309.991 342.172 310 341.705 310C341.668 310 341.649 309.944 341.649 309.832C341.649 309.72 341.668 309.664 341.705 309.664C342.359 309.664 342.853 309.617 343.189 309.524C343.525 309.431 343.749 309.244 343.861 308.964C343.973 308.684 344.029 308.273 344.029 307.732V294.768C344.029 294.227 343.973 293.825 343.861 293.564C343.749 293.284 343.525 293.097 343.189 293.004C342.853 292.892 342.359 292.836 341.705 292.836C341.668 292.836 341.649 292.78 341.649 292.668C341.649 292.556 341.668 292.5 341.705 292.5C342.172 292.5 342.695 292.519 343.273 292.556C343.852 292.575 344.468 292.584 345.121 292.584C345.793 292.584 346.419 292.575 346.997 292.556C347.576 292.519 348.089 292.5 348.537 292.5C348.575 292.5 348.593 292.556 348.593 292.668C348.593 292.78 348.575 292.836 348.537 292.836C347.884 292.836 347.399 292.892 347.081 293.004C346.764 293.116 346.549 293.312 346.437 293.592C346.325 293.872 346.269 294.283 346.269 294.824V307.732ZM369.956 310H358.028C357.972 310 357.944 309.944 357.944 309.832C357.944 309.72 357.972 309.664 358.028 309.664C358.663 309.664 359.139 309.617 359.456 309.524C359.792 309.431 360.016 309.244 360.128 308.964C360.24 308.684 360.296 308.273 360.296 307.732V294.768C360.296 294.227 360.24 293.825 360.128 293.564C360.016 293.284 359.792 293.097 359.456 293.004C359.139 292.892 358.663 292.836 358.028 292.836C357.972 292.836 357.944 292.78 357.944 292.668C357.944 292.556 357.972 292.5 358.028 292.5H369.452C369.639 292.5 369.732 292.584 369.732 292.752L369.788 296.28C369.788 296.336 369.732 296.373 369.62 296.392C369.527 296.392 369.471 296.364 369.452 296.308C369.322 295.281 368.958 294.507 368.36 293.984C367.763 293.443 366.979 293.172 366.008 293.172H364.58C364.02 293.172 363.591 293.219 363.292 293.312C362.994 293.405 362.788 293.583 362.676 293.844C362.564 294.087 362.508 294.432 362.508 294.88V307.62C362.508 308.068 362.555 308.423 362.648 308.684C362.76 308.927 362.956 309.104 363.236 309.216C363.516 309.309 363.908 309.356 364.412 309.356H366.26C367.324 309.356 368.202 309.048 368.892 308.432C369.583 307.797 370.059 306.901 370.32 305.744C370.32 305.688 370.376 305.669 370.488 305.688C370.6 305.707 370.656 305.744 370.656 305.8C370.582 306.304 370.516 306.911 370.46 307.62C370.404 308.329 370.376 308.983 370.376 309.58C370.376 309.86 370.236 310 369.956 310ZM368.388 303.56C368.388 302.757 368.155 302.169 367.688 301.796C367.24 301.404 366.512 301.208 365.504 301.208H361.444V300.564H365.588C366.54 300.564 367.24 300.405 367.688 300.088C368.136 299.752 368.36 299.239 368.36 298.548C368.36 298.511 368.407 298.492 368.5 298.492C368.612 298.492 368.668 298.511 368.668 298.548C368.668 299.127 368.659 299.575 368.64 299.892C368.64 300.209 368.64 300.545 368.64 300.9C368.64 301.329 368.65 301.759 368.668 302.188C368.706 302.617 368.724 303.075 368.724 303.56C368.724 303.597 368.668 303.616 368.556 303.616C368.444 303.616 368.388 303.597 368.388 303.56ZM382.416 306.808V293.144L383.144 293.2V306.808C383.144 307.779 383.321 308.497 383.676 308.964C384.031 309.431 384.591 309.664 385.356 309.664C385.393 309.664 385.412 309.72 385.412 309.832C385.412 309.944 385.393 310 385.356 310C384.964 310 384.563 309.991 384.152 309.972C383.76 309.953 383.312 309.944 382.808 309.944C382.323 309.944 381.847 309.953 381.38 309.972C380.913 309.991 380.475 310 380.064 310C380.027 310 380.008 309.944 380.008 309.832C380.008 309.72 380.027 309.664 380.064 309.664C380.885 309.664 381.483 309.431 381.856 308.964C382.229 308.497 382.416 307.779 382.416 306.808ZM396.584 310.364C396.584 310.401 396.537 310.42 396.444 310.42C396.369 310.439 396.313 310.439 396.276 310.42L383.088 294.796C382.435 294.031 381.865 293.517 381.38 293.256C380.913 292.976 380.447 292.836 379.98 292.836C379.943 292.836 379.924 292.78 379.924 292.668C379.924 292.556 379.943 292.5 379.98 292.5C380.335 292.5 380.689 292.509 381.044 292.528C381.399 292.547 381.725 292.556 382.024 292.556C382.472 292.556 382.883 292.547 383.256 292.528C383.629 292.509 383.909 292.5 384.096 292.5C384.339 292.5 384.516 292.612 384.628 292.836C384.74 293.041 385.011 293.415 385.44 293.956L396.36 307.116L396.584 310.364ZM396.584 295.72V310.364L395.884 309.496V295.72C395.884 294.749 395.707 294.031 395.352 293.564C395.016 293.079 394.465 292.836 393.7 292.836C393.663 292.836 393.644 292.78 393.644 292.668C393.644 292.556 393.663 292.5 393.7 292.5C394.092 292.5 394.493 292.519 394.904 292.556C395.315 292.575 395.763 292.584 396.248 292.584C396.715 292.584 397.172 292.575 397.62 292.556C398.068 292.519 398.488 292.5 398.88 292.5C398.917 292.5 398.936 292.556 398.936 292.668C398.936 292.78 398.917 292.836 398.88 292.836C398.096 292.836 397.517 293.079 397.144 293.564C396.771 294.031 396.584 294.749 396.584 295.72ZM418.101 292.192C418.81 292.192 419.464 292.229 420.061 292.304C420.677 292.36 421.246 292.463 421.769 292.612C422.31 292.761 422.824 292.957 423.309 293.2C423.458 293.256 423.542 293.321 423.561 293.396C423.598 293.452 423.626 293.592 423.645 293.816L424.009 297.344C424.009 297.381 423.953 297.419 423.841 297.456C423.748 297.475 423.692 297.447 423.673 297.372C423.206 295.823 422.497 294.656 421.545 293.872C420.593 293.069 419.38 292.668 417.905 292.668C416.412 292.668 415.105 293.013 413.985 293.704C412.865 294.395 411.988 295.375 411.353 296.644C410.718 297.895 410.401 299.379 410.401 301.096C410.401 302.365 410.597 303.532 410.989 304.596C411.381 305.66 411.922 306.593 412.613 307.396C413.322 308.18 414.134 308.787 415.049 309.216C415.982 309.645 416.981 309.86 418.045 309.86C419.538 309.86 420.742 309.487 421.657 308.74C422.59 307.993 423.337 306.855 423.897 305.324C423.934 305.268 424 305.249 424.093 305.268C424.186 305.287 424.233 305.324 424.233 305.38L423.925 308.572C423.906 308.796 423.869 308.936 423.813 308.992C423.776 309.048 423.692 309.113 423.561 309.188C422.609 309.617 421.694 309.916 420.817 310.084C419.958 310.271 419.034 310.364 418.045 310.364C416.066 310.364 414.302 309.981 412.753 309.216C411.222 308.432 410.018 307.359 409.141 305.996C408.264 304.615 407.825 303.019 407.825 301.208C407.825 299.864 408.077 298.641 408.581 297.54C409.104 296.439 409.832 295.487 410.765 294.684C411.698 293.881 412.781 293.265 414.013 292.836C415.264 292.407 416.626 292.192 418.101 292.192ZM445.726 310H433.798C433.742 310 433.714 309.944 433.714 309.832C433.714 309.72 433.742 309.664 433.798 309.664C434.432 309.664 434.908 309.617 435.226 309.524C435.562 309.431 435.786 309.244 435.898 308.964C436.01 308.684 436.066 308.273 436.066 307.732V294.768C436.066 294.227 436.01 293.825 435.898 293.564C435.786 293.284 435.562 293.097 435.226 293.004C434.908 292.892 434.432 292.836 433.798 292.836C433.742 292.836 433.714 292.78 433.714 292.668C433.714 292.556 433.742 292.5 433.798 292.5H445.222C445.408 292.5 445.502 292.584 445.502 292.752L445.558 296.28C445.558 296.336 445.502 296.373 445.39 296.392C445.296 296.392 445.24 296.364 445.222 296.308C445.091 295.281 444.727 294.507 444.13 293.984C443.532 293.443 442.748 293.172 441.778 293.172H440.35C439.79 293.172 439.36 293.219 439.062 293.312C438.763 293.405 438.558 293.583 438.446 293.844C438.334 294.087 438.278 294.432 438.278 294.88V307.62C438.278 308.068 438.324 308.423 438.418 308.684C438.53 308.927 438.726 309.104 439.006 309.216C439.286 309.309 439.678 309.356 440.182 309.356H442.03C443.094 309.356 443.971 309.048 444.662 308.432C445.352 307.797 445.828 306.901 446.09 305.744C446.09 305.688 446.146 305.669 446.258 305.688C446.37 305.707 446.426 305.744 446.426 305.8C446.351 306.304 446.286 306.911 446.23 307.62C446.174 308.329 446.146 308.983 446.146 309.58C446.146 309.86 446.006 310 445.726 310ZM444.158 303.56C444.158 302.757 443.924 302.169 443.458 301.796C443.01 301.404 442.282 301.208 441.274 301.208H437.214V300.564H441.358C442.31 300.564 443.01 300.405 443.458 300.088C443.906 299.752 444.13 299.239 444.13 298.548C444.13 298.511 444.176 298.492 444.27 298.492C444.382 298.492 444.438 298.511 444.438 298.548C444.438 299.127 444.428 299.575 444.41 299.892C444.41 300.209 444.41 300.545 444.41 300.9C444.41 301.329 444.419 301.759 444.438 302.188C444.475 302.617 444.494 303.075 444.494 303.56C444.494 303.597 444.438 303.616 444.326 303.616C444.214 303.616 444.158 303.597 444.158 303.56ZM459.159 295.379C459.159 296.139 459.349 296.795 459.729 297.346C460.109 297.897 460.603 298.391 461.211 298.828C461.819 299.246 462.465 299.664 463.149 300.082C463.852 300.5 464.526 300.946 465.172 301.421C465.837 301.896 466.379 302.457 466.797 303.103C467.234 303.73 467.452 304.499 467.452 305.411C467.452 306.342 467.205 307.178 466.711 307.919C466.236 308.66 465.552 309.249 464.659 309.686C463.785 310.123 462.731 310.342 461.496 310.342C461.002 310.342 460.498 310.295 459.985 310.2C459.491 310.124 459.016 310.009 458.56 309.857C458.104 309.705 457.686 309.515 457.306 309.287C457.23 309.23 457.164 309.164 457.107 309.088C457.069 309.012 457.05 308.898 457.05 308.746L456.765 304.67C456.746 304.575 456.784 304.528 456.879 304.528C456.993 304.509 457.059 304.537 457.078 304.613C457.249 305.202 457.477 305.801 457.762 306.409C458.047 307.017 458.389 307.577 458.788 308.09C459.187 308.584 459.662 308.993 460.213 309.316C460.783 309.639 461.439 309.8 462.18 309.8C462.693 309.8 463.187 309.705 463.662 309.515C464.156 309.325 464.555 309.012 464.859 308.575C465.163 308.119 465.315 307.492 465.315 306.694C465.315 305.782 465.115 305.012 464.716 304.385C464.317 303.758 463.804 303.217 463.177 302.761C462.55 302.305 461.885 301.868 461.182 301.45C460.517 301.032 459.871 300.595 459.244 300.139C458.636 299.683 458.142 299.16 457.762 298.571C457.382 297.963 457.192 297.232 457.192 296.377C457.192 295.351 457.458 294.505 457.99 293.84C458.541 293.175 459.235 292.681 460.071 292.358C460.926 292.035 461.8 291.874 462.693 291.874C463.282 291.874 463.88 291.931 464.488 292.045C465.096 292.159 465.647 292.32 466.141 292.529C466.312 292.605 466.426 292.691 466.483 292.786C466.54 292.862 466.569 292.947 466.569 293.042L466.711 296.605C466.711 296.662 466.664 296.7 466.569 296.719C466.474 296.738 466.407 296.709 466.369 296.633C466.312 296.31 466.189 295.911 465.999 295.436C465.809 294.942 465.552 294.467 465.229 294.011C464.906 293.536 464.488 293.147 463.975 292.843C463.481 292.52 462.873 292.358 462.151 292.358C461.486 292.358 460.935 292.501 460.498 292.786C460.061 293.052 459.729 293.413 459.501 293.869C459.273 294.306 459.159 294.809 459.159 295.379Z" fill="#0F1C2E"/>
<path d="M130.027 200.914C138.749 185.879 152.131 177.4 169.002 174.361C192.969 170.045 214.355 176.096 233.202 191.049C236.466 193.639 239.439 196.528 242.257 199.572C242.741 200.094 243.387 200.528 243.424 201.617C238.668 201.879 234.008 202.291 229.602 200.118C228.346 199.498 227.707 198.27 226.848 197.269C218.172 187.15 207.525 180.022 194.255 177.044C184.825 174.927 175.348 174.961 166.1 177.891C151.935 182.379 143.46 192.18 139.766 206.06C132.795 232.255 148.526 259.284 174.827 265.686C189.414 269.237 202.879 265.951 214.902 257.167C222.726 251.45 228.93 244.235 234.563 236.511C241.47 227.038 247.739 217.103 255.809 208.472C270.277 192.998 287.271 181.408 308.353 176.373C325.158 172.359 341.338 174.187 356.655 182.278C359.324 183.688 359.386 183.797 358 186.5C357.039 188.375 356.448 190.369 355.154 192.009C354.196 192.099 353.866 191.421 353.415 190.982C343.968 181.782 332.472 177.831 319.268 177.916C304.788 178.008 293.014 184.047 282.638 193.347C273.448 201.584 266.434 211.55 259.408 221.489C251.938 232.056 244.144 242.339 233.926 250.587C219.149 262.515 202.465 270.002 183.031 269.669C164.456 269.351 148.098 263.27 135.653 249.151C129.528 242.202 126.197 234.011 125.22 224.844C124.321 216.406 126.223 208.577 130.027 200.914Z" fill="#0F1C2E"/>
<path d="M288.218 254.435C299.639 264.852 313.265 269.129 328.416 269.011C338.131 268.935 347.279 266.825 354.79 260.143C356.563 258.566 357.958 256.66 359.586 254.978C363.222 258.091 363.229 261.808 359.684 264.611C355.653 267.798 350.828 269.242 345.867 270.072C323.46 273.824 302.142 270.891 282.503 259.245C273.742 254.049 266.811 247.032 262.982 237.436C261.53 233.796 261.22 230.038 261.257 226.187C261.272 224.597 262.253 224.651 263.336 224.615C267.899 224.463 272.469 224.418 277.023 224.123C298.145 222.754 319.235 221.069 340.05 217.056C342.298 216.622 344.57 216.068 347 215.5C347.237 218.297 346.488 220.745 346.138 223.259C345.571 227.33 344.937 231.391 344.357 235.46C344.237 236.299 344.193 237.147 343.009 237.064C341.817 236.98 341.908 236.066 341.879 235.264C341.853 234.529 341.881 233.793 341.855 233.058C341.736 229.61 340.384 227.847 337.04 226.692C333.956 225.627 330.702 225.436 327.52 225.333C316.892 224.99 306.268 225.553 295.646 225.935C289.589 226.153 283.531 226.393 277.471 226.5C275.652 226.532 274.926 227.065 275.052 228.926C275.544 236.22 278.557 242.527 282.764 248.382C284.321 250.549 286.116 252.525 288.218 254.435Z" fill="#0F1C2E"/>
</svg>
