<svg width="600" height="200" viewBox="0 0 600 200" fill="none" xmlns="http://www.w3.org/2000/svg">
<rect width="600" height="200" fill="#0F1C2E"/>
<path d="M264.571 93.462C265.091 93.462 265.569 93.4893 266.006 93.544C266.457 93.585 266.874 93.6602 267.257 93.7695C267.653 93.8788 268.029 94.0223 268.384 94.2C268.494 94.241 268.555 94.2888 268.569 94.3435C268.596 94.3845 268.617 94.487 268.63 94.651L268.897 97.234C268.897 97.2613 268.856 97.2887 268.774 97.316C268.705 97.3297 268.664 97.3092 268.651 97.2545C268.309 96.1202 267.79 95.266 267.093 94.692C266.396 94.1043 265.507 93.8105 264.428 93.8105C263.334 93.8105 262.378 94.0633 261.558 94.569C260.738 95.0747 260.095 95.7922 259.631 96.7215C259.166 97.6372 258.934 98.7237 258.934 99.981C258.934 100.91 259.077 101.764 259.364 102.543C259.651 103.322 260.048 104.006 260.553 104.593C261.073 105.167 261.667 105.612 262.337 105.926C263.02 106.24 263.751 106.397 264.53 106.397C265.624 106.397 266.505 106.124 267.175 105.577C267.858 105.031 268.405 104.197 268.815 103.076C268.842 103.035 268.89 103.022 268.958 103.035C269.027 103.049 269.061 103.076 269.061 103.117L268.835 105.454C268.822 105.618 268.794 105.721 268.753 105.762C268.726 105.803 268.664 105.851 268.569 105.905C267.872 106.22 267.202 106.438 266.56 106.562C265.931 106.698 265.255 106.767 264.53 106.767C263.082 106.767 261.79 106.486 260.656 105.926C259.535 105.352 258.654 104.566 258.011 103.568C257.369 102.557 257.048 101.389 257.048 100.063C257.048 99.079 257.232 98.1838 257.601 97.3775C257.984 96.5712 258.517 95.8742 259.2 95.2865C259.884 94.6988 260.676 94.2478 261.578 93.9335C262.494 93.6192 263.492 93.462 264.571 93.462ZM286.622 96.3C286.622 95.6333 286.469 95.1267 286.162 94.78C285.869 94.42 285.429 94.24 284.842 94.24C284.802 94.24 284.782 94.2 284.782 94.12C284.782 94.04 284.802 94 284.842 94C285.149 94 285.469 94.0133 285.802 94.04C286.135 94.0533 286.495 94.06 286.882 94.06C287.215 94.06 287.542 94.0533 287.862 94.04C288.195 94.0133 288.502 94 288.782 94C288.809 94 288.822 94.04 288.822 94.12C288.822 94.2 288.809 94.24 288.782 94.24C288.249 94.24 287.842 94.42 287.562 94.78C287.295 95.1267 287.162 95.6333 287.162 96.3V101.96C287.162 102.96 286.962 103.82 286.562 104.54C286.162 105.26 285.602 105.813 284.882 106.2C284.162 106.573 283.322 106.76 282.362 106.76C281.375 106.76 280.509 106.573 279.762 106.2C279.015 105.813 278.435 105.267 278.022 104.56C277.609 103.853 277.402 103.013 277.402 102.04V95.62C277.402 95.2333 277.362 94.9467 277.282 94.76C277.202 94.56 277.042 94.4267 276.802 94.36C276.575 94.28 276.235 94.24 275.782 94.24C275.742 94.24 275.722 94.2 275.722 94.12C275.722 94.04 275.742 94 275.782 94C276.115 94 276.482 94.0133 276.882 94.04C277.282 94.0533 277.715 94.06 278.182 94.06C278.662 94.06 279.102 94.0533 279.502 94.04C279.915 94.0133 280.275 94 280.582 94C280.622 94 280.642 94.04 280.642 94.12C280.642 94.2 280.622 94.24 280.582 94.24C280.129 94.24 279.782 94.28 279.542 94.36C279.315 94.44 279.162 94.58 279.082 94.78C279.015 94.98 278.982 95.2733 278.982 95.66V101.34C278.982 102.94 279.329 104.14 280.022 104.94C280.715 105.727 281.675 106.12 282.902 106.12C284.075 106.12 284.989 105.76 285.642 105.04C286.295 104.307 286.622 103.287 286.622 101.98V96.3ZM305.106 106.5C304.892 106.5 304.539 106.247 304.046 105.74C303.566 105.22 302.986 104.487 302.306 103.54C301.626 102.58 300.859 101.44 300.006 100.12L301.346 99.7C302.466 101.313 303.412 102.6 304.186 103.56C304.972 104.52 305.666 105.213 306.266 105.64C306.866 106.053 307.439 106.26 307.986 106.26C308.026 106.26 308.046 106.3 308.046 106.38C308.046 106.46 308.026 106.5 307.986 106.5C307.239 106.5 306.626 106.5 306.146 106.5C305.679 106.5 305.332 106.5 305.106 106.5ZM300.306 93.94C301.426 93.94 302.279 94.18 302.866 94.66C303.466 95.1267 303.766 95.7533 303.766 96.54C303.766 97.2867 303.552 97.9533 303.126 98.54C302.699 99.1267 302.139 99.5867 301.446 99.92C300.766 100.253 300.032 100.42 299.246 100.42C299.086 100.42 298.919 100.42 298.746 100.42C298.572 100.407 298.412 100.393 298.266 100.38V104.88C298.266 105.267 298.299 105.56 298.366 105.76C298.446 105.96 298.599 106.093 298.826 106.16C299.066 106.227 299.419 106.26 299.886 106.26C299.926 106.26 299.946 106.3 299.946 106.38C299.946 106.46 299.926 106.5 299.886 106.5C299.552 106.5 299.186 106.493 298.786 106.48C298.386 106.467 297.946 106.46 297.466 106.46C297.012 106.46 296.579 106.467 296.166 106.48C295.752 106.493 295.379 106.5 295.046 106.5C295.006 106.5 294.986 106.46 294.986 106.38C294.986 106.3 295.006 106.26 295.046 106.26C295.499 106.26 295.839 106.227 296.066 106.16C296.306 106.093 296.466 105.96 296.546 105.76C296.639 105.56 296.686 105.267 296.686 104.88V95.62C296.686 95.2333 296.646 94.9467 296.566 94.76C296.486 94.56 296.332 94.4267 296.106 94.36C295.879 94.28 295.532 94.24 295.066 94.24C295.039 94.24 295.026 94.2 295.026 94.12C295.026 94.04 295.039 94 295.066 94C295.399 94 295.766 94.0133 296.166 94.04C296.579 94.0533 297.012 94.06 297.466 94.06C297.892 94.06 298.372 94.04 298.906 94C299.439 93.96 299.906 93.94 300.306 93.94ZM302.126 97.18C302.126 96.4333 302.026 95.8533 301.826 95.44C301.626 95.0133 301.339 94.7133 300.966 94.54C300.606 94.3667 300.179 94.28 299.686 94.28C299.179 94.28 298.812 94.3733 298.586 94.56C298.372 94.7333 298.266 95.1 298.266 95.66V99.88C298.452 99.8933 298.652 99.9067 298.866 99.92C299.092 99.9333 299.286 99.94 299.446 99.94C300.432 99.94 301.126 99.7133 301.526 99.26C301.926 98.8067 302.126 98.1133 302.126 97.18ZM316.539 101.28L316.779 100.84H322.219L322.359 101.28H316.539ZM326.879 106.26C326.946 106.26 326.979 106.3 326.979 106.38C326.979 106.46 326.946 106.5 326.879 106.5C326.492 106.5 326.092 106.487 325.679 106.46C325.279 106.433 324.886 106.42 324.499 106.42C324.072 106.42 323.699 106.433 323.379 106.46C323.072 106.487 322.726 106.5 322.339 106.5C322.286 106.5 322.259 106.46 322.259 106.38C322.259 106.3 322.286 106.26 322.339 106.26C322.992 106.26 323.392 106.16 323.539 105.96C323.686 105.747 323.612 105.333 323.319 104.72L319.019 95.78L319.659 94.82L315.759 103.86C315.412 104.673 315.392 105.28 315.699 105.68C316.006 106.067 316.579 106.26 317.419 106.26C317.486 106.26 317.519 106.3 317.519 106.38C317.519 106.46 317.486 106.5 317.419 106.5C317.019 106.5 316.652 106.487 316.319 106.46C315.986 106.433 315.566 106.42 315.059 106.42C314.566 106.42 314.166 106.433 313.859 106.46C313.566 106.487 313.206 106.5 312.779 106.5C312.726 106.5 312.699 106.46 312.699 106.38C312.699 106.3 312.726 106.26 312.779 106.26C313.139 106.26 313.452 106.193 313.719 106.06C313.986 105.913 314.239 105.653 314.479 105.28C314.732 104.907 315.006 104.373 315.299 103.68L319.559 93.86C319.572 93.82 319.619 93.8 319.699 93.8C319.779 93.7867 319.826 93.8067 319.839 93.86L324.639 103.76C324.959 104.413 325.232 104.927 325.459 105.3C325.699 105.66 325.932 105.913 326.159 106.06C326.386 106.193 326.626 106.26 326.879 106.26ZM334.494 94.4C333.667 94.4 333.021 94.6333 332.554 95.1C332.087 95.5533 331.741 96.2867 331.514 97.3C331.501 97.3267 331.454 97.34 331.374 97.34C331.307 97.34 331.274 97.32 331.274 97.28C331.301 97.1067 331.327 96.86 331.354 96.54C331.394 96.22 331.427 95.8733 331.454 95.5C331.481 95.1267 331.501 94.7667 331.514 94.42C331.541 94.0733 331.554 93.7867 331.554 93.56C331.554 93.4933 331.594 93.46 331.674 93.46C331.754 93.46 331.794 93.4933 331.794 93.56C331.794 93.6933 331.861 93.7933 331.994 93.86C332.127 93.9133 332.281 93.9533 332.454 93.98C332.627 93.9933 332.774 94 332.894 94C334.041 94.04 335.381 94.06 336.914 94.06C337.847 94.06 338.594 94.0533 339.154 94.04C339.714 94.0133 340.254 94 340.774 94C341.227 94 341.574 93.9733 341.814 93.92C342.067 93.8533 342.227 93.7133 342.294 93.5C342.307 93.4467 342.347 93.42 342.414 93.42C342.494 93.42 342.534 93.4467 342.534 93.5C342.507 93.7 342.481 93.98 342.454 94.34C342.441 94.7 342.421 95.0733 342.394 95.46C342.381 95.8467 342.367 96.2067 342.354 96.54C342.341 96.8733 342.334 97.12 342.334 97.28C342.334 97.32 342.294 97.34 342.214 97.34C342.147 97.34 342.114 97.32 342.114 97.28C342.021 96.24 341.754 95.5 341.314 95.06C340.874 94.62 340.221 94.4 339.354 94.4C338.887 94.4 338.534 94.4333 338.294 94.5C338.067 94.5533 337.914 94.6667 337.834 94.84C337.767 95.0133 337.734 95.2867 337.734 95.66V104.88C337.734 105.267 337.774 105.56 337.854 105.76C337.947 105.96 338.121 106.093 338.374 106.16C338.641 106.227 339.047 106.26 339.594 106.26C339.621 106.26 339.634 106.3 339.634 106.38C339.634 106.46 339.621 106.5 339.594 106.5C339.234 106.5 338.827 106.493 338.374 106.48C337.934 106.467 337.447 106.46 336.914 106.46C336.407 106.46 335.927 106.467 335.474 106.48C335.034 106.493 334.627 106.5 334.254 106.5C334.214 106.5 334.194 106.46 334.194 106.38C334.194 106.3 334.214 106.26 334.254 106.26C334.774 106.26 335.167 106.227 335.434 106.16C335.714 106.093 335.901 105.96 335.994 105.76C336.087 105.56 336.134 105.267 336.134 104.88V95.62C336.134 95.26 336.094 94.9933 336.014 94.82C335.934 94.6333 335.774 94.52 335.534 94.48C335.294 94.4267 334.947 94.4 334.494 94.4ZM357.628 106.5H349.108C349.068 106.5 349.048 106.46 349.048 106.38C349.048 106.3 349.068 106.26 349.108 106.26C349.562 106.26 349.902 106.227 350.128 106.16C350.368 106.093 350.528 105.96 350.608 105.76C350.688 105.56 350.728 105.267 350.728 104.88V95.62C350.728 95.2333 350.688 94.9467 350.608 94.76C350.528 94.56 350.368 94.4267 350.128 94.36C349.902 94.28 349.562 94.24 349.108 94.24C349.068 94.24 349.048 94.2 349.048 94.12C349.048 94.04 349.068 94 349.108 94H357.268C357.402 94 357.468 94.06 357.468 94.18L357.508 96.7C357.508 96.74 357.468 96.7667 357.388 96.78C357.322 96.78 357.282 96.76 357.268 96.72C357.175 95.9867 356.915 95.4333 356.488 95.06C356.062 94.6733 355.502 94.48 354.808 94.48H353.788C353.388 94.48 353.082 94.5133 352.868 94.58C352.655 94.6467 352.508 94.7733 352.428 94.96C352.348 95.1333 352.308 95.38 352.308 95.7V104.8C352.308 105.12 352.342 105.373 352.408 105.56C352.488 105.733 352.628 105.86 352.828 105.94C353.028 106.007 353.308 106.04 353.668 106.04H354.988C355.748 106.04 356.375 105.82 356.868 105.38C357.362 104.927 357.702 104.287 357.888 103.46C357.888 103.42 357.928 103.407 358.008 103.42C358.088 103.433 358.128 103.46 358.128 103.5C358.075 103.86 358.028 104.293 357.988 104.8C357.948 105.307 357.928 105.773 357.928 106.2C357.928 106.4 357.828 106.5 357.628 106.5ZM356.508 101.9C356.508 101.327 356.342 100.907 356.008 100.64C355.688 100.36 355.168 100.22 354.448 100.22H351.548V99.76H354.508C355.188 99.76 355.688 99.6467 356.008 99.42C356.328 99.18 356.488 98.8133 356.488 98.32C356.488 98.2933 356.522 98.28 356.588 98.28C356.668 98.28 356.708 98.2933 356.708 98.32C356.708 98.7333 356.702 99.0533 356.688 99.28C356.688 99.5067 356.688 99.7467 356.688 100C356.688 100.307 356.695 100.613 356.708 100.92C356.735 101.227 356.748 101.553 356.748 101.9C356.748 101.927 356.708 101.94 356.628 101.94C356.548 101.94 356.508 101.927 356.508 101.9ZM370.288 106.58C369.888 106.58 369.395 106.56 368.808 106.52C368.221 106.48 367.681 106.46 367.188 106.46C366.735 106.46 366.295 106.467 365.868 106.48C365.455 106.493 365.081 106.5 364.748 106.5C364.721 106.5 364.708 106.46 364.708 106.38C364.708 106.3 364.721 106.26 364.748 106.26C365.215 106.26 365.568 106.227 365.808 106.16C366.048 106.093 366.208 105.96 366.288 105.76C366.368 105.56 366.408 105.267 366.408 104.88V95.62C366.408 95.2333 366.368 94.9467 366.288 94.76C366.208 94.56 366.048 94.4267 365.808 94.36C365.581 94.28 365.241 94.24 364.788 94.24C364.748 94.24 364.728 94.2 364.728 94.12C364.728 94.04 364.748 94 364.788 94C365.121 94 365.488 94.0133 365.888 94.04C366.301 94.0533 366.735 94.06 367.188 94.06C367.641 94.06 368.128 94.0467 368.648 94.02C369.181 93.98 369.635 93.96 370.008 93.96C371.421 93.96 372.648 94.2267 373.688 94.76C374.741 95.2933 375.561 96.02 376.148 96.94C376.735 97.86 377.028 98.8933 377.028 100.04C377.028 101.04 376.848 101.947 376.488 102.76C376.141 103.56 375.655 104.247 375.028 104.82C374.401 105.38 373.681 105.813 372.868 106.12C372.055 106.427 371.195 106.58 370.288 106.58ZM370.088 106.22C371.088 106.22 371.968 106 372.728 105.56C373.501 105.12 374.108 104.473 374.548 103.62C374.988 102.753 375.208 101.707 375.208 100.48C375.208 99.32 375.001 98.28 374.588 97.36C374.175 96.4267 373.595 95.6867 372.848 95.14C372.115 94.58 371.235 94.3 370.208 94.3C369.408 94.3 368.835 94.38 368.488 94.54C368.155 94.7 367.988 95.0733 367.988 95.66V104.66C367.988 105.193 368.121 105.587 368.388 105.84C368.655 106.093 369.221 106.22 370.088 106.22ZM402.316 106.5H393.583C393.542 106.5 393.521 106.459 393.521 106.377C393.521 106.295 393.542 106.254 393.583 106.254C394.048 106.254 394.396 106.22 394.628 106.151C394.874 106.083 395.038 105.946 395.12 105.741C395.202 105.536 395.243 105.236 395.243 104.839V95.348C395.243 94.9517 395.202 94.6578 395.12 94.4665C395.038 94.2615 394.874 94.1248 394.628 94.0565C394.396 93.9745 394.048 93.9335 393.583 93.9335C393.542 93.9335 393.521 93.8925 393.521 93.8105C393.521 93.7285 393.542 93.6875 393.583 93.6875H401.947C402.084 93.6875 402.152 93.749 402.152 93.872L402.193 96.455C402.193 96.496 402.152 96.5233 402.07 96.537C402.002 96.537 401.961 96.5165 401.947 96.4755C401.851 95.7238 401.585 95.1567 401.147 94.774C400.71 94.3777 400.136 94.1795 399.425 94.1795H398.38C397.97 94.1795 397.656 94.2137 397.437 94.282C397.218 94.3503 397.068 94.4802 396.986 94.6715C396.904 94.8492 396.863 95.102 396.863 95.43V104.757C396.863 105.085 396.897 105.345 396.965 105.536C397.047 105.714 397.191 105.844 397.396 105.926C397.601 105.994 397.888 106.028 398.257 106.028H399.61C400.389 106.028 401.031 105.803 401.537 105.352C402.043 104.887 402.391 104.231 402.582 103.384C402.582 103.343 402.623 103.329 402.705 103.343C402.787 103.357 402.828 103.384 402.828 103.425C402.774 103.794 402.726 104.238 402.685 104.757C402.644 105.277 402.623 105.755 402.623 106.192C402.623 106.397 402.521 106.5 402.316 106.5ZM401.168 101.785C401.168 101.197 400.997 100.767 400.655 100.493C400.327 100.206 399.794 100.063 399.056 100.063H396.084V99.5915H399.118C399.815 99.5915 400.327 99.4753 400.655 99.243C400.983 98.997 401.147 98.6212 401.147 98.1155C401.147 98.0882 401.182 98.0745 401.25 98.0745C401.332 98.0745 401.373 98.0882 401.373 98.1155C401.373 98.5392 401.366 98.8672 401.352 99.0995C401.352 99.3318 401.352 99.5778 401.352 99.8375C401.352 100.152 401.359 100.466 401.373 100.78C401.4 101.095 401.414 101.43 401.414 101.785C401.414 101.812 401.373 101.826 401.291 101.826C401.209 101.826 401.168 101.812 401.168 101.785ZM417.137 106.5C417.111 106.5 417.097 106.46 417.097 106.38C417.097 106.3 417.111 106.26 417.137 106.26C417.551 106.26 417.824 106.207 417.957 106.1C418.104 105.993 418.077 105.787 417.877 105.48L411.497 95.74C411.137 95.1933 410.784 94.8067 410.437 94.58C410.104 94.3533 409.724 94.24 409.297 94.24C409.271 94.24 409.257 94.2 409.257 94.12C409.257 94.04 409.271 94 409.297 94C409.551 94 409.817 94.0133 410.097 94.04C410.377 94.0533 410.637 94.06 410.877 94.06C411.424 94.06 411.931 94.0533 412.397 94.04C412.864 94.0133 413.271 94 413.617 94C413.657 94 413.677 94.04 413.677 94.12C413.677 94.2 413.657 94.24 413.617 94.24C413.204 94.24 412.924 94.2933 412.777 94.4C412.644 94.5067 412.677 94.72 412.877 95.04L419.317 104.84C419.664 105.36 420.017 105.727 420.377 105.94C420.737 106.153 421.177 106.26 421.697 106.26C421.724 106.26 421.737 106.3 421.737 106.38C421.737 106.46 421.724 106.5 421.697 106.5C421.417 106.5 421.111 106.493 420.777 106.48C420.444 106.467 420.091 106.46 419.717 106.46C419.171 106.46 418.691 106.467 418.277 106.48C417.877 106.493 417.497 106.5 417.137 106.5ZM409.197 106.5C409.157 106.5 409.137 106.46 409.137 106.38C409.137 106.3 409.157 106.26 409.197 106.26C409.624 106.26 410.091 106.093 410.597 105.76C411.104 105.427 411.617 104.9 412.137 104.18L414.977 100.3L415.257 100.52L412.637 104.22C412.171 104.86 411.984 105.36 412.077 105.72C412.184 106.08 412.557 106.26 413.197 106.26C413.237 106.26 413.257 106.3 413.257 106.38C413.257 106.46 413.237 106.5 413.197 106.5C412.837 106.5 412.491 106.493 412.157 106.48C411.824 106.467 411.391 106.46 410.857 106.46C410.497 106.46 410.211 106.467 409.997 106.48C409.784 106.493 409.517 106.5 409.197 106.5ZM415.597 100.22L415.317 100L417.857 96.38C418.337 95.7 418.531 95.1733 418.437 94.8C418.357 94.4267 418.004 94.24 417.377 94.24C417.337 94.24 417.317 94.2 417.317 94.12C417.317 94.04 417.337 94 417.377 94C417.737 94 418.084 94.0133 418.417 94.04C418.751 94.0533 419.184 94.06 419.717 94.06C420.077 94.06 420.364 94.0533 420.577 94.04C420.791 94.0133 421.051 94 421.357 94C421.397 94 421.417 94.04 421.417 94.12C421.417 94.2 421.397 94.24 421.357 94.24C420.944 94.24 420.477 94.42 419.957 94.78C419.437 95.14 418.904 95.6933 418.357 96.44L415.597 100.22ZM430.945 104.8C430.945 105.2 430.992 105.507 431.085 105.72C431.192 105.92 431.405 106.06 431.725 106.14C432.045 106.22 432.525 106.26 433.165 106.26C433.205 106.26 433.225 106.3 433.225 106.38C433.225 106.46 433.205 106.5 433.165 106.5C432.738 106.5 432.272 106.493 431.765 106.48C431.272 106.467 430.732 106.46 430.145 106.46C429.705 106.46 429.272 106.467 428.845 106.48C428.432 106.493 428.058 106.5 427.725 106.5C427.698 106.5 427.685 106.46 427.685 106.38C427.685 106.3 427.698 106.26 427.725 106.26C428.192 106.26 428.538 106.227 428.765 106.16C429.005 106.093 429.158 105.96 429.225 105.76C429.305 105.56 429.345 105.267 429.345 104.88V95.62C429.345 95.2333 429.305 94.9467 429.225 94.76C429.158 94.56 429.005 94.4267 428.765 94.36C428.538 94.28 428.192 94.24 427.725 94.24C427.698 94.24 427.685 94.2 427.685 94.12C427.685 94.04 427.698 94 427.725 94C428.058 94 428.432 94.0133 428.845 94.04C429.258 94.0533 429.685 94.06 430.125 94.06C430.472 94.06 430.892 94.04 431.385 94C431.892 93.96 432.398 93.94 432.905 93.94C433.678 93.94 434.372 94.0533 434.985 94.28C435.612 94.5067 436.112 94.86 436.485 95.34C436.858 95.82 437.052 96.4467 437.065 97.22C437.065 97.9133 436.938 98.5133 436.685 99.02C436.432 99.5267 436.085 99.9467 435.645 100.28C435.218 100.613 434.738 100.86 434.205 101.02C433.685 101.18 433.172 101.26 432.665 101.26C432.505 101.26 432.338 101.253 432.165 101.24C432.005 101.227 431.852 101.2 431.705 101.16C431.652 101.147 431.632 101.1 431.645 101.02C431.672 100.927 431.705 100.887 431.745 100.9C431.865 100.927 431.985 100.947 432.105 100.96C432.238 100.973 432.352 100.98 432.445 100.98C432.952 100.98 433.418 100.86 433.845 100.62C434.272 100.38 434.618 100.013 434.885 99.52C435.152 99.0133 435.285 98.3867 435.285 97.64C435.285 96.92 435.158 96.3133 434.905 95.82C434.665 95.3267 434.325 94.9467 433.885 94.68C433.445 94.4133 432.938 94.28 432.365 94.28C431.992 94.28 431.698 94.3067 431.485 94.36C431.285 94.4133 431.145 94.54 431.065 94.74C430.985 94.94 430.945 95.2467 430.945 95.66V104.8ZM452.243 106.5H443.723C443.683 106.5 443.663 106.46 443.663 106.38C443.663 106.3 443.683 106.26 443.723 106.26C444.176 106.26 444.516 106.227 444.743 106.16C444.983 106.093 445.143 105.96 445.223 105.76C445.303 105.56 445.343 105.267 445.343 104.88V95.62C445.343 95.2333 445.303 94.9467 445.223 94.76C445.143 94.56 444.983 94.4267 444.743 94.36C444.516 94.28 444.176 94.24 443.723 94.24C443.683 94.24 443.663 94.2 443.663 94.12C443.663 94.04 443.683 94 443.723 94H451.883C452.016 94 452.083 94.06 452.083 94.18L452.123 96.7C452.123 96.74 452.083 96.7667 452.003 96.78C451.936 96.78 451.896 96.76 451.883 96.72C451.79 95.9867 451.53 95.4333 451.103 95.06C450.676 94.6733 450.116 94.48 449.423 94.48H448.403C448.003 94.48 447.696 94.5133 447.483 94.58C447.27 94.6467 447.123 94.7733 447.043 94.96C446.963 95.1333 446.923 95.38 446.923 95.7V104.8C446.923 105.12 446.956 105.373 447.023 105.56C447.103 105.733 447.243 105.86 447.443 105.94C447.643 106.007 447.923 106.04 448.283 106.04H449.603C450.363 106.04 450.99 105.82 451.483 105.38C451.976 104.927 452.316 104.287 452.503 103.46C452.503 103.42 452.543 103.407 452.623 103.42C452.703 103.433 452.743 103.46 452.743 103.5C452.69 103.86 452.643 104.293 452.603 104.8C452.563 105.307 452.543 105.773 452.543 106.2C452.543 106.4 452.443 106.5 452.243 106.5ZM451.123 101.9C451.123 101.327 450.956 100.907 450.623 100.64C450.303 100.36 449.783 100.22 449.063 100.22H446.163V99.76H449.123C449.803 99.76 450.303 99.6467 450.623 99.42C450.943 99.18 451.103 98.8133 451.103 98.32C451.103 98.2933 451.136 98.28 451.203 98.28C451.283 98.28 451.323 98.2933 451.323 98.32C451.323 98.7333 451.316 99.0533 451.303 99.28C451.303 99.5067 451.303 99.7467 451.303 100C451.303 100.307 451.31 100.613 451.323 100.92C451.35 101.227 451.363 101.553 451.363 101.9C451.363 101.927 451.323 101.94 451.243 101.94C451.163 101.94 451.123 101.927 451.123 101.9ZM469.623 106.5C469.41 106.5 469.056 106.247 468.563 105.74C468.083 105.22 467.503 104.487 466.823 103.54C466.143 102.58 465.376 101.44 464.523 100.12L465.863 99.7C466.983 101.313 467.93 102.6 468.703 103.56C469.49 104.52 470.183 105.213 470.783 105.64C471.383 106.053 471.956 106.26 472.503 106.26C472.543 106.26 472.563 106.3 472.563 106.38C472.563 106.46 472.543 106.5 472.503 106.5C471.756 106.5 471.143 106.5 470.663 106.5C470.196 106.5 469.85 106.5 469.623 106.5ZM464.823 93.94C465.943 93.94 466.796 94.18 467.383 94.66C467.983 95.1267 468.283 95.7533 468.283 96.54C468.283 97.2867 468.07 97.9533 467.643 98.54C467.216 99.1267 466.656 99.5867 465.963 99.92C465.283 100.253 464.55 100.42 463.763 100.42C463.603 100.42 463.436 100.42 463.263 100.42C463.09 100.407 462.93 100.393 462.783 100.38V104.88C462.783 105.267 462.816 105.56 462.883 105.76C462.963 105.96 463.116 106.093 463.343 106.16C463.583 106.227 463.936 106.26 464.403 106.26C464.443 106.26 464.463 106.3 464.463 106.38C464.463 106.46 464.443 106.5 464.403 106.5C464.07 106.5 463.703 106.493 463.303 106.48C462.903 106.467 462.463 106.46 461.983 106.46C461.53 106.46 461.096 106.467 460.683 106.48C460.27 106.493 459.896 106.5 459.563 106.5C459.523 106.5 459.503 106.46 459.503 106.38C459.503 106.3 459.523 106.26 459.563 106.26C460.016 106.26 460.356 106.227 460.583 106.16C460.823 106.093 460.983 105.96 461.063 105.76C461.156 105.56 461.203 105.267 461.203 104.88V95.62C461.203 95.2333 461.163 94.9467 461.083 94.76C461.003 94.56 460.85 94.4267 460.623 94.36C460.396 94.28 460.05 94.24 459.583 94.24C459.556 94.24 459.543 94.2 459.543 94.12C459.543 94.04 459.556 94 459.583 94C459.916 94 460.283 94.0133 460.683 94.04C461.096 94.0533 461.53 94.06 461.983 94.06C462.41 94.06 462.89 94.04 463.423 94C463.956 93.96 464.423 93.94 464.823 93.94ZM466.643 97.18C466.643 96.4333 466.543 95.8533 466.343 95.44C466.143 95.0133 465.856 94.7133 465.483 94.54C465.123 94.3667 464.696 94.28 464.203 94.28C463.696 94.28 463.33 94.3733 463.103 94.56C462.89 94.7333 462.783 95.1 462.783 95.66V99.88C462.97 99.8933 463.17 99.9067 463.383 99.92C463.61 99.9333 463.803 99.94 463.963 99.94C464.95 99.94 465.643 99.7133 466.043 99.26C466.443 98.8067 466.643 98.1133 466.643 97.18ZM481.476 104.88C481.476 105.267 481.509 105.56 481.576 105.76C481.656 105.96 481.809 106.093 482.036 106.16C482.276 106.227 482.629 106.26 483.096 106.26C483.123 106.26 483.136 106.3 483.136 106.38C483.136 106.46 483.123 106.5 483.096 106.5C482.763 106.5 482.389 106.493 481.976 106.48C481.576 106.467 481.136 106.46 480.656 106.46C480.189 106.46 479.749 106.467 479.336 106.48C478.923 106.493 478.549 106.5 478.216 106.5C478.189 106.5 478.176 106.46 478.176 106.38C478.176 106.3 478.189 106.26 478.216 106.26C478.683 106.26 479.036 106.227 479.276 106.16C479.516 106.093 479.676 105.96 479.756 105.76C479.836 105.56 479.876 105.267 479.876 104.88V95.62C479.876 95.2333 479.836 94.9467 479.756 94.76C479.676 94.56 479.516 94.4267 479.276 94.36C479.036 94.28 478.683 94.24 478.216 94.24C478.189 94.24 478.176 94.2 478.176 94.12C478.176 94.04 478.189 94 478.216 94C478.549 94 478.923 94.0133 479.336 94.04C479.749 94.0533 480.189 94.06 480.656 94.06C481.136 94.06 481.583 94.0533 481.996 94.04C482.409 94.0133 482.776 94 483.096 94C483.123 94 483.136 94.04 483.136 94.12C483.136 94.2 483.123 94.24 483.096 94.24C482.629 94.24 482.283 94.28 482.056 94.36C481.829 94.44 481.676 94.58 481.596 94.78C481.516 94.98 481.476 95.2733 481.476 95.66V104.88ZM498.395 106.5H489.875C489.835 106.5 489.815 106.46 489.815 106.38C489.815 106.3 489.835 106.26 489.875 106.26C490.329 106.26 490.669 106.227 490.895 106.16C491.135 106.093 491.295 105.96 491.375 105.76C491.455 105.56 491.495 105.267 491.495 104.88V95.62C491.495 95.2333 491.455 94.9467 491.375 94.76C491.295 94.56 491.135 94.4267 490.895 94.36C490.669 94.28 490.329 94.24 489.875 94.24C489.835 94.24 489.815 94.2 489.815 94.12C489.815 94.04 489.835 94 489.875 94H498.035C498.169 94 498.235 94.06 498.235 94.18L498.275 96.7C498.275 96.74 498.235 96.7667 498.155 96.78C498.089 96.78 498.049 96.76 498.035 96.72C497.942 95.9867 497.682 95.4333 497.255 95.06C496.829 94.6733 496.269 94.48 495.575 94.48H494.555C494.155 94.48 493.849 94.5133 493.635 94.58C493.422 94.6467 493.275 94.7733 493.195 94.96C493.115 95.1333 493.075 95.38 493.075 95.7V104.8C493.075 105.12 493.109 105.373 493.175 105.56C493.255 105.733 493.395 105.86 493.595 105.94C493.795 106.007 494.075 106.04 494.435 106.04H495.755C496.515 106.04 497.142 105.82 497.635 105.38C498.129 104.927 498.469 104.287 498.655 103.46C498.655 103.42 498.695 103.407 498.775 103.42C498.855 103.433 498.895 103.46 498.895 103.5C498.842 103.86 498.795 104.293 498.755 104.8C498.715 105.307 498.695 105.773 498.695 106.2C498.695 106.4 498.595 106.5 498.395 106.5ZM497.275 101.9C497.275 101.327 497.109 100.907 496.775 100.64C496.455 100.36 495.935 100.22 495.215 100.22H492.315V99.76H495.275C495.955 99.76 496.455 99.6467 496.775 99.42C497.095 99.18 497.255 98.8133 497.255 98.32C497.255 98.2933 497.289 98.28 497.355 98.28C497.435 98.28 497.475 98.2933 497.475 98.32C497.475 98.7333 497.469 99.0533 497.455 99.28C497.455 99.5067 497.455 99.7467 497.455 100C497.455 100.307 497.462 100.613 497.475 100.92C497.502 101.227 497.515 101.553 497.515 101.9C497.515 101.927 497.475 101.94 497.395 101.94C497.315 101.94 497.275 101.927 497.275 101.9ZM507.295 104.22V94.46L507.815 94.5V104.22C507.815 104.913 507.942 105.427 508.195 105.76C508.449 106.093 508.849 106.26 509.395 106.26C509.422 106.26 509.435 106.3 509.435 106.38C509.435 106.46 509.422 106.5 509.395 106.5C509.115 106.5 508.829 106.493 508.535 106.48C508.255 106.467 507.935 106.46 507.575 106.46C507.229 106.46 506.889 106.467 506.555 106.48C506.222 106.493 505.909 106.5 505.615 106.5C505.589 106.5 505.575 106.46 505.575 106.38C505.575 106.3 505.589 106.26 505.615 106.26C506.202 106.26 506.629 106.093 506.895 105.76C507.162 105.427 507.295 104.913 507.295 104.22ZM517.415 106.76C517.415 106.787 517.382 106.8 517.315 106.8C517.262 106.813 517.222 106.813 517.195 106.8L507.775 95.64C507.309 95.0933 506.902 94.7267 506.555 94.54C506.222 94.34 505.889 94.24 505.555 94.24C505.529 94.24 505.515 94.2 505.515 94.12C505.515 94.04 505.529 94 505.555 94C505.809 94 506.062 94.0067 506.315 94.02C506.569 94.0333 506.802 94.04 507.015 94.04C507.335 94.04 507.629 94.0333 507.895 94.02C508.162 94.0067 508.362 94 508.495 94C508.669 94 508.795 94.08 508.875 94.24C508.955 94.3867 509.149 94.6533 509.455 95.04L517.255 104.44L517.415 106.76ZM517.415 96.3V106.76L516.915 106.14V96.3C516.915 95.6067 516.789 95.0933 516.535 94.76C516.295 94.4133 515.902 94.24 515.355 94.24C515.329 94.24 515.315 94.2 515.315 94.12C515.315 94.04 515.329 94 515.355 94C515.635 94 515.922 94.0133 516.215 94.04C516.509 94.0533 516.829 94.06 517.175 94.06C517.509 94.06 517.835 94.0533 518.155 94.04C518.475 94.0133 518.775 94 519.055 94C519.082 94 519.095 94.04 519.095 94.12C519.095 94.2 519.082 94.24 519.055 94.24C518.495 94.24 518.082 94.4133 517.815 94.76C517.549 95.0933 517.415 95.6067 517.415 96.3ZM532.785 93.78C533.291 93.78 533.758 93.8067 534.185 93.86C534.625 93.9 535.031 93.9733 535.405 94.08C535.791 94.1867 536.158 94.3267 536.505 94.5C536.611 94.54 536.671 94.5867 536.685 94.64C536.711 94.68 536.731 94.78 536.745 94.94L537.005 97.46C537.005 97.4867 536.965 97.5133 536.885 97.54C536.818 97.5533 536.778 97.5333 536.765 97.48C536.431 96.3733 535.925 95.54 535.245 94.98C534.565 94.4067 533.698 94.12 532.645 94.12C531.578 94.12 530.645 94.3667 529.845 94.86C529.045 95.3533 528.418 96.0533 527.965 96.96C527.511 97.8533 527.285 98.9133 527.285 100.14C527.285 101.047 527.425 101.88 527.705 102.64C527.985 103.4 528.371 104.067 528.865 104.64C529.371 105.2 529.951 105.633 530.605 105.94C531.271 106.247 531.985 106.4 532.745 106.4C533.811 106.4 534.671 106.133 535.325 105.6C535.991 105.067 536.525 104.253 536.925 103.16C536.951 103.12 536.998 103.107 537.065 103.12C537.131 103.133 537.165 103.16 537.165 103.2L536.945 105.48C536.931 105.64 536.905 105.74 536.865 105.78C536.838 105.82 536.778 105.867 536.685 105.92C536.005 106.227 535.351 106.44 534.725 106.56C534.111 106.693 533.451 106.76 532.745 106.76C531.331 106.76 530.071 106.487 528.965 105.94C527.871 105.38 527.011 104.613 526.385 103.64C525.758 102.653 525.445 101.513 525.445 100.22C525.445 99.26 525.625 98.3867 525.985 97.6C526.358 96.8133 526.878 96.1333 527.545 95.56C528.211 94.9867 528.985 94.5467 529.865 94.24C530.758 93.9333 531.731 93.78 532.785 93.78ZM552.516 106.5H543.996C543.956 106.5 543.936 106.46 543.936 106.38C543.936 106.3 543.956 106.26 543.996 106.26C544.45 106.26 544.79 106.227 545.016 106.16C545.256 106.093 545.416 105.96 545.496 105.76C545.576 105.56 545.616 105.267 545.616 104.88V95.62C545.616 95.2333 545.576 94.9467 545.496 94.76C545.416 94.56 545.256 94.4267 545.016 94.36C544.79 94.28 544.45 94.24 543.996 94.24C543.956 94.24 543.936 94.2 543.936 94.12C543.936 94.04 543.956 94 543.996 94H552.156C552.29 94 552.356 94.06 552.356 94.18L552.396 96.7C552.396 96.74 552.356 96.7667 552.276 96.78C552.21 96.78 552.17 96.76 552.156 96.72C552.063 95.9867 551.803 95.4333 551.376 95.06C550.95 94.6733 550.39 94.48 549.696 94.48H548.676C548.276 94.48 547.97 94.5133 547.756 94.58C547.543 94.6467 547.396 94.7733 547.316 94.96C547.236 95.1333 547.196 95.38 547.196 95.7V104.8C547.196 105.12 547.23 105.373 547.296 105.56C547.376 105.733 547.516 105.86 547.716 105.94C547.916 106.007 548.196 106.04 548.556 106.04H549.876C550.636 106.04 551.263 105.82 551.756 105.38C552.25 104.927 552.59 104.287 552.776 103.46C552.776 103.42 552.816 103.407 552.896 103.42C552.976 103.433 553.016 103.46 553.016 103.5C552.963 103.86 552.916 104.293 552.876 104.8C552.836 105.307 552.816 105.773 552.816 106.2C552.816 106.4 552.716 106.5 552.516 106.5ZM551.396 101.9C551.396 101.327 551.23 100.907 550.896 100.64C550.576 100.36 550.056 100.22 549.336 100.22H546.436V99.76H549.396C550.076 99.76 550.576 99.6467 550.896 99.42C551.216 99.18 551.376 98.8133 551.376 98.32C551.376 98.2933 551.41 98.28 551.476 98.28C551.556 98.28 551.596 98.2933 551.596 98.32C551.596 98.7333 551.59 99.0533 551.576 99.28C551.576 99.5067 551.576 99.7467 551.576 100C551.576 100.307 551.583 100.613 551.596 100.92C551.623 101.227 551.636 101.553 551.636 101.9C551.636 101.927 551.596 101.94 551.516 101.94C551.436 101.94 551.396 101.927 551.396 101.9ZM562.056 96.24C562.056 96.7733 562.19 97.2333 562.456 97.62C562.723 98.0067 563.07 98.3533 563.496 98.66C563.923 98.9533 564.376 99.2467 564.856 99.54C565.35 99.8333 565.823 100.147 566.276 100.48C566.743 100.813 567.123 101.207 567.416 101.66C567.723 102.1 567.876 102.64 567.876 103.28C567.876 103.933 567.703 104.52 567.356 105.04C567.023 105.56 566.543 105.973 565.916 106.28C565.303 106.587 564.563 106.74 563.696 106.74C563.35 106.74 562.996 106.707 562.636 106.64C562.29 106.587 561.956 106.507 561.636 106.4C561.316 106.293 561.023 106.16 560.756 106C560.703 105.96 560.656 105.913 560.616 105.86C560.59 105.807 560.576 105.727 560.576 105.62L560.376 102.76C560.363 102.693 560.39 102.66 560.456 102.66C560.536 102.647 560.583 102.667 560.596 102.72C560.716 103.133 560.876 103.553 561.076 103.98C561.276 104.407 561.516 104.8 561.796 105.16C562.076 105.507 562.41 105.793 562.796 106.02C563.196 106.247 563.656 106.36 564.176 106.36C564.536 106.36 564.883 106.293 565.216 106.16C565.563 106.027 565.843 105.807 566.056 105.5C566.27 105.18 566.376 104.74 566.376 104.18C566.376 103.54 566.236 103 565.956 102.56C565.676 102.12 565.316 101.74 564.876 101.42C564.436 101.1 563.97 100.793 563.476 100.5C563.01 100.207 562.556 99.9 562.116 99.58C561.69 99.26 561.343 98.8933 561.076 98.48C560.81 98.0533 560.676 97.54 560.676 96.94C560.676 96.22 560.863 95.6267 561.236 95.16C561.623 94.6933 562.11 94.3467 562.696 94.12C563.296 93.8933 563.91 93.78 564.536 93.78C564.95 93.78 565.37 93.82 565.796 93.9C566.223 93.98 566.61 94.0933 566.956 94.24C567.076 94.2933 567.156 94.3533 567.196 94.42C567.236 94.4733 567.256 94.5333 567.256 94.6L567.356 97.1C567.356 97.14 567.323 97.1667 567.256 97.18C567.19 97.1933 567.143 97.1733 567.116 97.12C567.076 96.8933 566.99 96.6133 566.856 96.28C566.723 95.9333 566.543 95.6 566.316 95.28C566.09 94.9467 565.796 94.6733 565.436 94.46C565.09 94.2333 564.663 94.12 564.156 94.12C563.69 94.12 563.303 94.22 562.996 94.42C562.69 94.6067 562.456 94.86 562.296 95.18C562.136 95.4867 562.056 95.84 562.056 96.24Z" fill="#EDEAE2"/>
<path d="M27.5213 82.3309C34.4989 70.3034 45.2044 63.5199 58.702 61.089C77.8748 57.636 94.9839 62.4769 110.062 74.4395C112.673 76.5114 115.051 78.8222 117.305 81.2572C117.693 81.6756 118.21 82.0226 118.239 82.8939C114.434 83.1028 110.707 83.4328 107.182 81.6943C106.177 81.1986 105.665 80.2164 104.978 79.4151C98.0379 71.3197 89.5201 65.6175 78.9036 63.2348C71.3603 61.5419 63.7782 61.5687 56.3802 63.9127C45.0481 67.5031 38.2679 75.344 35.3128 86.4477C29.7357 107.404 42.3209 129.027 63.3613 134.149C75.0311 136.989 85.8032 134.361 95.4216 127.334C101.681 122.76 106.644 116.988 111.15 110.808C116.676 103.23 121.691 95.2827 128.148 88.3772C139.722 75.9981 153.317 66.7262 170.183 62.698C183.626 59.4872 196.57 60.9497 208.824 67.4226C210.96 68.5507 210.998 68.5726 209.89 70.7346C209.121 72.2349 208.658 73.895 207.623 75.2074C206.857 75.2793 206.593 74.7367 206.232 74.3857C198.675 67.0256 189.478 63.8648 178.914 63.9324C167.33 64.0067 157.911 68.838 149.61 76.2779C142.258 82.8673 136.647 90.8399 131.026 98.7911C125.05 107.245 118.815 115.471 110.641 122.07C98.8195 131.612 85.4716 137.602 69.9245 137.335C55.0646 137.081 41.9784 132.216 32.0226 120.921C27.1222 115.362 24.4573 108.809 23.6762 101.475C22.9572 94.7245 24.4781 88.4614 27.5213 82.3309Z" fill="#EDEAE2"/>
<path d="M153.181 125.948C162.318 134.281 173.218 137.703 185.339 137.609C193.111 137.548 200.429 135.86 206.438 130.514C207.856 129.253 208.972 127.728 210.275 126.382C213.184 128.873 213.189 131.846 210.353 134.088C207.128 136.638 203.268 137.793 199.3 138.458C181.375 141.459 164.32 139.113 148.608 129.796C141.6 125.639 136.055 120.026 132.992 112.349C131.83 109.437 131.582 106.431 131.612 103.35C131.624 102.078 132.409 102.121 133.275 102.092C136.925 101.97 140.582 101.935 144.224 101.699C161.122 100.603 177.994 99.2555 194.646 96.0447C196.444 95.698 198.217 95.22 200.161 94.7656C200.35 97.0032 199.797 98.9961 199.517 101.007C199.063 104.264 198.556 107.513 198.092 110.768C197.996 111.439 197.961 112.117 197.013 112.051C196.06 111.984 196.133 111.253 196.11 110.611C196.089 110.023 196.111 109.434 196.09 108.847C195.995 106.088 194.913 104.678 192.238 103.754C189.771 102.901 187.168 102.749 184.623 102.667C176.12 102.392 167.621 102.843 159.123 103.148C154.277 103.322 149.431 103.515 144.583 103.6C143.128 103.625 142.547 104.052 142.648 105.541C143.042 111.376 145.452 116.422 148.817 121.106C150.063 122.84 151.499 124.42 153.181 125.948Z" fill="#EDEAE2"/>
<line x1="233.75" y1="139.5" x2="233.75" y2="62" stroke="#EDEAE2" stroke-width="0.5"/>
</svg>
