<svg width="800" height="800" viewBox="0 0 800 800" fill="none" xmlns="http://www.w3.org/2000/svg">
<rect width="800" height="800" fill="#0F1C2E"/>
<path d="M67.2161 466.494C68.3814 466.494 69.4547 466.555 70.4361 466.678C71.4481 466.77 72.3834 466.939 73.2421 467.184C74.1314 467.429 74.9747 467.751 75.7721 468.15C76.0174 468.242 76.1554 468.349 76.1861 468.472C76.2474 468.564 76.2934 468.794 76.3241 469.162L76.9221 474.958C76.9221 475.019 76.8301 475.081 76.6461 475.142C76.4927 475.173 76.4007 475.127 76.3701 475.004C75.6034 472.459 74.4381 470.542 72.8741 469.254C71.3101 467.935 69.3167 467.276 66.8941 467.276C64.4407 467.276 62.2941 467.843 60.4541 468.978C58.6141 470.113 57.1727 471.723 56.1301 473.808C55.0874 475.863 54.5661 478.301 54.5661 481.122C54.5661 483.207 54.8881 485.124 55.5321 486.872C56.1761 488.62 57.0654 490.153 58.2001 491.472C59.3654 492.76 60.6994 493.757 62.2021 494.462C63.7354 495.167 65.3761 495.52 67.1241 495.52C69.5774 495.52 71.5554 494.907 73.0581 493.68C74.5914 492.453 75.8181 490.583 76.7381 488.068C76.7994 487.976 76.9067 487.945 77.0601 487.976C77.2134 488.007 77.2901 488.068 77.2901 488.16L76.7841 493.404C76.7534 493.772 76.6921 494.002 76.6001 494.094C76.5387 494.186 76.4007 494.293 76.1861 494.416C74.6221 495.121 73.1194 495.612 71.6781 495.888C70.2674 496.195 68.7494 496.348 67.1241 496.348C63.8734 496.348 60.9754 495.719 58.4301 494.462C55.9154 493.174 53.9374 491.411 52.4961 489.172C51.0547 486.903 50.3341 484.281 50.3341 481.306C50.3341 479.098 50.7481 477.089 51.5761 475.28C52.4347 473.471 53.6307 471.907 55.1641 470.588C56.6974 469.269 58.4761 468.257 60.5001 467.552C62.5547 466.847 64.7934 466.494 67.2161 466.494ZM116.765 472.8C116.765 471.3 116.42 470.16 115.73 469.38C115.07 468.57 114.08 468.165 112.76 468.165C112.67 468.165 112.625 468.075 112.625 467.895C112.625 467.715 112.67 467.625 112.76 467.625C113.45 467.625 114.17 467.655 114.92 467.715C115.67 467.745 116.48 467.76 117.35 467.76C118.1 467.76 118.835 467.745 119.555 467.715C120.305 467.655 120.995 467.625 121.625 467.625C121.685 467.625 121.715 467.715 121.715 467.895C121.715 468.075 121.685 468.165 121.625 468.165C120.425 468.165 119.51 468.57 118.88 469.38C118.28 470.16 117.98 471.3 117.98 472.8V485.535C117.98 487.785 117.53 489.72 116.63 491.34C115.73 492.96 114.47 494.205 112.85 495.075C111.23 495.915 109.34 496.335 107.18 496.335C104.96 496.335 103.01 495.915 101.33 495.075C99.6504 494.205 98.3454 492.975 97.4154 491.385C96.4854 489.795 96.0204 487.905 96.0204 485.715V471.27C96.0204 470.4 95.9304 469.755 95.7504 469.335C95.5704 468.885 95.2104 468.585 94.6704 468.435C94.1604 468.255 93.3954 468.165 92.3754 468.165C92.2854 468.165 92.2404 468.075 92.2404 467.895C92.2404 467.715 92.2854 467.625 92.3754 467.625C93.1254 467.625 93.9504 467.655 94.8504 467.715C95.7504 467.745 96.7254 467.76 97.7754 467.76C98.8554 467.76 99.8454 467.745 100.745 467.715C101.675 467.655 102.485 467.625 103.175 467.625C103.265 467.625 103.31 467.715 103.31 467.895C103.31 468.075 103.265 468.165 103.175 468.165C102.155 468.165 101.375 468.255 100.835 468.435C100.325 468.615 99.9804 468.93 99.8004 469.38C99.6504 469.83 99.5754 470.49 99.5754 471.36V484.14C99.5754 487.74 100.355 490.44 101.915 492.24C103.475 494.01 105.635 494.895 108.395 494.895C111.035 494.895 113.09 494.085 114.56 492.465C116.03 490.815 116.765 488.52 116.765 485.58V472.8ZM158.354 495.75C157.874 495.75 157.079 495.18 155.969 494.04C154.889 492.87 153.584 491.22 152.054 489.09C150.524 486.93 148.799 484.365 146.879 481.395L149.894 480.45C152.414 484.08 154.544 486.975 156.284 489.135C158.054 491.295 159.614 492.855 160.964 493.815C162.314 494.745 163.604 495.21 164.834 495.21C164.924 495.21 164.969 495.3 164.969 495.48C164.969 495.66 164.924 495.75 164.834 495.75C163.154 495.75 161.774 495.75 160.694 495.75C159.644 495.75 158.864 495.75 158.354 495.75ZM147.554 467.49C150.074 467.49 151.994 468.03 153.314 469.11C154.664 470.16 155.339 471.57 155.339 473.34C155.339 475.02 154.859 476.52 153.899 477.84C152.939 479.16 151.679 480.195 150.119 480.945C148.589 481.695 146.939 482.07 145.169 482.07C144.809 482.07 144.434 482.07 144.044 482.07C143.654 482.04 143.294 482.01 142.964 481.98V492.105C142.964 492.975 143.039 493.635 143.189 494.085C143.369 494.535 143.714 494.835 144.224 494.985C144.764 495.135 145.559 495.21 146.609 495.21C146.699 495.21 146.744 495.3 146.744 495.48C146.744 495.66 146.699 495.75 146.609 495.75C145.859 495.75 145.034 495.735 144.134 495.705C143.234 495.675 142.244 495.66 141.164 495.66C140.144 495.66 139.169 495.675 138.239 495.705C137.309 495.735 136.469 495.75 135.719 495.75C135.629 495.75 135.584 495.66 135.584 495.48C135.584 495.3 135.629 495.21 135.719 495.21C136.739 495.21 137.504 495.135 138.014 494.985C138.554 494.835 138.914 494.535 139.094 494.085C139.304 493.635 139.409 492.975 139.409 492.105V471.27C139.409 470.4 139.319 469.755 139.139 469.335C138.959 468.885 138.614 468.585 138.104 468.435C137.594 468.255 136.814 468.165 135.764 468.165C135.704 468.165 135.674 468.075 135.674 467.895C135.674 467.715 135.704 467.625 135.764 467.625C136.514 467.625 137.339 467.655 138.239 467.715C139.169 467.745 140.144 467.76 141.164 467.76C142.124 467.76 143.204 467.715 144.404 467.625C145.604 467.535 146.654 467.49 147.554 467.49ZM151.649 474.78C151.649 473.1 151.424 471.795 150.974 470.865C150.524 469.905 149.879 469.23 149.039 468.84C148.229 468.45 147.269 468.255 146.159 468.255C145.019 468.255 144.194 468.465 143.684 468.885C143.204 469.275 142.964 470.1 142.964 471.36V480.855C143.384 480.885 143.834 480.915 144.314 480.945C144.824 480.975 145.259 480.99 145.619 480.99C147.839 480.99 149.399 480.48 150.299 479.46C151.199 478.44 151.649 476.88 151.649 474.78ZM184.079 484.005L184.619 483.015H196.859L197.174 484.005H184.079ZM207.344 495.21C207.494 495.21 207.569 495.3 207.569 495.48C207.569 495.66 207.494 495.75 207.344 495.75C206.474 495.75 205.574 495.72 204.644 495.66C203.744 495.6 202.859 495.57 201.989 495.57C201.029 495.57 200.189 495.6 199.469 495.66C198.779 495.72 197.999 495.75 197.129 495.75C197.009 495.75 196.949 495.66 196.949 495.48C196.949 495.3 197.009 495.21 197.129 495.21C198.599 495.21 199.499 494.985 199.829 494.535C200.159 494.055 199.994 493.125 199.334 491.745L189.659 471.63L191.099 469.47L182.324 489.81C181.544 491.64 181.499 493.005 182.189 493.905C182.879 494.775 184.169 495.21 186.059 495.21C186.209 495.21 186.284 495.3 186.284 495.48C186.284 495.66 186.209 495.75 186.059 495.75C185.159 495.75 184.334 495.72 183.584 495.66C182.834 495.6 181.889 495.57 180.749 495.57C179.639 495.57 178.739 495.6 178.049 495.66C177.389 495.72 176.579 495.75 175.619 495.75C175.499 495.75 175.439 495.66 175.439 495.48C175.439 495.3 175.499 495.21 175.619 495.21C176.429 495.21 177.134 495.06 177.734 494.76C178.334 494.43 178.904 493.845 179.444 493.005C180.014 492.165 180.629 490.965 181.289 489.405L190.874 467.31C190.904 467.22 191.009 467.175 191.189 467.175C191.369 467.145 191.474 467.19 191.504 467.31L202.304 489.585C203.024 491.055 203.639 492.21 204.149 493.05C204.689 493.86 205.214 494.43 205.724 494.76C206.234 495.06 206.774 495.21 207.344 495.21ZM224.477 468.525C222.617 468.525 221.162 469.05 220.112 470.1C219.062 471.12 218.282 472.77 217.772 475.05C217.742 475.11 217.637 475.14 217.457 475.14C217.307 475.14 217.232 475.095 217.232 475.005C217.292 474.615 217.352 474.06 217.412 473.34C217.502 472.62 217.577 471.84 217.637 471C217.697 470.16 217.742 469.35 217.772 468.57C217.832 467.79 217.862 467.145 217.862 466.635C217.862 466.485 217.952 466.41 218.132 466.41C218.312 466.41 218.402 466.485 218.402 466.635C218.402 466.935 218.552 467.16 218.852 467.31C219.152 467.43 219.497 467.52 219.887 467.58C220.277 467.61 220.607 467.625 220.877 467.625C223.457 467.715 226.472 467.76 229.922 467.76C232.022 467.76 233.702 467.745 234.962 467.715C236.222 467.655 237.437 467.625 238.607 467.625C239.627 467.625 240.407 467.565 240.947 467.445C241.517 467.295 241.877 466.98 242.027 466.5C242.057 466.38 242.147 466.32 242.297 466.32C242.477 466.32 242.567 466.38 242.567 466.5C242.507 466.95 242.447 467.58 242.387 468.39C242.357 469.2 242.312 470.04 242.252 470.91C242.222 471.78 242.192 472.59 242.162 473.34C242.132 474.09 242.117 474.645 242.117 475.005C242.117 475.095 242.027 475.14 241.847 475.14C241.697 475.14 241.622 475.095 241.622 475.005C241.412 472.665 240.812 471 239.822 470.01C238.832 469.02 237.362 468.525 235.412 468.525C234.362 468.525 233.567 468.6 233.027 468.75C232.517 468.87 232.172 469.125 231.992 469.515C231.842 469.905 231.767 470.52 231.767 471.36V492.105C231.767 492.975 231.857 493.635 232.037 494.085C232.247 494.535 232.637 494.835 233.207 494.985C233.807 495.135 234.722 495.21 235.952 495.21C236.012 495.21 236.042 495.3 236.042 495.48C236.042 495.66 236.012 495.75 235.952 495.75C235.142 495.75 234.227 495.735 233.207 495.705C232.217 495.675 231.122 495.66 229.922 495.66C228.782 495.66 227.702 495.675 226.682 495.705C225.692 495.735 224.777 495.75 223.937 495.75C223.847 495.75 223.802 495.66 223.802 495.48C223.802 495.3 223.847 495.21 223.937 495.21C225.107 495.21 225.992 495.135 226.592 494.985C227.222 494.835 227.642 494.535 227.852 494.085C228.062 493.635 228.167 492.975 228.167 492.105V471.27C228.167 470.46 228.077 469.86 227.897 469.47C227.717 469.05 227.357 468.795 226.817 468.705C226.277 468.585 225.497 468.525 224.477 468.525ZM276.53 495.75H257.36C257.27 495.75 257.225 495.66 257.225 495.48C257.225 495.3 257.27 495.21 257.36 495.21C258.38 495.21 259.145 495.135 259.655 494.985C260.195 494.835 260.555 494.535 260.735 494.085C260.915 493.635 261.005 492.975 261.005 492.105V471.27C261.005 470.4 260.915 469.755 260.735 469.335C260.555 468.885 260.195 468.585 259.655 468.435C259.145 468.255 258.38 468.165 257.36 468.165C257.27 468.165 257.225 468.075 257.225 467.895C257.225 467.715 257.27 467.625 257.36 467.625H275.72C276.02 467.625 276.17 467.76 276.17 468.03L276.26 473.7C276.26 473.79 276.17 473.85 275.99 473.88C275.84 473.88 275.75 473.835 275.72 473.745C275.51 472.095 274.925 470.85 273.965 470.01C273.005 469.14 271.745 468.705 270.185 468.705H267.89C266.99 468.705 266.3 468.78 265.82 468.93C265.34 469.08 265.01 469.365 264.83 469.785C264.65 470.175 264.56 470.73 264.56 471.45V491.925C264.56 492.645 264.635 493.215 264.785 493.635C264.965 494.025 265.28 494.31 265.73 494.49C266.18 494.64 266.81 494.715 267.62 494.715H270.59C272.3 494.715 273.71 494.22 274.82 493.23C275.93 492.21 276.695 490.77 277.115 488.91C277.115 488.82 277.205 488.79 277.385 488.82C277.565 488.85 277.655 488.91 277.655 489C277.535 489.81 277.43 490.785 277.34 491.925C277.25 493.065 277.205 494.115 277.205 495.075C277.205 495.525 276.98 495.75 276.53 495.75ZM274.01 485.4C274.01 484.11 273.635 483.165 272.885 482.565C272.165 481.935 270.995 481.62 269.375 481.62H262.85V480.585H269.51C271.04 480.585 272.165 480.33 272.885 479.82C273.605 479.28 273.965 478.455 273.965 477.345C273.965 477.285 274.04 477.255 274.19 477.255C274.37 477.255 274.46 477.285 274.46 477.345C274.46 478.275 274.445 478.995 274.415 479.505C274.415 480.015 274.415 480.555 274.415 481.125C274.415 481.815 274.43 482.505 274.46 483.195C274.52 483.885 274.55 484.62 274.55 485.4C274.55 485.46 274.46 485.49 274.28 485.49C274.1 485.49 274.01 485.46 274.01 485.4ZM305.014 495.93C304.114 495.93 303.004 495.885 301.684 495.795C300.364 495.705 299.149 495.66 298.039 495.66C297.019 495.66 296.029 495.675 295.069 495.705C294.139 495.735 293.299 495.75 292.549 495.75C292.489 495.75 292.459 495.66 292.459 495.48C292.459 495.3 292.489 495.21 292.549 495.21C293.599 495.21 294.394 495.135 294.934 494.985C295.474 494.835 295.834 494.535 296.014 494.085C296.194 493.635 296.284 492.975 296.284 492.105V471.27C296.284 470.4 296.194 469.755 296.014 469.335C295.834 468.885 295.474 468.585 294.934 468.435C294.424 468.255 293.659 468.165 292.639 468.165C292.549 468.165 292.504 468.075 292.504 467.895C292.504 467.715 292.549 467.625 292.639 467.625C293.389 467.625 294.214 467.655 295.114 467.715C296.044 467.745 297.019 467.76 298.039 467.76C299.059 467.76 300.154 467.73 301.324 467.67C302.524 467.58 303.544 467.535 304.384 467.535C307.564 467.535 310.324 468.135 312.664 469.335C315.034 470.535 316.879 472.17 318.199 474.24C319.519 476.31 320.179 478.635 320.179 481.215C320.179 483.465 319.774 485.505 318.964 487.335C318.184 489.135 317.089 490.68 315.679 491.97C314.269 493.23 312.649 494.205 310.819 494.895C308.989 495.585 307.054 495.93 305.014 495.93ZM304.564 495.12C306.814 495.12 308.794 494.625 310.504 493.635C312.244 492.645 313.609 491.19 314.599 489.27C315.589 487.32 316.084 484.965 316.084 482.205C316.084 479.595 315.619 477.255 314.689 475.185C313.759 473.085 312.454 471.42 310.774 470.19C309.124 468.93 307.144 468.3 304.834 468.3C303.034 468.3 301.744 468.48 300.964 468.84C300.214 469.2 299.839 470.04 299.839 471.36V491.61C299.839 492.81 300.139 493.695 300.739 494.265C301.339 494.835 302.614 495.12 304.564 495.12ZM377.018 495.75H357.422C357.33 495.75 357.284 495.658 357.284 495.474C357.284 495.29 357.33 495.198 357.422 495.198C358.465 495.198 359.247 495.121 359.768 494.968C360.32 494.815 360.688 494.508 360.872 494.048C361.056 493.588 361.148 492.913 361.148 492.024V470.726C361.148 469.837 361.056 469.177 360.872 468.748C360.688 468.288 360.32 467.981 359.768 467.828C359.247 467.644 358.465 467.552 357.422 467.552C357.33 467.552 357.284 467.46 357.284 467.276C357.284 467.092 357.33 467 357.422 467H376.19C376.497 467 376.65 467.138 376.65 467.414L376.742 473.21C376.742 473.302 376.65 473.363 376.466 473.394C376.313 473.394 376.221 473.348 376.19 473.256C375.976 471.569 375.378 470.297 374.396 469.438C373.415 468.549 372.127 468.104 370.532 468.104H368.186C367.266 468.104 366.561 468.181 366.07 468.334C365.58 468.487 365.242 468.779 365.058 469.208C364.874 469.607 364.782 470.174 364.782 470.91V491.84C364.782 492.576 364.859 493.159 365.012 493.588C365.196 493.987 365.518 494.278 365.978 494.462C366.438 494.615 367.082 494.692 367.91 494.692H370.946C372.694 494.692 374.136 494.186 375.27 493.174C376.405 492.131 377.187 490.659 377.616 488.758C377.616 488.666 377.708 488.635 377.892 488.666C378.076 488.697 378.168 488.758 378.168 488.85C378.046 489.678 377.938 490.675 377.846 491.84C377.754 493.005 377.708 494.079 377.708 495.06C377.708 495.52 377.478 495.75 377.018 495.75ZM374.442 485.17C374.442 483.851 374.059 482.885 373.292 482.272C372.556 481.628 371.36 481.306 369.704 481.306H363.034V480.248H369.842C371.406 480.248 372.556 479.987 373.292 479.466C374.028 478.914 374.396 478.071 374.396 476.936C374.396 476.875 374.473 476.844 374.626 476.844C374.81 476.844 374.902 476.875 374.902 476.936C374.902 477.887 374.887 478.623 374.856 479.144C374.856 479.665 374.856 480.217 374.856 480.8C374.856 481.505 374.872 482.211 374.902 482.916C374.964 483.621 374.994 484.373 374.994 485.17C374.994 485.231 374.902 485.262 374.718 485.262C374.534 485.262 374.442 485.231 374.442 485.17ZM410.326 495.75C410.266 495.75 410.236 495.66 410.236 495.48C410.236 495.3 410.266 495.21 410.326 495.21C411.256 495.21 411.871 495.09 412.171 494.85C412.501 494.61 412.441 494.145 411.991 493.455L397.636 471.54C396.826 470.31 396.031 469.44 395.251 468.93C394.501 468.42 393.646 468.165 392.686 468.165C392.626 468.165 392.596 468.075 392.596 467.895C392.596 467.715 392.626 467.625 392.686 467.625C393.256 467.625 393.856 467.655 394.486 467.715C395.116 467.745 395.701 467.76 396.241 467.76C397.471 467.76 398.611 467.745 399.661 467.715C400.711 467.655 401.626 467.625 402.406 467.625C402.496 467.625 402.541 467.715 402.541 467.895C402.541 468.075 402.496 468.165 402.406 468.165C401.476 468.165 400.846 468.285 400.516 468.525C400.216 468.765 400.291 469.245 400.741 469.965L415.231 492.015C416.011 493.185 416.806 494.01 417.616 494.49C418.426 494.97 419.416 495.21 420.586 495.21C420.646 495.21 420.676 495.3 420.676 495.48C420.676 495.66 420.646 495.75 420.586 495.75C419.956 495.75 419.266 495.735 418.516 495.705C417.766 495.675 416.971 495.66 416.131 495.66C414.901 495.66 413.821 495.675 412.891 495.705C411.991 495.735 411.136 495.75 410.326 495.75ZM392.461 495.75C392.371 495.75 392.326 495.66 392.326 495.48C392.326 495.3 392.371 495.21 392.461 495.21C393.421 495.21 394.471 494.835 395.611 494.085C396.751 493.335 397.906 492.15 399.076 490.53L405.466 481.8L406.096 482.295L400.201 490.62C399.151 492.06 398.731 493.185 398.941 493.995C399.181 494.805 400.021 495.21 401.461 495.21C401.551 495.21 401.596 495.3 401.596 495.48C401.596 495.66 401.551 495.75 401.461 495.75C400.651 495.75 399.871 495.735 399.121 495.705C398.371 495.675 397.396 495.66 396.196 495.66C395.386 495.66 394.741 495.675 394.261 495.705C393.781 495.735 393.181 495.75 392.461 495.75ZM406.861 481.62L406.231 481.125L411.946 472.98C413.026 471.45 413.461 470.265 413.251 469.425C413.071 468.585 412.276 468.165 410.866 468.165C410.776 468.165 410.731 468.075 410.731 467.895C410.731 467.715 410.776 467.625 410.866 467.625C411.676 467.625 412.456 467.655 413.206 467.715C413.956 467.745 414.931 467.76 416.131 467.76C416.941 467.76 417.586 467.745 418.066 467.715C418.546 467.655 419.131 467.625 419.821 467.625C419.911 467.625 419.956 467.715 419.956 467.895C419.956 468.075 419.911 468.165 419.821 468.165C418.891 468.165 417.841 468.57 416.671 469.38C415.501 470.19 414.301 471.435 413.071 473.115L406.861 481.62ZM441.394 491.925C441.394 492.825 441.499 493.515 441.709 493.995C441.949 494.445 442.429 494.76 443.149 494.94C443.869 495.12 444.949 495.21 446.389 495.21C446.479 495.21 446.524 495.3 446.524 495.48C446.524 495.66 446.479 495.75 446.389 495.75C445.429 495.75 444.379 495.735 443.239 495.705C442.129 495.675 440.914 495.66 439.594 495.66C438.604 495.66 437.629 495.675 436.669 495.705C435.739 495.735 434.899 495.75 434.149 495.75C434.089 495.75 434.059 495.66 434.059 495.48C434.059 495.3 434.089 495.21 434.149 495.21C435.199 495.21 435.979 495.135 436.489 494.985C437.029 494.835 437.374 494.535 437.524 494.085C437.704 493.635 437.794 492.975 437.794 492.105V471.27C437.794 470.4 437.704 469.755 437.524 469.335C437.374 468.885 437.029 468.585 436.489 468.435C435.979 468.255 435.199 468.165 434.149 468.165C434.089 468.165 434.059 468.075 434.059 467.895C434.059 467.715 434.089 467.625 434.149 467.625C434.899 467.625 435.739 467.655 436.669 467.715C437.599 467.745 438.559 467.76 439.549 467.76C440.329 467.76 441.274 467.715 442.384 467.625C443.524 467.535 444.664 467.49 445.804 467.49C447.544 467.49 449.104 467.745 450.484 468.255C451.894 468.765 453.019 469.56 453.859 470.64C454.699 471.72 455.134 473.13 455.164 474.87C455.164 476.43 454.879 477.78 454.309 478.92C453.739 480.06 452.959 481.005 451.969 481.755C451.009 482.505 449.929 483.06 448.729 483.42C447.559 483.78 446.404 483.96 445.264 483.96C444.904 483.96 444.529 483.945 444.139 483.915C443.779 483.885 443.434 483.825 443.104 483.735C442.984 483.705 442.939 483.6 442.969 483.42C443.029 483.21 443.104 483.12 443.194 483.15C443.464 483.21 443.734 483.255 444.004 483.285C444.304 483.315 444.559 483.33 444.769 483.33C445.909 483.33 446.959 483.06 447.919 482.52C448.879 481.98 449.659 481.155 450.259 480.045C450.859 478.905 451.159 477.495 451.159 475.815C451.159 474.195 450.874 472.83 450.304 471.72C449.764 470.61 448.999 469.755 448.009 469.155C447.019 468.555 445.879 468.255 444.589 468.255C443.749 468.255 443.089 468.315 442.609 468.435C442.159 468.555 441.844 468.84 441.664 469.29C441.484 469.74 441.394 470.43 441.394 471.36V491.925ZM489.314 495.75H470.144C470.054 495.75 470.009 495.66 470.009 495.48C470.009 495.3 470.054 495.21 470.144 495.21C471.164 495.21 471.929 495.135 472.439 494.985C472.979 494.835 473.339 494.535 473.519 494.085C473.699 493.635 473.789 492.975 473.789 492.105V471.27C473.789 470.4 473.699 469.755 473.519 469.335C473.339 468.885 472.979 468.585 472.439 468.435C471.929 468.255 471.164 468.165 470.144 468.165C470.054 468.165 470.009 468.075 470.009 467.895C470.009 467.715 470.054 467.625 470.144 467.625H488.504C488.804 467.625 488.954 467.76 488.954 468.03L489.044 473.7C489.044 473.79 488.954 473.85 488.774 473.88C488.624 473.88 488.534 473.835 488.504 473.745C488.294 472.095 487.709 470.85 486.749 470.01C485.789 469.14 484.529 468.705 482.969 468.705H480.674C479.774 468.705 479.084 468.78 478.604 468.93C478.124 469.08 477.794 469.365 477.614 469.785C477.434 470.175 477.344 470.73 477.344 471.45V491.925C477.344 492.645 477.419 493.215 477.569 493.635C477.749 494.025 478.064 494.31 478.514 494.49C478.964 494.64 479.594 494.715 480.404 494.715H483.374C485.084 494.715 486.494 494.22 487.604 493.23C488.714 492.21 489.479 490.77 489.899 488.91C489.899 488.82 489.989 488.79 490.169 488.82C490.349 488.85 490.439 488.91 490.439 489C490.319 489.81 490.214 490.785 490.124 491.925C490.034 493.065 489.989 494.115 489.989 495.075C489.989 495.525 489.764 495.75 489.314 495.75ZM486.794 485.4C486.794 484.11 486.419 483.165 485.669 482.565C484.949 481.935 483.779 481.62 482.159 481.62H475.634V480.585H482.294C483.824 480.585 484.949 480.33 485.669 479.82C486.389 479.28 486.749 478.455 486.749 477.345C486.749 477.285 486.824 477.255 486.974 477.255C487.154 477.255 487.244 477.285 487.244 477.345C487.244 478.275 487.229 478.995 487.199 479.505C487.199 480.015 487.199 480.555 487.199 481.125C487.199 481.815 487.214 482.505 487.244 483.195C487.304 483.885 487.334 484.62 487.334 485.4C487.334 485.46 487.244 485.49 487.064 485.49C486.884 485.49 486.794 485.46 486.794 485.4ZM528.419 495.75C527.939 495.75 527.144 495.18 526.034 494.04C524.954 492.87 523.649 491.22 522.119 489.09C520.589 486.93 518.864 484.365 516.944 481.395L519.959 480.45C522.479 484.08 524.609 486.975 526.349 489.135C528.119 491.295 529.679 492.855 531.029 493.815C532.379 494.745 533.669 495.21 534.899 495.21C534.989 495.21 535.034 495.3 535.034 495.48C535.034 495.66 534.989 495.75 534.899 495.75C533.219 495.75 531.839 495.75 530.759 495.75C529.709 495.75 528.929 495.75 528.419 495.75ZM517.619 467.49C520.139 467.49 522.059 468.03 523.379 469.11C524.729 470.16 525.404 471.57 525.404 473.34C525.404 475.02 524.924 476.52 523.964 477.84C523.004 479.16 521.744 480.195 520.184 480.945C518.654 481.695 517.004 482.07 515.234 482.07C514.874 482.07 514.499 482.07 514.109 482.07C513.719 482.04 513.359 482.01 513.029 481.98V492.105C513.029 492.975 513.104 493.635 513.254 494.085C513.434 494.535 513.779 494.835 514.289 494.985C514.829 495.135 515.624 495.21 516.674 495.21C516.764 495.21 516.809 495.3 516.809 495.48C516.809 495.66 516.764 495.75 516.674 495.75C515.924 495.75 515.099 495.735 514.199 495.705C513.299 495.675 512.309 495.66 511.229 495.66C510.209 495.66 509.234 495.675 508.304 495.705C507.374 495.735 506.534 495.75 505.784 495.75C505.694 495.75 505.649 495.66 505.649 495.48C505.649 495.3 505.694 495.21 505.784 495.21C506.804 495.21 507.569 495.135 508.079 494.985C508.619 494.835 508.979 494.535 509.159 494.085C509.369 493.635 509.474 492.975 509.474 492.105V471.27C509.474 470.4 509.384 469.755 509.204 469.335C509.024 468.885 508.679 468.585 508.169 468.435C507.659 468.255 506.879 468.165 505.829 468.165C505.769 468.165 505.739 468.075 505.739 467.895C505.739 467.715 505.769 467.625 505.829 467.625C506.579 467.625 507.404 467.655 508.304 467.715C509.234 467.745 510.209 467.76 511.229 467.76C512.189 467.76 513.269 467.715 514.469 467.625C515.669 467.535 516.719 467.49 517.619 467.49ZM521.714 474.78C521.714 473.1 521.489 471.795 521.039 470.865C520.589 469.905 519.944 469.23 519.104 468.84C518.294 468.45 517.334 468.255 516.224 468.255C515.084 468.255 514.259 468.465 513.749 468.885C513.269 469.275 513.029 470.1 513.029 471.36V480.855C513.449 480.885 513.899 480.915 514.379 480.945C514.889 480.975 515.324 480.99 515.684 480.99C517.904 480.99 519.464 480.48 520.364 479.46C521.264 478.44 521.714 476.88 521.714 474.78ZM555.089 492.105C555.089 492.975 555.164 493.635 555.314 494.085C555.494 494.535 555.839 494.835 556.349 494.985C556.889 495.135 557.684 495.21 558.734 495.21C558.794 495.21 558.824 495.3 558.824 495.48C558.824 495.66 558.794 495.75 558.734 495.75C557.984 495.75 557.144 495.735 556.214 495.705C555.314 495.675 554.324 495.66 553.244 495.66C552.194 495.66 551.204 495.675 550.274 495.705C549.344 495.735 548.504 495.75 547.754 495.75C547.694 495.75 547.664 495.66 547.664 495.48C547.664 495.3 547.694 495.21 547.754 495.21C548.804 495.21 549.599 495.135 550.139 494.985C550.679 494.835 551.039 494.535 551.219 494.085C551.399 493.635 551.489 492.975 551.489 492.105V471.27C551.489 470.4 551.399 469.755 551.219 469.335C551.039 468.885 550.679 468.585 550.139 468.435C549.599 468.255 548.804 468.165 547.754 468.165C547.694 468.165 547.664 468.075 547.664 467.895C547.664 467.715 547.694 467.625 547.754 467.625C548.504 467.625 549.344 467.655 550.274 467.715C551.204 467.745 552.194 467.76 553.244 467.76C554.324 467.76 555.329 467.745 556.259 467.715C557.189 467.655 558.014 467.625 558.734 467.625C558.794 467.625 558.824 467.715 558.824 467.895C558.824 468.075 558.794 468.165 558.734 468.165C557.684 468.165 556.904 468.255 556.394 468.435C555.884 468.615 555.539 468.93 555.359 469.38C555.179 469.83 555.089 470.49 555.089 471.36V492.105ZM593.157 495.75H573.987C573.897 495.75 573.852 495.66 573.852 495.48C573.852 495.3 573.897 495.21 573.987 495.21C575.007 495.21 575.772 495.135 576.282 494.985C576.822 494.835 577.182 494.535 577.362 494.085C577.542 493.635 577.632 492.975 577.632 492.105V471.27C577.632 470.4 577.542 469.755 577.362 469.335C577.182 468.885 576.822 468.585 576.282 468.435C575.772 468.255 575.007 468.165 573.987 468.165C573.897 468.165 573.852 468.075 573.852 467.895C573.852 467.715 573.897 467.625 573.987 467.625H592.347C592.647 467.625 592.797 467.76 592.797 468.03L592.887 473.7C592.887 473.79 592.797 473.85 592.617 473.88C592.467 473.88 592.377 473.835 592.347 473.745C592.137 472.095 591.552 470.85 590.592 470.01C589.632 469.14 588.372 468.705 586.812 468.705H584.517C583.617 468.705 582.927 468.78 582.447 468.93C581.967 469.08 581.637 469.365 581.457 469.785C581.277 470.175 581.187 470.73 581.187 471.45V491.925C581.187 492.645 581.262 493.215 581.412 493.635C581.592 494.025 581.907 494.31 582.357 494.49C582.807 494.64 583.437 494.715 584.247 494.715H587.217C588.927 494.715 590.337 494.22 591.447 493.23C592.557 492.21 593.322 490.77 593.742 488.91C593.742 488.82 593.832 488.79 594.012 488.82C594.192 488.85 594.282 488.91 594.282 489C594.162 489.81 594.057 490.785 593.967 491.925C593.877 493.065 593.832 494.115 593.832 495.075C593.832 495.525 593.607 495.75 593.157 495.75ZM590.637 485.4C590.637 484.11 590.262 483.165 589.512 482.565C588.792 481.935 587.622 481.62 586.002 481.62H579.477V480.585H586.137C587.667 480.585 588.792 480.33 589.512 479.82C590.232 479.28 590.592 478.455 590.592 477.345C590.592 477.285 590.667 477.255 590.817 477.255C590.997 477.255 591.087 477.285 591.087 477.345C591.087 478.275 591.072 478.995 591.042 479.505C591.042 480.015 591.042 480.555 591.042 481.125C591.042 481.815 591.057 482.505 591.087 483.195C591.147 483.885 591.177 484.62 591.177 485.4C591.177 485.46 591.087 485.49 590.907 485.49C590.727 485.49 590.637 485.46 590.637 485.4ZM613.181 490.62V468.66L614.351 468.75V490.62C614.351 492.18 614.636 493.335 615.206 494.085C615.776 494.835 616.676 495.21 617.906 495.21C617.966 495.21 617.996 495.3 617.996 495.48C617.996 495.66 617.966 495.75 617.906 495.75C617.276 495.75 616.631 495.735 615.971 495.705C615.341 495.675 614.621 495.66 613.811 495.66C613.031 495.66 612.266 495.675 611.516 495.705C610.766 495.735 610.061 495.75 609.401 495.75C609.341 495.75 609.311 495.66 609.311 495.48C609.311 495.3 609.341 495.21 609.401 495.21C610.721 495.21 611.681 494.835 612.281 494.085C612.881 493.335 613.181 492.18 613.181 490.62ZM635.951 496.335C635.951 496.395 635.876 496.425 635.726 496.425C635.606 496.455 635.516 496.455 635.456 496.425L614.261 471.315C613.211 470.085 612.296 469.26 611.516 468.84C610.766 468.39 610.016 468.165 609.266 468.165C609.206 468.165 609.176 468.075 609.176 467.895C609.176 467.715 609.206 467.625 609.266 467.625C609.836 467.625 610.406 467.64 610.976 467.67C611.546 467.7 612.071 467.715 612.551 467.715C613.271 467.715 613.931 467.7 614.531 467.67C615.131 467.64 615.581 467.625 615.881 467.625C616.271 467.625 616.556 467.805 616.736 468.165C616.916 468.495 617.351 469.095 618.041 469.965L635.591 491.115L635.951 496.335ZM635.951 472.8V496.335L634.826 494.94V472.8C634.826 471.24 634.541 470.085 633.971 469.335C633.431 468.555 632.546 468.165 631.316 468.165C631.256 468.165 631.226 468.075 631.226 467.895C631.226 467.715 631.256 467.625 631.316 467.625C631.946 467.625 632.591 467.655 633.251 467.715C633.911 467.745 634.631 467.76 635.411 467.76C636.161 467.76 636.896 467.745 637.616 467.715C638.336 467.655 639.011 467.625 639.641 467.625C639.701 467.625 639.731 467.715 639.731 467.895C639.731 468.075 639.701 468.165 639.641 468.165C638.381 468.165 637.451 468.555 636.851 469.335C636.251 470.085 635.951 471.24 635.951 472.8ZM670.533 467.13C671.673 467.13 672.723 467.19 673.683 467.31C674.673 467.4 675.588 467.565 676.428 467.805C677.298 468.045 678.123 468.36 678.903 468.75C679.143 468.84 679.278 468.945 679.308 469.065C679.368 469.155 679.413 469.38 679.443 469.74L680.028 475.41C680.028 475.47 679.938 475.53 679.758 475.59C679.608 475.62 679.518 475.575 679.488 475.455C678.738 472.965 677.598 471.09 676.068 469.83C674.538 468.54 672.588 467.895 670.218 467.895C667.818 467.895 665.718 468.45 663.918 469.56C662.118 470.67 660.708 472.245 659.688 474.285C658.668 476.295 658.158 478.68 658.158 481.44C658.158 483.48 658.473 485.355 659.103 487.065C659.733 488.775 660.603 490.275 661.713 491.565C662.853 492.825 664.158 493.8 665.628 494.49C667.128 495.18 668.733 495.525 670.443 495.525C672.843 495.525 674.778 494.925 676.248 493.725C677.748 492.525 678.948 490.695 679.848 488.235C679.908 488.145 680.013 488.115 680.163 488.145C680.313 488.175 680.388 488.235 680.388 488.325L679.893 493.455C679.863 493.815 679.803 494.04 679.713 494.13C679.653 494.22 679.518 494.325 679.308 494.445C677.778 495.135 676.308 495.615 674.898 495.885C673.518 496.185 672.033 496.335 670.443 496.335C667.263 496.335 664.428 495.72 661.938 494.49C659.478 493.23 657.543 491.505 656.133 489.315C654.723 487.095 654.018 484.53 654.018 481.62C654.018 479.46 654.423 477.495 655.233 475.725C656.073 473.955 657.243 472.425 658.743 471.135C660.243 469.845 661.983 468.855 663.963 468.165C665.973 467.475 668.163 467.13 670.533 467.13ZM714.929 495.75H695.759C695.669 495.75 695.624 495.66 695.624 495.48C695.624 495.3 695.669 495.21 695.759 495.21C696.779 495.21 697.544 495.135 698.054 494.985C698.594 494.835 698.954 494.535 699.134 494.085C699.314 493.635 699.404 492.975 699.404 492.105V471.27C699.404 470.4 699.314 469.755 699.134 469.335C698.954 468.885 698.594 468.585 698.054 468.435C697.544 468.255 696.779 468.165 695.759 468.165C695.669 468.165 695.624 468.075 695.624 467.895C695.624 467.715 695.669 467.625 695.759 467.625H714.119C714.419 467.625 714.569 467.76 714.569 468.03L714.659 473.7C714.659 473.79 714.569 473.85 714.389 473.88C714.239 473.88 714.149 473.835 714.119 473.745C713.909 472.095 713.324 470.85 712.364 470.01C711.404 469.14 710.144 468.705 708.584 468.705H706.289C705.389 468.705 704.699 468.78 704.219 468.93C703.739 469.08 703.409 469.365 703.229 469.785C703.049 470.175 702.959 470.73 702.959 471.45V491.925C702.959 492.645 703.034 493.215 703.184 493.635C703.364 494.025 703.679 494.31 704.129 494.49C704.579 494.64 705.209 494.715 706.019 494.715H708.989C710.699 494.715 712.109 494.22 713.219 493.23C714.329 492.21 715.094 490.77 715.514 488.91C715.514 488.82 715.604 488.79 715.784 488.82C715.964 488.85 716.054 488.91 716.054 489C715.934 489.81 715.829 490.785 715.739 491.925C715.649 493.065 715.604 494.115 715.604 495.075C715.604 495.525 715.379 495.75 714.929 495.75ZM712.409 485.4C712.409 484.11 712.034 483.165 711.284 482.565C710.564 481.935 709.394 481.62 707.774 481.62H701.249V480.585H707.909C709.439 480.585 710.564 480.33 711.284 479.82C712.004 479.28 712.364 478.455 712.364 477.345C712.364 477.285 712.439 477.255 712.589 477.255C712.769 477.255 712.859 477.285 712.859 477.345C712.859 478.275 712.844 478.995 712.814 479.505C712.814 480.015 712.814 480.555 712.814 481.125C712.814 481.815 712.829 482.505 712.859 483.195C712.919 483.885 712.949 484.62 712.949 485.4C712.949 485.46 712.859 485.49 712.679 485.49C712.499 485.49 712.409 485.46 712.409 485.4ZM736.394 472.665C736.394 473.865 736.694 474.9 737.294 475.77C737.894 476.64 738.674 477.42 739.634 478.11C740.594 478.77 741.614 479.43 742.694 480.09C743.804 480.75 744.869 481.455 745.889 482.205C746.939 482.955 747.794 483.84 748.454 484.86C749.144 485.85 749.489 487.065 749.489 488.505C749.489 489.975 749.099 491.295 748.319 492.465C747.569 493.635 746.489 494.565 745.079 495.255C743.699 495.945 742.034 496.29 740.084 496.29C739.304 496.29 738.509 496.215 737.699 496.065C736.919 495.945 736.169 495.765 735.449 495.525C734.729 495.285 734.069 494.985 733.469 494.625C733.349 494.535 733.244 494.43 733.154 494.31C733.094 494.19 733.064 494.01 733.064 493.77L732.614 487.335C732.584 487.185 732.644 487.11 732.794 487.11C732.974 487.08 733.079 487.125 733.109 487.245C733.379 488.175 733.739 489.12 734.189 490.08C734.639 491.04 735.179 491.925 735.809 492.735C736.439 493.515 737.189 494.16 738.059 494.67C738.959 495.18 739.994 495.435 741.164 495.435C741.974 495.435 742.754 495.285 743.504 494.985C744.284 494.685 744.914 494.19 745.394 493.5C745.874 492.78 746.114 491.79 746.114 490.53C746.114 489.09 745.799 487.875 745.169 486.885C744.539 485.895 743.729 485.04 742.739 484.32C741.749 483.6 740.699 482.91 739.589 482.25C738.539 481.59 737.519 480.9 736.529 480.18C735.569 479.46 734.789 478.635 734.189 477.705C733.589 476.745 733.289 475.59 733.289 474.24C733.289 472.62 733.709 471.285 734.549 470.235C735.419 469.185 736.514 468.405 737.834 467.895C739.184 467.385 740.564 467.13 741.974 467.13C742.904 467.13 743.849 467.22 744.809 467.4C745.769 467.58 746.639 467.835 747.419 468.165C747.689 468.285 747.869 468.42 747.959 468.57C748.049 468.69 748.094 468.825 748.094 468.975L748.319 474.6C748.319 474.69 748.244 474.75 748.094 474.78C747.944 474.81 747.839 474.765 747.779 474.645C747.689 474.135 747.494 473.505 747.194 472.755C746.894 471.975 746.489 471.225 745.979 470.505C745.469 469.755 744.809 469.14 743.999 468.66C743.219 468.15 742.259 467.895 741.119 467.895C740.069 467.895 739.199 468.12 738.509 468.57C737.819 468.99 737.294 469.56 736.934 470.28C736.574 470.97 736.394 471.765 736.394 472.665Z" fill="#EDEAE2"/>
<path d="M209.643 320.662C223.598 296.607 245.009 283.04 272.004 278.178C310.35 271.272 344.568 280.954 374.723 304.879C379.946 309.023 384.702 313.644 389.211 318.514C389.985 319.351 391.019 320.045 391.078 321.788C383.468 322.206 376.013 322.866 368.963 319.389C366.953 318.397 365.93 316.433 364.557 314.83C350.676 298.639 333.64 287.235 312.407 282.47C297.321 279.084 282.156 279.137 267.36 283.825C244.696 291.006 231.136 306.688 225.226 328.895C214.071 370.807 239.242 414.054 281.323 424.297C304.662 429.979 326.206 424.722 345.443 410.667C357.962 401.521 367.888 389.977 376.901 377.617C387.953 362.461 397.982 346.565 410.895 332.754C434.044 307.996 461.233 289.452 494.965 281.396C521.852 274.974 547.74 277.899 572.248 290.845C576.519 293.101 576.597 293.145 574.38 297.469C572.842 300.47 571.917 303.79 569.846 306.415C568.313 306.559 567.786 305.473 567.065 304.771C551.949 290.051 533.555 283.73 512.428 283.865C489.261 284.013 470.422 293.676 453.82 308.556C439.116 321.735 427.894 337.68 416.653 353.582C404.701 370.49 392.231 386.942 375.881 400.139C352.239 419.224 325.543 431.203 294.449 430.67C264.729 430.161 238.557 420.431 218.645 397.842C208.844 386.724 203.515 373.618 201.952 358.95C200.514 345.449 203.556 332.923 209.643 320.662Z" fill="#EDEAE2"/>
<path d="M461.149 408.514C479.423 425.181 501.223 432.025 525.466 431.836C541.01 431.714 555.646 428.339 567.664 417.648C570.5 415.124 572.732 412.074 575.338 409.383C581.156 414.365 581.166 420.311 575.494 424.796C569.044 429.895 561.324 432.205 553.388 433.534C517.537 439.538 483.427 434.844 452.004 416.21C437.987 407.898 426.898 396.67 420.772 381.317C418.448 375.492 417.952 369.48 418.011 363.319C418.035 360.774 419.605 360.861 421.337 360.803C428.638 360.559 435.951 360.488 443.236 360.016C477.032 357.825 510.776 355.13 544.079 348.708C547.676 348.015 551.221 347.059 555.109 346.15C555.487 350.625 554.381 354.611 553.821 358.634C552.913 365.147 551.9 371.645 550.971 378.155C550.78 379.497 550.709 380.854 548.814 380.721C546.907 380.587 547.053 379.124 547.007 377.841C546.965 376.666 547.009 375.487 546.968 374.312C546.777 368.794 544.614 365.974 539.264 364.126C534.33 362.421 529.123 362.117 524.033 361.952C507.027 361.402 490.029 362.304 473.034 362.915C463.342 363.264 453.65 363.648 443.954 363.818C441.043 363.87 439.882 364.724 440.083 367.701C440.871 379.37 445.691 389.463 452.422 398.83C454.914 402.298 457.785 405.459 461.149 408.514Z" fill="#EDEAE2"/>
</svg>
