<svg width="800" height="800" viewBox="0 0 800 800" fill="none" xmlns="http://www.w3.org/2000/svg">
<rect width="800" height="800" fill="#EDEAE2"/>
<path d="M67.2161 466.49C68.3814 466.49 69.4547 466.552 70.4361 466.674C71.4481 466.766 72.3834 466.935 73.2421 467.18C74.1314 467.426 74.9747 467.748 75.7721 468.146C76.0174 468.238 76.1554 468.346 76.1861 468.468C76.2474 468.56 76.2934 468.79 76.3241 469.158L76.9221 474.954C76.9221 475.016 76.8301 475.077 76.6461 475.138C76.4927 475.169 76.4007 475.123 76.3701 475C75.6034 472.455 74.4381 470.538 72.8741 469.25C71.3101 467.932 69.3167 467.272 66.8941 467.272C64.4407 467.272 62.2941 467.84 60.4541 468.974C58.6141 470.109 57.1727 471.719 56.1301 473.804C55.0874 475.859 54.5661 478.297 54.5661 481.118C54.5661 483.204 54.8881 485.12 55.5321 486.868C56.1761 488.616 57.0654 490.15 58.2001 491.468C59.3654 492.756 60.6994 493.753 62.2021 494.458C63.7354 495.164 65.3761 495.516 67.1241 495.516C69.5774 495.516 71.5554 494.903 73.0581 493.676C74.5914 492.45 75.8181 490.579 76.7381 488.064C76.7994 487.972 76.9067 487.942 77.0601 487.972C77.2134 488.003 77.2901 488.064 77.2901 488.156L76.7841 493.4C76.7534 493.768 76.6921 493.998 76.6001 494.09C76.5387 494.182 76.4007 494.29 76.1861 494.412C74.6221 495.118 73.1194 495.608 71.6781 495.884C70.2674 496.191 68.7494 496.344 67.1241 496.344C63.8734 496.344 60.9754 495.716 58.4301 494.458C55.9154 493.17 53.9374 491.407 52.4961 489.168C51.0547 486.899 50.3341 484.277 50.3341 481.302C50.3341 479.094 50.7481 477.086 51.5761 475.276C52.4347 473.467 53.6307 471.903 55.1641 470.584C56.6974 469.266 58.4761 468.254 60.5001 467.548C62.5547 466.843 64.7934 466.49 67.2161 466.49ZM116.765 472.796C116.765 471.296 116.42 470.156 115.73 469.376C115.07 468.566 114.08 468.161 112.76 468.161C112.67 468.161 112.625 468.071 112.625 467.891C112.625 467.711 112.67 467.621 112.76 467.621C113.45 467.621 114.17 467.651 114.92 467.711C115.67 467.741 116.48 467.756 117.35 467.756C118.1 467.756 118.835 467.741 119.555 467.711C120.305 467.651 120.995 467.621 121.625 467.621C121.685 467.621 121.715 467.711 121.715 467.891C121.715 468.071 121.685 468.161 121.625 468.161C120.425 468.161 119.51 468.566 118.88 469.376C118.28 470.156 117.98 471.296 117.98 472.796V485.531C117.98 487.781 117.53 489.716 116.63 491.336C115.73 492.956 114.47 494.201 112.85 495.071C111.23 495.911 109.34 496.331 107.18 496.331C104.96 496.331 103.01 495.911 101.33 495.071C99.6504 494.201 98.3454 492.971 97.4154 491.381C96.4854 489.791 96.0204 487.901 96.0204 485.711V471.266C96.0204 470.396 95.9304 469.751 95.7504 469.331C95.5704 468.881 95.2104 468.581 94.6704 468.431C94.1604 468.251 93.3954 468.161 92.3754 468.161C92.2854 468.161 92.2404 468.071 92.2404 467.891C92.2404 467.711 92.2854 467.621 92.3754 467.621C93.1254 467.621 93.9504 467.651 94.8504 467.711C95.7504 467.741 96.7254 467.756 97.7754 467.756C98.8554 467.756 99.8454 467.741 100.745 467.711C101.675 467.651 102.485 467.621 103.175 467.621C103.265 467.621 103.31 467.711 103.31 467.891C103.31 468.071 103.265 468.161 103.175 468.161C102.155 468.161 101.375 468.251 100.835 468.431C100.325 468.611 99.9804 468.926 99.8004 469.376C99.6504 469.826 99.5754 470.486 99.5754 471.356V484.136C99.5754 487.736 100.355 490.436 101.915 492.236C103.475 494.006 105.635 494.891 108.395 494.891C111.035 494.891 113.09 494.081 114.56 492.461C116.03 490.811 116.765 488.516 116.765 485.576V472.796ZM158.354 495.746C157.874 495.746 157.079 495.176 155.969 494.036C154.889 492.866 153.584 491.216 152.054 489.086C150.524 486.926 148.799 484.361 146.879 481.391L149.894 480.446C152.414 484.076 154.544 486.971 156.284 489.131C158.054 491.291 159.614 492.851 160.964 493.811C162.314 494.741 163.604 495.206 164.834 495.206C164.924 495.206 164.969 495.296 164.969 495.476C164.969 495.656 164.924 495.746 164.834 495.746C163.154 495.746 161.774 495.746 160.694 495.746C159.644 495.746 158.864 495.746 158.354 495.746ZM147.554 467.486C150.074 467.486 151.994 468.026 153.314 469.106C154.664 470.156 155.339 471.566 155.339 473.336C155.339 475.016 154.859 476.516 153.899 477.836C152.939 479.156 151.679 480.191 150.119 480.941C148.589 481.691 146.939 482.066 145.169 482.066C144.809 482.066 144.434 482.066 144.044 482.066C143.654 482.036 143.294 482.006 142.964 481.976V492.101C142.964 492.971 143.039 493.631 143.189 494.081C143.369 494.531 143.714 494.831 144.224 494.981C144.764 495.131 145.559 495.206 146.609 495.206C146.699 495.206 146.744 495.296 146.744 495.476C146.744 495.656 146.699 495.746 146.609 495.746C145.859 495.746 145.034 495.731 144.134 495.701C143.234 495.671 142.244 495.656 141.164 495.656C140.144 495.656 139.169 495.671 138.239 495.701C137.309 495.731 136.469 495.746 135.719 495.746C135.629 495.746 135.584 495.656 135.584 495.476C135.584 495.296 135.629 495.206 135.719 495.206C136.739 495.206 137.504 495.131 138.014 494.981C138.554 494.831 138.914 494.531 139.094 494.081C139.304 493.631 139.409 492.971 139.409 492.101V471.266C139.409 470.396 139.319 469.751 139.139 469.331C138.959 468.881 138.614 468.581 138.104 468.431C137.594 468.251 136.814 468.161 135.764 468.161C135.704 468.161 135.674 468.071 135.674 467.891C135.674 467.711 135.704 467.621 135.764 467.621C136.514 467.621 137.339 467.651 138.239 467.711C139.169 467.741 140.144 467.756 141.164 467.756C142.124 467.756 143.204 467.711 144.404 467.621C145.604 467.531 146.654 467.486 147.554 467.486ZM151.649 474.776C151.649 473.096 151.424 471.791 150.974 470.861C150.524 469.901 149.879 469.226 149.039 468.836C148.229 468.446 147.269 468.251 146.159 468.251C145.019 468.251 144.194 468.461 143.684 468.881C143.204 469.271 142.964 470.096 142.964 471.356V480.851C143.384 480.881 143.834 480.911 144.314 480.941C144.824 480.971 145.259 480.986 145.619 480.986C147.839 480.986 149.399 480.476 150.299 479.456C151.199 478.436 151.649 476.876 151.649 474.776ZM184.079 484.001L184.619 483.011H196.859L197.174 484.001H184.079ZM207.344 495.206C207.494 495.206 207.569 495.296 207.569 495.476C207.569 495.656 207.494 495.746 207.344 495.746C206.474 495.746 205.574 495.716 204.644 495.656C203.744 495.596 202.859 495.566 201.989 495.566C201.029 495.566 200.189 495.596 199.469 495.656C198.779 495.716 197.999 495.746 197.129 495.746C197.009 495.746 196.949 495.656 196.949 495.476C196.949 495.296 197.009 495.206 197.129 495.206C198.599 495.206 199.499 494.981 199.829 494.531C200.159 494.051 199.994 493.121 199.334 491.741L189.659 471.626L191.099 469.466L182.324 489.806C181.544 491.636 181.499 493.001 182.189 493.901C182.879 494.771 184.169 495.206 186.059 495.206C186.209 495.206 186.284 495.296 186.284 495.476C186.284 495.656 186.209 495.746 186.059 495.746C185.159 495.746 184.334 495.716 183.584 495.656C182.834 495.596 181.889 495.566 180.749 495.566C179.639 495.566 178.739 495.596 178.049 495.656C177.389 495.716 176.579 495.746 175.619 495.746C175.499 495.746 175.439 495.656 175.439 495.476C175.439 495.296 175.499 495.206 175.619 495.206C176.429 495.206 177.134 495.056 177.734 494.756C178.334 494.426 178.904 493.841 179.444 493.001C180.014 492.161 180.629 490.961 181.289 489.401L190.874 467.306C190.904 467.216 191.009 467.171 191.189 467.171C191.369 467.141 191.474 467.186 191.504 467.306L202.304 489.581C203.024 491.051 203.639 492.206 204.149 493.046C204.689 493.856 205.214 494.426 205.724 494.756C206.234 495.056 206.774 495.206 207.344 495.206ZM224.477 468.521C222.617 468.521 221.162 469.046 220.112 470.096C219.062 471.116 218.282 472.766 217.772 475.046C217.742 475.106 217.637 475.136 217.457 475.136C217.307 475.136 217.232 475.091 217.232 475.001C217.292 474.611 217.352 474.056 217.412 473.336C217.502 472.616 217.577 471.836 217.637 470.996C217.697 470.156 217.742 469.346 217.772 468.566C217.832 467.786 217.862 467.141 217.862 466.631C217.862 466.481 217.952 466.406 218.132 466.406C218.312 466.406 218.402 466.481 218.402 466.631C218.402 466.931 218.552 467.156 218.852 467.306C219.152 467.426 219.497 467.516 219.887 467.576C220.277 467.606 220.607 467.621 220.877 467.621C223.457 467.711 226.472 467.756 229.922 467.756C232.022 467.756 233.702 467.741 234.962 467.711C236.222 467.651 237.437 467.621 238.607 467.621C239.627 467.621 240.407 467.561 240.947 467.441C241.517 467.291 241.877 466.976 242.027 466.496C242.057 466.376 242.147 466.316 242.297 466.316C242.477 466.316 242.567 466.376 242.567 466.496C242.507 466.946 242.447 467.576 242.387 468.386C242.357 469.196 242.312 470.036 242.252 470.906C242.222 471.776 242.192 472.586 242.162 473.336C242.132 474.086 242.117 474.641 242.117 475.001C242.117 475.091 242.027 475.136 241.847 475.136C241.697 475.136 241.622 475.091 241.622 475.001C241.412 472.661 240.812 470.996 239.822 470.006C238.832 469.016 237.362 468.521 235.412 468.521C234.362 468.521 233.567 468.596 233.027 468.746C232.517 468.866 232.172 469.121 231.992 469.511C231.842 469.901 231.767 470.516 231.767 471.356V492.101C231.767 492.971 231.857 493.631 232.037 494.081C232.247 494.531 232.637 494.831 233.207 494.981C233.807 495.131 234.722 495.206 235.952 495.206C236.012 495.206 236.042 495.296 236.042 495.476C236.042 495.656 236.012 495.746 235.952 495.746C235.142 495.746 234.227 495.731 233.207 495.701C232.217 495.671 231.122 495.656 229.922 495.656C228.782 495.656 227.702 495.671 226.682 495.701C225.692 495.731 224.777 495.746 223.937 495.746C223.847 495.746 223.802 495.656 223.802 495.476C223.802 495.296 223.847 495.206 223.937 495.206C225.107 495.206 225.992 495.131 226.592 494.981C227.222 494.831 227.642 494.531 227.852 494.081C228.062 493.631 228.167 492.971 228.167 492.101V471.266C228.167 470.456 228.077 469.856 227.897 469.466C227.717 469.046 227.357 468.791 226.817 468.701C226.277 468.581 225.497 468.521 224.477 468.521ZM276.53 495.746H257.36C257.27 495.746 257.225 495.656 257.225 495.476C257.225 495.296 257.27 495.206 257.36 495.206C258.38 495.206 259.145 495.131 259.655 494.981C260.195 494.831 260.555 494.531 260.735 494.081C260.915 493.631 261.005 492.971 261.005 492.101V471.266C261.005 470.396 260.915 469.751 260.735 469.331C260.555 468.881 260.195 468.581 259.655 468.431C259.145 468.251 258.38 468.161 257.36 468.161C257.27 468.161 257.225 468.071 257.225 467.891C257.225 467.711 257.27 467.621 257.36 467.621H275.72C276.02 467.621 276.17 467.756 276.17 468.026L276.26 473.696C276.26 473.786 276.17 473.846 275.99 473.876C275.84 473.876 275.75 473.831 275.72 473.741C275.51 472.091 274.925 470.846 273.965 470.006C273.005 469.136 271.745 468.701 270.185 468.701H267.89C266.99 468.701 266.3 468.776 265.82 468.926C265.34 469.076 265.01 469.361 264.83 469.781C264.65 470.171 264.56 470.726 264.56 471.446V491.921C264.56 492.641 264.635 493.211 264.785 493.631C264.965 494.021 265.28 494.306 265.73 494.486C266.18 494.636 266.81 494.711 267.62 494.711H270.59C272.3 494.711 273.71 494.216 274.82 493.226C275.93 492.206 276.695 490.766 277.115 488.906C277.115 488.816 277.205 488.786 277.385 488.816C277.565 488.846 277.655 488.906 277.655 488.996C277.535 489.806 277.43 490.781 277.34 491.921C277.25 493.061 277.205 494.111 277.205 495.071C277.205 495.521 276.98 495.746 276.53 495.746ZM274.01 485.396C274.01 484.106 273.635 483.161 272.885 482.561C272.165 481.931 270.995 481.616 269.375 481.616H262.85V480.581H269.51C271.04 480.581 272.165 480.326 272.885 479.816C273.605 479.276 273.965 478.451 273.965 477.341C273.965 477.281 274.04 477.251 274.19 477.251C274.37 477.251 274.46 477.281 274.46 477.341C274.46 478.271 274.445 478.991 274.415 479.501C274.415 480.011 274.415 480.551 274.415 481.121C274.415 481.811 274.43 482.501 274.46 483.191C274.52 483.881 274.55 484.616 274.55 485.396C274.55 485.456 274.46 485.486 274.28 485.486C274.1 485.486 274.01 485.456 274.01 485.396ZM305.014 495.926C304.114 495.926 303.004 495.881 301.684 495.791C300.364 495.701 299.149 495.656 298.039 495.656C297.019 495.656 296.029 495.671 295.069 495.701C294.139 495.731 293.299 495.746 292.549 495.746C292.489 495.746 292.459 495.656 292.459 495.476C292.459 495.296 292.489 495.206 292.549 495.206C293.599 495.206 294.394 495.131 294.934 494.981C295.474 494.831 295.834 494.531 296.014 494.081C296.194 493.631 296.284 492.971 296.284 492.101V471.266C296.284 470.396 296.194 469.751 296.014 469.331C295.834 468.881 295.474 468.581 294.934 468.431C294.424 468.251 293.659 468.161 292.639 468.161C292.549 468.161 292.504 468.071 292.504 467.891C292.504 467.711 292.549 467.621 292.639 467.621C293.389 467.621 294.214 467.651 295.114 467.711C296.044 467.741 297.019 467.756 298.039 467.756C299.059 467.756 300.154 467.726 301.324 467.666C302.524 467.576 303.544 467.531 304.384 467.531C307.564 467.531 310.324 468.131 312.664 469.331C315.034 470.531 316.879 472.166 318.199 474.236C319.519 476.306 320.179 478.631 320.179 481.211C320.179 483.461 319.774 485.501 318.964 487.331C318.184 489.131 317.089 490.676 315.679 491.966C314.269 493.226 312.649 494.201 310.819 494.891C308.989 495.581 307.054 495.926 305.014 495.926ZM304.564 495.116C306.814 495.116 308.794 494.621 310.504 493.631C312.244 492.641 313.609 491.186 314.599 489.266C315.589 487.316 316.084 484.961 316.084 482.201C316.084 479.591 315.619 477.251 314.689 475.181C313.759 473.081 312.454 471.416 310.774 470.186C309.124 468.926 307.144 468.296 304.834 468.296C303.034 468.296 301.744 468.476 300.964 468.836C300.214 469.196 299.839 470.036 299.839 471.356V491.606C299.839 492.806 300.139 493.691 300.739 494.261C301.339 494.831 302.614 495.116 304.564 495.116ZM377.018 495.746H357.422C357.33 495.746 357.284 495.654 357.284 495.47C357.284 495.286 357.33 495.194 357.422 495.194C358.465 495.194 359.247 495.118 359.768 494.964C360.32 494.811 360.688 494.504 360.872 494.044C361.056 493.584 361.148 492.91 361.148 492.02V470.722C361.148 469.833 361.056 469.174 360.872 468.744C360.688 468.284 360.32 467.978 359.768 467.824C359.247 467.64 358.465 467.548 357.422 467.548C357.33 467.548 357.284 467.456 357.284 467.272C357.284 467.088 357.33 466.996 357.422 466.996H376.19C376.497 466.996 376.65 467.134 376.65 467.41L376.742 473.206C376.742 473.298 376.65 473.36 376.466 473.39C376.313 473.39 376.221 473.344 376.19 473.252C375.976 471.566 375.378 470.293 374.396 469.434C373.415 468.545 372.127 468.1 370.532 468.1H368.186C367.266 468.1 366.561 468.177 366.07 468.33C365.58 468.484 365.242 468.775 365.058 469.204C364.874 469.603 364.782 470.17 364.782 470.906V491.836C364.782 492.572 364.859 493.155 365.012 493.584C365.196 493.983 365.518 494.274 365.978 494.458C366.438 494.612 367.082 494.688 367.91 494.688H370.946C372.694 494.688 374.136 494.182 375.27 493.17C376.405 492.128 377.187 490.656 377.616 488.754C377.616 488.662 377.708 488.632 377.892 488.662C378.076 488.693 378.168 488.754 378.168 488.846C378.046 489.674 377.938 490.671 377.846 491.836C377.754 493.002 377.708 494.075 377.708 495.056C377.708 495.516 377.478 495.746 377.018 495.746ZM374.442 485.166C374.442 483.848 374.059 482.882 373.292 482.268C372.556 481.624 371.36 481.302 369.704 481.302H363.034V480.244H369.842C371.406 480.244 372.556 479.984 373.292 479.462C374.028 478.91 374.396 478.067 374.396 476.932C374.396 476.871 374.473 476.84 374.626 476.84C374.81 476.84 374.902 476.871 374.902 476.932C374.902 477.883 374.887 478.619 374.856 479.14C374.856 479.662 374.856 480.214 374.856 480.796C374.856 481.502 374.872 482.207 374.902 482.912C374.964 483.618 374.994 484.369 374.994 485.166C374.994 485.228 374.902 485.258 374.718 485.258C374.534 485.258 374.442 485.228 374.442 485.166ZM410.326 495.746C410.266 495.746 410.236 495.656 410.236 495.476C410.236 495.296 410.266 495.206 410.326 495.206C411.256 495.206 411.871 495.086 412.171 494.846C412.501 494.606 412.441 494.141 411.991 493.451L397.636 471.536C396.826 470.306 396.031 469.436 395.251 468.926C394.501 468.416 393.646 468.161 392.686 468.161C392.626 468.161 392.596 468.071 392.596 467.891C392.596 467.711 392.626 467.621 392.686 467.621C393.256 467.621 393.856 467.651 394.486 467.711C395.116 467.741 395.701 467.756 396.241 467.756C397.471 467.756 398.611 467.741 399.661 467.711C400.711 467.651 401.626 467.621 402.406 467.621C402.496 467.621 402.541 467.711 402.541 467.891C402.541 468.071 402.496 468.161 402.406 468.161C401.476 468.161 400.846 468.281 400.516 468.521C400.216 468.761 400.291 469.241 400.741 469.961L415.231 492.011C416.011 493.181 416.806 494.006 417.616 494.486C418.426 494.966 419.416 495.206 420.586 495.206C420.646 495.206 420.676 495.296 420.676 495.476C420.676 495.656 420.646 495.746 420.586 495.746C419.956 495.746 419.266 495.731 418.516 495.701C417.766 495.671 416.971 495.656 416.131 495.656C414.901 495.656 413.821 495.671 412.891 495.701C411.991 495.731 411.136 495.746 410.326 495.746ZM392.461 495.746C392.371 495.746 392.326 495.656 392.326 495.476C392.326 495.296 392.371 495.206 392.461 495.206C393.421 495.206 394.471 494.831 395.611 494.081C396.751 493.331 397.906 492.146 399.076 490.526L405.466 481.796L406.096 482.291L400.201 490.616C399.151 492.056 398.731 493.181 398.941 493.991C399.181 494.801 400.021 495.206 401.461 495.206C401.551 495.206 401.596 495.296 401.596 495.476C401.596 495.656 401.551 495.746 401.461 495.746C400.651 495.746 399.871 495.731 399.121 495.701C398.371 495.671 397.396 495.656 396.196 495.656C395.386 495.656 394.741 495.671 394.261 495.701C393.781 495.731 393.181 495.746 392.461 495.746ZM406.861 481.616L406.231 481.121L411.946 472.976C413.026 471.446 413.461 470.261 413.251 469.421C413.071 468.581 412.276 468.161 410.866 468.161C410.776 468.161 410.731 468.071 410.731 467.891C410.731 467.711 410.776 467.621 410.866 467.621C411.676 467.621 412.456 467.651 413.206 467.711C413.956 467.741 414.931 467.756 416.131 467.756C416.941 467.756 417.586 467.741 418.066 467.711C418.546 467.651 419.131 467.621 419.821 467.621C419.911 467.621 419.956 467.711 419.956 467.891C419.956 468.071 419.911 468.161 419.821 468.161C418.891 468.161 417.841 468.566 416.671 469.376C415.501 470.186 414.301 471.431 413.071 473.111L406.861 481.616ZM441.394 491.921C441.394 492.821 441.499 493.511 441.709 493.991C441.949 494.441 442.429 494.756 443.149 494.936C443.869 495.116 444.949 495.206 446.389 495.206C446.479 495.206 446.524 495.296 446.524 495.476C446.524 495.656 446.479 495.746 446.389 495.746C445.429 495.746 444.379 495.731 443.239 495.701C442.129 495.671 440.914 495.656 439.594 495.656C438.604 495.656 437.629 495.671 436.669 495.701C435.739 495.731 434.899 495.746 434.149 495.746C434.089 495.746 434.059 495.656 434.059 495.476C434.059 495.296 434.089 495.206 434.149 495.206C435.199 495.206 435.979 495.131 436.489 494.981C437.029 494.831 437.374 494.531 437.524 494.081C437.704 493.631 437.794 492.971 437.794 492.101V471.266C437.794 470.396 437.704 469.751 437.524 469.331C437.374 468.881 437.029 468.581 436.489 468.431C435.979 468.251 435.199 468.161 434.149 468.161C434.089 468.161 434.059 468.071 434.059 467.891C434.059 467.711 434.089 467.621 434.149 467.621C434.899 467.621 435.739 467.651 436.669 467.711C437.599 467.741 438.559 467.756 439.549 467.756C440.329 467.756 441.274 467.711 442.384 467.621C443.524 467.531 444.664 467.486 445.804 467.486C447.544 467.486 449.104 467.741 450.484 468.251C451.894 468.761 453.019 469.556 453.859 470.636C454.699 471.716 455.134 473.126 455.164 474.866C455.164 476.426 454.879 477.776 454.309 478.916C453.739 480.056 452.959 481.001 451.969 481.751C451.009 482.501 449.929 483.056 448.729 483.416C447.559 483.776 446.404 483.956 445.264 483.956C444.904 483.956 444.529 483.941 444.139 483.911C443.779 483.881 443.434 483.821 443.104 483.731C442.984 483.701 442.939 483.596 442.969 483.416C443.029 483.206 443.104 483.116 443.194 483.146C443.464 483.206 443.734 483.251 444.004 483.281C444.304 483.311 444.559 483.326 444.769 483.326C445.909 483.326 446.959 483.056 447.919 482.516C448.879 481.976 449.659 481.151 450.259 480.041C450.859 478.901 451.159 477.491 451.159 475.811C451.159 474.191 450.874 472.826 450.304 471.716C449.764 470.606 448.999 469.751 448.009 469.151C447.019 468.551 445.879 468.251 444.589 468.251C443.749 468.251 443.089 468.311 442.609 468.431C442.159 468.551 441.844 468.836 441.664 469.286C441.484 469.736 441.394 470.426 441.394 471.356V491.921ZM489.314 495.746H470.144C470.054 495.746 470.009 495.656 470.009 495.476C470.009 495.296 470.054 495.206 470.144 495.206C471.164 495.206 471.929 495.131 472.439 494.981C472.979 494.831 473.339 494.531 473.519 494.081C473.699 493.631 473.789 492.971 473.789 492.101V471.266C473.789 470.396 473.699 469.751 473.519 469.331C473.339 468.881 472.979 468.581 472.439 468.431C471.929 468.251 471.164 468.161 470.144 468.161C470.054 468.161 470.009 468.071 470.009 467.891C470.009 467.711 470.054 467.621 470.144 467.621H488.504C488.804 467.621 488.954 467.756 488.954 468.026L489.044 473.696C489.044 473.786 488.954 473.846 488.774 473.876C488.624 473.876 488.534 473.831 488.504 473.741C488.294 472.091 487.709 470.846 486.749 470.006C485.789 469.136 484.529 468.701 482.969 468.701H480.674C479.774 468.701 479.084 468.776 478.604 468.926C478.124 469.076 477.794 469.361 477.614 469.781C477.434 470.171 477.344 470.726 477.344 471.446V491.921C477.344 492.641 477.419 493.211 477.569 493.631C477.749 494.021 478.064 494.306 478.514 494.486C478.964 494.636 479.594 494.711 480.404 494.711H483.374C485.084 494.711 486.494 494.216 487.604 493.226C488.714 492.206 489.479 490.766 489.899 488.906C489.899 488.816 489.989 488.786 490.169 488.816C490.349 488.846 490.439 488.906 490.439 488.996C490.319 489.806 490.214 490.781 490.124 491.921C490.034 493.061 489.989 494.111 489.989 495.071C489.989 495.521 489.764 495.746 489.314 495.746ZM486.794 485.396C486.794 484.106 486.419 483.161 485.669 482.561C484.949 481.931 483.779 481.616 482.159 481.616H475.634V480.581H482.294C483.824 480.581 484.949 480.326 485.669 479.816C486.389 479.276 486.749 478.451 486.749 477.341C486.749 477.281 486.824 477.251 486.974 477.251C487.154 477.251 487.244 477.281 487.244 477.341C487.244 478.271 487.229 478.991 487.199 479.501C487.199 480.011 487.199 480.551 487.199 481.121C487.199 481.811 487.214 482.501 487.244 483.191C487.304 483.881 487.334 484.616 487.334 485.396C487.334 485.456 487.244 485.486 487.064 485.486C486.884 485.486 486.794 485.456 486.794 485.396ZM528.419 495.746C527.939 495.746 527.144 495.176 526.034 494.036C524.954 492.866 523.649 491.216 522.119 489.086C520.589 486.926 518.864 484.361 516.944 481.391L519.959 480.446C522.479 484.076 524.609 486.971 526.349 489.131C528.119 491.291 529.679 492.851 531.029 493.811C532.379 494.741 533.669 495.206 534.899 495.206C534.989 495.206 535.034 495.296 535.034 495.476C535.034 495.656 534.989 495.746 534.899 495.746C533.219 495.746 531.839 495.746 530.759 495.746C529.709 495.746 528.929 495.746 528.419 495.746ZM517.619 467.486C520.139 467.486 522.059 468.026 523.379 469.106C524.729 470.156 525.404 471.566 525.404 473.336C525.404 475.016 524.924 476.516 523.964 477.836C523.004 479.156 521.744 480.191 520.184 480.941C518.654 481.691 517.004 482.066 515.234 482.066C514.874 482.066 514.499 482.066 514.109 482.066C513.719 482.036 513.359 482.006 513.029 481.976V492.101C513.029 492.971 513.104 493.631 513.254 494.081C513.434 494.531 513.779 494.831 514.289 494.981C514.829 495.131 515.624 495.206 516.674 495.206C516.764 495.206 516.809 495.296 516.809 495.476C516.809 495.656 516.764 495.746 516.674 495.746C515.924 495.746 515.099 495.731 514.199 495.701C513.299 495.671 512.309 495.656 511.229 495.656C510.209 495.656 509.234 495.671 508.304 495.701C507.374 495.731 506.534 495.746 505.784 495.746C505.694 495.746 505.649 495.656 505.649 495.476C505.649 495.296 505.694 495.206 505.784 495.206C506.804 495.206 507.569 495.131 508.079 494.981C508.619 494.831 508.979 494.531 509.159 494.081C509.369 493.631 509.474 492.971 509.474 492.101V471.266C509.474 470.396 509.384 469.751 509.204 469.331C509.024 468.881 508.679 468.581 508.169 468.431C507.659 468.251 506.879 468.161 505.829 468.161C505.769 468.161 505.739 468.071 505.739 467.891C505.739 467.711 505.769 467.621 505.829 467.621C506.579 467.621 507.404 467.651 508.304 467.711C509.234 467.741 510.209 467.756 511.229 467.756C512.189 467.756 513.269 467.711 514.469 467.621C515.669 467.531 516.719 467.486 517.619 467.486ZM521.714 474.776C521.714 473.096 521.489 471.791 521.039 470.861C520.589 469.901 519.944 469.226 519.104 468.836C518.294 468.446 517.334 468.251 516.224 468.251C515.084 468.251 514.259 468.461 513.749 468.881C513.269 469.271 513.029 470.096 513.029 471.356V480.851C513.449 480.881 513.899 480.911 514.379 480.941C514.889 480.971 515.324 480.986 515.684 480.986C517.904 480.986 519.464 480.476 520.364 479.456C521.264 478.436 521.714 476.876 521.714 474.776ZM555.089 492.101C555.089 492.971 555.164 493.631 555.314 494.081C555.494 494.531 555.839 494.831 556.349 494.981C556.889 495.131 557.684 495.206 558.734 495.206C558.794 495.206 558.824 495.296 558.824 495.476C558.824 495.656 558.794 495.746 558.734 495.746C557.984 495.746 557.144 495.731 556.214 495.701C555.314 495.671 554.324 495.656 553.244 495.656C552.194 495.656 551.204 495.671 550.274 495.701C549.344 495.731 548.504 495.746 547.754 495.746C547.694 495.746 547.664 495.656 547.664 495.476C547.664 495.296 547.694 495.206 547.754 495.206C548.804 495.206 549.599 495.131 550.139 494.981C550.679 494.831 551.039 494.531 551.219 494.081C551.399 493.631 551.489 492.971 551.489 492.101V471.266C551.489 470.396 551.399 469.751 551.219 469.331C551.039 468.881 550.679 468.581 550.139 468.431C549.599 468.251 548.804 468.161 547.754 468.161C547.694 468.161 547.664 468.071 547.664 467.891C547.664 467.711 547.694 467.621 547.754 467.621C548.504 467.621 549.344 467.651 550.274 467.711C551.204 467.741 552.194 467.756 553.244 467.756C554.324 467.756 555.329 467.741 556.259 467.711C557.189 467.651 558.014 467.621 558.734 467.621C558.794 467.621 558.824 467.711 558.824 467.891C558.824 468.071 558.794 468.161 558.734 468.161C557.684 468.161 556.904 468.251 556.394 468.431C555.884 468.611 555.539 468.926 555.359 469.376C555.179 469.826 555.089 470.486 555.089 471.356V492.101ZM593.157 495.746H573.987C573.897 495.746 573.852 495.656 573.852 495.476C573.852 495.296 573.897 495.206 573.987 495.206C575.007 495.206 575.772 495.131 576.282 494.981C576.822 494.831 577.182 494.531 577.362 494.081C577.542 493.631 577.632 492.971 577.632 492.101V471.266C577.632 470.396 577.542 469.751 577.362 469.331C577.182 468.881 576.822 468.581 576.282 468.431C575.772 468.251 575.007 468.161 573.987 468.161C573.897 468.161 573.852 468.071 573.852 467.891C573.852 467.711 573.897 467.621 573.987 467.621H592.347C592.647 467.621 592.797 467.756 592.797 468.026L592.887 473.696C592.887 473.786 592.797 473.846 592.617 473.876C592.467 473.876 592.377 473.831 592.347 473.741C592.137 472.091 591.552 470.846 590.592 470.006C589.632 469.136 588.372 468.701 586.812 468.701H584.517C583.617 468.701 582.927 468.776 582.447 468.926C581.967 469.076 581.637 469.361 581.457 469.781C581.277 470.171 581.187 470.726 581.187 471.446V491.921C581.187 492.641 581.262 493.211 581.412 493.631C581.592 494.021 581.907 494.306 582.357 494.486C582.807 494.636 583.437 494.711 584.247 494.711H587.217C588.927 494.711 590.337 494.216 591.447 493.226C592.557 492.206 593.322 490.766 593.742 488.906C593.742 488.816 593.832 488.786 594.012 488.816C594.192 488.846 594.282 488.906 594.282 488.996C594.162 489.806 594.057 490.781 593.967 491.921C593.877 493.061 593.832 494.111 593.832 495.071C593.832 495.521 593.607 495.746 593.157 495.746ZM590.637 485.396C590.637 484.106 590.262 483.161 589.512 482.561C588.792 481.931 587.622 481.616 586.002 481.616H579.477V480.581H586.137C587.667 480.581 588.792 480.326 589.512 479.816C590.232 479.276 590.592 478.451 590.592 477.341C590.592 477.281 590.667 477.251 590.817 477.251C590.997 477.251 591.087 477.281 591.087 477.341C591.087 478.271 591.072 478.991 591.042 479.501C591.042 480.011 591.042 480.551 591.042 481.121C591.042 481.811 591.057 482.501 591.087 483.191C591.147 483.881 591.177 484.616 591.177 485.396C591.177 485.456 591.087 485.486 590.907 485.486C590.727 485.486 590.637 485.456 590.637 485.396ZM613.181 490.616V468.656L614.351 468.746V490.616C614.351 492.176 614.636 493.331 615.206 494.081C615.776 494.831 616.676 495.206 617.906 495.206C617.966 495.206 617.996 495.296 617.996 495.476C617.996 495.656 617.966 495.746 617.906 495.746C617.276 495.746 616.631 495.731 615.971 495.701C615.341 495.671 614.621 495.656 613.811 495.656C613.031 495.656 612.266 495.671 611.516 495.701C610.766 495.731 610.061 495.746 609.401 495.746C609.341 495.746 609.311 495.656 609.311 495.476C609.311 495.296 609.341 495.206 609.401 495.206C610.721 495.206 611.681 494.831 612.281 494.081C612.881 493.331 613.181 492.176 613.181 490.616ZM635.951 496.331C635.951 496.391 635.876 496.421 635.726 496.421C635.606 496.451 635.516 496.451 635.456 496.421L614.261 471.311C613.211 470.081 612.296 469.256 611.516 468.836C610.766 468.386 610.016 468.161 609.266 468.161C609.206 468.161 609.176 468.071 609.176 467.891C609.176 467.711 609.206 467.621 609.266 467.621C609.836 467.621 610.406 467.636 610.976 467.666C611.546 467.696 612.071 467.711 612.551 467.711C613.271 467.711 613.931 467.696 614.531 467.666C615.131 467.636 615.581 467.621 615.881 467.621C616.271 467.621 616.556 467.801 616.736 468.161C616.916 468.491 617.351 469.091 618.041 469.961L635.591 491.111L635.951 496.331ZM635.951 472.796V496.331L634.826 494.936V472.796C634.826 471.236 634.541 470.081 633.971 469.331C633.431 468.551 632.546 468.161 631.316 468.161C631.256 468.161 631.226 468.071 631.226 467.891C631.226 467.711 631.256 467.621 631.316 467.621C631.946 467.621 632.591 467.651 633.251 467.711C633.911 467.741 634.631 467.756 635.411 467.756C636.161 467.756 636.896 467.741 637.616 467.711C638.336 467.651 639.011 467.621 639.641 467.621C639.701 467.621 639.731 467.711 639.731 467.891C639.731 468.071 639.701 468.161 639.641 468.161C638.381 468.161 637.451 468.551 636.851 469.331C636.251 470.081 635.951 471.236 635.951 472.796ZM670.533 467.126C671.673 467.126 672.723 467.186 673.683 467.306C674.673 467.396 675.588 467.561 676.428 467.801C677.298 468.041 678.123 468.356 678.903 468.746C679.143 468.836 679.278 468.941 679.308 469.061C679.368 469.151 679.413 469.376 679.443 469.736L680.028 475.406C680.028 475.466 679.938 475.526 679.758 475.586C679.608 475.616 679.518 475.571 679.488 475.451C678.738 472.961 677.598 471.086 676.068 469.826C674.538 468.536 672.588 467.891 670.218 467.891C667.818 467.891 665.718 468.446 663.918 469.556C662.118 470.666 660.708 472.241 659.688 474.281C658.668 476.291 658.158 478.676 658.158 481.436C658.158 483.476 658.473 485.351 659.103 487.061C659.733 488.771 660.603 490.271 661.713 491.561C662.853 492.821 664.158 493.796 665.628 494.486C667.128 495.176 668.733 495.521 670.443 495.521C672.843 495.521 674.778 494.921 676.248 493.721C677.748 492.521 678.948 490.691 679.848 488.231C679.908 488.141 680.013 488.111 680.163 488.141C680.313 488.171 680.388 488.231 680.388 488.321L679.893 493.451C679.863 493.811 679.803 494.036 679.713 494.126C679.653 494.216 679.518 494.321 679.308 494.441C677.778 495.131 676.308 495.611 674.898 495.881C673.518 496.181 672.033 496.331 670.443 496.331C667.263 496.331 664.428 495.716 661.938 494.486C659.478 493.226 657.543 491.501 656.133 489.311C654.723 487.091 654.018 484.526 654.018 481.616C654.018 479.456 654.423 477.491 655.233 475.721C656.073 473.951 657.243 472.421 658.743 471.131C660.243 469.841 661.983 468.851 663.963 468.161C665.973 467.471 668.163 467.126 670.533 467.126ZM714.929 495.746H695.759C695.669 495.746 695.624 495.656 695.624 495.476C695.624 495.296 695.669 495.206 695.759 495.206C696.779 495.206 697.544 495.131 698.054 494.981C698.594 494.831 698.954 494.531 699.134 494.081C699.314 493.631 699.404 492.971 699.404 492.101V471.266C699.404 470.396 699.314 469.751 699.134 469.331C698.954 468.881 698.594 468.581 698.054 468.431C697.544 468.251 696.779 468.161 695.759 468.161C695.669 468.161 695.624 468.071 695.624 467.891C695.624 467.711 695.669 467.621 695.759 467.621H714.119C714.419 467.621 714.569 467.756 714.569 468.026L714.659 473.696C714.659 473.786 714.569 473.846 714.389 473.876C714.239 473.876 714.149 473.831 714.119 473.741C713.909 472.091 713.324 470.846 712.364 470.006C711.404 469.136 710.144 468.701 708.584 468.701H706.289C705.389 468.701 704.699 468.776 704.219 468.926C703.739 469.076 703.409 469.361 703.229 469.781C703.049 470.171 702.959 470.726 702.959 471.446V491.921C702.959 492.641 703.034 493.211 703.184 493.631C703.364 494.021 703.679 494.306 704.129 494.486C704.579 494.636 705.209 494.711 706.019 494.711H708.989C710.699 494.711 712.109 494.216 713.219 493.226C714.329 492.206 715.094 490.766 715.514 488.906C715.514 488.816 715.604 488.786 715.784 488.816C715.964 488.846 716.054 488.906 716.054 488.996C715.934 489.806 715.829 490.781 715.739 491.921C715.649 493.061 715.604 494.111 715.604 495.071C715.604 495.521 715.379 495.746 714.929 495.746ZM712.409 485.396C712.409 484.106 712.034 483.161 711.284 482.561C710.564 481.931 709.394 481.616 707.774 481.616H701.249V480.581H707.909C709.439 480.581 710.564 480.326 711.284 479.816C712.004 479.276 712.364 478.451 712.364 477.341C712.364 477.281 712.439 477.251 712.589 477.251C712.769 477.251 712.859 477.281 712.859 477.341C712.859 478.271 712.844 478.991 712.814 479.501C712.814 480.011 712.814 480.551 712.814 481.121C712.814 481.811 712.829 482.501 712.859 483.191C712.919 483.881 712.949 484.616 712.949 485.396C712.949 485.456 712.859 485.486 712.679 485.486C712.499 485.486 712.409 485.456 712.409 485.396ZM736.394 472.661C736.394 473.861 736.694 474.896 737.294 475.766C737.894 476.636 738.674 477.416 739.634 478.106C740.594 478.766 741.614 479.426 742.694 480.086C743.804 480.746 744.869 481.451 745.889 482.201C746.939 482.951 747.794 483.836 748.454 484.856C749.144 485.846 749.489 487.061 749.489 488.501C749.489 489.971 749.099 491.291 748.319 492.461C747.569 493.631 746.489 494.561 745.079 495.251C743.699 495.941 742.034 496.286 740.084 496.286C739.304 496.286 738.509 496.211 737.699 496.061C736.919 495.941 736.169 495.761 735.449 495.521C734.729 495.281 734.069 494.981 733.469 494.621C733.349 494.531 733.244 494.426 733.154 494.306C733.094 494.186 733.064 494.006 733.064 493.766L732.614 487.331C732.584 487.181 732.644 487.106 732.794 487.106C732.974 487.076 733.079 487.121 733.109 487.241C733.379 488.171 733.739 489.116 734.189 490.076C734.639 491.036 735.179 491.921 735.809 492.731C736.439 493.511 737.189 494.156 738.059 494.666C738.959 495.176 739.994 495.431 741.164 495.431C741.974 495.431 742.754 495.281 743.504 494.981C744.284 494.681 744.914 494.186 745.394 493.496C745.874 492.776 746.114 491.786 746.114 490.526C746.114 489.086 745.799 487.871 745.169 486.881C744.539 485.891 743.729 485.036 742.739 484.316C741.749 483.596 740.699 482.906 739.589 482.246C738.539 481.586 737.519 480.896 736.529 480.176C735.569 479.456 734.789 478.631 734.189 477.701C733.589 476.741 733.289 475.586 733.289 474.236C733.289 472.616 733.709 471.281 734.549 470.231C735.419 469.181 736.514 468.401 737.834 467.891C739.184 467.381 740.564 467.126 741.974 467.126C742.904 467.126 743.849 467.216 744.809 467.396C745.769 467.576 746.639 467.831 747.419 468.161C747.689 468.281 747.869 468.416 747.959 468.566C748.049 468.686 748.094 468.821 748.094 468.971L748.319 474.596C748.319 474.686 748.244 474.746 748.094 474.776C747.944 474.806 747.839 474.761 747.779 474.641C747.689 474.131 747.494 473.501 747.194 472.751C746.894 471.971 746.489 471.221 745.979 470.501C745.469 469.751 744.809 469.136 743.999 468.656C743.219 468.146 742.259 467.891 741.119 467.891C740.069 467.891 739.199 468.116 738.509 468.566C737.819 468.986 737.294 469.556 736.934 470.276C736.574 470.966 736.394 471.761 736.394 472.661Z" fill="#0F1C2E"/>
<path d="M209.643 320.662C223.598 296.607 245.009 283.04 272.004 278.178C310.35 271.272 344.568 280.954 374.723 304.879C379.946 309.023 384.702 313.644 389.211 318.514C389.986 319.351 391.019 320.045 391.078 321.788C383.469 322.206 376.013 322.866 368.963 319.389C366.953 318.397 365.931 316.433 364.557 314.83C350.676 298.639 333.64 287.235 312.407 282.47C297.321 279.084 282.156 279.137 267.36 283.825C244.696 291.006 231.136 306.688 225.226 328.895C214.071 370.807 239.242 414.054 281.323 424.297C304.662 429.979 326.206 424.722 345.443 410.667C357.962 401.521 367.888 389.977 376.901 377.617C387.953 362.461 397.982 346.565 410.895 332.754C434.044 307.996 461.233 289.452 494.965 281.396C521.852 274.974 547.74 277.899 572.248 290.845C576.519 293.101 576.597 293.145 574.38 297.469C572.842 300.47 571.917 303.79 569.846 306.415C568.313 306.559 567.786 305.473 567.065 304.771C551.949 290.051 533.556 283.73 512.428 283.865C489.261 284.013 470.422 293.676 453.82 308.556C439.116 321.735 427.894 337.68 416.653 353.582C404.701 370.49 392.231 386.942 375.881 400.139C352.239 419.224 325.543 431.203 294.449 430.67C264.729 430.161 238.557 420.431 218.645 397.842C208.844 386.724 203.515 373.618 201.952 358.95C200.514 345.449 203.556 332.923 209.643 320.662Z" fill="#0F1C2E"/>
<path d="M461.149 408.515C479.422 425.182 501.223 432.026 525.466 431.836C541.01 431.715 555.646 428.34 567.664 417.648C570.5 415.125 572.732 412.075 575.338 409.384C581.155 414.365 581.166 420.312 575.494 424.796C569.044 429.896 561.324 432.206 553.388 433.535C517.537 439.538 483.427 434.845 452.004 416.211C437.987 407.898 426.898 396.671 420.772 381.318C418.447 375.493 417.952 369.481 418.011 363.319C418.035 360.775 419.605 360.862 421.337 360.804C428.638 360.56 435.951 360.489 443.236 360.017C477.032 357.826 510.775 355.13 544.079 348.709C547.676 348.015 551.221 347.059 555.109 346.151C555.487 350.626 554.381 354.612 553.821 358.634C552.913 365.147 551.899 371.646 550.971 378.156C550.78 379.498 550.709 380.854 548.814 380.721C546.907 380.588 547.053 379.125 547.007 377.842C546.964 376.666 547.009 375.488 546.968 374.313C546.777 368.795 544.614 365.975 539.264 364.127C534.33 362.422 529.123 362.117 524.032 361.953C507.027 361.403 490.029 362.304 473.034 362.916C463.342 363.264 453.65 363.649 443.954 363.819C441.043 363.87 439.882 364.724 440.083 367.702C440.871 379.371 445.691 389.463 452.422 398.831C454.914 402.299 457.785 405.46 461.149 408.515Z" fill="#0F1C2E"/>
</svg>
